<svg width="156" height="61" viewBox="0 0 156 61" fill="none" xmlns="http://www.w3.org/2000/svg">
<g filter="url(#filter0_di_166_78)">
<rect x="10" y="10" width="40.4" height="40.4" rx="20.2" fill="#0A0A0A" fill-opacity="0.1" shape-rendering="crispEdges"/>
<rect x="10.1443" y="10.1443" width="40.1114" height="40.1114" rx="20.0557" stroke="#0FF0FC" stroke-width="0.288571" shape-rendering="crispEdges"/>
<path d="M34.0721 36.66C33.9708 36.4667 33.888 36.2273 33.8235 35.942C33.7683 35.6474 33.7269 35.3436 33.6992 35.0306C33.4415 35.2883 33.1515 35.5323 32.8293 35.7624C32.5163 35.9926 32.1711 36.1951 31.7937 36.37C31.407 36.5449 30.9974 36.683 30.5647 36.7843C30.132 36.8855 29.6717 36.9362 29.1838 36.9362C28.3921 36.9362 27.6741 36.8211 27.0297 36.591C26.3945 36.3608 25.856 36.0478 25.4141 35.652C24.963 35.2653 24.6132 34.805 24.3646 34.2711C24.1253 33.728 24.0056 33.1434 24.0056 32.5174C24.0056 31.6981 24.1667 30.9801 24.4889 30.3633C24.8203 29.7465 25.2852 29.231 25.8836 28.8167C26.4819 28.4117 27.2 28.1079 28.0377 27.9054C28.8846 27.7028 29.8282 27.6016 30.8685 27.6016H33.6578V26.4278C33.6578 25.9768 33.575 25.5717 33.4093 25.2127C33.2436 24.8537 33.0088 24.5453 32.705 24.2875C32.4012 24.0389 32.0284 23.8456 31.5865 23.7075C31.1539 23.5695 30.666 23.5004 30.1228 23.5004C29.6165 23.5004 29.1608 23.5649 28.7558 23.6937C28.3599 23.8226 28.0239 23.9929 27.7477 24.2047C27.4716 24.4164 27.2552 24.6695 27.0987 24.9641C26.9514 25.2495 26.8778 25.5487 26.8778 25.8617H24.3094C24.3186 25.3185 24.4567 24.7846 24.7237 24.2599C24.9998 23.7352 25.3957 23.2611 25.9112 22.8376C26.4175 22.4233 27.0343 22.0873 27.7615 21.8296C28.498 21.5718 29.3311 21.4429 30.2609 21.4429C31.1078 21.4429 31.8949 21.5488 32.6222 21.7605C33.3494 21.9631 33.98 22.2714 34.5139 22.6857C35.0387 23.1092 35.4529 23.6339 35.7567 24.2599C36.0605 24.8859 36.2124 25.6177 36.2124 26.4555V33.4012C36.2124 33.8983 36.2584 34.4276 36.3505 34.9892C36.4425 35.5415 36.5714 36.0248 36.7371 36.4391V36.66H34.0721ZM29.5567 34.713C30.0538 34.713 30.5187 34.6486 30.9513 34.5197C31.384 34.3908 31.7798 34.2205 32.1389 34.0088C32.4887 33.797 32.7925 33.5577 33.0502 33.2907C33.308 33.0145 33.5105 32.7292 33.6578 32.4346V29.4105H31.2827C30.399 29.4105 29.6257 29.4887 28.9629 29.6452C28.3093 29.7925 27.7892 30.0227 27.4025 30.3357C27.1263 30.5566 26.9146 30.819 26.7673 31.1228C26.6292 31.4265 26.5602 31.7718 26.5602 32.1584C26.5602 32.5266 26.62 32.8672 26.7397 33.1802C26.8686 33.4932 27.0573 33.7602 27.3059 33.9811C27.5544 34.2113 27.8674 34.3908 28.2448 34.5197C28.6223 34.6486 29.0596 34.713 29.5567 34.713Z" fill="white"/>
</g>
<path d="M69.3691 34.8875C69.3691 34.3641 69.248 33.9227 69.0059 33.5633C68.7715 33.2039 68.4668 32.8992 68.0918 32.6492C67.7168 32.407 67.3027 32.2039 66.8496 32.0398C66.4043 31.8758 65.9746 31.7273 65.5605 31.5945C64.959 31.3992 64.3457 31.1648 63.7207 30.8914C63.1035 30.6102 62.541 30.2742 62.0332 29.8836C61.5176 29.4852 61.0957 29.0164 60.7676 28.4773C60.4473 27.9305 60.2871 27.2898 60.2871 26.5555C60.2871 25.8211 60.4473 25.1648 60.7676 24.5867C61.0957 24.0086 61.5215 23.5203 62.0449 23.1219C62.5684 22.7234 63.1621 22.4227 63.8262 22.2195C64.4902 22.0086 65.1582 21.9031 65.8301 21.9031C66.5723 21.9031 67.2871 22.0281 67.9746 22.2781C68.6621 22.5203 69.2715 22.8641 69.8027 23.3094C70.334 23.7547 70.7598 24.2937 71.0801 24.9266C71.4004 25.5594 71.5684 26.2664 71.584 27.0477H69.3574C69.2949 26.5555 69.1738 26.1102 68.9941 25.7117C68.8145 25.3055 68.5762 24.9578 68.2793 24.6687C67.9824 24.3797 67.627 24.157 67.2129 24.0008C66.8066 23.8367 66.3457 23.7547 65.8301 23.7547C65.416 23.7547 65.0098 23.8133 64.6113 23.9305C64.2207 24.0477 63.873 24.2234 63.5684 24.4578C63.2559 24.6922 63.0059 24.9812 62.8184 25.325C62.6387 25.6687 62.5488 26.0672 62.5488 26.5203C62.5566 27.0125 62.6816 27.4305 62.9238 27.7742C63.166 28.1102 63.4746 28.3953 63.8496 28.6297C64.2168 28.8641 64.6152 29.0594 65.0449 29.2156C65.4824 29.3719 65.8926 29.5086 66.2754 29.6258C66.9082 29.8211 67.541 30.0594 68.1738 30.3406C68.8066 30.6141 69.3848 30.9656 69.9082 31.3953C70.4238 31.7937 70.8379 32.282 71.1504 32.8602C71.4707 33.4383 71.6309 34.1062 71.6309 34.8641C71.6309 35.6297 71.459 36.2977 71.1152 36.868C70.7793 37.4383 70.3418 37.9109 69.8027 38.2859C69.2637 38.6687 68.6543 38.9578 67.9746 39.1531C67.2949 39.3406 66.6152 39.4344 65.9355 39.4344C65.123 39.4344 64.3223 39.2977 63.5332 39.0242C62.752 38.7508 62.0723 38.3562 61.4941 37.8406C60.9785 37.3953 60.5684 36.8758 60.2637 36.282C59.9668 35.6805 59.8066 35.0125 59.7832 34.2781H61.998C62.0684 34.8094 62.2129 35.282 62.4316 35.6961C62.6504 36.1023 62.9316 36.4461 63.2754 36.7273C63.6191 37.0164 64.0137 37.2352 64.459 37.3836C64.9121 37.5242 65.4043 37.5945 65.9355 37.5945C66.3574 37.5945 66.7715 37.5437 67.1777 37.4422C67.5918 37.3328 67.959 37.1648 68.2793 36.9383C68.5996 36.7195 68.8613 36.4422 69.0645 36.1062C69.2676 35.7625 69.3691 35.3562 69.3691 34.8875ZM77.0215 28.407C77.1934 28.1492 77.3848 27.9148 77.5957 27.7039C77.8066 27.4852 78.0293 27.2937 78.2637 27.1297C78.6387 26.8562 79.0488 26.6492 79.4941 26.5086C79.9473 26.368 80.4277 26.2937 80.9355 26.2859C81.5996 26.2859 82.2012 26.3836 82.7402 26.5789C83.2871 26.7664 83.752 27.0633 84.1348 27.4695C84.5176 27.8758 84.8105 28.3914 85.0137 29.0164C85.2246 29.6336 85.3301 30.368 85.3301 31.2195V39.2H83.1621V31.1961C83.1621 30.6961 83.1035 30.2586 82.9863 29.8836C82.8691 29.5008 82.6973 29.1844 82.4707 28.9344C82.2285 28.6609 81.9238 28.4578 81.5566 28.325C81.1895 28.1844 80.7676 28.118 80.291 28.1258C79.9004 28.1258 79.5293 28.1805 79.1777 28.2898C78.8262 28.3992 78.502 28.5555 78.2051 28.7586C77.9707 28.9148 77.752 29.0984 77.5488 29.3094C77.3535 29.5125 77.1777 29.7391 77.0215 29.9891V39.2H74.8535V21.2H77.0215V28.407ZM89.6074 26.5203H96.0879V37.325H100.225V39.2H89.6074V37.325H93.9199V28.407H89.6074V26.5203ZM93.6387 23.1922C93.6387 23.0047 93.666 22.8289 93.7207 22.6648C93.7832 22.5008 93.877 22.3602 94.002 22.243C94.1035 22.1414 94.2324 22.0633 94.3887 22.0086C94.5527 21.9461 94.7363 21.9148 94.9395 21.9148C95.1426 21.9148 95.3223 21.9461 95.4785 22.0086C95.6348 22.0633 95.7637 22.1414 95.8652 22.243C95.9902 22.3523 96.084 22.4891 96.1465 22.6531C96.209 22.8172 96.2402 22.9969 96.2402 23.1922C96.2402 23.5437 96.1309 23.8367 95.9121 24.0711C95.6934 24.3055 95.3691 24.4227 94.9395 24.4227C94.502 24.4227 94.1738 24.3055 93.9551 24.0711C93.7441 23.8367 93.6387 23.5437 93.6387 23.1922ZM109.283 39.4344C108.393 39.4344 107.572 39.282 106.822 38.9773C106.08 38.6727 105.443 38.2469 104.912 37.7C104.381 37.1531 103.967 36.5047 103.67 35.7547C103.373 35.0047 103.225 34.1883 103.225 33.3055V32.8133C103.225 31.7898 103.389 30.8758 103.717 30.0711C104.045 29.2586 104.482 28.5711 105.029 28.0086C105.568 27.4539 106.182 27.0281 106.869 26.7312C107.564 26.4344 108.275 26.2859 109.002 26.2859C109.916 26.2859 110.713 26.4461 111.393 26.7664C112.08 27.0789 112.65 27.5125 113.104 28.0672C113.557 28.6297 113.893 29.2898 114.111 30.0477C114.338 30.8055 114.451 31.6258 114.451 32.5086V33.4812H105.393V33.5633C105.447 34.1805 105.568 34.7234 105.756 35.1922C105.951 35.6609 106.217 36.075 106.553 36.4344C106.896 36.8172 107.311 37.118 107.795 37.3367C108.279 37.5555 108.814 37.6648 109.4 37.6648C110.174 37.6648 110.861 37.5086 111.463 37.1961C112.064 36.8836 112.564 36.4695 112.963 35.9539L114.287 36.9852C113.865 37.6258 113.232 38.1961 112.389 38.6961C111.553 39.1883 110.518 39.4344 109.283 39.4344ZM109.002 28.0672C108.564 28.0672 108.15 28.1492 107.76 28.3133C107.369 28.4695 107.018 28.7 106.705 29.0047C106.393 29.3172 106.127 29.7 105.908 30.1531C105.697 30.5984 105.549 31.1141 105.463 31.7H112.283V31.5945C112.283 31.2039 112.209 30.7859 112.061 30.3406C111.912 29.8875 111.705 29.4969 111.439 29.1687C111.174 28.8406 110.838 28.575 110.432 28.3719C110.033 28.1687 109.557 28.0672 109.002 28.0672ZM118.436 21.2H124.916V37.325H129.053V39.2H118.436V37.325H122.748V23.0867H118.436V21.2ZM132.1 32.7547C132.1 31.8094 132.217 30.9422 132.451 30.1531C132.693 29.3562 133.037 28.6727 133.482 28.1023C133.92 27.532 134.451 27.0867 135.076 26.7664C135.701 26.4461 136.4 26.2859 137.174 26.2859C137.932 26.2859 138.592 26.4148 139.154 26.6727C139.725 26.9227 140.217 27.2898 140.631 27.7742V21.2H142.799V39.2H140.807L140.713 37.8641C140.291 38.3797 139.787 38.7703 139.201 39.0359C138.615 39.3016 137.932 39.4344 137.15 39.4344C136.385 39.4344 135.689 39.2703 135.064 38.9422C134.447 38.6141 133.92 38.1609 133.482 37.5828C133.045 37.0047 132.705 36.325 132.463 35.5437C132.221 34.7547 132.1 33.907 132.1 33.0008V32.7547ZM134.268 33.0008C134.268 33.618 134.334 34.2039 134.467 34.7586C134.6 35.3133 134.807 35.8016 135.088 36.2234C135.361 36.6453 135.713 36.9812 136.143 37.2312C136.572 37.4734 137.088 37.5945 137.689 37.5945C138.416 37.5945 139.018 37.4305 139.494 37.1023C139.971 36.7742 140.35 36.3328 140.631 35.7781V29.8953C140.35 29.3797 139.971 28.9578 139.494 28.6297C139.018 28.2937 138.424 28.1258 137.713 28.1258C137.104 28.1258 136.58 28.2508 136.143 28.5008C135.713 28.7508 135.361 29.0867 135.088 29.5086C134.807 29.9383 134.6 30.4344 134.467 30.9969C134.334 31.5516 134.268 32.1375 134.268 32.7547V33.0008Z" fill="#F5F5F7"/>
<defs>
<filter id="filter0_di_166_78" x="9.42286" y="9.42286" width="41.5547" height="41.5543" filterUnits="userSpaceOnUse" color-interpolation-filters="sRGB">
<feFlood flood-opacity="0" result="BackgroundImageFix"/>
<feColorMatrix in="SourceAlpha" type="matrix" values="0 0 0 0 0 0 0 0 0 0 0 0 0 0 0 0 0 0 127 0" result="hardAlpha"/>
<feOffset/>
<feGaussianBlur stdDeviation="0.288571"/>
<feComposite in2="hardAlpha" operator="out"/>
<feColorMatrix type="matrix" values="0 0 0 0 0.960784 0 0 0 0 0.960784 0 0 0 0 0.968627 0 0 0 1 0"/>
<feBlend mode="normal" in2="BackgroundImageFix" result="effect1_dropShadow_166_78"/>
<feBlend mode="normal" in="SourceGraphic" in2="effect1_dropShadow_166_78" result="shape"/>
<feColorMatrix in="SourceAlpha" type="matrix" values="0 0 0 0 0 0 0 0 0 0 0 0 0 0 0 0 0 0 127 0" result="hardAlpha"/>
<feOffset/>
<feGaussianBlur stdDeviation="2.74143"/>
<feComposite in2="hardAlpha" operator="arithmetic" k2="-1" k3="1"/>
<feColorMatrix type="matrix" values="0 0 0 0 0.960784 0 0 0 0 0.960784 0 0 0 0 0.968627 0 0 0 1 0"/>
<feBlend mode="normal" in2="shape" result="effect2_innerShadow_166_78"/>
</filter>
</defs>
</svg>
