<svg width="1420" height="819" viewBox="0 0 1420 819" fill="none" xmlns="http://www.w3.org/2000/svg">
<g filter="url(#filter0_d_267_2075)">
<g clip-path="url(#clip0_267_2075)">
<rect x="6" y="6.4" width="1408" height="806" rx="40" fill="#0A0A0A" fill-opacity="0.6" shape-rendering="crispEdges"/>
<g filter="url(#filter1_d_267_2075)">
<path d="M977.5 5.9L1140.08 170.206C1151.26 181.509 1164.98 189.982 1180.1 194.922L1192.68 199.034C1202.71 202.312 1213.19 203.983 1223.74 203.983H1414M394.76 7.4L284.101 161.271C269.739 181.241 248.522 195.217 224.504 200.527L219.541 201.624C212.452 203.192 205.213 203.983 197.952 203.983H6M6 623.296H197.187C209.647 623.296 221.998 625.625 233.603 630.162L248.896 636.142C261.769 641.175 273.458 648.823 283.227 658.601L354.141 729.587L439.867 815.4M995.018 815.4L1136.58 662.178C1147.17 650.718 1160.3 641.894 1174.9 636.413L1190.28 630.645C1201.51 626.43 1213.41 624.271 1225.41 624.271H1409.59" stroke="#F5F5F7" stroke-opacity="0.18"/>
</g>
<g filter="url(#filter2_f_267_2075)">
<path d="M699.284 253.918L509 -74.3681L909 -74.3681L699.284 253.918Z" fill="#87A8AA"/>
<path d="M699.284 253.918L509 -74.3681L909 -74.3681L699.284 253.918Z" fill="#F5F5F7" fill-opacity="0.3"/>
</g>
<g filter="url(#filter3_df_267_2075)">
<circle cx="794.562" cy="81.8488" r="0.260773" fill="white"/>
<circle cx="531.145" cy="59.3298" r="0.355688" fill="white"/>
<circle cx="523.113" cy="129.352" r="0.355516" fill="white"/>
<circle cx="909.665" cy="98.0771" r="0.348802" fill="white"/>
<circle cx="858.885" cy="108.511" r="0.26636" fill="white"/>
<circle cx="467.957" cy="128.479" r="0.476188" fill="white"/>
<circle cx="794.618" cy="34.1712" r="0.4753" fill="white"/>
<circle cx="762.415" cy="122.855" r="0.479126" fill="white"/>
<circle cx="445.721" cy="34.2965" r="0.267461" fill="white"/>
<circle cx="684.973" cy="112.683" r="0.285759" fill="white"/>
<circle cx="514.024" cy="94.0449" r="0.480561" fill="white"/>
<circle cx="743.35" cy="65.0342" r="0.279793" fill="white"/>
<circle cx="917.047" cy="54.869" r="0.365755" fill="white"/>
<circle cx="750.115" cy="143.758" r="0.425275" fill="white"/>
<circle cx="876.214" cy="118.306" r="0.279988" fill="white"/>
<circle cx="422.296" cy="113.915" r="0.434562" fill="white"/>
<circle cx="619.932" cy="96.4363" r="0.293151" fill="white"/>
<circle cx="780.998" cy="67.0442" r="0.470982" fill="white"/>
<circle cx="625.247" cy="103.123" r="0.313209" fill="white"/>
<circle cx="823.882" cy="127.483" r="0.420845" fill="white"/>
<circle cx="750.34" cy="80.931" r="0.441164" fill="white"/>
<circle cx="776.71" cy="92.858" r="0.364486" fill="white"/>
<circle cx="753.18" cy="124.163" r="0.25181" fill="white"/>
<circle cx="607.841" cy="52.8807" r="0.350978" fill="white"/>
<circle cx="689.398" cy="133.595" r="0.303917" fill="white"/>
<circle cx="555.137" cy="9.17528" r="0.457414" fill="white"/>
<circle cx="552.962" cy="71.7553" r="0.48138" fill="white"/>
<circle cx="518.525" cy="81.0762" r="0.370784" fill="white"/>
<circle cx="628.538" cy="46.2697" r="0.295777" fill="white"/>
<circle cx="567.187" cy="113.966" r="0.352974" fill="white"/>
<circle cx="727.819" cy="129.97" r="0.375692" fill="white"/>
<circle cx="606.014" cy="70.2395" r="0.255963" fill="white"/>
<circle cx="620.141" cy="22.4083" r="0.363925" fill="white"/>
<circle cx="568.596" cy="51.8682" r="0.359487" fill="white"/>
<circle cx="805.59" cy="147.062" r="0.47254" fill="white"/>
<circle cx="686.334" cy="140.138" r="0.396519" fill="white"/>
<circle cx="758.154" cy="23.6181" r="0.446928" fill="white"/>
<circle cx="766.059" cy="29.8951" r="0.289813" fill="white"/>
<circle cx="439.7" cy="47.8101" r="0.291746" fill="white"/>
<circle cx="511.305" cy="68.3117" r="0.480965" fill="white"/>
<circle cx="716.818" cy="38.9649" r="0.414182" fill="white"/>
<circle cx="861.45" cy="17.8728" r="0.489025" fill="white"/>
<circle cx="446.673" cy="28.8895" r="0.450293" fill="white"/>
<circle cx="857.789" cy="131.675" r="0.289481" fill="white"/>
<circle cx="747.904" cy="132.31" r="0.306771" fill="white"/>
<circle cx="579.097" cy="33.9686" r="0.49898" fill="white"/>
<circle cx="839.791" cy="83.7762" r="0.402411" fill="white"/>
<circle cx="554.199" cy="96.5511" r="0.497438" fill="white"/>
<circle cx="499.194" cy="94.22" r="0.302901" fill="white"/>
<circle cx="439.692" cy="87.4851" r="0.338454" fill="white"/>
<circle cx="866.766" cy="54.8577" r="0.257884" fill="white"/>
<circle cx="750.512" cy="138.866" r="0.425732" fill="white"/>
<circle cx="684.94" cy="6.72177" r="0.424495" fill="white"/>
<circle cx="658.447" cy="125.751" r="0.39793" fill="white"/>
<circle cx="459.648" cy="32.3334" r="0.284483" fill="white"/>
<circle cx="898.418" cy="78.7149" r="0.292642" fill="white"/>
<circle cx="785.491" cy="125.1" r="0.418294" fill="white"/>
<circle cx="844.735" cy="54.3069" r="0.379581" fill="white"/>
<circle cx="625.506" cy="49.4846" r="0.391051" fill="white"/>
<circle cx="760.067" cy="96.1284" r="0.402846" fill="white"/>
<circle cx="473.528" cy="17.0022" r="0.385507" fill="white"/>
<circle cx="632.458" cy="131.13" r="0.372392" fill="white"/>
<circle cx="611.978" cy="74.2747" r="0.417081" fill="white"/>
<circle cx="611.144" cy="68.9306" r="0.251696" fill="white"/>
<circle cx="838.646" cy="115.281" r="0.382285" fill="white"/>
<circle cx="773.181" cy="73.6987" r="0.342847" fill="white"/>
<circle cx="835.694" cy="10.1517" r="0.318882" fill="white"/>
<circle cx="859.741" cy="82.0681" r="0.264786" fill="white"/>
<circle cx="833.692" cy="7.06613" r="0.387454" fill="white"/>
<circle cx="449.573" cy="88.6343" r="0.263924" fill="white"/>
<circle cx="492.149" cy="112.154" r="0.422133" fill="white"/>
<circle cx="465.939" cy="95.0448" r="0.325972" fill="white"/>
<circle cx="877.018" cy="53.6449" r="0.427712" fill="white"/>
<circle cx="593.705" cy="47.54" r="0.369044" fill="white"/>
<circle cx="519.91" cy="13.7455" r="0.26717" fill="white"/>
<circle cx="467.556" cy="60.5158" r="0.413856" fill="white"/>
<circle cx="782.962" cy="129.489" r="0.382108" fill="white"/>
<circle cx="759.977" cy="49.5722" r="0.457253" fill="white"/>
<circle cx="433.849" cy="93.9446" r="0.290802" fill="white"/>
<circle cx="497.537" cy="150.961" r="0.345686" fill="white"/>
<circle cx="899.135" cy="66.0579" r="0.311148" fill="white"/>
<circle cx="490.992" cy="109.027" r="0.457278" fill="white"/>
<circle cx="772.816" cy="124.199" r="0.39626" fill="white"/>
<circle cx="865.21" cy="74.5841" r="0.440551" fill="white"/>
<circle cx="813.867" cy="110.648" r="0.274968" fill="white"/>
<circle cx="488.165" cy="11.0209" r="0.252737" fill="white"/>
<circle cx="766.307" cy="60.2241" r="0.279322" fill="white"/>
<circle cx="869.546" cy="33.9778" r="0.317662" fill="white"/>
<circle cx="748.327" cy="28.3514" r="0.331083" fill="white"/>
<circle cx="533.773" cy="93.8795" r="0.366338" fill="white"/>
<circle cx="470.49" cy="6.59686" r="0.275236" fill="white"/>
<circle cx="815.533" cy="143.278" r="0.339628" fill="white"/>
<circle cx="890.171" cy="73.314" r="0.280538" fill="white"/>
<circle cx="650.866" cy="92.4456" r="0.391245" fill="white"/>
<circle cx="787.018" cy="69.9089" r="0.47071" fill="white"/>
<circle cx="653.217" cy="144.916" r="0.406308" fill="white"/>
<circle cx="467.037" cy="71.3661" r="0.419609" fill="white"/>
<circle cx="471.314" cy="95.6862" r="0.411822" fill="white"/>
<circle cx="698.098" cy="51.9527" r="0.378962" fill="white"/>
<circle cx="854.239" cy="37.2315" r="0.252509" fill="white"/>
<circle cx="421.387" cy="74.8368" r="0.357941" fill="white"/>
<circle cx="742.6" cy="119.009" r="0.328838" fill="white"/>
<circle cx="785.61" cy="123.694" r="0.383601" fill="white"/>
<circle cx="472.565" cy="72.0405" r="0.291277" fill="white"/>
<circle cx="899.518" cy="70.6529" r="0.471232" fill="white"/>
<circle cx="517.871" cy="125.706" r="0.326465" fill="white"/>
<circle cx="754.996" cy="81.3164" r="0.256216" fill="white"/>
<circle cx="794.045" cy="53.6733" r="0.256003" fill="white"/>
<circle cx="909.336" cy="74.6537" r="0.40022" fill="white"/>
<circle cx="860.938" cy="77.3901" r="0.278095" fill="white"/>
<circle cx="863.732" cy="25.0083" r="0.38775" fill="white"/>
<circle cx="511.297" cy="60.5211" r="0.460975" fill="white"/>
<circle cx="734.171" cy="85.4535" r="0.421457" fill="white"/>
<circle cx="497.944" cy="64.2481" r="0.404773" fill="white"/>
<circle cx="471.825" cy="61.2881" r="0.31086" fill="white"/>
<circle cx="590.312" cy="64.9445" r="0.458693" fill="white"/>
<circle cx="422.837" cy="34.5294" r="0.426879" fill="white"/>
<circle cx="697.226" cy="115.316" r="0.358877" fill="white"/>
<circle cx="912.485" cy="91.6692" r="0.496342" fill="white"/>
<circle cx="903.511" cy="139.36" r="0.313554" fill="white"/>
<circle cx="721.317" cy="111.342" r="0.278009" fill="white"/>
<circle cx="832.829" cy="114.957" r="0.493282" fill="white"/>
<circle cx="440.235" cy="81.4279" r="0.365759" fill="white"/>
<circle cx="896.029" cy="138.375" r="0.43161" fill="white"/>
<circle cx="622.648" cy="80.9919" r="0.263332" fill="white"/>
<circle cx="669.46" cy="40.7992" r="0.344353" fill="white"/>
<circle cx="789.419" cy="49.7506" r="0.407279" fill="white"/>
<circle cx="591.451" cy="124.333" r="0.455259" fill="white"/>
<circle cx="534.355" cy="67.0123" r="0.42703" fill="white"/>
<circle cx="772.902" cy="146.194" r="0.36464" fill="white"/>
<circle cx="507.7" cy="149.974" r="0.383884" fill="white"/>
<circle cx="802.072" cy="133.315" r="0.474651" fill="white"/>
<circle cx="453.047" cy="102.846" r="0.349825" fill="white"/>
<circle cx="503.571" cy="101.61" r="0.430593" fill="white"/>
<circle cx="658.91" cy="87.7084" r="0.276951" fill="white"/>
<circle cx="868.304" cy="22.4524" r="0.459946" fill="white"/>
<circle cx="455.094" cy="58.9604" r="0.468698" fill="white"/>
<circle cx="524.341" cy="104.966" r="0.324985" fill="white"/>
<circle cx="449.474" cy="70.4551" r="0.491995" fill="white"/>
<circle cx="852.409" cy="13.4238" r="0.408671" fill="white"/>
<circle cx="824.364" cy="51.2896" r="0.369952" fill="white"/>
<circle cx="501.964" cy="150.329" r="0.450295" fill="white"/>
<circle cx="837.534" cy="136.9" r="0.409234" fill="white"/>
<circle cx="883.897" cy="91.1006" r="0.438424" fill="white"/>
<circle cx="862.894" cy="54.2227" r="0.493878" fill="white"/>
<circle cx="591.985" cy="105.585" r="0.332713" fill="white"/>
<circle cx="879.795" cy="79.4208" r="0.325838" fill="white"/>
<circle cx="528.569" cy="82.7663" r="0.43068" fill="white"/>
<circle cx="670.261" cy="141.199" r="0.456429" fill="white"/>
<circle cx="694.012" cy="17.2906" r="0.37491" fill="white"/>
<circle cx="788.043" cy="126.535" r="0.305205" fill="white"/>
<circle cx="762.863" cy="43.7468" r="0.405792" fill="white"/>
<circle cx="445.993" cy="41.5001" r="0.418743" fill="white"/>
<circle cx="739.809" cy="102.829" r="0.476945" fill="white"/>
<circle cx="810.969" cy="145.602" r="0.328429" fill="white"/>
<circle cx="557.372" cy="118.148" r="0.295612" fill="white"/>
<circle cx="773.643" cy="48.5799" r="0.491174" fill="white"/>
<circle cx="721.614" cy="33.7152" r="0.470938" fill="white"/>
<circle cx="608.218" cy="55.4295" r="0.470084" fill="white"/>
<circle cx="608.245" cy="129.038" r="0.321346" fill="white"/>
<circle cx="688.705" cy="97.6242" r="0.494441" fill="white"/>
<circle cx="565.981" cy="14.5336" r="0.490516" fill="white"/>
<circle cx="609.062" cy="119.264" r="0.278662" fill="white"/>
<circle cx="898.419" cy="101.498" r="0.411493" fill="white"/>
<circle cx="594.318" cy="58.1907" r="0.466228" fill="white"/>
<circle cx="884.164" cy="133.386" r="0.324087" fill="white"/>
<circle cx="828.69" cy="19.4405" r="0.488417" fill="white"/>
<circle cx="510.419" cy="44.4477" r="0.346816" fill="white"/>
<circle cx="663.838" cy="96.7886" r="0.461006" fill="white"/>
<circle cx="484.223" cy="10.4398" r="0.328169" fill="white"/>
<circle cx="914.736" cy="142.746" r="0.353499" fill="white"/>
<circle cx="835.454" cy="82.5585" r="0.337206" fill="white"/>
<circle cx="847.943" cy="89.1403" r="0.452554" fill="white"/>
<circle cx="825.713" cy="104.312" r="0.286961" fill="white"/>
<circle cx="663.483" cy="118.031" r="0.303072" fill="white"/>
<circle cx="715.519" cy="40.3301" r="0.402006" fill="white"/>
<circle cx="535.901" cy="20.0875" r="0.262301" fill="white"/>
<circle cx="566.474" cy="7.77154" r="0.358793" fill="white"/>
<circle cx="570.107" cy="114.163" r="0.362773" fill="white"/>
<circle cx="526.391" cy="63.0844" r="0.330675" fill="white"/>
<circle cx="812.204" cy="69.2188" r="0.475694" fill="white"/>
<circle cx="433.727" cy="142.112" r="0.371565" fill="white"/>
<circle cx="758.847" cy="128.418" r="0.499245" fill="white"/>
<circle cx="448.744" cy="122.134" r="0.343589" fill="white"/>
<circle cx="728.751" cy="46.4313" r="0.389771" fill="white"/>
<circle cx="852.021" cy="118.463" r="0.294868" fill="white"/>
<circle cx="777.463" cy="123.819" r="0.474582" fill="white"/>
<circle cx="529.945" cy="23.5031" r="0.360809" fill="white"/>
<circle cx="682.564" cy="14.9975" r="0.294877" fill="white"/>
<circle cx="422.279" cy="99.114" r="0.356908" fill="white"/>
<circle cx="602.857" cy="81.1703" r="0.390598" fill="white"/>
<circle cx="792.37" cy="122.894" r="0.311043" fill="white"/>
<circle cx="566.384" cy="87.5554" r="0.297988" fill="white"/>
<circle cx="818.136" cy="58.5934" r="0.378586" fill="white"/>
<circle cx="417.732" cy="97.4134" r="0.264775" fill="white"/>
<circle cx="456.546" cy="109.251" r="0.430979" fill="white"/>
<circle cx="823.392" cy="24.3168" r="0.425075" fill="white"/>
<circle cx="680.014" cy="121.267" r="0.46333" fill="white"/>
<circle cx="776.969" cy="60.9656" r="0.301492" fill="white"/>
<circle cx="746.862" cy="46.7607" r="0.318875" fill="white"/>
<circle cx="890.733" cy="24.2645" r="0.3185" fill="white"/>
<circle cx="722.659" cy="17.3767" r="0.311541" fill="white"/>
<circle cx="686.648" cy="112.156" r="0.421965" fill="white"/>
<circle cx="570.631" cy="30.6577" r="0.257807" fill="white"/>
<circle cx="864.897" cy="34.7407" r="0.317163" fill="white"/>
<circle cx="645.485" cy="16.9039" r="0.379087" fill="white"/>
<circle cx="763.057" cy="147.77" r="0.44395" fill="white"/>
<circle cx="429.46" cy="36.7926" r="0.466201" fill="white"/>
<circle cx="709.04" cy="73.3186" r="0.291862" fill="white"/>
<circle cx="640.571" cy="119.829" r="0.495183" fill="white"/>
<circle cx="446.795" cy="149.789" r="0.29649" fill="white"/>
<circle cx="822.993" cy="86.148" r="0.450375" fill="white"/>
<circle cx="560.942" cy="11.2986" r="0.258666" fill="white"/>
<circle cx="778.704" cy="142.542" r="0.39395" fill="white"/>
<circle cx="648.4" cy="101.143" r="0.339009" fill="white"/>
<circle cx="509.322" cy="147.674" r="0.483898" fill="white"/>
<circle cx="662.896" cy="67.9078" r="0.491726" fill="white"/>
<circle cx="428.452" cy="91.9255" r="0.289646" fill="white"/>
<circle cx="645.709" cy="85.3155" r="0.415652" fill="white"/>
<circle cx="761.473" cy="145.355" r="0.402997" fill="white"/>
<circle cx="534.718" cy="143.692" r="0.343203" fill="white"/>
<circle cx="664.338" cy="92.5114" r="0.400261" fill="white"/>
<circle cx="806.826" cy="88.5369" r="0.290945" fill="white"/>
<circle cx="729.939" cy="73.9142" r="0.427457" fill="white"/>
<circle cx="912.007" cy="137.014" r="0.3763" fill="white"/>
<circle cx="459.463" cy="44.6559" r="0.267421" fill="white"/>
<circle cx="686.793" cy="15.6801" r="0.436065" fill="white"/>
<circle cx="850.864" cy="70.1154" r="0.473698" fill="white"/>
<circle cx="781.729" cy="100.514" r="0.341907" fill="white"/>
<circle cx="886.231" cy="59.9076" r="0.418344" fill="white"/>
<circle cx="760.276" cy="123.399" r="0.459532" fill="white"/>
<circle cx="710.867" cy="71.8563" r="0.410317" fill="white"/>
<circle cx="547.226" cy="134.755" r="0.399616" fill="white"/>
<circle cx="523.636" cy="90.2989" r="0.334931" fill="white"/>
<circle cx="876.596" cy="80.6671" r="0.379568" fill="white"/>
<circle cx="876.799" cy="94.1399" r="0.466677" fill="white"/>
<circle cx="588.358" cy="147.026" r="0.350328" fill="white"/>
<circle cx="522.872" cy="118.334" r="0.409544" fill="white"/>
<circle cx="904.209" cy="24.5429" r="0.355509" fill="white"/>
<circle cx="421.487" cy="6.40358" r="0.420453" fill="white"/>
<circle cx="864.297" cy="149.532" r="0.250104" fill="white"/>
<circle cx="837.261" cy="97.0964" r="0.409576" fill="white"/>
<circle cx="609.196" cy="67.7274" r="0.324481" fill="white"/>
<circle cx="459.888" cy="116.243" r="0.427235" fill="white"/>
<circle cx="685.88" cy="127.382" r="0.38605" fill="white"/>
<circle cx="507.644" cy="143.411" r="0.343651" fill="white"/>
<circle cx="540.551" cy="61.5578" r="0.334517" fill="white"/>
<circle cx="536.337" cy="17.8971" r="0.36818" fill="white"/>
<circle cx="680.972" cy="48.0095" r="0.284706" fill="white"/>
<circle cx="577.189" cy="146.936" r="0.485859" fill="white"/>
<circle cx="814.307" cy="10.6709" r="0.324886" fill="white"/>
<circle cx="556.09" cy="61.686" r="0.410476" fill="white"/>
<circle cx="550.284" cy="57.7078" r="0.42673" fill="white"/>
<circle cx="883.737" cy="12.7097" r="0.428857" fill="white"/>
<circle cx="420.035" cy="81.773" r="0.317924" fill="white"/>
<circle cx="901.762" cy="60.6587" r="0.347731" fill="white"/>
<circle cx="486.106" cy="64.1458" r="0.269844" fill="white"/>
<circle cx="758.405" cy="134.65" r="0.373611" fill="white"/>
<circle cx="784.648" cy="46.287" r="0.374288" fill="white"/>
<circle cx="883.573" cy="34.4002" r="0.465263" fill="white"/>
<circle cx="879.912" cy="82.5588" r="0.325815" fill="white"/>
<circle cx="599.307" cy="60.2354" r="0.433691" fill="white"/>
<circle cx="587.009" cy="53.3245" r="0.42318" fill="white"/>
<circle cx="841.839" cy="96.5206" r="0.388045" fill="white"/>
<circle cx="567.11" cy="11.1375" r="0.361891" fill="white"/>
<circle cx="866.99" cy="89.8508" r="0.310566" fill="white"/>
<circle cx="823.84" cy="33.4666" r="0.461008" fill="white"/>
<circle cx="825.767" cy="127.22" r="0.476295" fill="white"/>
<circle cx="854.392" cy="101.078" r="0.267123" fill="white"/>
<circle cx="616.381" cy="35.5609" r="0.359678" fill="white"/>
<circle cx="574.173" cy="133.883" r="0.296377" fill="white"/>
<circle cx="757.184" cy="16.087" r="0.313351" fill="white"/>
<circle cx="437.658" cy="43.6093" r="0.412324" fill="white"/>
<circle cx="860.762" cy="21.75" r="0.328393" fill="white"/>
<circle cx="714.815" cy="104.127" r="0.313443" fill="white"/>
<circle cx="662.373" cy="22.7036" r="0.478404" fill="white"/>
<circle cx="888.294" cy="147.733" r="0.450626" fill="white"/>
<circle cx="528.682" cy="135.645" r="0.314586" fill="white"/>
<circle cx="512.666" cy="53.5549" r="0.427569" fill="white"/>
<circle cx="818.401" cy="108.795" r="0.379761" fill="white"/>
<circle cx="827.294" cy="70.8372" r="0.463487" fill="white"/>
<circle cx="722.865" cy="140.588" r="0.275165" fill="white"/>
<circle cx="867.847" cy="13.4665" r="0.315626" fill="white"/>
<circle cx="583.725" cy="57.7513" r="0.250236" fill="white"/>
</g>
<g filter="url(#filter4_f_267_2075)">
<path d="M707.131 681.408L909 1024.64H509L707.131 681.408Z" fill="#87A8AA"/>
<path d="M707.131 681.408L909 1024.64H509L707.131 681.408Z" fill="#F5F5F7" fill-opacity="0.3"/>
</g>
<g filter="url(#filter5_df_267_2075)">
<circle cx="739.299" cy="780.942" r="0.458923" fill="white"/>
<circle cx="449.28" cy="748.1" r="0.362366" fill="white"/>
<circle cx="866.574" cy="778.895" r="0.366748" fill="white"/>
<circle cx="706.854" cy="739.588" r="0.471607" fill="white"/>
<circle cx="488.264" cy="809.808" r="0.258435" fill="white"/>
<circle cx="731.439" cy="767.696" r="0.493587" fill="white"/>
<circle cx="872.59" cy="792.63" r="0.421775" fill="white"/>
<circle cx="865.178" cy="798.438" r="0.457204" fill="white"/>
<circle cx="637.632" cy="764.252" r="0.307576" fill="white"/>
<circle cx="880.919" cy="739.279" r="0.380201" fill="white"/>
<circle cx="830.272" cy="746.965" r="0.30123" fill="white"/>
<circle cx="537.715" cy="789.757" r="0.496019" fill="white"/>
<circle cx="561.233" cy="796.893" r="0.373636" fill="white"/>
<circle cx="622.128" cy="784.817" r="0.424769" fill="white"/>
<circle cx="918.437" cy="786.053" r="0.425571" fill="white"/>
<circle cx="505.221" cy="792.081" r="0.423914" fill="white"/>
<circle cx="873.748" cy="737.611" r="0.388578" fill="white"/>
<circle cx="648.939" cy="792.304" r="0.386443" fill="white"/>
<circle cx="684.693" cy="786.989" r="0.255543" fill="white"/>
<circle cx="748.563" cy="777.669" r="0.449782" fill="white"/>
<circle cx="514.451" cy="757.177" r="0.277627" fill="white"/>
<circle cx="457.79" cy="760.987" r="0.458167" fill="white"/>
<circle cx="871.002" cy="736.632" r="0.281534" fill="white"/>
<circle cx="689.953" cy="743.675" r="0.376835" fill="white"/>
<circle cx="461.908" cy="772.258" r="0.287377" fill="white"/>
<circle cx="506.413" cy="773.418" r="0.270811" fill="white"/>
<circle cx="751.835" cy="764.829" r="0.354219" fill="white"/>
<circle cx="466.185" cy="776.819" r="0.354698" fill="white"/>
<circle cx="828.535" cy="742.509" r="0.37455" fill="white"/>
<circle cx="680.495" cy="731.043" r="0.471746" fill="white"/>
<circle cx="899.935" cy="806.601" r="0.40339" fill="white"/>
<circle cx="840.321" cy="757.269" r="0.367631" fill="white"/>
<circle cx="464.483" cy="764.208" r="0.481524" fill="white"/>
<circle cx="658.846" cy="768.311" r="0.395136" fill="white"/>
<circle cx="610.42" cy="729.232" r="0.316917" fill="white"/>
<circle cx="906.212" cy="776.328" r="0.263108" fill="white"/>
<circle cx="886.601" cy="802.39" r="0.311466" fill="white"/>
<circle cx="896.838" cy="794.139" r="0.427562" fill="white"/>
<circle cx="486.903" cy="788.803" r="0.262713" fill="white"/>
<circle cx="535.36" cy="793.761" r="0.340973" fill="white"/>
<circle cx="505.187" cy="795.192" r="0.32777" fill="white"/>
<circle cx="891.52" cy="770.938" r="0.311305" fill="white"/>
<circle cx="936.136" cy="807.434" r="0.405882" fill="white"/>
<circle cx="658.997" cy="792.827" r="0.360583" fill="white"/>
<circle cx="585.452" cy="757.711" r="0.254908" fill="white"/>
<circle cx="765.18" cy="782.962" r="0.252683" fill="white"/>
<circle cx="487.225" cy="731.487" r="0.481025" fill="white"/>
<circle cx="593.275" cy="803.708" r="0.462398" fill="white"/>
<circle cx="737.143" cy="792.1" r="0.28544" fill="white"/>
<circle cx="521.404" cy="798.492" r="0.39788" fill="white"/>
<circle cx="635.831" cy="804.551" r="0.255247" fill="white"/>
<circle cx="596.012" cy="746.857" r="0.297507" fill="white"/>
<circle cx="615.622" cy="806.19" r="0.360455" fill="white"/>
<circle cx="907.639" cy="729.12" r="0.275693" fill="white"/>
<circle cx="788.059" cy="732.988" r="0.334758" fill="white"/>
<circle cx="927.838" cy="752.305" r="0.435274" fill="white"/>
<circle cx="571.689" cy="775.217" r="0.419577" fill="white"/>
<circle cx="484.371" cy="729.49" r="0.344113" fill="white"/>
<circle cx="503.299" cy="760.736" r="0.458932" fill="white"/>
<circle cx="716.388" cy="725.834" r="0.393597" fill="white"/>
<circle cx="640.025" cy="800.957" r="0.382836" fill="white"/>
<circle cx="524.261" cy="759.376" r="0.284148" fill="white"/>
<circle cx="829.593" cy="786.368" r="0.397581" fill="white"/>
<circle cx="603.276" cy="788.532" r="0.452215" fill="white"/>
<circle cx="809.347" cy="758.858" r="0.32711" fill="white"/>
<circle cx="789.234" cy="790.771" r="0.491862" fill="white"/>
<circle cx="448.725" cy="803.83" r="0.259937" fill="white"/>
<circle cx="525.13" cy="739.599" r="0.430437" fill="white"/>
<circle cx="498.865" cy="796.331" r="0.277033" fill="white"/>
<circle cx="569.739" cy="745.866" r="0.307282" fill="white"/>
<circle cx="796.996" cy="743.331" r="0.418073" fill="white"/>
<circle cx="868.6" cy="810.483" r="0.373659" fill="white"/>
<circle cx="674.321" cy="750.702" r="0.474911" fill="white"/>
<circle cx="918.969" cy="761.778" r="0.439763" fill="white"/>
<circle cx="800.641" cy="789.875" r="0.28939" fill="white"/>
<circle cx="610.247" cy="802.354" r="0.379972" fill="white"/>
<circle cx="438.246" cy="767.569" r="0.351509" fill="white"/>
<circle cx="650.814" cy="769.853" r="0.446957" fill="white"/>
<circle cx="692.527" cy="788.635" r="0.406049" fill="white"/>
<circle cx="534.9" cy="737.214" r="0.317553" fill="white"/>
<circle cx="560.758" cy="751.319" r="0.41217" fill="white"/>
<circle cx="871.793" cy="725.436" r="0.400597" fill="white"/>
<circle cx="760.686" cy="793.099" r="0.330797" fill="white"/>
<circle cx="516.088" cy="767.529" r="0.27528" fill="white"/>
<circle cx="641.661" cy="736.247" r="0.448105" fill="white"/>
<circle cx="638.698" cy="758.729" r="0.410637" fill="white"/>
<circle cx="641.001" cy="794.333" r="0.338754" fill="white"/>
<circle cx="489.71" cy="740.312" r="0.37811" fill="white"/>
<circle cx="584.85" cy="784.694" r="0.334448" fill="white"/>
<circle cx="439.749" cy="787.778" r="0.311945" fill="white"/>
<circle cx="795.327" cy="779.712" r="0.391142" fill="white"/>
<circle cx="773.071" cy="741.212" r="0.475443" fill="white"/>
<circle cx="824.29" cy="746.318" r="0.337301" fill="white"/>
<circle cx="475.714" cy="737.021" r="0.477537" fill="white"/>
<circle cx="442.082" cy="800.798" r="0.274933" fill="white"/>
<circle cx="538.442" cy="781.203" r="0.453515" fill="white"/>
<circle cx="771.465" cy="764.22" r="0.410702" fill="white"/>
<circle cx="820.058" cy="778.496" r="0.497001" fill="white"/>
<circle cx="872.769" cy="737.659" r="0.485548" fill="white"/>
<circle cx="724.541" cy="748.758" r="0.429614" fill="white"/>
<circle cx="765.412" cy="812.394" r="0.400775" fill="white"/>
<circle cx="470.616" cy="798.542" r="0.264704" fill="white"/>
<circle cx="719.563" cy="729.323" r="0.445461" fill="white"/>
<circle cx="760.219" cy="781.651" r="0.409954" fill="white"/>
<circle cx="742.183" cy="810.699" r="0.34466" fill="white"/>
<circle cx="904.948" cy="769.049" r="0.412454" fill="white"/>
<circle cx="698.719" cy="734.367" r="0.316585" fill="white"/>
<circle cx="643.567" cy="753.936" r="0.457772" fill="white"/>
<circle cx="689.384" cy="798.39" r="0.411736" fill="white"/>
<circle cx="625.589" cy="753.622" r="0.350202" fill="white"/>
<circle cx="722.818" cy="734.878" r="0.302009" fill="white"/>
<circle cx="792.958" cy="735.712" r="0.313929" fill="white"/>
<circle cx="652.234" cy="802.473" r="0.327612" fill="white"/>
<circle cx="666.78" cy="737.224" r="0.455723" fill="white"/>
<circle cx="858.742" cy="781.155" r="0.351281" fill="white"/>
<circle cx="620.07" cy="773.63" r="0.339272" fill="white"/>
<circle cx="466.893" cy="794.946" r="0.443534" fill="white"/>
<circle cx="809.042" cy="783.977" r="0.377986" fill="white"/>
<circle cx="855.593" cy="740.424" r="0.310247" fill="white"/>
<circle cx="920.675" cy="783.075" r="0.467534" fill="white"/>
<circle cx="698.154" cy="786.345" r="0.415603" fill="white"/>
<circle cx="924.401" cy="803.957" r="0.467585" fill="white"/>
<circle cx="691.965" cy="730.206" r="0.472877" fill="white"/>
<circle cx="599.497" cy="760.695" r="0.376087" fill="white"/>
<circle cx="558.413" cy="810.903" r="0.458234" fill="white"/>
<circle cx="512.551" cy="801.706" r="0.367601" fill="white"/>
<circle cx="691.924" cy="769.192" r="0.294679" fill="white"/>
<circle cx="553.396" cy="771.698" r="0.268707" fill="white"/>
<circle cx="629.303" cy="792.238" r="0.3477" fill="white"/>
<circle cx="676.082" cy="775.359" r="0.336215" fill="white"/>
<circle cx="903.32" cy="799.044" r="0.281396" fill="white"/>
<circle cx="903.715" cy="792.778" r="0.318235" fill="white"/>
<circle cx="537.068" cy="763.776" r="0.290671" fill="white"/>
<circle cx="554.76" cy="777.445" r="0.296819" fill="white"/>
<circle cx="448.084" cy="797.998" r="0.478077" fill="white"/>
<circle cx="444.335" cy="767.022" r="0.381875" fill="white"/>
<circle cx="573.026" cy="751.194" r="0.381551" fill="white"/>
<circle cx="867.949" cy="808.95" r="0.429327" fill="white"/>
<circle cx="532.511" cy="743.191" r="0.48716" fill="white"/>
<circle cx="797.768" cy="798.957" r="0.475294" fill="white"/>
<circle cx="620.929" cy="800.9" r="0.413358" fill="white"/>
<circle cx="897.662" cy="761.07" r="0.318549" fill="white"/>
<circle cx="622.527" cy="806.102" r="0.396246" fill="white"/>
<circle cx="605.859" cy="759.208" r="0.409785" fill="white"/>
<circle cx="704.851" cy="776.263" r="0.253117" fill="white"/>
<circle cx="455.359" cy="761.331" r="0.448401" fill="white"/>
<circle cx="876.559" cy="736.494" r="0.273852" fill="white"/>
<circle cx="829.403" cy="761.613" r="0.276143" fill="white"/>
<circle cx="679.565" cy="760.412" r="0.416867" fill="white"/>
<circle cx="458.588" cy="802.744" r="0.429885" fill="white"/>
<circle cx="900.602" cy="798.796" r="0.268325" fill="white"/>
<circle cx="785.951" cy="794.294" r="0.371212" fill="white"/>
<circle cx="820.457" cy="757.222" r="0.334297" fill="white"/>
<circle cx="907.563" cy="789.644" r="0.394947" fill="white"/>
<circle cx="519.349" cy="763.251" r="0.379845" fill="white"/>
<circle cx="883.368" cy="803.204" r="0.45372" fill="white"/>
<circle cx="620.001" cy="738.719" r="0.475724" fill="white"/>
<circle cx="456.556" cy="760.853" r="0.413457" fill="white"/>
<circle cx="786.993" cy="793.014" r="0.344807" fill="white"/>
<circle cx="622.315" cy="728.857" r="0.454001" fill="white"/>
<circle cx="569.672" cy="735.347" r="0.257436" fill="white"/>
<circle cx="797.434" cy="781.586" r="0.338328" fill="white"/>
<circle cx="641.357" cy="738.233" r="0.466377" fill="white"/>
</g>
</g>
</g>
<defs>
<filter id="filter0_d_267_2075" x="0" y="0.400002" width="1420" height="818" filterUnits="userSpaceOnUse" color-interpolation-filters="sRGB">
<feFlood flood-opacity="0" result="BackgroundImageFix"/>
<feColorMatrix in="SourceAlpha" type="matrix" values="0 0 0 0 0 0 0 0 0 0 0 0 0 0 0 0 0 0 127 0" result="hardAlpha"/>
<feOffset/>
<feGaussianBlur stdDeviation="3"/>
<feComposite in2="hardAlpha" operator="out"/>
<feColorMatrix type="matrix" values="0 0 0 0 0.0392157 0 0 0 0 0.0392157 0 0 0 0 0.0392157 0 0 0 1 0"/>
<feBlend mode="normal" in2="BackgroundImageFix" result="effect1_dropShadow_267_2075"/>
<feBlend mode="normal" in="SourceGraphic" in2="effect1_dropShadow_267_2075" result="shape"/>
</filter>
<filter id="filter1_d_267_2075" x="-64" y="-64.4517" width="1548" height="950.205" filterUnits="userSpaceOnUse" color-interpolation-filters="sRGB">
<feFlood flood-opacity="0" result="BackgroundImageFix"/>
<feColorMatrix in="SourceAlpha" type="matrix" values="0 0 0 0 0 0 0 0 0 0 0 0 0 0 0 0 0 0 127 0" result="hardAlpha"/>
<feOffset/>
<feGaussianBlur stdDeviation="35"/>
<feColorMatrix type="matrix" values="0 0 0 0 0.960784 0 0 0 0 0.960784 0 0 0 0 0.968627 0 0 0 1 0"/>
<feBlend mode="normal" in2="BackgroundImageFix" result="effect1_dropShadow_267_2075"/>
<feBlend mode="normal" in="SourceGraphic" in2="effect1_dropShadow_267_2075" result="shape"/>
</filter>
<filter id="filter2_f_267_2075" x="120.363" y="-463.005" width="1177.27" height="1105.56" filterUnits="userSpaceOnUse" color-interpolation-filters="sRGB">
<feFlood flood-opacity="0" result="BackgroundImageFix"/>
<feBlend mode="normal" in="SourceGraphic" in2="BackgroundImageFix" result="shape"/>
<feGaussianBlur stdDeviation="194.319" result="effect1_foregroundBlur_267_2075"/>
</filter>
<filter id="filter3_df_267_2075" x="393" y="-371.6" width="633" height="548" filterUnits="userSpaceOnUse" color-interpolation-filters="sRGB">
<feFlood flood-opacity="0" result="BackgroundImageFix"/>
<feColorMatrix in="SourceAlpha" type="matrix" values="0 0 0 0 0 0 0 0 0 0 0 0 0 0 0 0 0 0 127 0" result="hardAlpha"/>
<feOffset/>
<feGaussianBlur stdDeviation="12"/>
<feColorMatrix type="matrix" values="0 0 0 0 0.960784 0 0 0 0 0.960784 0 0 0 0 0.968627 0 0 0 1 0"/>
<feBlend mode="normal" in2="BackgroundImageFix" result="effect1_dropShadow_267_2075"/>
<feBlend mode="normal" in="SourceGraphic" in2="effect1_dropShadow_267_2075" result="shape"/>
<feGaussianBlur stdDeviation="1.5" result="effect2_foregroundBlur_267_2075"/>
</filter>
<filter id="filter4_f_267_2075" x="120.363" y="292.771" width="1177.27" height="1120.51" filterUnits="userSpaceOnUse" color-interpolation-filters="sRGB">
<feFlood flood-opacity="0" result="BackgroundImageFix"/>
<feBlend mode="normal" in="SourceGraphic" in2="BackgroundImageFix" result="shape"/>
<feGaussianBlur stdDeviation="194.319" result="effect1_foregroundBlur_267_2075"/>
</filter>
<filter id="filter5_df_267_2075" x="412" y="700.4" width="633" height="548" filterUnits="userSpaceOnUse" color-interpolation-filters="sRGB">
<feFlood flood-opacity="0" result="BackgroundImageFix"/>
<feColorMatrix in="SourceAlpha" type="matrix" values="0 0 0 0 0 0 0 0 0 0 0 0 0 0 0 0 0 0 127 0" result="hardAlpha"/>
<feOffset/>
<feGaussianBlur stdDeviation="12"/>
<feColorMatrix type="matrix" values="0 0 0 0 0.960784 0 0 0 0 0.960784 0 0 0 0 0.968627 0 0 0 1 0"/>
<feBlend mode="normal" in2="BackgroundImageFix" result="effect1_dropShadow_267_2075"/>
<feBlend mode="normal" in="SourceGraphic" in2="effect1_dropShadow_267_2075" result="shape"/>
<feGaussianBlur stdDeviation="0" result="effect2_foregroundBlur_267_2075"/>
</filter>
<clipPath id="clip0_267_2075">
<rect x="6" y="6.4" width="1408" height="806" rx="40" fill="white"/>
</clipPath>
</defs>
</svg>
