<svg width="152" height="142" viewBox="0 0 152 142" fill="none" xmlns="http://www.w3.org/2000/svg">
<g filter="url(#filter0_di_417_7509)">
<rect x="47.4028" y="14.157" width="57.1943" height="57.1943" rx="28.5972" fill="#0A0A0A" fill-opacity="0.1" shape-rendering="crispEdges"/>
<rect x="47.6071" y="14.3613" width="56.7858" height="56.7858" rx="28.3929" stroke="#0FF0FC" stroke-width="0.408531" shape-rendering="crispEdges"/>
<path d="M81.4823 52.5348C81.3389 52.2611 81.2216 51.9222 81.1304 51.5182C81.0522 51.1012 80.9936 50.6711 80.9545 50.228C80.5896 50.5929 80.179 50.9383 79.7229 51.2641C79.2798 51.5899 78.7911 51.8766 78.2567 52.1242C77.7094 52.3718 77.1294 52.5673 76.5169 52.7107C75.9044 52.854 75.2527 52.9257 74.562 52.9257C73.4412 52.9257 72.4247 52.7628 71.5124 52.437C70.6131 52.1112 69.8507 51.6681 69.2252 51.1077C68.5866 50.5603 68.0913 49.9087 67.7394 49.1528C67.4006 48.3839 67.2312 47.5563 67.2312 46.6701C67.2312 45.5102 67.4592 44.4937 67.9154 43.6205C68.3846 42.7473 69.0427 42.0175 69.8898 41.431C70.7369 40.8576 71.7535 40.4275 72.9394 40.1408C74.1384 39.8541 75.4743 39.7107 76.947 39.7107H80.8958V38.0491C80.8958 37.4105 80.7785 36.837 80.5439 36.3288C80.3094 35.8205 79.977 35.3839 79.547 35.019C79.1169 34.6671 78.5891 34.3934 77.9635 34.1979C77.351 34.0024 76.6602 33.9047 75.8913 33.9047C75.1745 33.9047 74.5294 33.9959 73.956 34.1784C73.3956 34.3608 72.9199 34.6019 72.5289 34.9017C72.1379 35.2014 71.8317 35.5598 71.6101 35.9769C71.4016 36.3809 71.2973 36.8044 71.2973 37.2476H67.6613C67.6743 36.4786 67.8698 35.7227 68.2477 34.9799C68.6387 34.237 69.1991 33.5659 69.9289 32.9664C70.6457 32.3799 71.5189 31.9042 72.5485 31.5393C73.5911 31.1744 74.7705 30.9919 76.0868 30.9919C77.2858 30.9919 78.4001 31.1418 79.4297 31.4415C80.4592 31.7283 81.352 32.1649 82.1079 32.7513C82.8507 33.3508 83.4372 34.0937 83.8672 34.9799C84.2973 35.8661 84.5124 36.9022 84.5124 38.0882V47.9212C84.5124 48.625 84.5775 49.3744 84.7079 50.1693C84.8382 50.9513 85.0206 51.6355 85.2552 52.222V52.5348H81.4823ZM75.0898 49.7784C75.7936 49.7784 76.4517 49.6871 77.0643 49.5047C77.6768 49.3222 78.2372 49.0811 78.7455 48.7814C79.2407 48.4816 79.6708 48.1428 80.0357 47.7648C80.4006 47.3739 80.6873 46.9698 80.8958 46.5528V42.2716H77.5334C76.2823 42.2716 75.1876 42.3824 74.2492 42.6039C73.3239 42.8125 72.5876 43.1383 72.0402 43.5814C71.6492 43.8942 71.3495 44.2656 71.1409 44.6957C70.9455 45.1257 70.8477 45.6145 70.8477 46.1618C70.8477 46.6831 70.9324 47.1653 71.1019 47.6084C71.2843 48.0515 71.5515 48.4295 71.9034 48.7423C72.2552 49.0681 72.6983 49.3222 73.2327 49.5047C73.767 49.6871 74.3861 49.7784 75.0898 49.7784Z" fill="white"/>
</g>
<path d="M30.0285 112.572C30.0285 111.831 29.857 111.206 29.5142 110.697C29.1824 110.188 28.751 109.757 28.2201 109.403C27.6893 109.06 27.1031 108.773 26.4616 108.54C25.8311 108.308 25.2228 108.098 24.6366 107.91C23.785 107.633 22.9168 107.302 22.032 106.914C21.1582 106.516 20.3619 106.041 19.643 105.488C18.913 104.924 18.3158 104.26 17.8512 103.497C17.3978 102.723 17.171 101.816 17.171 100.776C17.171 99.7364 17.3978 98.8074 17.8512 97.9889C18.3158 97.1705 18.9185 96.4792 19.6596 95.9151C20.4006 95.3511 21.2412 94.9253 22.1813 94.6377C23.1214 94.3391 24.067 94.1898 25.0182 94.1898C26.0689 94.1898 27.0809 94.3667 28.0542 94.7206C29.0275 95.0635 29.8902 95.5502 30.6423 96.1806C31.3944 96.811 31.9972 97.5742 32.4507 98.47C32.9041 99.3659 33.1419 100.367 33.164 101.473H30.0119C29.9234 100.776 29.752 100.146 29.4976 99.5816C29.2432 99.0065 28.9059 98.5143 28.4856 98.1051C28.0653 97.6958 27.5621 97.3806 26.9759 97.1594C26.4007 96.9271 25.7482 96.811 25.0182 96.811C24.432 96.811 23.8569 96.894 23.2928 97.0599C22.7398 97.2258 22.2476 97.4746 21.8163 97.8064C21.3739 98.1382 21.02 98.5475 20.7545 99.0341C20.5001 99.5208 20.3729 100.085 20.3729 100.726C20.384 101.423 20.561 102.015 20.9038 102.501C21.2467 102.977 21.6836 103.381 22.2145 103.713C22.7343 104.044 23.2984 104.321 23.9067 104.542C24.526 104.763 25.1067 104.957 25.6486 105.123C26.5445 105.399 27.4404 105.737 28.3363 106.135C29.2321 106.522 30.0506 107.02 30.7916 107.628C31.5216 108.192 32.1078 108.883 32.5502 109.702C33.0037 110.52 33.2304 111.466 33.2304 112.539C33.2304 113.622 32.9871 114.568 32.5004 115.376C32.0248 116.183 31.4055 116.852 30.6423 117.383C29.8792 117.925 29.0165 118.334 28.0542 118.611C27.092 118.876 26.1298 119.009 25.1675 119.009C24.0173 119.009 22.8836 118.815 21.7665 118.428C20.6605 118.041 19.6983 117.482 18.8798 116.752C18.1499 116.122 17.5692 115.387 17.1379 114.546C16.7176 113.694 16.4908 112.749 16.4576 111.709H19.5932C19.6927 112.461 19.8974 113.13 20.207 113.716C20.5167 114.292 20.9149 114.778 21.4015 115.176C21.8882 115.586 22.4467 115.895 23.0772 116.105C23.7187 116.305 24.4154 116.404 25.1675 116.404C25.7648 116.404 26.351 116.332 26.9261 116.188C27.5123 116.034 28.0321 115.796 28.4856 115.475C28.939 115.165 29.3096 114.773 29.5971 114.297C29.8847 113.81 30.0285 113.235 30.0285 112.572ZM40.8619 103.397C41.1052 103.032 41.3762 102.701 41.6748 102.402C41.9735 102.092 42.2887 101.821 42.6205 101.589C43.1514 101.202 43.732 100.909 44.3625 100.71C45.0039 100.511 45.6841 100.406 46.4031 100.395C47.3432 100.395 48.1948 100.533 48.958 100.809C49.7322 101.075 50.3902 101.495 50.9322 102.07C51.4741 102.645 51.8889 103.375 52.1765 104.26C52.4751 105.134 52.6244 106.173 52.6244 107.379V118.677H49.5552V107.346C49.5552 106.638 49.4723 106.019 49.3063 105.488C49.1404 104.946 48.8971 104.498 48.5764 104.144C48.2335 103.757 47.8022 103.469 47.2823 103.281C46.7625 103.082 46.1653 102.988 45.4906 102.999C44.9376 102.999 44.4122 103.077 43.9145 103.231C43.4168 103.386 42.9578 103.607 42.5375 103.895C42.2057 104.116 41.896 104.376 41.6085 104.675C41.332 104.962 41.0831 105.283 40.8619 105.637V118.677H37.7927V93.1943H40.8619V103.397ZM58.6798 100.726H67.8543V116.023H73.7106V118.677H58.6798V116.023H64.7851V103.397H58.6798V100.726ZM64.3869 96.0147C64.3869 95.7492 64.4256 95.5004 64.503 95.2681C64.5915 95.0359 64.7242 94.8368 64.9012 94.6709C65.045 94.5271 65.2275 94.4165 65.4487 94.3391C65.6809 94.2506 65.9408 94.2063 66.2284 94.2063C66.516 94.2063 66.7704 94.2506 66.9916 94.3391C67.2128 94.4165 67.3953 94.5271 67.539 94.6709C67.716 94.8257 67.8487 95.0193 67.9372 95.2515C68.0257 95.4838 68.0699 95.7382 68.0699 96.0147C68.0699 96.5124 67.9151 96.9271 67.6054 97.2589C67.2957 97.5908 66.8367 97.7567 66.2284 97.7567C65.609 97.7567 65.1445 97.5908 64.8348 97.2589C64.5362 96.9271 64.3869 96.5124 64.3869 96.0147ZM86.5349 119.009C85.274 119.009 84.1127 118.793 83.0509 118.362C82.0002 117.93 81.0988 117.328 80.3467 116.553C79.5946 115.779 79.0084 114.861 78.5881 113.799C78.1679 112.738 77.9577 111.582 77.9577 110.332V109.635C77.9577 108.186 78.19 106.892 78.6545 105.753C79.119 104.603 79.7384 103.63 80.5126 102.833C81.2758 102.048 82.144 101.445 83.1173 101.025C84.1016 100.605 85.1081 100.395 86.1367 100.395C87.4307 100.395 88.5589 100.621 89.5211 101.075C90.4944 101.517 91.3018 102.131 91.9433 102.916C92.5848 103.713 93.0604 104.647 93.3701 105.72C93.6908 106.793 93.8512 107.954 93.8512 109.204V110.581H81.0269V110.697C81.1043 111.571 81.2758 112.339 81.5412 113.003C81.8177 113.667 82.1938 114.253 82.6693 114.762C83.156 115.304 83.7422 115.729 84.4279 116.039C85.1136 116.349 85.8713 116.504 86.7008 116.504C87.7957 116.504 88.769 116.282 89.6207 115.84C90.4723 115.398 91.1801 114.811 91.7442 114.081L93.6189 115.541C93.0217 116.448 92.1258 117.256 90.9313 117.964C89.7479 118.66 88.2824 119.009 86.5349 119.009ZM86.1367 102.916C85.5173 102.916 84.9311 103.032 84.3781 103.265C83.8251 103.486 83.3274 103.812 82.885 104.243C82.4426 104.686 82.0666 105.228 81.7569 105.869C81.4583 106.5 81.2481 107.23 81.1265 108.059H90.782V107.91C90.782 107.357 90.6769 106.765 90.4668 106.135C90.2566 105.493 89.9635 104.94 89.5875 104.476C89.2114 104.011 88.7358 103.635 88.1607 103.348C87.5966 103.06 86.922 102.916 86.1367 102.916ZM99.4919 93.1943H108.666V116.023H114.523V118.677H99.4919V116.023H105.597V95.8654H99.4919V93.1943ZM118.836 109.552C118.836 108.214 119.002 106.986 119.334 105.869C119.677 104.741 120.163 103.773 120.794 102.966C121.413 102.159 122.165 101.528 123.05 101.075C123.935 100.621 124.925 100.395 126.02 100.395C127.093 100.395 128.027 100.577 128.823 100.942C129.631 101.296 130.328 101.816 130.914 102.501V93.1943H133.983V118.677H131.163L131.03 116.786C130.433 117.516 129.719 118.069 128.89 118.445C128.06 118.821 127.093 119.009 125.986 119.009C124.903 119.009 123.918 118.777 123.033 118.312C122.16 117.847 121.413 117.206 120.794 116.388C120.174 115.569 119.693 114.607 119.35 113.501C119.008 112.384 118.836 111.184 118.836 109.901V109.552ZM121.905 109.901C121.905 110.774 121.999 111.604 122.187 112.389C122.375 113.175 122.668 113.866 123.067 114.463C123.454 115.06 123.951 115.536 124.56 115.89C125.168 116.233 125.898 116.404 126.75 116.404C127.778 116.404 128.63 116.172 129.305 115.707C129.979 115.243 130.516 114.618 130.914 113.833V105.504C130.516 104.774 129.979 104.177 129.305 103.713C128.63 103.237 127.789 102.999 126.783 102.999C125.92 102.999 125.179 103.176 124.56 103.53C123.951 103.884 123.454 104.36 123.067 104.957C122.668 105.565 122.375 106.267 122.187 107.064C121.999 107.849 121.905 108.679 121.905 109.552V109.901Z" fill="#F5F5F7"/>
<defs>
<filter id="filter0_di_417_7509" x="46.5858" y="13.34" width="58.8285" height="58.8285" filterUnits="userSpaceOnUse" color-interpolation-filters="sRGB">
<feFlood flood-opacity="0" result="BackgroundImageFix"/>
<feColorMatrix in="SourceAlpha" type="matrix" values="0 0 0 0 0 0 0 0 0 0 0 0 0 0 0 0 0 0 127 0" result="hardAlpha"/>
<feOffset/>
<feGaussianBlur stdDeviation="0.408531"/>
<feComposite in2="hardAlpha" operator="out"/>
<feColorMatrix type="matrix" values="0 0 0 0 0.960784 0 0 0 0 0.960784 0 0 0 0 0.968627 0 0 0 1 0"/>
<feBlend mode="normal" in2="BackgroundImageFix" result="effect1_dropShadow_417_7509"/>
<feBlend mode="normal" in="SourceGraphic" in2="effect1_dropShadow_417_7509" result="shape"/>
<feColorMatrix in="SourceAlpha" type="matrix" values="0 0 0 0 0 0 0 0 0 0 0 0 0 0 0 0 0 0 127 0" result="hardAlpha"/>
<feOffset/>
<feGaussianBlur stdDeviation="3.88104"/>
<feComposite in2="hardAlpha" operator="arithmetic" k2="-1" k3="1"/>
<feColorMatrix type="matrix" values="0 0 0 0 0.960784 0 0 0 0 0.960784 0 0 0 0 0.968627 0 0 0 1 0"/>
<feBlend mode="normal" in2="shape" result="effect2_innerShadow_417_7509"/>
</filter>
</defs>
</svg>
