<svg width="1382" height="440" viewBox="0 0 1382 440" fill="none" xmlns="http://www.w3.org/2000/svg">
<path d="M331.904 244.693H256.681C247.348 244.693 238.076 243.188 229.222 240.237L223.336 238.275C215.209 235.566 207.527 231.669 200.541 226.711L195.405 223.067C191.389 220.216 187.622 217.029 184.146 213.54L0.997711 29.7109M331.904 216.682H273.035C263.55 216.682 254.138 215.015 245.23 211.756V211.756C235.167 208.074 225.935 202.431 218.071 195.153L183.067 162.762L37.4116 20.6075M332.109 182.369H270.388C261.724 182.369 253.125 180.88 244.966 177.966V177.966C240.126 176.237 235.476 174.02 231.087 171.348L230.274 170.854C224.5 167.339 219.166 163.147 214.386 158.367L138.95 82.9312L54.218 1" stroke="url(#paint0_linear_2018_53)" stroke-miterlimit="2.91194" stroke-linejoin="round"/>
<path d="M331.523 307.716H268.834C262.108 307.716 255.417 308.668 248.958 310.543V310.543C241.037 312.843 233.575 316.5 226.905 321.351L226.352 321.753C223.176 324.063 220.186 326.618 217.409 329.395L118.641 428.162M331.945 274.104H263.643C254.402 274.104 245.288 276.255 237.023 280.388V280.388C231.432 283.183 226.315 286.843 221.862 291.231L180.265 332.226L78.0259 428.162M332.109 245.328L259.141 244.806C248.66 244.731 238.251 246.554 228.419 250.188L223.457 252.022C215.251 255.054 207.55 259.31 200.615 264.644L183.766 277.605L22.0046 438.666" stroke="url(#paint1_linear_2018_53)" stroke-miterlimit="2.91194" stroke-linejoin="round"/>
<path d="M1052.82 244.693H1125.56C1134.9 244.693 1144.17 243.188 1153.02 240.237L1158.91 238.275C1167.03 235.566 1174.72 231.669 1181.7 226.711L1186.84 223.067C1190.85 220.216 1194.62 217.029 1198.1 213.54L1381.25 29.7109M1052.82 216.682H1109.21C1118.69 216.682 1128.11 215.015 1137.01 211.756V211.756C1147.08 208.074 1156.31 202.431 1164.17 195.153L1199.18 162.762L1344.83 20.6075M1052.82 182.369H1111.86C1120.52 182.369 1129.12 180.88 1137.28 177.966V177.966C1142.12 176.237 1146.77 174.02 1151.16 171.348L1151.97 170.854C1157.74 167.339 1163.08 163.147 1167.86 158.367L1243.29 82.9312L1328.03 1" stroke="url(#paint2_linear_2018_53)" stroke-miterlimit="2.91194" stroke-linejoin="round"/>
<path d="M1050.72 307.716H1113.41C1120.14 307.716 1126.83 308.668 1133.29 310.543V310.543C1141.21 312.843 1148.67 316.5 1155.34 321.351L1155.89 321.753C1159.07 324.063 1162.06 326.618 1164.83 329.395L1263.6 428.162M1052.82 274.104H1118.6C1127.84 274.104 1136.95 276.255 1145.22 280.388V280.388C1150.81 283.183 1155.93 286.843 1160.38 291.231L1201.98 332.226L1304.22 428.162M1052.82 244.692H1123.42C1133.7 244.692 1143.89 246.515 1153.52 250.077L1158.79 252.022C1166.99 255.054 1174.69 259.31 1181.63 264.644L1198.48 277.605L1360.24 438.666" stroke="url(#paint3_linear_2018_53)" stroke-miterlimit="2.91194" stroke-linejoin="round"/>
<defs>
<linearGradient id="paint0_linear_2018_53" x1="315.147" y1="198.328" x2="33.6465" y2="-3.67239" gradientUnits="userSpaceOnUse">
<stop stop-color="#F5F5F7"/>
<stop offset="1" stop-color="#0A0A0A"/>
</linearGradient>
<linearGradient id="paint1_linear_2018_53" x1="266.646" y1="277.328" x2="101.146" y2="432.328" gradientUnits="userSpaceOnUse">
<stop stop-color="#F5F5F7"/>
<stop offset="1" stop-color="#0A0A0A"/>
</linearGradient>
<linearGradient id="paint2_linear_2018_53" x1="1067.1" y1="198.328" x2="1348.6" y2="-3.67236" gradientUnits="userSpaceOnUse">
<stop stop-color="#F5F5F7"/>
<stop offset="1" stop-color="#0A0A0A"/>
</linearGradient>
<linearGradient id="paint3_linear_2018_53" x1="1115.6" y1="277.328" x2="1281.1" y2="432.328" gradientUnits="userSpaceOnUse">
<stop stop-color="#F5F5F7"/>
<stop offset="1" stop-color="#0A0A0A"/>
</linearGradient>
</defs>
</svg>
