<svg width="38" height="38" viewBox="0 0 38 38" fill="none" xmlns="http://www.w3.org/2000/svg">
<g filter="url(#filter0_di_232_93)">
<rect x="1" y="1" width="36" height="36" rx="18" fill="#0A0A0A" fill-opacity="0.1" shape-rendering="crispEdges"/>
<rect x="1.21" y="1.21" width="35.58" height="35.58" rx="17.79" stroke="#0FF0FC" stroke-opacity="0.6" stroke-width="0.42" shape-rendering="crispEdges"/>
<path d="M16.7992 19.7388C16.7992 19.9581 16.7347 20.1724 16.6139 20.3547C16.493 20.5371 16.3212 20.6792 16.1202 20.7631C15.9192 20.847 15.6981 20.869 15.4847 20.8262C15.2714 20.7834 15.0754 20.6778 14.9215 20.5228C14.7677 20.3677 14.663 20.1701 14.6205 19.9551C14.5781 19.74 14.5999 19.5171 14.6831 19.3145C14.7664 19.1119 14.9073 18.9388 15.0882 18.817C15.2691 18.6951 15.4818 18.6301 15.6993 18.6301C15.991 18.6301 16.2708 18.7469 16.4771 18.9548C16.6833 19.1628 16.7992 19.4447 16.7992 19.7388ZM22.2988 18.6301C22.0813 18.6301 21.8686 18.6951 21.6878 18.817C21.5069 18.9388 21.3659 19.1119 21.2826 19.3145C21.1994 19.5171 21.1776 19.74 21.22 19.9551C21.2625 20.1701 21.3672 20.3677 21.5211 20.5228C21.6749 20.6778 21.8709 20.7834 22.0843 20.8262C22.2976 20.869 22.5188 20.847 22.7198 20.7631C22.9207 20.6792 23.0925 20.5371 23.2134 20.3547C23.3342 20.1724 23.3988 19.9581 23.3988 19.7388C23.3988 19.4447 23.2829 19.1628 23.0766 18.9548C22.8703 18.7469 22.5906 18.6301 22.2988 18.6301ZM29.1229 24.6263L22.9817 27.3712C22.797 27.4539 22.5975 27.4977 22.3955 27.4999C22.1934 27.5021 21.993 27.4626 21.8066 27.3839C21.6203 27.3051 21.4518 27.1888 21.3117 27.042C21.1716 26.8953 21.0627 26.7212 20.9918 26.5304L20.2484 24.4978C19.8378 24.5255 19.4213 24.5397 18.9991 24.5403C18.5768 24.5409 18.1604 24.5268 17.7497 24.4978L17.0064 26.5304C16.9353 26.7211 16.8264 26.8951 16.6862 27.0418C16.5461 27.1885 16.3777 27.3047 16.1913 27.3835C16.005 27.4622 15.8047 27.5017 15.6026 27.4996C15.4006 27.4975 15.2011 27.4538 15.0164 27.3712L8.87521 24.6263C8.55823 24.4866 8.30076 24.238 8.14867 23.9248C7.99659 23.6116 7.95976 23.2541 8.04476 22.9161L10.7497 12.1628C10.821 11.8831 10.9718 11.6305 11.1834 11.4359C11.3951 11.2413 11.6584 11.1131 11.9412 11.067L15.2465 10.5191C15.6109 10.4601 15.984 10.5397 16.2934 10.7426C16.6027 10.9454 16.8262 11.257 16.9202 11.6167L17.219 12.803C17.8014 12.7458 18.3947 12.7171 18.9991 12.7171C19.6034 12.7171 20.1962 12.7458 20.7773 12.803L21.0761 11.6167C21.17 11.2569 21.3934 10.9452 21.7028 10.7423C22.0122 10.5394 22.3854 10.4599 22.7498 10.5191L26.0569 11.067C26.3397 11.1131 26.6031 11.2413 26.8147 11.4359C27.0264 11.6305 27.1771 11.8831 27.2485 12.1628L29.9552 22.9152C30.0403 23.2535 30.0034 23.6114 29.8509 23.9248C29.6985 24.2382 29.4404 24.4869 29.1229 24.6263ZM28.5317 23.2755L25.825 12.5323C25.825 12.5323 25.825 12.5323 25.8177 12.5323L22.5124 11.978C22.51 11.9766 22.5073 11.9759 22.5046 11.9759C22.5019 11.9759 22.4992 11.9766 22.4968 11.978L22.2374 13.0072C22.6957 13.0941 23.154 13.1975 23.5967 13.3232C23.7713 13.368 23.9233 13.4761 24.0239 13.6267C24.1245 13.7773 24.1666 13.96 24.1421 14.1398C24.1176 14.3197 24.0283 14.4842 23.8912 14.602C23.7541 14.7197 23.5788 14.7825 23.3988 14.7783C23.3318 14.7782 23.2652 14.7688 23.2008 14.7506C21.8313 14.3761 20.418 14.1893 18.9991 14.1954C17.5802 14.189 16.1669 14.3755 14.7974 14.7497C14.7038 14.7789 14.6054 14.7888 14.508 14.779C14.4105 14.7692 14.316 14.7399 14.23 14.6926C14.1441 14.6454 14.0683 14.5813 14.0073 14.5041C13.9463 14.427 13.9012 14.3382 13.8748 14.2432C13.8483 14.1482 13.841 14.0487 13.8533 13.9508C13.8656 13.8529 13.8972 13.7585 13.9463 13.673C13.9954 13.5876 14.0609 13.513 14.1391 13.4536C14.2173 13.3941 14.3064 13.351 14.4014 13.3269C14.8432 13.2012 15.2978 13.0978 15.7598 13.0109L15.5004 11.978C15.5004 11.978 15.5004 11.978 15.4894 11.978L12.1805 12.5259C12.1778 12.5251 12.1749 12.5251 12.1722 12.5259L9.46641 23.2801L15.6076 26.0213C15.6107 26.023 15.6142 26.0239 15.6177 26.0239C15.6212 26.0239 15.6247 26.023 15.6278 26.0213L16.2493 24.3324C15.6266 24.2364 15.0102 24.1032 14.4032 23.9333C14.2224 23.8751 14.0711 23.7485 13.981 23.5801C13.8909 23.4118 13.8691 23.2147 13.9201 23.0305C13.9712 22.8462 14.0911 22.6891 14.2547 22.5921C14.4183 22.4952 14.6128 22.4659 14.7974 22.5105C16.1668 22.8852 17.5801 23.0717 18.9991 23.0649C20.418 23.0717 21.8314 22.8852 23.2008 22.5105C23.3881 22.4576 23.5886 22.4818 23.7581 22.5779C23.9277 22.674 24.0525 22.834 24.105 23.0228C24.1575 23.2116 24.1335 23.4137 24.0381 23.5846C23.9428 23.7556 23.7841 23.8813 23.5967 23.9342C22.9892 24.1038 22.3721 24.2368 21.7489 24.3324L22.3676 26.0213C22.3705 26.023 22.3738 26.0238 22.3772 26.0238C22.3806 26.0238 22.3839 26.023 22.3868 26.0213L28.5317 23.2755Z" fill="#F5F5F7"/>
</g>
<defs>
<filter id="filter0_di_232_93" x="0" y="0" width="38" height="38" filterUnits="userSpaceOnUse" color-interpolation-filters="sRGB">
<feFlood flood-opacity="0" result="BackgroundImageFix"/>
<feColorMatrix in="SourceAlpha" type="matrix" values="0 0 0 0 0 0 0 0 0 0 0 0 0 0 0 0 0 0 127 0" result="hardAlpha"/>
<feOffset/>
<feGaussianBlur stdDeviation="0.5"/>
<feComposite in2="hardAlpha" operator="out"/>
<feColorMatrix type="matrix" values="0 0 0 0 0.960784 0 0 0 0 0.960784 0 0 0 0 0.968627 0 0 0 1 0"/>
<feBlend mode="normal" in2="BackgroundImageFix" result="effect1_dropShadow_232_93"/>
<feBlend mode="normal" in="SourceGraphic" in2="effect1_dropShadow_232_93" result="shape"/>
<feColorMatrix in="SourceAlpha" type="matrix" values="0 0 0 0 0 0 0 0 0 0 0 0 0 0 0 0 0 0 127 0" result="hardAlpha"/>
<feOffset/>
<feGaussianBlur stdDeviation="1.5"/>
<feComposite in2="hardAlpha" operator="arithmetic" k2="-1" k3="1"/>
<feColorMatrix type="matrix" values="0 0 0 0 0.960784 0 0 0 0 0.960784 0 0 0 0 0.968627 0 0 0 1 0"/>
<feBlend mode="normal" in2="shape" result="effect2_innerShadow_232_93"/>
</filter>
</defs>
</svg>
