<svg width="107" height="122" viewBox="0 0 107 122" fill="none" xmlns="http://www.w3.org/2000/svg">
<g filter="url(#filter0_di_166_2206)">
<rect x="23.1992" y="10.6665" width="60.6" height="60.6" rx="30.3" fill="#0A0A0A" fill-opacity="0.1" shape-rendering="crispEdges"/>
<rect x="23.4156" y="10.8829" width="60.1671" height="60.1671" rx="30.0836" stroke="#0FF0FC" stroke-width="0.432857" shape-rendering="crispEdges"/>
<path d="M59.3073 50.9067C59.1554 50.6168 59.0312 50.2577 58.9345 49.8297C58.8516 49.3878 58.7895 48.9321 58.7481 48.4626C58.3614 48.8493 57.9265 49.2152 57.4432 49.5604C56.9737 49.9056 56.4558 50.2094 55.8897 50.4718C55.3097 50.7341 54.6953 50.9413 54.0463 51.0932C53.3972 51.245 52.7068 51.321 51.975 51.321C50.7874 51.321 49.7104 51.1484 48.7437 50.8032C47.791 50.458 46.9832 49.9885 46.3203 49.3947C45.6437 48.8147 45.119 48.1243 44.7462 47.3234C44.3871 46.5087 44.2076 45.6319 44.2076 44.6929C44.2076 43.4639 44.4493 42.3868 44.9326 41.4617C45.4297 40.5365 46.127 39.7632 47.0246 39.1418C47.9221 38.5342 48.9992 38.0786 50.2558 37.7748C51.5262 37.471 52.9416 37.3191 54.5019 37.3191H58.6859V35.5585C58.6859 34.8819 58.5617 34.2743 58.3131 33.7358C58.0646 33.1972 57.7124 32.7346 57.2567 32.348C56.8011 31.9752 56.2418 31.6852 55.579 31.478C54.93 31.2709 54.1981 31.1674 53.3834 31.1674C52.624 31.1674 51.9404 31.264 51.3329 31.4573C50.7391 31.6507 50.2351 31.9061 49.8208 32.2237C49.4066 32.5413 49.0821 32.921 48.8473 33.3629C48.6264 33.791 48.5159 34.2398 48.5159 34.7093H44.6633C44.6771 33.8945 44.8842 33.0937 45.2847 32.3066C45.699 31.5195 46.2927 30.8083 47.066 30.1731C47.8255 29.5517 48.7507 29.0477 49.8415 28.6611C50.9462 28.2745 52.1959 28.0811 53.5906 28.0811C54.861 28.0811 56.0416 28.2399 57.1325 28.5575C58.2234 28.8613 59.1692 29.3239 59.9701 29.9453C60.7572 30.5805 61.3786 31.3676 61.8343 32.3066C62.29 33.2455 62.5178 34.3433 62.5178 35.5999V46.0185C62.5178 46.7642 62.5869 47.5582 62.725 48.4005C62.863 49.229 63.0564 49.9539 63.3049 50.5753V50.9067H59.3073ZM52.5342 47.9862C53.2799 47.9862 53.9772 47.8896 54.6262 47.6962C55.2752 47.5029 55.869 47.2475 56.4075 46.9299C56.9322 46.6123 57.3879 46.2532 57.7746 45.8528C58.1612 45.4385 58.465 45.0105 58.6859 44.5686V40.0325H55.1233C53.7977 40.0325 52.6378 40.1498 51.6436 40.3846C50.6631 40.6055 49.883 40.9507 49.303 41.4202C48.8887 41.7516 48.5711 42.1452 48.3502 42.6009C48.1431 43.0566 48.0395 43.5744 48.0395 44.1543C48.0395 44.7067 48.1293 45.2176 48.3088 45.6871C48.5021 46.1566 48.7852 46.557 49.158 46.8884C49.5308 47.2337 50.0003 47.5029 50.5665 47.6962C51.1326 47.8896 51.7885 47.9862 52.5342 47.9862Z" fill="white"/>
</g>
<path d="M20.9688 99.9541C20.9688 99.4307 20.8477 98.9893 20.6055 98.6299C20.3711 98.2705 20.0664 97.9658 19.6914 97.7158C19.3164 97.4736 18.9023 97.2705 18.4492 97.1064C18.0039 96.9424 17.5742 96.7939 17.1602 96.6611C16.5586 96.4658 15.9453 96.2314 15.3203 95.958C14.7031 95.6768 14.1406 95.3408 13.6328 94.9502C13.1172 94.5518 12.6953 94.083 12.3672 93.5439C12.0469 92.9971 11.8867 92.3564 11.8867 91.6221C11.8867 90.8877 12.0469 90.2314 12.3672 89.6533C12.6953 89.0752 13.1211 88.5869 13.6445 88.1885C14.168 87.79 14.7617 87.4893 15.4258 87.2861C16.0898 87.0752 16.7578 86.9697 17.4297 86.9697C18.1719 86.9697 18.8867 87.0947 19.5742 87.3447C20.2617 87.5869 20.8711 87.9307 21.4023 88.376C21.9336 88.8213 22.3594 89.3604 22.6797 89.9932C23 90.626 23.168 91.333 23.1836 92.1143H20.957C20.8945 91.6221 20.7734 91.1768 20.5938 90.7783C20.4141 90.3721 20.1758 90.0244 19.8789 89.7354C19.582 89.4463 19.2266 89.2236 18.8125 89.0674C18.4062 88.9033 17.9453 88.8213 17.4297 88.8213C17.0156 88.8213 16.6094 88.8799 16.2109 88.9971C15.8203 89.1143 15.4727 89.29 15.168 89.5244C14.8555 89.7588 14.6055 90.0479 14.418 90.3916C14.2383 90.7354 14.1484 91.1338 14.1484 91.5869C14.1562 92.0791 14.2812 92.4971 14.5234 92.8408C14.7656 93.1768 15.0742 93.4619 15.4492 93.6963C15.8164 93.9307 16.2148 94.126 16.6445 94.2822C17.082 94.4385 17.4922 94.5752 17.875 94.6924C18.5078 94.8877 19.1406 95.126 19.7734 95.4072C20.4062 95.6807 20.9844 96.0322 21.5078 96.4619C22.0234 96.8604 22.4375 97.3486 22.75 97.9268C23.0703 98.5049 23.2305 99.1729 23.2305 99.9307C23.2305 100.696 23.0586 101.364 22.7148 101.935C22.3789 102.505 21.9414 102.978 21.4023 103.353C20.8633 103.735 20.2539 104.024 19.5742 104.22C18.8945 104.407 18.2148 104.501 17.5352 104.501C16.7227 104.501 15.9219 104.364 15.1328 104.091C14.3516 103.817 13.6719 103.423 13.0938 102.907C12.5781 102.462 12.168 101.942 11.8633 101.349C11.5664 100.747 11.4062 100.079 11.3828 99.3447H13.5977C13.668 99.876 13.8125 100.349 14.0312 100.763C14.25 101.169 14.5312 101.513 14.875 101.794C15.2188 102.083 15.6133 102.302 16.0586 102.45C16.5117 102.591 17.0039 102.661 17.5352 102.661C17.957 102.661 18.3711 102.61 18.7773 102.509C19.1914 102.399 19.5586 102.231 19.8789 102.005C20.1992 101.786 20.4609 101.509 20.6641 101.173C20.8672 100.829 20.9688 100.423 20.9688 99.9541ZM28.6211 93.4736C28.793 93.2158 28.9844 92.9814 29.1953 92.7705C29.4062 92.5518 29.6289 92.3604 29.8633 92.1963C30.2383 91.9229 30.6484 91.7158 31.0938 91.5752C31.5469 91.4346 32.0273 91.3604 32.5352 91.3525C33.1992 91.3525 33.8008 91.4502 34.3398 91.6455C34.8867 91.833 35.3516 92.1299 35.7344 92.5361C36.1172 92.9424 36.4102 93.458 36.6133 94.083C36.8242 94.7002 36.9297 95.4346 36.9297 96.2861V104.267H34.7617V96.2627C34.7617 95.7627 34.7031 95.3252 34.5859 94.9502C34.4688 94.5674 34.2969 94.251 34.0703 94.001C33.8281 93.7275 33.5234 93.5244 33.1562 93.3916C32.7891 93.251 32.3672 93.1846 31.8906 93.1924C31.5 93.1924 31.1289 93.2471 30.7773 93.3564C30.4258 93.4658 30.1016 93.6221 29.8047 93.8252C29.5703 93.9814 29.3516 94.165 29.1484 94.376C28.9531 94.5791 28.7773 94.8057 28.6211 95.0557V104.267H26.4531V86.2666H28.6211V93.4736ZM41.207 91.5869H47.6875V102.392H51.8242V104.267H41.207V102.392H45.5195V93.4736H41.207V91.5869ZM45.2383 88.2588C45.2383 88.0713 45.2656 87.8955 45.3203 87.7314C45.3828 87.5674 45.4766 87.4268 45.6016 87.3096C45.7031 87.208 45.832 87.1299 45.9883 87.0752C46.1523 87.0127 46.3359 86.9814 46.5391 86.9814C46.7422 86.9814 46.9219 87.0127 47.0781 87.0752C47.2344 87.1299 47.3633 87.208 47.4648 87.3096C47.5898 87.4189 47.6836 87.5557 47.7461 87.7197C47.8086 87.8838 47.8398 88.0635 47.8398 88.2588C47.8398 88.6104 47.7305 88.9033 47.5117 89.1377C47.293 89.3721 46.9688 89.4893 46.5391 89.4893C46.1016 89.4893 45.7734 89.3721 45.5547 89.1377C45.3438 88.9033 45.2383 88.6104 45.2383 88.2588ZM60.8828 104.501C59.9922 104.501 59.1719 104.349 58.4219 104.044C57.6797 103.739 57.043 103.313 56.5117 102.767C55.9805 102.22 55.5664 101.571 55.2695 100.821C54.9727 100.071 54.8242 99.2549 54.8242 98.3721V97.8799C54.8242 96.8564 54.9883 95.9424 55.3164 95.1377C55.6445 94.3252 56.082 93.6377 56.6289 93.0752C57.168 92.5205 57.7812 92.0947 58.4688 91.7979C59.1641 91.501 59.875 91.3525 60.6016 91.3525C61.5156 91.3525 62.3125 91.5127 62.9922 91.833C63.6797 92.1455 64.25 92.5791 64.7031 93.1338C65.1562 93.6963 65.4922 94.3564 65.7109 95.1143C65.9375 95.8721 66.0508 96.6924 66.0508 97.5752V98.5479H56.9922V98.6299C57.0469 99.2471 57.168 99.79 57.3555 100.259C57.5508 100.728 57.8164 101.142 58.1523 101.501C58.4961 101.884 58.9102 102.185 59.3945 102.403C59.8789 102.622 60.4141 102.731 61 102.731C61.7734 102.731 62.4609 102.575 63.0625 102.263C63.6641 101.95 64.1641 101.536 64.5625 101.021L65.8867 102.052C65.4648 102.692 64.832 103.263 63.9883 103.763C63.1523 104.255 62.1172 104.501 60.8828 104.501ZM60.6016 93.1338C60.1641 93.1338 59.75 93.2158 59.3594 93.3799C58.9688 93.5361 58.6172 93.7666 58.3047 94.0713C57.9922 94.3838 57.7266 94.7666 57.5078 95.2197C57.2969 95.665 57.1484 96.1807 57.0625 96.7666H63.8828V96.6611C63.8828 96.2705 63.8086 95.8525 63.6602 95.4072C63.5117 94.9541 63.3047 94.5635 63.0391 94.2354C62.7734 93.9072 62.4375 93.6416 62.0312 93.4385C61.6328 93.2354 61.1562 93.1338 60.6016 93.1338ZM70.0352 86.2666H76.5156V102.392H80.6523V104.267H70.0352V102.392H74.3477V88.1533H70.0352V86.2666ZM83.6992 97.8213C83.6992 96.876 83.8164 96.0088 84.0508 95.2197C84.293 94.4229 84.6367 93.7393 85.082 93.1689C85.5195 92.5986 86.0508 92.1533 86.6758 91.833C87.3008 91.5127 88 91.3525 88.7734 91.3525C89.5312 91.3525 90.1914 91.4814 90.7539 91.7393C91.3242 91.9893 91.8164 92.3564 92.2305 92.8408V86.2666H94.3984V104.267H92.4062L92.3125 102.931C91.8906 103.446 91.3867 103.837 90.8008 104.103C90.2148 104.368 89.5312 104.501 88.75 104.501C87.9844 104.501 87.2891 104.337 86.6641 104.009C86.0469 103.681 85.5195 103.228 85.082 102.649C84.6445 102.071 84.3047 101.392 84.0625 100.61C83.8203 99.8213 83.6992 98.9736 83.6992 98.0674V97.8213ZM85.8672 98.0674C85.8672 98.6846 85.9336 99.2705 86.0664 99.8252C86.1992 100.38 86.4062 100.868 86.6875 101.29C86.9609 101.712 87.3125 102.048 87.7422 102.298C88.1719 102.54 88.6875 102.661 89.2891 102.661C90.0156 102.661 90.6172 102.497 91.0938 102.169C91.5703 101.841 91.9492 101.399 92.2305 100.845V94.9619C91.9492 94.4463 91.5703 94.0244 91.0938 93.6963C90.6172 93.3604 90.0234 93.1924 89.3125 93.1924C88.7031 93.1924 88.1797 93.3174 87.7422 93.5674C87.3125 93.8174 86.9609 94.1533 86.6875 94.5752C86.4062 95.0049 86.1992 95.501 86.0664 96.0635C85.9336 96.6182 85.8672 97.2041 85.8672 97.8213V98.0674Z" fill="url(#paint0_linear_166_2206)"/>
<defs>
<filter id="filter0_di_166_2206" x="22.3335" y="9.80079" width="62.331" height="62.3315" filterUnits="userSpaceOnUse" color-interpolation-filters="sRGB">
<feFlood flood-opacity="0" result="BackgroundImageFix"/>
<feColorMatrix in="SourceAlpha" type="matrix" values="0 0 0 0 0 0 0 0 0 0 0 0 0 0 0 0 0 0 127 0" result="hardAlpha"/>
<feOffset/>
<feGaussianBlur stdDeviation="0.432857"/>
<feComposite in2="hardAlpha" operator="out"/>
<feColorMatrix type="matrix" values="0 0 0 0 0.960784 0 0 0 0 0.960784 0 0 0 0 0.968627 0 0 0 1 0"/>
<feBlend mode="normal" in2="BackgroundImageFix" result="effect1_dropShadow_166_2206"/>
<feBlend mode="normal" in="SourceGraphic" in2="effect1_dropShadow_166_2206" result="shape"/>
<feColorMatrix in="SourceAlpha" type="matrix" values="0 0 0 0 0 0 0 0 0 0 0 0 0 0 0 0 0 0 127 0" result="hardAlpha"/>
<feOffset/>
<feGaussianBlur stdDeviation="4.11214"/>
<feComposite in2="hardAlpha" operator="arithmetic" k2="-1" k3="1"/>
<feColorMatrix type="matrix" values="0 0 0 0 0.960784 0 0 0 0 0.960784 0 0 0 0 0.968627 0 0 0 1 0"/>
<feBlend mode="normal" in2="shape" result="effect2_innerShadow_166_2206"/>
</filter>
<linearGradient id="paint0_linear_166_2206" x1="97" y1="105.268" x2="10" y2="85.2647" gradientUnits="userSpaceOnUse">
<stop stop-color="#909091" stop-opacity="0.91"/>
<stop offset="1" stop-color="#F5F5F7"/>
</linearGradient>
</defs>
</svg>
