<svg width="38" height="38" viewBox="0 0 38 38" fill="none" xmlns="http://www.w3.org/2000/svg">
<g filter="url(#filter0_di_232_104)">
<rect x="1" y="1" width="36" height="36" rx="18" fill="#0A0A0A" fill-opacity="0.1" shape-rendering="crispEdges"/>
<rect x="1.21" y="1.21" width="35.58" height="35.58" rx="17.79" stroke="#0FF0FC" stroke-opacity="0.6" stroke-width="0.42" shape-rendering="crispEdges"/>
<path d="M28.288 13.7852C28.5144 13.0548 28.587 12.2855 28.5013 11.5256C28.4155 10.7658 28.1733 10.0319 27.7898 9.37038C27.7248 9.25775 27.6313 9.16423 27.5186 9.09921C27.406 9.0342 27.2782 8.99998 27.1481 9.00001C26.2854 8.99821 25.4341 9.19822 24.6624 9.58407C23.8907 9.96992 23.2199 10.5309 22.7037 11.2222H20.4815C19.9653 10.5309 19.2945 9.96992 18.5228 9.58407C17.7511 9.19822 16.8998 8.99821 16.037 9.00001C15.907 8.99998 15.7792 9.0342 15.6666 9.09921C15.5539 9.16423 15.4604 9.25775 15.3954 9.37038C15.0119 10.0319 14.7697 10.7658 14.6839 11.5256C14.5982 12.2855 14.6708 13.0548 14.8972 13.7852C14.4396 14.584 14.1944 15.4868 14.1852 16.4074V17.1482C14.1867 18.4015 14.6417 19.6119 15.4661 20.556C16.2905 21.5 17.4287 22.1139 18.6704 22.2843C18.1635 22.9328 17.8884 23.7324 17.8889 24.5556V25.2963H15.6667C15.0773 25.2963 14.5121 25.0622 14.0953 24.6454C13.6786 24.2287 13.4444 23.6634 13.4444 23.0741C13.4444 22.5877 13.3486 22.1061 13.1625 21.6567C12.9764 21.2074 12.7036 20.7991 12.3597 20.4552C12.0157 20.1112 11.6074 19.8384 11.1581 19.6523C10.7087 19.4662 10.2271 19.3704 9.74074 19.3704C9.54428 19.3704 9.35587 19.4484 9.21696 19.5873C9.07804 19.7262 9 19.9147 9 20.1111C9 20.3076 9.07804 20.496 9.21696 20.6349C9.35587 20.7738 9.54428 20.8519 9.74074 20.8519C10.3301 20.8519 10.8953 21.086 11.3121 21.5027C11.7288 21.9195 11.963 22.4847 11.963 23.0741C11.963 24.0564 12.3532 24.9984 13.0478 25.693C13.7423 26.3876 14.6844 26.7778 15.6667 26.7778H17.8889V28.2593C17.8889 28.4557 17.9669 28.6441 18.1058 28.783C18.2448 28.922 18.4332 29 18.6296 29C18.8261 29 19.0145 28.922 19.1534 28.783C19.2923 28.6441 19.3704 28.4557 19.3704 28.2593V24.5556C19.3704 23.9662 19.6045 23.401 20.0212 22.9842C20.438 22.5675 21.0032 22.3333 21.5926 22.3333C22.182 22.3333 22.7472 22.5675 23.1639 22.9842C23.5807 23.401 23.8148 23.9662 23.8148 24.5556V28.2593C23.8148 28.4557 23.8929 28.6441 24.0318 28.783C24.1707 28.922 24.3591 29 24.5556 29C24.752 29 24.9404 28.922 25.0793 28.783C25.2183 28.6441 25.2963 28.4557 25.2963 28.2593V24.5556C25.2968 23.7324 25.0217 22.9328 24.5148 22.2843C25.7565 22.1139 26.8947 21.5 27.7191 20.556C28.5435 19.6119 28.9984 18.4015 29 17.1482V16.4074C28.9908 15.4868 28.7456 14.584 28.288 13.7852ZM27.5185 17.1482C27.5185 18.1304 27.1283 19.0725 26.4337 19.7671C25.7391 20.4616 24.7971 20.8519 23.8148 20.8519H19.3704C18.3881 20.8519 17.446 20.4616 16.7515 19.7671C16.0569 19.0725 15.6667 18.1304 15.6667 17.1482V16.4074C15.6757 15.6667 15.8975 14.9442 16.3056 14.3259C16.3816 14.2257 16.4309 14.1077 16.4487 13.9831C16.4665 13.8585 16.4523 13.7315 16.4074 13.6139C16.2145 13.1163 16.1216 12.5855 16.1342 12.052C16.1467 11.5184 16.2644 10.9926 16.4806 10.5046C17.0868 10.5699 17.6705 10.7707 18.1886 11.0922C18.7066 11.4137 19.1457 11.8477 19.4731 12.362C19.5399 12.4664 19.6317 12.5524 19.7403 12.612C19.8488 12.6717 19.9706 12.7033 20.0944 12.7037H23.0898C23.2142 12.7037 23.3365 12.6724 23.4456 12.6127C23.5546 12.553 23.6469 12.4668 23.7139 12.362C24.0413 11.8477 24.4803 11.4137 24.9984 11.0921C25.5165 10.7706 26.1002 10.5698 26.7065 10.5046C26.9223 10.9927 27.0397 11.5186 27.0519 12.0522C27.0642 12.5857 26.971 13.1164 26.7778 13.6139C26.733 13.7303 26.718 13.8561 26.7342 13.9798C26.7504 14.1035 26.7972 14.2212 26.8704 14.3222C27.2825 14.9405 27.5075 15.6645 27.5185 16.4074V17.1482Z" fill="#F5F5F7"/>
</g>
<defs>
<filter id="filter0_di_232_104" x="0" y="0" width="38" height="38" filterUnits="userSpaceOnUse" color-interpolation-filters="sRGB">
<feFlood flood-opacity="0" result="BackgroundImageFix"/>
<feColorMatrix in="SourceAlpha" type="matrix" values="0 0 0 0 0 0 0 0 0 0 0 0 0 0 0 0 0 0 127 0" result="hardAlpha"/>
<feOffset/>
<feGaussianBlur stdDeviation="0.5"/>
<feComposite in2="hardAlpha" operator="out"/>
<feColorMatrix type="matrix" values="0 0 0 0 0.960784 0 0 0 0 0.960784 0 0 0 0 0.968627 0 0 0 1 0"/>
<feBlend mode="normal" in2="BackgroundImageFix" result="effect1_dropShadow_232_104"/>
<feBlend mode="normal" in="SourceGraphic" in2="effect1_dropShadow_232_104" result="shape"/>
<feColorMatrix in="SourceAlpha" type="matrix" values="0 0 0 0 0 0 0 0 0 0 0 0 0 0 0 0 0 0 127 0" result="hardAlpha"/>
<feOffset/>
<feGaussianBlur stdDeviation="1.5"/>
<feComposite in2="hardAlpha" operator="arithmetic" k2="-1" k3="1"/>
<feColorMatrix type="matrix" values="0 0 0 0 0.960784 0 0 0 0 0.960784 0 0 0 0 0.968627 0 0 0 1 0"/>
<feBlend mode="normal" in2="shape" result="effect2_innerShadow_232_104"/>
</filter>
</defs>
</svg>
