<svg width="590" height="347" viewBox="0 0 590 347" fill="none" xmlns="http://www.w3.org/2000/svg">
<g filter="url(#filter0_f_247_62)">
<mask id="path-1-inside-1_247_62" fill="white">
<path d="M489.572 112.686C489.572 106.177 484.296 100.9 477.787 100.9H112.447C105.938 100.9 100.661 106.177 100.661 112.686V235.148C100.661 241.657 105.938 246.934 112.447 246.934H477.787C484.296 246.934 489.572 241.657 489.572 235.149V112.686Z"/>
</mask>
<path d="M489.572 112.686C489.572 106.177 484.296 100.9 477.787 100.9H112.447C105.938 100.9 100.661 106.177 100.661 112.686V235.148C100.661 241.657 105.938 246.934 112.447 246.934H477.787C484.296 246.934 489.572 241.657 489.572 235.149V112.686Z" fill="url(#paint0_linear_247_62)" fill-opacity="0.06"/>
<path d="M489.572 112.686C489.572 105.247 483.542 99.2168 476.103 99.2168H112.447C105.008 99.2168 98.9778 105.247 98.9778 112.686H102.345C102.345 107.107 106.868 102.584 112.447 102.584H477.787C484.296 102.584 489.572 107.107 489.572 112.686ZM98.9778 235.149C98.9778 242.587 105.008 248.617 112.447 248.617H476.103C483.542 248.617 489.572 242.587 489.572 235.149V235.149C489.572 240.727 484.296 245.25 477.787 245.25H112.447C106.868 245.25 102.345 240.727 102.345 235.149L98.9778 235.149ZM489.572 246.934V100.9V246.934ZM112.447 99.2168C105.008 99.2168 98.9778 105.247 98.9778 112.686V235.149C98.9778 242.587 105.008 248.617 112.447 248.617V245.25C106.868 245.25 102.345 240.727 102.345 235.149V112.686C102.345 107.107 106.868 102.584 112.447 102.584V99.2168Z" fill="url(#paint1_linear_247_62)" mask="url(#path-1-inside-1_247_62)"/>
<path d="M142.646 130.307H140.208C140.114 129.786 139.94 129.327 139.685 128.932C139.429 128.536 139.117 128.2 138.747 127.924C138.377 127.648 137.963 127.439 137.505 127.299C137.052 127.158 136.57 127.088 136.06 127.088C135.138 127.088 134.312 127.32 133.583 127.783C132.859 128.247 132.286 128.926 131.864 129.822C131.448 130.718 131.239 131.812 131.239 133.104C131.239 134.406 131.448 135.505 131.864 136.4C132.286 137.296 132.862 137.973 133.591 138.432C134.32 138.89 135.14 139.119 136.052 139.119C136.557 139.119 137.036 139.051 137.489 138.916C137.948 138.775 138.362 138.57 138.731 138.299C139.101 138.028 139.414 137.697 139.669 137.307C139.929 136.911 140.109 136.458 140.208 135.947L142.646 135.955C142.515 136.742 142.263 137.465 141.888 138.127C141.518 138.783 141.041 139.351 140.458 139.83C139.88 140.304 139.218 140.671 138.474 140.932C137.729 141.192 136.916 141.322 136.036 141.322C134.651 141.322 133.416 140.994 132.333 140.338C131.25 139.676 130.396 138.731 129.771 137.502C129.151 136.273 128.841 134.807 128.841 133.104C128.841 131.395 129.153 129.929 129.778 128.705C130.403 127.476 131.257 126.533 132.341 125.877C133.424 125.215 134.656 124.885 136.036 124.885C136.885 124.885 137.677 125.007 138.411 125.252C139.151 125.492 139.815 125.846 140.403 126.314C140.992 126.778 141.479 127.346 141.864 128.018C142.25 128.684 142.51 129.447 142.646 130.307ZM150.401 141.346C149.276 141.346 148.295 141.088 147.456 140.572C146.618 140.057 145.966 139.335 145.503 138.408C145.039 137.481 144.808 136.398 144.808 135.158C144.808 133.913 145.039 132.825 145.503 131.893C145.966 130.96 146.618 130.236 147.456 129.721C148.295 129.205 149.276 128.947 150.401 128.947C151.526 128.947 152.508 129.205 153.347 129.721C154.185 130.236 154.836 130.96 155.3 131.893C155.763 132.825 155.995 133.913 155.995 135.158C155.995 136.398 155.763 137.481 155.3 138.408C154.836 139.335 154.185 140.057 153.347 140.572C152.508 141.088 151.526 141.346 150.401 141.346ZM150.409 139.385C151.138 139.385 151.743 139.192 152.222 138.807C152.701 138.421 153.055 137.908 153.284 137.268C153.519 136.627 153.636 135.921 153.636 135.15C153.636 134.385 153.519 133.682 153.284 133.041C153.055 132.395 152.701 131.877 152.222 131.486C151.743 131.096 151.138 130.9 150.409 130.9C149.675 130.9 149.065 131.096 148.581 131.486C148.102 131.877 147.745 132.395 147.511 133.041C147.282 133.682 147.167 134.385 147.167 135.15C147.167 135.921 147.282 136.627 147.511 137.268C147.745 137.908 148.102 138.421 148.581 138.807C149.065 139.192 149.675 139.385 150.409 139.385ZM158.603 141.104V129.104H160.845V131.057H160.993C161.243 130.395 161.652 129.88 162.22 129.51C162.787 129.135 163.467 128.947 164.259 128.947C165.061 128.947 165.733 129.135 166.274 129.51C166.821 129.885 167.225 130.4 167.485 131.057H167.61C167.897 130.416 168.353 129.906 168.978 129.525C169.603 129.14 170.347 128.947 171.212 128.947C172.3 128.947 173.188 129.288 173.876 129.971C174.569 130.653 174.915 131.682 174.915 133.057V141.104H172.579V133.275C172.579 132.463 172.358 131.874 171.915 131.51C171.472 131.145 170.944 130.963 170.329 130.963C169.569 130.963 168.978 131.197 168.556 131.666C168.134 132.13 167.923 132.726 167.923 133.455V141.104H165.595V133.127C165.595 132.476 165.392 131.952 164.985 131.557C164.579 131.161 164.05 130.963 163.399 130.963C162.957 130.963 162.548 131.08 162.173 131.314C161.803 131.544 161.504 131.864 161.274 132.275C161.05 132.687 160.938 133.163 160.938 133.705V141.104H158.603ZM178.046 145.604V129.104H180.327V131.049H180.522C180.658 130.799 180.853 130.51 181.108 130.182C181.364 129.854 181.718 129.567 182.171 129.322C182.624 129.072 183.223 128.947 183.968 128.947C184.937 128.947 185.801 129.192 186.562 129.682C187.322 130.171 187.918 130.877 188.351 131.799C188.788 132.721 189.007 133.83 189.007 135.127C189.007 136.424 188.791 137.536 188.358 138.463C187.926 139.385 187.332 140.096 186.577 140.596C185.822 141.09 184.96 141.338 183.991 141.338C183.262 141.338 182.666 141.215 182.202 140.971C181.744 140.726 181.384 140.439 181.124 140.111C180.864 139.783 180.663 139.492 180.522 139.236H180.382V145.604H178.046ZM180.335 135.104C180.335 135.947 180.457 136.687 180.702 137.322C180.947 137.958 181.301 138.455 181.765 138.814C182.228 139.169 182.796 139.346 183.468 139.346C184.166 139.346 184.749 139.161 185.218 138.791C185.687 138.416 186.041 137.908 186.28 137.268C186.525 136.627 186.647 135.906 186.647 135.104C186.647 134.312 186.528 133.601 186.288 132.971C186.054 132.34 185.7 131.843 185.226 131.479C184.757 131.114 184.171 130.932 183.468 130.932C182.791 130.932 182.218 131.106 181.749 131.455C181.285 131.804 180.934 132.291 180.694 132.916C180.455 133.541 180.335 134.27 180.335 135.104ZM195.116 141.369C194.356 141.369 193.668 141.229 193.054 140.947C192.439 140.661 191.952 140.247 191.593 139.705C191.239 139.163 191.062 138.499 191.062 137.713C191.062 137.036 191.192 136.479 191.452 136.041C191.713 135.604 192.064 135.257 192.507 135.002C192.95 134.747 193.444 134.554 193.991 134.424C194.538 134.294 195.095 134.195 195.663 134.127C196.382 134.044 196.965 133.976 197.413 133.924C197.861 133.867 198.187 133.775 198.39 133.65C198.593 133.525 198.694 133.322 198.694 133.041V132.986C198.694 132.304 198.502 131.775 198.116 131.4C197.736 131.025 197.168 130.838 196.413 130.838C195.627 130.838 195.007 131.012 194.554 131.361C194.106 131.705 193.796 132.088 193.624 132.51L191.429 132.01C191.689 131.281 192.069 130.692 192.569 130.244C193.075 129.791 193.655 129.463 194.312 129.26C194.968 129.051 195.658 128.947 196.382 128.947C196.861 128.947 197.369 129.005 197.905 129.119C198.447 129.229 198.952 129.432 199.421 129.729C199.895 130.025 200.283 130.45 200.585 131.002C200.887 131.549 201.038 132.26 201.038 133.135V141.104H198.757V139.463H198.663C198.512 139.765 198.285 140.062 197.983 140.354C197.681 140.645 197.293 140.887 196.819 141.08C196.345 141.273 195.778 141.369 195.116 141.369ZM195.624 139.494C196.27 139.494 196.822 139.367 197.28 139.111C197.744 138.856 198.095 138.523 198.335 138.111C198.58 137.695 198.702 137.249 198.702 136.775V135.229C198.619 135.312 198.457 135.39 198.218 135.463C197.983 135.531 197.715 135.59 197.413 135.643C197.111 135.689 196.817 135.734 196.53 135.775C196.244 135.812 196.004 135.843 195.812 135.869C195.358 135.926 194.944 136.023 194.569 136.158C194.2 136.294 193.903 136.489 193.679 136.744C193.46 136.994 193.351 137.327 193.351 137.744C193.351 138.322 193.564 138.76 193.991 139.057C194.418 139.348 194.963 139.494 195.624 139.494ZM204.149 141.104V129.104H206.407V131.01H206.532C206.751 130.364 207.136 129.856 207.688 129.486C208.246 129.111 208.876 128.924 209.579 128.924C209.725 128.924 209.897 128.929 210.095 128.939C210.298 128.95 210.457 128.963 210.571 128.979V131.213C210.478 131.187 210.311 131.158 210.071 131.127C209.832 131.09 209.592 131.072 209.353 131.072C208.8 131.072 208.308 131.189 207.876 131.424C207.449 131.653 207.11 131.973 206.86 132.385C206.61 132.791 206.485 133.255 206.485 133.775V141.104H204.149ZM217.335 141.346C216.153 141.346 215.134 141.093 214.28 140.588C213.431 140.077 212.775 139.361 212.312 138.439C211.853 137.512 211.624 136.426 211.624 135.182C211.624 133.952 211.853 132.869 212.312 131.932C212.775 130.994 213.421 130.262 214.249 129.736C215.082 129.21 216.056 128.947 217.171 128.947C217.848 128.947 218.504 129.059 219.14 129.283C219.775 129.507 220.345 129.859 220.851 130.338C221.356 130.817 221.754 131.439 222.046 132.205C222.338 132.965 222.483 133.89 222.483 134.979V135.807H212.944V134.057H220.194C220.194 133.442 220.069 132.898 219.819 132.424C219.569 131.945 219.218 131.567 218.765 131.291C218.317 131.015 217.791 130.877 217.187 130.877C216.53 130.877 215.957 131.038 215.468 131.361C214.983 131.679 214.608 132.096 214.343 132.611C214.082 133.122 213.952 133.676 213.952 134.275V135.643C213.952 136.445 214.093 137.127 214.374 137.689C214.66 138.252 215.059 138.682 215.569 138.979C216.08 139.27 216.676 139.416 217.358 139.416C217.801 139.416 218.205 139.354 218.569 139.229C218.934 139.098 219.249 138.906 219.515 138.65C219.78 138.395 219.983 138.08 220.124 137.705L222.335 138.104C222.158 138.755 221.84 139.325 221.382 139.814C220.929 140.299 220.358 140.676 219.671 140.947C218.989 141.213 218.21 141.346 217.335 141.346ZM233.499 141.104L229.968 129.104H232.382L234.733 137.916H234.851L237.21 129.104H239.624L241.968 137.877H242.085L244.421 129.104H246.835L243.312 141.104H240.929L238.491 132.439H238.312L235.874 141.104H233.499ZM249.052 141.104V129.104H251.388V141.104H249.052ZM250.231 127.252C249.825 127.252 249.476 127.117 249.185 126.846C248.898 126.57 248.755 126.242 248.755 125.861C248.755 125.476 248.898 125.148 249.185 124.877C249.476 124.601 249.825 124.463 250.231 124.463C250.638 124.463 250.984 124.601 251.271 124.877C251.562 125.148 251.708 125.476 251.708 125.861C251.708 126.242 251.562 126.57 251.271 126.846C250.984 127.117 250.638 127.252 250.231 127.252ZM260.132 129.104V130.979H253.577V129.104H260.132ZM255.335 126.229H257.671V137.58C257.671 138.033 257.739 138.374 257.874 138.604C258.009 138.827 258.184 138.981 258.397 139.064C258.616 139.143 258.853 139.182 259.108 139.182C259.296 139.182 259.46 139.169 259.601 139.143C259.741 139.117 259.851 139.096 259.929 139.08L260.351 141.01C260.215 141.062 260.022 141.114 259.772 141.166C259.522 141.223 259.21 141.255 258.835 141.26C258.22 141.27 257.647 141.161 257.116 140.932C256.585 140.702 256.155 140.348 255.827 139.869C255.499 139.39 255.335 138.788 255.335 138.064V126.229ZM265.31 133.979V141.104H262.974V125.104H265.278V131.057H265.427C265.708 130.411 266.138 129.898 266.716 129.518C267.294 129.137 268.049 128.947 268.981 128.947C269.804 128.947 270.523 129.117 271.138 129.455C271.757 129.794 272.237 130.299 272.575 130.971C272.919 131.637 273.091 132.471 273.091 133.471V141.104H270.755V133.752C270.755 132.872 270.528 132.189 270.075 131.705C269.622 131.215 268.992 130.971 268.185 130.971C267.632 130.971 267.138 131.088 266.7 131.322C266.268 131.557 265.927 131.9 265.677 132.354C265.432 132.801 265.31 133.343 265.31 133.979ZM282.218 141.104V125.104H287.921C289.166 125.104 290.197 125.33 291.015 125.783C291.832 126.236 292.444 126.856 292.851 127.643C293.257 128.424 293.46 129.304 293.46 130.283C293.46 131.268 293.254 132.153 292.843 132.939C292.437 133.721 291.822 134.34 290.999 134.799C290.181 135.252 289.153 135.479 287.913 135.479H283.991V133.432H287.694C288.481 133.432 289.119 133.296 289.608 133.025C290.098 132.749 290.457 132.374 290.687 131.9C290.916 131.426 291.03 130.887 291.03 130.283C291.03 129.679 290.916 129.143 290.687 128.674C290.457 128.205 290.095 127.838 289.601 127.572C289.111 127.307 288.465 127.174 287.663 127.174H284.632V141.104H282.218ZM301.124 141.346C299.942 141.346 298.924 141.093 298.069 140.588C297.22 140.077 296.564 139.361 296.101 138.439C295.642 137.512 295.413 136.426 295.413 135.182C295.413 133.952 295.642 132.869 296.101 131.932C296.564 130.994 297.21 130.262 298.038 129.736C298.871 129.21 299.845 128.947 300.96 128.947C301.637 128.947 302.293 129.059 302.929 129.283C303.564 129.507 304.134 129.859 304.64 130.338C305.145 130.817 305.543 131.439 305.835 132.205C306.127 132.965 306.272 133.89 306.272 134.979V135.807H296.733V134.057H303.983C303.983 133.442 303.858 132.898 303.608 132.424C303.358 131.945 303.007 131.567 302.554 131.291C302.106 131.015 301.58 130.877 300.976 130.877C300.319 130.877 299.746 131.038 299.257 131.361C298.772 131.679 298.397 132.096 298.132 132.611C297.871 133.122 297.741 133.676 297.741 134.275V135.643C297.741 136.445 297.882 137.127 298.163 137.689C298.45 138.252 298.848 138.682 299.358 138.979C299.869 139.27 300.465 139.416 301.147 139.416C301.59 139.416 301.994 139.354 302.358 139.229C302.723 139.098 303.038 138.906 303.304 138.65C303.569 138.395 303.772 138.08 303.913 137.705L306.124 138.104C305.947 138.755 305.629 139.325 305.171 139.814C304.718 140.299 304.147 140.676 303.46 140.947C302.778 141.213 301.999 141.346 301.124 141.346ZM308.864 141.104V129.104H311.122V131.01H311.247C311.466 130.364 311.851 129.856 312.403 129.486C312.961 129.111 313.591 128.924 314.294 128.924C314.44 128.924 314.612 128.929 314.81 128.939C315.013 128.95 315.172 128.963 315.286 128.979V131.213C315.192 131.187 315.026 131.158 314.786 131.127C314.547 131.09 314.307 131.072 314.067 131.072C313.515 131.072 313.023 131.189 312.591 131.424C312.164 131.653 311.825 131.973 311.575 132.385C311.325 132.791 311.2 133.255 311.2 133.775V141.104H308.864ZM317.308 141.104V129.104H319.55V131.057H319.698C319.948 130.395 320.357 129.88 320.925 129.51C321.493 129.135 322.172 128.947 322.964 128.947C323.766 128.947 324.438 129.135 324.979 129.51C325.526 129.885 325.93 130.4 326.19 131.057H326.315C326.602 130.416 327.058 129.906 327.683 129.525C328.308 129.14 329.052 128.947 329.917 128.947C331.006 128.947 331.894 129.288 332.581 129.971C333.274 130.653 333.62 131.682 333.62 133.057V141.104H331.284V133.275C331.284 132.463 331.063 131.874 330.62 131.51C330.177 131.145 329.649 130.963 329.034 130.963C328.274 130.963 327.683 131.197 327.261 131.666C326.839 132.13 326.628 132.726 326.628 133.455V141.104H324.3V133.127C324.3 132.476 324.097 131.952 323.69 131.557C323.284 131.161 322.756 130.963 322.104 130.963C321.662 130.963 321.253 131.08 320.878 131.314C320.508 131.544 320.209 131.864 319.979 132.275C319.756 132.687 319.644 133.163 319.644 133.705V141.104H317.308ZM340.243 141.369C339.483 141.369 338.795 141.229 338.181 140.947C337.566 140.661 337.079 140.247 336.72 139.705C336.366 139.163 336.188 138.499 336.188 137.713C336.188 137.036 336.319 136.479 336.579 136.041C336.84 135.604 337.191 135.257 337.634 135.002C338.076 134.747 338.571 134.554 339.118 134.424C339.665 134.294 340.222 134.195 340.79 134.127C341.509 134.044 342.092 133.976 342.54 133.924C342.988 133.867 343.313 133.775 343.517 133.65C343.72 133.525 343.821 133.322 343.821 133.041V132.986C343.821 132.304 343.629 131.775 343.243 131.4C342.863 131.025 342.295 130.838 341.54 130.838C340.754 130.838 340.134 131.012 339.681 131.361C339.233 131.705 338.923 132.088 338.751 132.51L336.556 132.01C336.816 131.281 337.196 130.692 337.696 130.244C338.201 129.791 338.782 129.463 339.438 129.26C340.095 129.051 340.785 128.947 341.509 128.947C341.988 128.947 342.496 129.005 343.032 129.119C343.574 129.229 344.079 129.432 344.548 129.729C345.022 130.025 345.41 130.45 345.712 131.002C346.014 131.549 346.165 132.26 346.165 133.135V141.104H343.884V139.463H343.79C343.639 139.765 343.412 140.062 343.11 140.354C342.808 140.645 342.42 140.887 341.946 141.08C341.472 141.273 340.905 141.369 340.243 141.369ZM340.751 139.494C341.397 139.494 341.949 139.367 342.407 139.111C342.871 138.856 343.222 138.523 343.462 138.111C343.707 137.695 343.829 137.249 343.829 136.775V135.229C343.746 135.312 343.584 135.39 343.345 135.463C343.11 135.531 342.842 135.59 342.54 135.643C342.238 135.689 341.944 135.734 341.657 135.775C341.371 135.812 341.131 135.843 340.938 135.869C340.485 135.926 340.071 136.023 339.696 136.158C339.326 136.294 339.03 136.489 338.806 136.744C338.587 136.994 338.478 137.327 338.478 137.744C338.478 138.322 338.691 138.76 339.118 139.057C339.545 139.348 340.09 139.494 340.751 139.494ZM351.612 133.979V141.104H349.276V129.104H351.519V131.057H351.667C351.943 130.421 352.375 129.911 352.964 129.525C353.558 129.14 354.305 128.947 355.206 128.947C356.024 128.947 356.74 129.119 357.354 129.463C357.969 129.801 358.446 130.307 358.784 130.979C359.123 131.65 359.292 132.481 359.292 133.471V141.104H356.956V133.752C356.956 132.882 356.729 132.202 356.276 131.713C355.823 131.218 355.201 130.971 354.409 130.971C353.868 130.971 353.386 131.088 352.964 131.322C352.547 131.557 352.216 131.9 351.972 132.354C351.732 132.801 351.612 133.343 351.612 133.979ZM367.597 141.346C366.414 141.346 365.396 141.093 364.542 140.588C363.693 140.077 363.037 139.361 362.573 138.439C362.115 137.512 361.886 136.426 361.886 135.182C361.886 133.952 362.115 132.869 362.573 131.932C363.037 130.994 363.683 130.262 364.511 129.736C365.344 129.21 366.318 128.947 367.433 128.947C368.11 128.947 368.766 129.059 369.401 129.283C370.037 129.507 370.607 129.859 371.112 130.338C371.618 130.817 372.016 131.439 372.308 132.205C372.599 132.965 372.745 133.89 372.745 134.979V135.807H363.206V134.057H370.456C370.456 133.442 370.331 132.898 370.081 132.424C369.831 131.945 369.479 131.567 369.026 131.291C368.578 131.015 368.052 130.877 367.448 130.877C366.792 130.877 366.219 131.038 365.729 131.361C365.245 131.679 364.87 132.096 364.604 132.611C364.344 133.122 364.214 133.676 364.214 134.275V135.643C364.214 136.445 364.354 137.127 364.636 137.689C364.922 138.252 365.321 138.682 365.831 138.979C366.341 139.27 366.938 139.416 367.62 139.416C368.063 139.416 368.466 139.354 368.831 139.229C369.196 139.098 369.511 138.906 369.776 138.65C370.042 138.395 370.245 138.08 370.386 137.705L372.597 138.104C372.42 138.755 372.102 139.325 371.644 139.814C371.19 140.299 370.62 140.676 369.933 140.947C369.25 141.213 368.472 141.346 367.597 141.346ZM377.673 133.979V141.104H375.337V129.104H377.579V131.057H377.728C378.004 130.421 378.436 129.911 379.024 129.525C379.618 129.14 380.366 128.947 381.267 128.947C382.084 128.947 382.8 129.119 383.415 129.463C384.03 129.801 384.506 130.307 384.845 130.979C385.183 131.65 385.353 132.481 385.353 133.471V141.104H383.017V133.752C383.017 132.882 382.79 132.202 382.337 131.713C381.884 131.218 381.261 130.971 380.47 130.971C379.928 130.971 379.446 131.088 379.024 131.322C378.608 131.557 378.277 131.9 378.032 132.354C377.793 132.801 377.673 133.343 377.673 133.979ZM394.087 129.104V130.979H387.532V129.104H394.087ZM389.29 126.229H391.626V137.58C391.626 138.033 391.694 138.374 391.829 138.604C391.965 138.827 392.139 138.981 392.353 139.064C392.571 139.143 392.808 139.182 393.063 139.182C393.251 139.182 393.415 139.169 393.556 139.143C393.696 139.117 393.806 139.096 393.884 139.08L394.306 141.01C394.17 141.062 393.978 141.114 393.728 141.166C393.478 141.223 393.165 141.255 392.79 141.26C392.175 141.27 391.603 141.161 391.071 140.932C390.54 140.702 390.11 140.348 389.782 139.869C389.454 139.39 389.29 138.788 389.29 138.064V126.229ZM129.356 166.104V150.104H135.06C136.299 150.104 137.328 150.317 138.146 150.744C138.968 151.171 139.583 151.762 139.989 152.518C140.396 153.268 140.599 154.135 140.599 155.119C140.599 156.098 140.393 156.96 139.981 157.705C139.575 158.445 138.961 159.02 138.138 159.432C137.32 159.843 136.291 160.049 135.052 160.049H130.731V157.971H134.833C135.614 157.971 136.25 157.859 136.739 157.635C137.234 157.411 137.596 157.085 137.825 156.658C138.054 156.231 138.169 155.718 138.169 155.119C138.169 154.515 138.052 153.992 137.817 153.549C137.588 153.106 137.226 152.768 136.731 152.533C136.242 152.294 135.599 152.174 134.802 152.174H131.771V166.104H129.356ZM137.255 158.885L141.208 166.104H138.458L134.583 158.885H137.255ZM148.37 166.346C147.188 166.346 146.17 166.093 145.315 165.588C144.466 165.077 143.81 164.361 143.347 163.439C142.888 162.512 142.659 161.426 142.659 160.182C142.659 158.952 142.888 157.869 143.347 156.932C143.81 155.994 144.456 155.262 145.284 154.736C146.118 154.21 147.091 153.947 148.206 153.947C148.883 153.947 149.539 154.059 150.175 154.283C150.81 154.507 151.381 154.859 151.886 155.338C152.391 155.817 152.789 156.439 153.081 157.205C153.373 157.965 153.519 158.89 153.519 159.979V160.807H143.979V159.057H151.229C151.229 158.442 151.104 157.898 150.854 157.424C150.604 156.945 150.253 156.567 149.8 156.291C149.352 156.015 148.826 155.877 148.222 155.877C147.565 155.877 146.993 156.038 146.503 156.361C146.019 156.679 145.644 157.096 145.378 157.611C145.118 158.122 144.987 158.676 144.987 159.275V160.643C144.987 161.445 145.128 162.127 145.409 162.689C145.696 163.252 146.094 163.682 146.604 163.979C147.115 164.27 147.711 164.416 148.394 164.416C148.836 164.416 149.24 164.354 149.604 164.229C149.969 164.098 150.284 163.906 150.55 163.65C150.815 163.395 151.019 163.08 151.159 162.705L153.37 163.104C153.193 163.755 152.875 164.325 152.417 164.814C151.964 165.299 151.394 165.676 150.706 165.947C150.024 166.213 149.245 166.346 148.37 166.346ZM161.165 166.346C160.004 166.346 159.004 166.083 158.165 165.557C157.332 165.025 156.691 164.294 156.243 163.361C155.795 162.429 155.571 161.361 155.571 160.158C155.571 158.939 155.8 157.864 156.259 156.932C156.717 155.994 157.363 155.262 158.196 154.736C159.03 154.21 160.011 153.947 161.142 153.947C162.053 153.947 162.866 154.117 163.579 154.455C164.293 154.788 164.868 155.257 165.306 155.861C165.748 156.465 166.011 157.171 166.095 157.979H163.821C163.696 157.416 163.41 156.932 162.962 156.525C162.519 156.119 161.925 155.916 161.181 155.916C160.53 155.916 159.959 156.088 159.47 156.432C158.985 156.77 158.608 157.255 158.337 157.885C158.066 158.51 157.931 159.249 157.931 160.104C157.931 160.979 158.063 161.734 158.329 162.369C158.595 163.005 158.97 163.497 159.454 163.846C159.944 164.195 160.519 164.369 161.181 164.369C161.623 164.369 162.024 164.288 162.384 164.127C162.748 163.96 163.053 163.723 163.298 163.416C163.548 163.109 163.722 162.739 163.821 162.307H166.095C166.011 163.083 165.759 163.775 165.337 164.385C164.915 164.994 164.35 165.473 163.642 165.822C162.938 166.171 162.113 166.346 161.165 166.346ZM173.647 166.346C172.522 166.346 171.541 166.088 170.702 165.572C169.864 165.057 169.213 164.335 168.749 163.408C168.285 162.481 168.054 161.398 168.054 160.158C168.054 158.913 168.285 157.825 168.749 156.893C169.213 155.96 169.864 155.236 170.702 154.721C171.541 154.205 172.522 153.947 173.647 153.947C174.772 153.947 175.754 154.205 176.593 154.721C177.431 155.236 178.082 155.96 178.546 156.893C179.009 157.825 179.241 158.913 179.241 160.158C179.241 161.398 179.009 162.481 178.546 163.408C178.082 164.335 177.431 165.057 176.593 165.572C175.754 166.088 174.772 166.346 173.647 166.346ZM173.655 164.385C174.384 164.385 174.989 164.192 175.468 163.807C175.947 163.421 176.301 162.908 176.53 162.268C176.765 161.627 176.882 160.921 176.882 160.15C176.882 159.385 176.765 158.682 176.53 158.041C176.301 157.395 175.947 156.877 175.468 156.486C174.989 156.096 174.384 155.9 173.655 155.9C172.921 155.9 172.312 156.096 171.827 156.486C171.348 156.877 170.991 157.395 170.757 158.041C170.528 158.682 170.413 159.385 170.413 160.15C170.413 160.921 170.528 161.627 170.757 162.268C170.991 162.908 171.348 163.421 171.827 163.807C172.312 164.192 172.921 164.385 173.655 164.385ZM181.849 166.104V154.104H184.106V156.01H184.231C184.45 155.364 184.836 154.856 185.388 154.486C185.945 154.111 186.575 153.924 187.278 153.924C187.424 153.924 187.596 153.929 187.794 153.939C187.997 153.95 188.156 153.963 188.271 153.979V156.213C188.177 156.187 188.01 156.158 187.771 156.127C187.531 156.09 187.291 156.072 187.052 156.072C186.5 156.072 186.007 156.189 185.575 156.424C185.148 156.653 184.81 156.973 184.56 157.385C184.31 157.791 184.185 158.255 184.185 158.775V166.104H181.849ZM194.354 166.338C193.386 166.338 192.521 166.09 191.761 165.596C191.006 165.096 190.412 164.385 189.979 163.463C189.552 162.536 189.339 161.424 189.339 160.127C189.339 158.83 189.555 157.721 189.987 156.799C190.425 155.877 191.024 155.171 191.784 154.682C192.545 154.192 193.407 153.947 194.37 153.947C195.115 153.947 195.714 154.072 196.167 154.322C196.625 154.567 196.979 154.854 197.229 155.182C197.485 155.51 197.683 155.799 197.823 156.049H197.964V150.104H200.3V166.104H198.019V164.236H197.823C197.683 164.492 197.479 164.783 197.214 165.111C196.953 165.439 196.594 165.726 196.136 165.971C195.677 166.215 195.084 166.338 194.354 166.338ZM194.87 164.346C195.542 164.346 196.11 164.169 196.573 163.814C197.042 163.455 197.396 162.958 197.636 162.322C197.881 161.687 198.003 160.947 198.003 160.104C198.003 159.27 197.883 158.541 197.644 157.916C197.404 157.291 197.052 156.804 196.589 156.455C196.125 156.106 195.552 155.932 194.87 155.932C194.167 155.932 193.581 156.114 193.112 156.479C192.644 156.843 192.289 157.34 192.05 157.971C191.815 158.601 191.698 159.312 191.698 160.104C191.698 160.906 191.818 161.627 192.058 162.268C192.297 162.908 192.651 163.416 193.12 163.791C193.594 164.161 194.177 164.346 194.87 164.346ZM212.626 157.033L210.509 157.408C210.42 157.137 210.28 156.88 210.087 156.635C209.899 156.39 209.644 156.189 209.321 156.033C208.998 155.877 208.595 155.799 208.11 155.799C207.449 155.799 206.897 155.947 206.454 156.244C206.011 156.536 205.79 156.913 205.79 157.377C205.79 157.778 205.938 158.101 206.235 158.346C206.532 158.59 207.011 158.791 207.673 158.947L209.579 159.385C210.683 159.64 211.506 160.033 212.048 160.564C212.59 161.096 212.86 161.786 212.86 162.635C212.86 163.354 212.652 163.994 212.235 164.557C211.824 165.114 211.248 165.551 210.509 165.869C209.774 166.187 208.923 166.346 207.954 166.346C206.61 166.346 205.514 166.059 204.665 165.486C203.816 164.908 203.295 164.088 203.103 163.025L205.36 162.682C205.501 163.27 205.79 163.715 206.228 164.018C206.665 164.314 207.235 164.463 207.938 164.463C208.704 164.463 209.316 164.304 209.774 163.986C210.233 163.663 210.462 163.27 210.462 162.807C210.462 162.432 210.321 162.117 210.04 161.861C209.764 161.606 209.34 161.413 208.767 161.283L206.735 160.838C205.616 160.583 204.787 160.176 204.251 159.619C203.72 159.062 203.454 158.356 203.454 157.502C203.454 156.794 203.652 156.174 204.048 155.643C204.444 155.111 204.991 154.697 205.688 154.4C206.386 154.098 207.186 153.947 208.087 153.947C209.384 153.947 210.405 154.229 211.149 154.791C211.894 155.348 212.386 156.096 212.626 157.033Z" fill="white"/>
<path d="M130.417 188.094V199.73H129.008V188.094H130.417ZM136.856 191.003V192.14H132.333V191.003H136.856ZM133.651 188.912H134.992V197.23C134.992 197.609 135.047 197.893 135.157 198.083C135.271 198.268 135.414 198.393 135.589 198.458C135.767 198.518 135.954 198.549 136.151 198.549C136.299 198.549 136.42 198.541 136.515 198.526C136.61 198.507 136.685 198.492 136.742 198.48L137.015 199.685C136.924 199.719 136.797 199.753 136.634 199.787C136.471 199.825 136.265 199.844 136.015 199.844C135.636 199.844 135.265 199.763 134.901 199.6C134.541 199.437 134.242 199.189 134.003 198.855C133.769 198.522 133.651 198.102 133.651 197.594V188.912ZM146.918 199.912C146.1 199.912 145.396 199.719 144.805 199.333C144.214 198.946 143.759 198.414 143.441 197.736C143.123 197.058 142.964 196.283 142.964 195.412C142.964 194.526 143.127 193.744 143.452 193.066C143.782 192.384 144.24 191.852 144.827 191.469C145.418 191.083 146.108 190.89 146.896 190.89C147.509 190.89 148.062 191.003 148.555 191.23C149.047 191.458 149.45 191.776 149.765 192.185C150.079 192.594 150.274 193.071 150.35 193.617H149.009C148.907 193.219 148.68 192.867 148.327 192.56C147.979 192.249 147.509 192.094 146.918 192.094C146.396 192.094 145.937 192.23 145.543 192.503C145.153 192.772 144.848 193.153 144.628 193.645C144.413 194.134 144.305 194.708 144.305 195.367C144.305 196.041 144.411 196.628 144.623 197.128C144.839 197.628 145.142 198.016 145.532 198.293C145.926 198.569 146.388 198.708 146.918 198.708C147.267 198.708 147.583 198.647 147.867 198.526C148.151 198.405 148.392 198.23 148.589 198.003C148.786 197.776 148.926 197.503 149.009 197.185H150.35C150.274 197.7 150.087 198.164 149.788 198.577C149.492 198.986 149.1 199.312 148.611 199.554C148.127 199.793 147.562 199.912 146.918 199.912ZM152.31 199.73V191.003H153.606V192.321H153.697C153.856 191.89 154.144 191.539 154.56 191.27C154.977 191.001 155.447 190.867 155.969 190.867C156.068 190.867 156.191 190.869 156.339 190.873C156.486 190.876 156.598 190.882 156.674 190.89V192.253C156.628 192.242 156.524 192.225 156.361 192.202C156.202 192.176 156.034 192.162 155.856 192.162C155.431 192.162 155.053 192.251 154.719 192.429C154.39 192.604 154.128 192.846 153.935 193.157C153.746 193.463 153.651 193.814 153.651 194.208V199.73H152.31ZM161.543 199.912C160.755 199.912 160.064 199.725 159.469 199.35C158.878 198.975 158.416 198.45 158.083 197.776C157.753 197.102 157.589 196.314 157.589 195.412C157.589 194.503 157.753 193.71 158.083 193.032C158.416 192.354 158.878 191.827 159.469 191.452C160.064 191.077 160.755 190.89 161.543 190.89C162.331 190.89 163.021 191.077 163.611 191.452C164.206 191.827 164.668 192.354 164.998 193.032C165.331 193.71 165.498 194.503 165.498 195.412C165.498 196.314 165.331 197.102 164.998 197.776C164.668 198.45 164.206 198.975 163.611 199.35C163.021 199.725 162.331 199.912 161.543 199.912ZM161.543 198.708C162.142 198.708 162.634 198.554 163.021 198.248C163.407 197.941 163.693 197.537 163.878 197.037C164.064 196.537 164.157 195.996 164.157 195.412C164.157 194.829 164.064 194.285 163.878 193.782C163.693 193.278 163.407 192.871 163.021 192.56C162.634 192.249 162.142 192.094 161.543 192.094C160.945 192.094 160.452 192.249 160.066 192.56C159.68 192.871 159.394 193.278 159.208 193.782C159.022 194.285 158.93 194.829 158.93 195.412C158.93 195.996 159.022 196.537 159.208 197.037C159.394 197.537 159.68 197.941 160.066 198.248C160.452 198.554 160.945 198.708 161.543 198.708ZM173.726 192.958L172.522 193.299C172.446 193.098 172.334 192.903 172.187 192.713C172.043 192.52 171.846 192.361 171.596 192.236C171.346 192.111 171.026 192.049 170.636 192.049C170.101 192.049 169.656 192.172 169.3 192.418C168.948 192.66 168.772 192.969 168.772 193.344C168.772 193.677 168.893 193.941 169.136 194.134C169.378 194.327 169.757 194.488 170.272 194.617L171.567 194.935C172.348 195.124 172.929 195.414 173.312 195.804C173.694 196.191 173.886 196.689 173.886 197.299C173.886 197.799 173.742 198.246 173.454 198.64C173.17 199.033 172.772 199.344 172.261 199.571C171.749 199.799 171.155 199.912 170.476 199.912C169.586 199.912 168.85 199.719 168.266 199.333C167.683 198.946 167.314 198.382 167.158 197.64L168.431 197.321C168.552 197.791 168.781 198.143 169.119 198.378C169.459 198.613 169.905 198.73 170.454 198.73C171.079 198.73 171.575 198.598 171.942 198.333C172.314 198.064 172.499 197.742 172.499 197.367C172.499 197.064 172.393 196.81 172.181 196.605C171.969 196.397 171.643 196.242 171.204 196.14L169.749 195.799C168.95 195.609 168.363 195.316 167.988 194.918C167.617 194.516 167.431 194.015 167.431 193.412C167.431 192.92 167.569 192.484 167.846 192.105C168.126 191.727 168.507 191.429 168.988 191.213C169.473 190.998 170.022 190.89 170.636 190.89C171.499 190.89 172.177 191.079 172.67 191.458C173.166 191.837 173.518 192.337 173.726 192.958ZM182.086 192.958L180.881 193.299C180.806 193.098 180.694 192.903 180.546 192.713C180.402 192.52 180.205 192.361 179.955 192.236C179.705 192.111 179.385 192.049 178.995 192.049C178.461 192.049 178.016 192.172 177.66 192.418C177.307 192.66 177.131 192.969 177.131 193.344C177.131 193.677 177.253 193.941 177.495 194.134C177.737 194.327 178.116 194.488 178.631 194.617L179.927 194.935C180.707 195.124 181.289 195.414 181.671 195.804C182.054 196.191 182.245 196.689 182.245 197.299C182.245 197.799 182.101 198.246 181.813 198.64C181.529 199.033 181.131 199.344 180.62 199.571C180.109 199.799 179.514 199.912 178.836 199.912C177.946 199.912 177.209 199.719 176.626 199.333C176.042 198.946 175.673 198.382 175.518 197.64L176.79 197.321C176.912 197.791 177.141 198.143 177.478 198.378C177.819 198.613 178.264 198.73 178.813 198.73C179.438 198.73 179.934 198.598 180.302 198.333C180.673 198.064 180.859 197.742 180.859 197.367C180.859 197.064 180.753 196.81 180.54 196.605C180.328 196.397 180.003 196.242 179.563 196.14L178.109 195.799C177.309 195.609 176.722 195.316 176.347 194.918C175.976 194.516 175.79 194.015 175.79 193.412C175.79 192.92 175.929 192.484 176.205 192.105C176.485 191.727 176.866 191.429 177.347 191.213C177.832 190.998 178.381 190.89 178.995 190.89C179.859 190.89 180.537 191.079 181.029 191.458C181.525 191.837 181.878 192.337 182.086 192.958ZM189.263 194.117V195.367H184.172V194.117H189.263ZM191.623 199.73V191.003H192.918V192.321H193.009C193.168 191.89 193.456 191.539 193.873 191.27C194.289 191.001 194.759 190.867 195.282 190.867C195.38 190.867 195.503 190.869 195.651 190.873C195.799 190.876 195.911 190.882 195.986 190.89V192.253C195.941 192.242 195.837 192.225 195.674 192.202C195.515 192.176 195.346 192.162 195.168 192.162C194.744 192.162 194.365 192.251 194.032 192.429C193.702 192.604 193.441 192.846 193.248 193.157C193.058 193.463 192.964 193.814 192.964 194.208V199.73H191.623ZM200.969 199.912C200.128 199.912 199.403 199.727 198.793 199.355C198.187 198.98 197.719 198.458 197.39 197.787C197.064 197.113 196.901 196.329 196.901 195.435C196.901 194.541 197.064 193.753 197.39 193.071C197.719 192.386 198.178 191.852 198.765 191.469C199.356 191.083 200.045 190.89 200.833 190.89C201.288 190.89 201.736 190.965 202.18 191.117C202.623 191.268 203.026 191.515 203.39 191.855C203.753 192.193 204.043 192.64 204.259 193.196C204.475 193.753 204.583 194.439 204.583 195.253V195.821H197.856V194.662H203.219C203.219 194.17 203.121 193.73 202.924 193.344C202.731 192.958 202.454 192.653 202.094 192.429C201.738 192.206 201.318 192.094 200.833 192.094C200.299 192.094 199.837 192.227 199.447 192.492C199.06 192.753 198.763 193.094 198.555 193.515C198.346 193.935 198.242 194.386 198.242 194.867V195.64C198.242 196.299 198.356 196.857 198.583 197.316C198.814 197.77 199.134 198.117 199.543 198.355C199.952 198.59 200.428 198.708 200.969 198.708C201.322 198.708 201.64 198.658 201.924 198.56C202.212 198.458 202.46 198.306 202.668 198.105C202.877 197.901 203.038 197.647 203.151 197.344L204.447 197.708C204.31 198.147 204.081 198.533 203.759 198.867C203.437 199.196 203.039 199.454 202.566 199.64C202.092 199.821 201.56 199.912 200.969 199.912ZM210.509 191.003V192.14H205.805V191.003H210.509ZM207.214 199.73V189.799C207.214 189.299 207.331 188.882 207.566 188.549C207.801 188.215 208.106 187.965 208.481 187.799C208.856 187.632 209.252 187.549 209.668 187.549C209.998 187.549 210.267 187.575 210.475 187.628C210.683 187.681 210.839 187.73 210.941 187.776L210.555 188.935C210.486 188.912 210.392 188.884 210.271 188.85C210.153 188.816 209.998 188.799 209.805 188.799C209.361 188.799 209.041 188.91 208.844 189.134C208.651 189.357 208.555 189.685 208.555 190.117V199.73H207.214ZM215.688 199.912C214.847 199.912 214.122 199.727 213.512 199.355C212.906 198.98 212.438 198.458 212.109 197.787C211.783 197.113 211.62 196.329 211.62 195.435C211.62 194.541 211.783 193.753 212.109 193.071C212.438 192.386 212.896 191.852 213.484 191.469C214.074 191.083 214.764 190.89 215.552 190.89C216.006 190.89 216.455 190.965 216.898 191.117C217.342 191.268 217.745 191.515 218.109 191.855C218.472 192.193 218.762 192.64 218.978 193.196C219.194 193.753 219.302 194.439 219.302 195.253V195.821H212.574V194.662H217.938C217.938 194.17 217.84 193.73 217.643 193.344C217.449 192.958 217.173 192.653 216.813 192.429C216.457 192.206 216.037 192.094 215.552 192.094C215.018 192.094 214.556 192.227 214.165 192.492C213.779 192.753 213.482 193.094 213.273 193.515C213.065 193.935 212.961 194.386 212.961 194.867V195.64C212.961 196.299 213.074 196.857 213.302 197.316C213.533 197.77 213.853 198.117 214.262 198.355C214.671 198.59 215.146 198.708 215.688 198.708C216.04 198.708 216.359 198.658 216.643 198.56C216.931 198.458 217.179 198.306 217.387 198.105C217.595 197.901 217.756 197.647 217.87 197.344L219.165 197.708C219.029 198.147 218.8 198.533 218.478 198.867C218.156 199.196 217.758 199.454 217.285 199.64C216.811 199.821 216.279 199.912 215.688 199.912ZM221.342 199.73V191.003H222.637V192.321H222.728C222.887 191.89 223.175 191.539 223.592 191.27C224.008 191.001 224.478 190.867 225.001 190.867C225.099 190.867 225.222 190.869 225.37 190.873C225.518 190.876 225.629 190.882 225.705 190.89V192.253C225.66 192.242 225.556 192.225 225.393 192.202C225.234 192.176 225.065 192.162 224.887 192.162C224.463 192.162 224.084 192.251 223.751 192.429C223.421 192.604 223.16 192.846 222.967 193.157C222.777 193.463 222.682 193.814 222.682 194.208V199.73H221.342ZM230.688 199.912C229.847 199.912 229.122 199.727 228.512 199.355C227.906 198.98 227.438 198.458 227.109 197.787C226.783 197.113 226.62 196.329 226.62 195.435C226.62 194.541 226.783 193.753 227.109 193.071C227.438 192.386 227.896 191.852 228.484 191.469C229.074 191.083 229.764 190.89 230.552 190.89C231.006 190.89 231.455 190.965 231.898 191.117C232.342 191.268 232.745 191.515 233.109 191.855C233.472 192.193 233.762 192.64 233.978 193.196C234.194 193.753 234.302 194.439 234.302 195.253V195.821H227.574V194.662H232.938C232.938 194.17 232.84 193.73 232.643 193.344C232.449 192.958 232.173 192.653 231.813 192.429C231.457 192.206 231.037 192.094 230.552 192.094C230.018 192.094 229.556 192.227 229.165 192.492C228.779 192.753 228.482 193.094 228.273 193.515C228.065 193.935 227.961 194.386 227.961 194.867V195.64C227.961 196.299 228.074 196.857 228.302 197.316C228.533 197.77 228.853 198.117 229.262 198.355C229.671 198.59 230.146 198.708 230.688 198.708C231.04 198.708 231.359 198.658 231.643 198.56C231.931 198.458 232.179 198.306 232.387 198.105C232.595 197.901 232.756 197.647 232.87 197.344L234.165 197.708C234.029 198.147 233.8 198.533 233.478 198.867C233.156 199.196 232.758 199.454 232.285 199.64C231.811 199.821 231.279 199.912 230.688 199.912ZM237.682 194.48V199.73H236.342V191.003H237.637V192.367H237.751C237.955 191.924 238.266 191.568 238.682 191.299C239.099 191.026 239.637 190.89 240.296 190.89C240.887 190.89 241.404 191.011 241.847 191.253C242.29 191.492 242.635 191.855 242.881 192.344C243.128 192.829 243.251 193.443 243.251 194.185V199.73H241.91V194.276C241.91 193.59 241.732 193.056 241.376 192.674C241.02 192.287 240.531 192.094 239.91 192.094C239.482 192.094 239.099 192.187 238.762 192.373C238.429 192.558 238.165 192.829 237.972 193.185C237.779 193.541 237.682 193.973 237.682 194.48ZM249.246 199.912C248.428 199.912 247.724 199.719 247.133 199.333C246.542 198.946 246.087 198.414 245.769 197.736C245.451 197.058 245.292 196.283 245.292 195.412C245.292 194.526 245.455 193.744 245.78 193.066C246.11 192.384 246.568 191.852 247.155 191.469C247.746 191.083 248.436 190.89 249.224 190.89C249.837 190.89 250.39 191.003 250.883 191.23C251.375 191.458 251.779 191.776 252.093 192.185C252.407 192.594 252.602 193.071 252.678 193.617H251.337C251.235 193.219 251.008 192.867 250.655 192.56C250.307 192.249 249.837 192.094 249.246 192.094C248.724 192.094 248.265 192.23 247.871 192.503C247.481 192.772 247.176 193.153 246.957 193.645C246.741 194.134 246.633 194.708 246.633 195.367C246.633 196.041 246.739 196.628 246.951 197.128C247.167 197.628 247.47 198.016 247.86 198.293C248.254 198.569 248.716 198.708 249.246 198.708C249.595 198.708 249.911 198.647 250.195 198.526C250.479 198.405 250.72 198.23 250.917 198.003C251.114 197.776 251.254 197.503 251.337 197.185H252.678C252.602 197.7 252.415 198.164 252.116 198.577C251.82 198.986 251.428 199.312 250.94 199.554C250.455 199.793 249.89 199.912 249.246 199.912ZM258.297 199.912C257.457 199.912 256.731 199.727 256.121 199.355C255.515 198.98 255.047 198.458 254.718 197.787C254.392 197.113 254.229 196.329 254.229 195.435C254.229 194.541 254.392 193.753 254.718 193.071C255.047 192.386 255.506 191.852 256.093 191.469C256.684 191.083 257.373 190.89 258.161 190.89C258.616 190.89 259.065 190.965 259.508 191.117C259.951 191.268 260.354 191.515 260.718 191.855C261.082 192.193 261.371 192.64 261.587 193.196C261.803 193.753 261.911 194.439 261.911 195.253V195.821H255.184V194.662H260.547C260.547 194.17 260.449 193.73 260.252 193.344C260.059 192.958 259.782 192.653 259.422 192.429C259.066 192.206 258.646 192.094 258.161 192.094C257.627 192.094 257.165 192.227 256.775 192.492C256.388 192.753 256.091 193.094 255.883 193.515C255.674 193.935 255.57 194.386 255.57 194.867V195.64C255.57 196.299 255.684 196.857 255.911 197.316C256.142 197.77 256.462 198.117 256.871 198.355C257.28 198.59 257.756 198.708 258.297 198.708C258.65 198.708 258.968 198.658 259.252 198.56C259.54 198.458 259.788 198.306 259.996 198.105C260.205 197.901 260.366 197.647 260.479 197.344L261.775 197.708C261.638 198.147 261.409 198.533 261.087 198.867C260.765 199.196 260.368 199.454 259.894 199.64C259.421 199.821 258.888 199.912 258.297 199.912ZM270.133 192.958L268.928 193.299C268.852 193.098 268.741 192.903 268.593 192.713C268.449 192.52 268.252 192.361 268.002 192.236C267.752 192.111 267.432 192.049 267.042 192.049C266.508 192.049 266.063 192.172 265.707 192.418C265.354 192.66 265.178 192.969 265.178 193.344C265.178 193.677 265.299 193.941 265.542 194.134C265.784 194.327 266.163 194.488 266.678 194.617L267.974 194.935C268.754 195.124 269.335 195.414 269.718 195.804C270.101 196.191 270.292 196.689 270.292 197.299C270.292 197.799 270.148 198.246 269.86 198.64C269.576 199.033 269.178 199.344 268.667 199.571C268.155 199.799 267.561 199.912 266.883 199.912C265.993 199.912 265.256 199.719 264.672 199.333C264.089 198.946 263.72 198.382 263.565 197.64L264.837 197.321C264.958 197.791 265.188 198.143 265.525 198.378C265.866 198.613 266.311 198.73 266.86 198.73C267.485 198.73 267.981 198.598 268.349 198.333C268.72 198.064 268.905 197.742 268.905 197.367C268.905 197.064 268.799 196.81 268.587 196.605C268.375 196.397 268.049 196.242 267.61 196.14L266.155 195.799C265.356 195.609 264.769 195.316 264.394 194.918C264.023 194.516 263.837 194.015 263.837 193.412C263.837 192.92 263.976 192.484 264.252 192.105C264.532 191.727 264.913 191.429 265.394 191.213C265.879 190.998 266.428 190.89 267.042 190.89C267.905 190.89 268.583 191.079 269.076 191.458C269.572 191.837 269.924 192.337 270.133 192.958ZM279.378 199.935C278.825 199.935 278.324 199.831 277.873 199.623C277.422 199.41 277.064 199.105 276.799 198.708C276.534 198.306 276.401 197.821 276.401 197.253C276.401 196.753 276.5 196.348 276.697 196.037C276.894 195.723 277.157 195.477 277.486 195.299C277.816 195.121 278.18 194.988 278.577 194.901C278.979 194.81 279.382 194.738 279.788 194.685C280.318 194.617 280.748 194.566 281.077 194.532C281.411 194.494 281.653 194.431 281.805 194.344C281.96 194.257 282.038 194.105 282.038 193.89V193.844C282.038 193.283 281.884 192.848 281.577 192.537C281.274 192.227 280.814 192.071 280.197 192.071C279.556 192.071 279.055 192.212 278.691 192.492C278.327 192.772 278.072 193.071 277.924 193.39L276.651 192.935C276.878 192.405 277.181 191.992 277.56 191.696C277.943 191.397 278.36 191.189 278.81 191.071C279.265 190.95 279.712 190.89 280.151 190.89C280.431 190.89 280.753 190.924 281.117 190.992C281.485 191.056 281.839 191.191 282.18 191.395C282.524 191.6 282.81 191.908 283.038 192.321C283.265 192.734 283.378 193.287 283.378 193.98V199.73H282.038V198.549H281.969C281.878 198.738 281.727 198.941 281.515 199.157C281.303 199.373 281.021 199.556 280.668 199.708C280.316 199.859 279.886 199.935 279.378 199.935ZM279.583 198.73C280.113 198.73 280.56 198.626 280.924 198.418C281.291 198.21 281.568 197.941 281.753 197.611C281.943 197.282 282.038 196.935 282.038 196.571V195.344C281.981 195.412 281.856 195.475 281.663 195.532C281.473 195.585 281.253 195.632 281.003 195.674C280.757 195.712 280.517 195.746 280.282 195.776C280.051 195.802 279.863 195.825 279.719 195.844C279.371 195.89 279.045 195.963 278.742 196.066C278.443 196.164 278.2 196.314 278.015 196.515C277.833 196.712 277.742 196.98 277.742 197.321C277.742 197.787 277.914 198.14 278.259 198.378C278.608 198.613 279.049 198.73 279.583 198.73ZM289.349 203.185C288.701 203.185 288.144 203.102 287.678 202.935C287.212 202.772 286.824 202.556 286.513 202.287C286.207 202.022 285.962 201.738 285.78 201.435L286.849 200.685C286.97 200.844 287.123 201.026 287.309 201.23C287.494 201.439 287.748 201.619 288.07 201.77C288.396 201.926 288.822 202.003 289.349 202.003C290.053 202.003 290.635 201.833 291.093 201.492C291.551 201.151 291.78 200.617 291.78 199.89V198.117H291.667C291.568 198.276 291.428 198.473 291.246 198.708C291.068 198.939 290.811 199.145 290.474 199.327C290.14 199.505 289.69 199.594 289.121 199.594C288.417 199.594 287.784 199.427 287.224 199.094C286.667 198.761 286.226 198.276 285.9 197.64C285.578 197.003 285.417 196.23 285.417 195.321C285.417 194.427 285.574 193.649 285.888 192.986C286.203 192.319 286.64 191.804 287.201 191.441C287.762 191.073 288.409 190.89 289.144 190.89C289.712 190.89 290.163 190.984 290.496 191.174C290.833 191.359 291.091 191.571 291.269 191.81C291.451 192.045 291.591 192.238 291.69 192.39H291.826V191.003H293.121V199.98C293.121 200.73 292.951 201.34 292.61 201.81C292.273 202.283 291.818 202.63 291.246 202.85C290.678 203.073 290.046 203.185 289.349 203.185ZM289.303 198.39C289.841 198.39 290.296 198.266 290.667 198.02C291.038 197.774 291.32 197.42 291.513 196.958C291.707 196.496 291.803 195.943 291.803 195.299C291.803 194.67 291.708 194.115 291.519 193.634C291.33 193.153 291.049 192.776 290.678 192.503C290.307 192.23 289.849 192.094 289.303 192.094C288.735 192.094 288.262 192.238 287.883 192.526C287.508 192.814 287.226 193.2 287.036 193.685C286.851 194.17 286.758 194.708 286.758 195.299C286.758 195.905 286.852 196.441 287.042 196.907C287.235 197.369 287.519 197.732 287.894 197.998C288.273 198.259 288.743 198.39 289.303 198.39ZM298.144 199.935C297.591 199.935 297.089 199.831 296.638 199.623C296.188 199.41 295.83 199.105 295.565 198.708C295.299 198.306 295.167 197.821 295.167 197.253C295.167 196.753 295.265 196.348 295.462 196.037C295.659 195.723 295.922 195.477 296.252 195.299C296.582 195.121 296.945 194.988 297.343 194.901C297.744 194.81 298.148 194.738 298.553 194.685C299.083 194.617 299.513 194.566 299.843 194.532C300.176 194.494 300.419 194.431 300.57 194.344C300.726 194.257 300.803 194.105 300.803 193.89V193.844C300.803 193.283 300.65 192.848 300.343 192.537C300.04 192.227 299.58 192.071 298.962 192.071C298.322 192.071 297.82 192.212 297.457 192.492C297.093 192.772 296.837 193.071 296.69 193.39L295.417 192.935C295.644 192.405 295.947 191.992 296.326 191.696C296.708 191.397 297.125 191.189 297.576 191.071C298.03 190.95 298.477 190.89 298.917 190.89C299.197 190.89 299.519 190.924 299.883 190.992C300.25 191.056 300.604 191.191 300.945 191.395C301.29 191.6 301.576 191.908 301.803 192.321C302.03 192.734 302.144 193.287 302.144 193.98V199.73H300.803V198.549H300.735C300.644 198.738 300.493 198.941 300.28 199.157C300.068 199.373 299.786 199.556 299.434 199.708C299.082 199.859 298.652 199.935 298.144 199.935ZM298.349 198.73C298.879 198.73 299.326 198.626 299.69 198.418C300.057 198.21 300.333 197.941 300.519 197.611C300.708 197.282 300.803 196.935 300.803 196.571V195.344C300.746 195.412 300.621 195.475 300.428 195.532C300.239 195.585 300.019 195.632 299.769 195.674C299.523 195.712 299.282 195.746 299.047 195.776C298.816 195.802 298.629 195.825 298.485 195.844C298.137 195.89 297.811 195.963 297.508 196.066C297.208 196.164 296.966 196.314 296.78 196.515C296.599 196.712 296.508 196.98 296.508 197.321C296.508 197.787 296.68 198.14 297.025 198.378C297.373 198.613 297.815 198.73 298.349 198.73ZM304.592 199.73V191.003H305.932V199.73H304.592ZM305.273 189.549C305.012 189.549 304.787 189.46 304.597 189.282C304.412 189.104 304.319 188.89 304.319 188.64C304.319 188.39 304.412 188.176 304.597 187.998C304.787 187.819 305.012 187.73 305.273 187.73C305.535 187.73 305.758 187.819 305.944 187.998C306.133 188.176 306.228 188.39 306.228 188.64C306.228 188.89 306.133 189.104 305.944 189.282C305.758 189.46 305.535 189.549 305.273 189.549ZM309.729 194.48V199.73H308.388V191.003H309.684V192.367H309.797C310.002 191.924 310.313 191.568 310.729 191.299C311.146 191.026 311.684 190.89 312.343 190.89C312.934 190.89 313.451 191.011 313.894 191.253C314.337 191.492 314.682 191.855 314.928 192.344C315.174 192.829 315.297 193.443 315.297 194.185V199.73H313.957V194.276C313.957 193.59 313.779 193.056 313.422 192.674C313.066 192.287 312.578 192.094 311.957 192.094C311.529 192.094 311.146 192.187 310.809 192.373C310.476 192.558 310.212 192.829 310.019 193.185C309.826 193.541 309.729 193.973 309.729 194.48ZM323.93 192.958L322.725 193.299C322.649 193.098 322.538 192.903 322.39 192.713C322.246 192.52 322.049 192.361 321.799 192.236C321.549 192.111 321.229 192.049 320.839 192.049C320.305 192.049 319.86 192.172 319.503 192.418C319.151 192.66 318.975 192.969 318.975 193.344C318.975 193.677 319.096 193.941 319.339 194.134C319.581 194.327 319.96 194.488 320.475 194.617L321.771 194.935C322.551 195.124 323.132 195.414 323.515 195.804C323.897 196.191 324.089 196.689 324.089 197.299C324.089 197.799 323.945 198.246 323.657 198.64C323.373 199.033 322.975 199.344 322.464 199.571C321.952 199.799 321.358 199.912 320.68 199.912C319.789 199.912 319.053 199.719 318.469 199.333C317.886 198.946 317.517 198.382 317.361 197.64L318.634 197.321C318.755 197.791 318.985 198.143 319.322 198.378C319.663 198.613 320.108 198.73 320.657 198.73C321.282 198.73 321.778 198.598 322.146 198.333C322.517 198.064 322.702 197.742 322.702 197.367C322.702 197.064 322.596 196.81 322.384 196.605C322.172 196.397 321.846 196.242 321.407 196.14L319.952 195.799C319.153 195.609 318.566 195.316 318.191 194.918C317.82 194.516 317.634 194.015 317.634 193.412C317.634 192.92 317.772 192.484 318.049 192.105C318.329 191.727 318.71 191.429 319.191 191.213C319.676 190.998 320.225 190.89 320.839 190.89C321.702 190.89 322.38 191.079 322.873 191.458C323.369 191.837 323.721 192.337 323.93 192.958ZM329.903 191.003V192.14H325.38V191.003H329.903ZM326.698 188.912H328.039V197.23C328.039 197.609 328.094 197.893 328.204 198.083C328.317 198.268 328.461 198.393 328.636 198.458C328.814 198.518 329.001 198.549 329.198 198.549C329.346 198.549 329.467 198.541 329.562 198.526C329.656 198.507 329.732 198.492 329.789 198.48L330.062 199.685C329.971 199.719 329.844 199.753 329.681 199.787C329.518 199.825 329.312 199.844 329.062 199.844C328.683 199.844 328.312 199.763 327.948 199.6C327.588 199.437 327.289 199.189 327.05 198.855C326.815 198.522 326.698 198.102 326.698 197.594V188.912ZM338.988 199.935C338.435 199.935 337.933 199.831 337.482 199.623C337.031 199.41 336.673 199.105 336.408 198.708C336.143 198.306 336.011 197.821 336.011 197.253C336.011 196.753 336.109 196.348 336.306 196.037C336.503 195.723 336.766 195.477 337.096 195.299C337.425 195.121 337.789 194.988 338.187 194.901C338.588 194.81 338.992 194.738 339.397 194.685C339.927 194.617 340.357 194.566 340.687 194.532C341.02 194.494 341.262 194.431 341.414 194.344C341.569 194.257 341.647 194.105 341.647 193.89V193.844C341.647 193.283 341.494 192.848 341.187 192.537C340.884 192.227 340.423 192.071 339.806 192.071C339.166 192.071 338.664 192.212 338.3 192.492C337.937 192.772 337.681 193.071 337.533 193.39L336.261 192.935C336.488 192.405 336.791 191.992 337.17 191.696C337.552 191.397 337.969 191.189 338.42 191.071C338.874 190.95 339.321 190.89 339.761 190.89C340.041 190.89 340.363 190.924 340.726 190.992C341.094 191.056 341.448 191.191 341.789 191.395C342.134 191.6 342.42 191.908 342.647 192.321C342.874 192.734 342.988 193.287 342.988 193.98V199.73H341.647V198.549H341.579C341.488 198.738 341.336 198.941 341.124 199.157C340.912 199.373 340.63 199.556 340.278 199.708C339.925 199.859 339.495 199.935 338.988 199.935ZM339.192 198.73C339.723 198.73 340.17 198.626 340.533 198.418C340.901 198.21 341.177 197.941 341.363 197.611C341.552 197.282 341.647 196.935 341.647 196.571V195.344C341.59 195.412 341.465 195.475 341.272 195.532C341.083 195.585 340.863 195.632 340.613 195.674C340.367 195.712 340.126 195.746 339.891 195.776C339.66 195.802 339.473 195.825 339.329 195.844C338.98 195.89 338.655 195.963 338.351 196.066C338.052 196.164 337.81 196.314 337.624 196.515C337.442 196.712 337.351 196.98 337.351 197.321C337.351 197.787 337.524 198.14 337.869 198.378C338.217 198.613 338.658 198.73 339.192 198.73ZM349.935 203.003V191.003H351.231V192.39H351.39C351.488 192.238 351.625 192.045 351.799 191.81C351.977 191.571 352.231 191.359 352.56 191.174C352.894 190.984 353.344 190.89 353.913 190.89C354.647 190.89 355.295 191.073 355.856 191.441C356.416 191.808 356.854 192.329 357.168 193.003C357.483 193.677 357.64 194.473 357.64 195.39C357.64 196.314 357.483 197.115 357.168 197.793C356.854 198.467 356.418 198.99 355.861 199.361C355.305 199.729 354.663 199.912 353.935 199.912C353.375 199.912 352.926 199.819 352.589 199.634C352.252 199.444 351.992 199.23 351.81 198.992C351.628 198.749 351.488 198.549 351.39 198.39H351.276V203.003H349.935ZM351.253 195.367C351.253 196.026 351.35 196.607 351.543 197.111C351.736 197.611 352.019 198.003 352.39 198.287C352.761 198.568 353.216 198.708 353.753 198.708C354.314 198.708 354.782 198.56 355.157 198.265C355.536 197.965 355.82 197.564 356.009 197.06C356.202 196.552 356.299 195.988 356.299 195.367C356.299 194.753 356.204 194.2 356.015 193.708C355.829 193.212 355.547 192.819 355.168 192.532C354.793 192.24 354.322 192.094 353.753 192.094C353.208 192.094 352.75 192.232 352.378 192.509C352.007 192.782 351.727 193.164 351.538 193.657C351.348 194.145 351.253 194.715 351.253 195.367ZM363.344 199.912C362.503 199.912 361.778 199.727 361.168 199.355C360.562 198.98 360.094 198.458 359.765 197.787C359.439 197.113 359.276 196.329 359.276 195.435C359.276 194.541 359.439 193.753 359.765 193.071C360.094 192.386 360.553 191.852 361.14 191.469C361.731 191.083 362.42 190.89 363.208 190.89C363.663 190.89 364.111 190.965 364.555 191.117C364.998 191.268 365.401 191.515 365.765 191.855C366.128 192.193 366.418 192.64 366.634 193.196C366.85 193.753 366.958 194.439 366.958 195.253V195.821H360.231V194.662H365.594C365.594 194.17 365.496 193.73 365.299 193.344C365.106 192.958 364.829 192.653 364.469 192.429C364.113 192.206 363.693 192.094 363.208 192.094C362.674 192.094 362.212 192.227 361.822 192.492C361.435 192.753 361.138 193.094 360.93 193.515C360.721 193.935 360.617 194.386 360.617 194.867V195.64C360.617 196.299 360.731 196.857 360.958 197.316C361.189 197.77 361.509 198.117 361.918 198.355C362.327 198.59 362.803 198.708 363.344 198.708C363.697 198.708 364.015 198.658 364.299 198.56C364.587 198.458 364.835 198.306 365.043 198.105C365.252 197.901 365.413 197.647 365.526 197.344L366.822 197.708C366.685 198.147 366.456 198.533 366.134 198.867C365.812 199.196 365.414 199.454 364.941 199.64C364.467 199.821 363.935 199.912 363.344 199.912ZM368.998 199.73V191.003H370.293V192.321H370.384C370.543 191.89 370.831 191.539 371.248 191.27C371.664 191.001 372.134 190.867 372.657 190.867C372.755 190.867 372.878 190.869 373.026 190.873C373.174 190.876 373.286 190.882 373.361 190.89V192.253C373.316 192.242 373.212 192.225 373.049 192.202C372.89 192.176 372.721 192.162 372.543 192.162C372.119 192.162 371.74 192.251 371.407 192.429C371.077 192.604 370.816 192.846 370.623 193.157C370.433 193.463 370.339 193.814 370.339 194.208V199.73H368.998ZM374.951 199.73V191.003H376.246V192.367H376.36C376.542 191.901 376.835 191.539 377.241 191.282C377.646 191.02 378.133 190.89 378.701 190.89C379.277 190.89 379.756 191.02 380.138 191.282C380.525 191.539 380.826 191.901 381.042 192.367H381.133C381.356 191.916 381.691 191.558 382.138 191.293C382.585 191.024 383.121 190.89 383.746 190.89C384.527 190.89 385.165 191.134 385.661 191.623C386.157 192.107 386.405 192.863 386.405 193.89V199.73H385.065V193.89C385.065 193.246 384.888 192.785 384.536 192.509C384.184 192.232 383.769 192.094 383.292 192.094C382.678 192.094 382.203 192.28 381.866 192.651C381.529 193.018 381.36 193.484 381.36 194.049V199.73H379.996V193.753C379.996 193.257 379.835 192.857 379.513 192.554C379.191 192.248 378.777 192.094 378.269 192.094C377.921 192.094 377.595 192.187 377.292 192.373C376.993 192.558 376.75 192.816 376.565 193.145C376.383 193.471 376.292 193.848 376.292 194.276V199.73H374.951ZM391.425 199.935C390.872 199.935 390.37 199.831 389.92 199.623C389.469 199.41 389.111 199.105 388.846 198.708C388.581 198.306 388.448 197.821 388.448 197.253C388.448 196.753 388.547 196.348 388.744 196.037C388.94 195.723 389.204 195.477 389.533 195.299C389.863 195.121 390.226 194.988 390.624 194.901C391.026 194.81 391.429 194.738 391.834 194.685C392.365 194.617 392.795 194.566 393.124 194.532C393.458 194.494 393.7 194.431 393.851 194.344C394.007 194.257 394.084 194.105 394.084 193.89V193.844C394.084 193.283 393.931 192.848 393.624 192.537C393.321 192.227 392.861 192.071 392.244 192.071C391.603 192.071 391.101 192.212 390.738 192.492C390.374 192.772 390.119 193.071 389.971 193.39L388.698 192.935C388.925 192.405 389.228 191.992 389.607 191.696C389.99 191.397 390.406 191.189 390.857 191.071C391.312 190.95 391.759 190.89 392.198 190.89C392.478 190.89 392.8 190.924 393.164 190.992C393.531 191.056 393.886 191.191 394.226 191.395C394.571 191.6 394.857 191.908 395.084 192.321C395.312 192.734 395.425 193.287 395.425 193.98V199.73H394.084V198.549H394.016C393.925 198.738 393.774 198.941 393.562 199.157C393.35 199.373 393.067 199.556 392.715 199.708C392.363 199.859 391.933 199.935 391.425 199.935ZM391.63 198.73C392.16 198.73 392.607 198.626 392.971 198.418C393.338 198.21 393.615 197.941 393.8 197.611C393.99 197.282 394.084 196.935 394.084 196.571V195.344C394.028 195.412 393.903 195.475 393.709 195.532C393.52 195.585 393.3 195.632 393.05 195.674C392.804 195.712 392.564 195.746 392.329 195.776C392.098 195.802 391.91 195.825 391.766 195.844C391.418 195.89 391.092 195.963 390.789 196.066C390.49 196.164 390.247 196.314 390.062 196.515C389.88 196.712 389.789 196.98 389.789 197.321C389.789 197.787 389.961 198.14 390.306 198.378C390.655 198.613 391.096 198.73 391.63 198.73ZM399.214 194.48V199.73H397.873V191.003H399.168V192.367H399.282C399.486 191.924 399.797 191.568 400.214 191.299C400.63 191.026 401.168 190.89 401.827 190.89C402.418 190.89 402.935 191.011 403.378 191.253C403.822 191.492 404.166 191.855 404.413 192.344C404.659 192.829 404.782 193.443 404.782 194.185V199.73H403.441V194.276C403.441 193.59 403.263 193.056 402.907 192.674C402.551 192.287 402.062 192.094 401.441 192.094C401.013 192.094 400.63 192.187 400.293 192.373C399.96 192.558 399.697 192.829 399.503 193.185C399.31 193.541 399.214 193.973 399.214 194.48ZM410.891 199.912C410.05 199.912 409.325 199.727 408.715 199.355C408.109 198.98 407.641 198.458 407.312 197.787C406.986 197.113 406.823 196.329 406.823 195.435C406.823 194.541 406.986 193.753 407.312 193.071C407.641 192.386 408.1 191.852 408.687 191.469C409.278 191.083 409.967 190.89 410.755 190.89C411.209 190.89 411.658 190.965 412.101 191.117C412.545 191.268 412.948 191.515 413.312 191.855C413.675 192.193 413.965 192.64 414.181 193.196C414.397 193.753 414.505 194.439 414.505 195.253V195.821H407.778V194.662H413.141C413.141 194.17 413.043 193.73 412.846 193.344C412.653 192.958 412.376 192.653 412.016 192.429C411.66 192.206 411.24 192.094 410.755 192.094C410.221 192.094 409.759 192.227 409.369 192.492C408.982 192.753 408.685 193.094 408.476 193.515C408.268 193.935 408.164 194.386 408.164 194.867V195.64C408.164 196.299 408.278 196.857 408.505 197.316C408.736 197.77 409.056 198.117 409.465 198.355C409.874 198.59 410.35 198.708 410.891 198.708C411.244 198.708 411.562 198.658 411.846 198.56C412.134 198.458 412.382 198.306 412.59 198.105C412.798 197.901 412.959 197.647 413.073 197.344L414.369 197.708C414.232 198.147 414.003 198.533 413.681 198.867C413.359 199.196 412.961 199.454 412.488 199.64C412.014 199.821 411.482 199.912 410.891 199.912ZM417.886 194.48V199.73H416.545V191.003H417.84V192.367H417.954C418.158 191.924 418.469 191.568 418.886 191.299C419.302 191.026 419.84 190.89 420.499 190.89C421.09 190.89 421.607 191.011 422.05 191.253C422.494 191.492 422.838 191.855 423.084 192.344C423.331 192.829 423.454 193.443 423.454 194.185V199.73H422.113V194.276C422.113 193.59 421.935 193.056 421.579 192.674C421.223 192.287 420.734 192.094 420.113 192.094C419.685 192.094 419.302 192.187 418.965 192.373C418.632 192.558 418.369 192.829 418.175 193.185C417.982 193.541 417.886 193.973 417.886 194.48ZM429.699 191.003V192.14H425.177V191.003H429.699ZM426.495 188.912H427.836V197.23C427.836 197.609 427.891 197.893 428.001 198.083C428.114 198.268 428.258 198.393 428.432 198.458C428.61 198.518 428.798 198.549 428.995 198.549C429.143 198.549 429.264 198.541 429.359 198.526C429.453 198.507 429.529 198.492 429.586 198.48L429.859 199.685C429.768 199.719 429.641 199.753 429.478 199.787C429.315 199.825 429.109 199.844 428.859 199.844C428.48 199.844 428.109 199.763 427.745 199.6C427.385 199.437 427.086 199.189 426.847 198.855C426.612 198.522 426.495 198.102 426.495 197.594V188.912ZM132.712 213.003V214.14H128.008V213.003H132.712ZM129.417 221.73V211.799C129.417 211.299 129.534 210.882 129.769 210.549C130.004 210.215 130.309 209.965 130.684 209.799C131.059 209.632 131.455 209.549 131.871 209.549C132.201 209.549 132.47 209.575 132.678 209.628C132.887 209.681 133.042 209.73 133.144 209.776L132.758 210.935C132.69 210.912 132.595 210.884 132.474 210.85C132.356 210.816 132.201 210.799 132.008 210.799C131.565 210.799 131.244 210.91 131.047 211.134C130.854 211.357 130.758 211.685 130.758 212.117V221.73H129.417ZM134.592 221.73V213.003H135.887V214.321H135.978C136.137 213.89 136.425 213.539 136.842 213.27C137.258 213.001 137.728 212.867 138.251 212.867C138.349 212.867 138.472 212.869 138.62 212.873C138.768 212.876 138.879 212.882 138.955 212.89V214.253C138.91 214.242 138.806 214.225 138.643 214.202C138.484 214.176 138.315 214.162 138.137 214.162C137.713 214.162 137.334 214.251 137.001 214.429C136.671 214.604 136.41 214.846 136.217 215.157C136.027 215.463 135.932 215.814 135.932 216.208V221.73H134.592ZM143.113 221.935C142.56 221.935 142.058 221.831 141.607 221.623C141.156 221.41 140.798 221.105 140.533 220.708C140.268 220.306 140.136 219.821 140.136 219.253C140.136 218.753 140.234 218.348 140.431 218.037C140.628 217.723 140.891 217.477 141.221 217.299C141.55 217.121 141.914 216.988 142.312 216.901C142.713 216.81 143.117 216.738 143.522 216.685C144.052 216.617 144.482 216.566 144.812 216.532C145.145 216.494 145.387 216.431 145.539 216.344C145.694 216.257 145.772 216.105 145.772 215.89V215.844C145.772 215.283 145.619 214.848 145.312 214.537C145.009 214.227 144.548 214.071 143.931 214.071C143.291 214.071 142.789 214.212 142.425 214.492C142.062 214.772 141.806 215.071 141.658 215.39L140.386 214.935C140.613 214.405 140.916 213.992 141.295 213.696C141.677 213.397 142.094 213.189 142.545 213.071C142.999 212.95 143.446 212.89 143.886 212.89C144.166 212.89 144.488 212.924 144.851 212.992C145.219 213.056 145.573 213.191 145.914 213.395C146.259 213.6 146.545 213.908 146.772 214.321C146.999 214.734 147.113 215.287 147.113 215.98V221.73H145.772V220.549H145.704C145.613 220.738 145.461 220.941 145.249 221.157C145.037 221.373 144.755 221.556 144.403 221.708C144.05 221.859 143.62 221.935 143.113 221.935ZM143.317 220.73C143.848 220.73 144.295 220.626 144.658 220.418C145.026 220.21 145.302 219.941 145.488 219.611C145.677 219.282 145.772 218.935 145.772 218.571V217.344C145.715 217.412 145.59 217.475 145.397 217.532C145.208 217.585 144.988 217.632 144.738 217.674C144.492 217.712 144.251 217.746 144.016 217.776C143.785 217.802 143.598 217.825 143.454 217.844C143.105 217.89 142.78 217.963 142.476 218.066C142.177 218.164 141.935 218.314 141.749 218.515C141.567 218.712 141.476 218.98 141.476 219.321C141.476 219.787 141.649 220.14 141.994 220.378C142.342 220.613 142.783 220.73 143.317 220.73ZM155.06 218.162V213.003H156.401V221.73H155.06V220.253H154.969C154.765 220.696 154.447 221.073 154.015 221.384C153.583 221.691 153.038 221.844 152.378 221.844C151.833 221.844 151.348 221.725 150.924 221.486C150.5 221.244 150.166 220.88 149.924 220.395C149.681 219.907 149.56 219.291 149.56 218.549V213.003H150.901V218.458C150.901 219.094 151.079 219.602 151.435 219.98C151.795 220.359 152.253 220.549 152.81 220.549C153.144 220.549 153.483 220.463 153.827 220.293C154.176 220.123 154.467 219.861 154.702 219.509C154.941 219.157 155.06 218.708 155.06 218.162ZM162.153 221.912C161.425 221.912 160.783 221.729 160.226 221.361C159.67 220.99 159.234 220.467 158.92 219.793C158.605 219.115 158.448 218.314 158.448 217.39C158.448 216.473 158.605 215.677 158.92 215.003C159.234 214.329 159.672 213.808 160.232 213.441C160.793 213.073 161.44 212.89 162.175 212.89C162.744 212.89 163.192 212.984 163.522 213.174C163.855 213.359 164.109 213.571 164.283 213.81C164.461 214.045 164.6 214.238 164.698 214.39H164.812V210.094H166.153V221.73H164.857V220.39H164.698C164.6 220.549 164.459 220.749 164.278 220.992C164.096 221.23 163.836 221.444 163.499 221.634C163.162 221.819 162.713 221.912 162.153 221.912ZM162.334 220.708C162.872 220.708 163.327 220.568 163.698 220.287C164.069 220.003 164.351 219.611 164.545 219.111C164.738 218.607 164.834 218.026 164.834 217.367C164.834 216.715 164.74 216.145 164.55 215.657C164.361 215.164 164.081 214.782 163.709 214.509C163.338 214.232 162.88 214.094 162.334 214.094C161.766 214.094 161.293 214.24 160.914 214.532C160.539 214.819 160.257 215.212 160.067 215.708C159.882 216.2 159.789 216.753 159.789 217.367C159.789 217.988 159.884 218.552 160.073 219.06C160.266 219.564 160.55 219.965 160.925 220.265C161.304 220.56 161.774 220.708 162.334 220.708ZM175.863 221.935C175.31 221.935 174.808 221.831 174.357 221.623C173.906 221.41 173.548 221.105 173.283 220.708C173.018 220.306 172.886 219.821 172.886 219.253C172.886 218.753 172.984 218.348 173.181 218.037C173.378 217.723 173.641 217.477 173.971 217.299C174.3 217.121 174.664 216.988 175.062 216.901C175.463 216.81 175.867 216.738 176.272 216.685C176.802 216.617 177.232 216.566 177.562 216.532C177.895 216.494 178.137 216.431 178.289 216.344C178.444 216.257 178.522 216.105 178.522 215.89V215.844C178.522 215.283 178.369 214.848 178.062 214.537C177.759 214.227 177.298 214.071 176.681 214.071C176.041 214.071 175.539 214.212 175.175 214.492C174.812 214.772 174.556 215.071 174.408 215.39L173.136 214.935C173.363 214.405 173.666 213.992 174.045 213.696C174.427 213.397 174.844 213.189 175.295 213.071C175.749 212.95 176.196 212.89 176.636 212.89C176.916 212.89 177.238 212.924 177.601 212.992C177.969 213.056 178.323 213.191 178.664 213.395C179.009 213.6 179.295 213.908 179.522 214.321C179.749 214.734 179.863 215.287 179.863 215.98V221.73H178.522V220.549H178.454C178.363 220.738 178.211 220.941 177.999 221.157C177.787 221.373 177.505 221.556 177.153 221.708C176.8 221.859 176.37 221.935 175.863 221.935ZM176.067 220.73C176.598 220.73 177.045 220.626 177.408 220.418C177.776 220.21 178.052 219.941 178.238 219.611C178.427 219.282 178.522 218.935 178.522 218.571V217.344C178.465 217.412 178.34 217.475 178.147 217.532C177.958 217.585 177.738 217.632 177.488 217.674C177.242 217.712 177.001 217.746 176.766 217.776C176.535 217.802 176.348 217.825 176.204 217.844C175.855 217.89 175.53 217.963 175.226 218.066C174.927 218.164 174.685 218.314 174.499 218.515C174.317 218.712 174.226 218.98 174.226 219.321C174.226 219.787 174.399 220.14 174.744 220.378C175.092 220.613 175.533 220.73 176.067 220.73ZM182.31 221.73V213.003H183.606V214.321H183.697C183.856 213.89 184.144 213.539 184.56 213.27C184.977 213.001 185.447 212.867 185.969 212.867C186.068 212.867 186.191 212.869 186.339 212.873C186.486 212.876 186.598 212.882 186.674 212.89V214.253C186.628 214.242 186.524 214.225 186.361 214.202C186.202 214.176 186.034 214.162 185.856 214.162C185.431 214.162 185.053 214.251 184.719 214.429C184.39 214.604 184.128 214.846 183.935 215.157C183.746 215.463 183.651 215.814 183.651 216.208V221.73H182.31ZM191.543 221.912C190.725 221.912 190.021 221.719 189.43 221.333C188.839 220.946 188.384 220.414 188.066 219.736C187.748 219.058 187.589 218.283 187.589 217.412C187.589 216.526 187.752 215.744 188.077 215.066C188.407 214.384 188.865 213.852 189.452 213.469C190.043 213.083 190.733 212.89 191.521 212.89C192.134 212.89 192.687 213.003 193.18 213.23C193.672 213.458 194.075 213.776 194.39 214.185C194.704 214.594 194.899 215.071 194.975 215.617H193.634C193.532 215.219 193.305 214.867 192.952 214.56C192.604 214.249 192.134 214.094 191.543 214.094C191.021 214.094 190.562 214.23 190.168 214.503C189.778 214.772 189.473 215.153 189.253 215.645C189.038 216.134 188.93 216.708 188.93 217.367C188.93 218.041 189.036 218.628 189.248 219.128C189.464 219.628 189.767 220.016 190.157 220.293C190.551 220.569 191.013 220.708 191.543 220.708C191.892 220.708 192.208 220.647 192.492 220.526C192.776 220.405 193.017 220.23 193.214 220.003C193.411 219.776 193.551 219.503 193.634 219.185H194.975C194.899 219.7 194.712 220.164 194.413 220.577C194.117 220.986 193.725 221.312 193.236 221.554C192.752 221.793 192.187 221.912 191.543 221.912ZM198.276 216.48V221.73H196.935V210.094H198.276V214.367H198.39C198.594 213.916 198.901 213.558 199.31 213.293C199.723 213.024 200.272 212.89 200.958 212.89C201.553 212.89 202.074 213.009 202.521 213.248C202.967 213.482 203.314 213.844 203.56 214.333C203.81 214.818 203.935 215.435 203.935 216.185V221.73H202.594V216.276C202.594 215.583 202.414 215.047 202.055 214.668C201.699 214.285 201.204 214.094 200.572 214.094C200.132 214.094 199.738 214.187 199.39 214.373C199.045 214.558 198.772 214.829 198.572 215.185C198.375 215.541 198.276 215.973 198.276 216.48ZM206.388 221.73V213.003H207.729V221.73H206.388ZM207.07 211.549C206.809 211.549 206.583 211.46 206.394 211.282C206.208 211.104 206.116 210.89 206.116 210.64C206.116 210.39 206.208 210.176 206.394 209.998C206.583 209.819 206.809 209.73 207.07 209.73C207.332 209.73 207.555 209.819 207.741 209.998C207.93 210.176 208.025 210.39 208.025 210.64C208.025 210.89 207.93 211.104 207.741 211.282C207.555 211.46 207.332 211.549 207.07 211.549ZM217.322 213.003L214.094 221.73H212.731L209.503 213.003H210.958L213.367 219.958H213.458L215.867 213.003H217.322ZM222.438 221.912C221.597 221.912 220.872 221.727 220.262 221.355C219.656 220.98 219.188 220.458 218.859 219.787C218.533 219.113 218.37 218.329 218.37 217.435C218.37 216.541 218.533 215.753 218.859 215.071C219.188 214.386 219.646 213.852 220.234 213.469C220.824 213.083 221.514 212.89 222.302 212.89C222.756 212.89 223.205 212.965 223.648 213.117C224.092 213.268 224.495 213.515 224.859 213.855C225.222 214.193 225.512 214.64 225.728 215.196C225.944 215.753 226.052 216.439 226.052 217.253V217.821H219.324V216.662H224.688C224.688 216.17 224.59 215.73 224.393 215.344C224.199 214.958 223.923 214.653 223.563 214.429C223.207 214.206 222.787 214.094 222.302 214.094C221.768 214.094 221.306 214.227 220.915 214.492C220.529 214.753 220.232 215.094 220.023 215.515C219.815 215.935 219.711 216.386 219.711 216.867V217.64C219.711 218.299 219.824 218.857 220.052 219.316C220.283 219.77 220.603 220.117 221.012 220.355C221.421 220.59 221.896 220.708 222.438 220.708C222.79 220.708 223.109 220.658 223.393 220.56C223.681 220.458 223.929 220.306 224.137 220.105C224.345 219.901 224.506 219.647 224.62 219.344L225.915 219.708C225.779 220.147 225.55 220.533 225.228 220.867C224.906 221.196 224.508 221.454 224.035 221.64C223.561 221.821 223.029 221.912 222.438 221.912ZM236.137 221.912C235.349 221.912 234.658 221.725 234.063 221.35C233.472 220.975 233.01 220.45 232.677 219.776C232.347 219.102 232.182 218.314 232.182 217.412C232.182 216.503 232.347 215.71 232.677 215.032C233.01 214.354 233.472 213.827 234.063 213.452C234.658 213.077 235.349 212.89 236.137 212.89C236.925 212.89 237.614 213.077 238.205 213.452C238.8 213.827 239.262 214.354 239.592 215.032C239.925 215.71 240.092 216.503 240.092 217.412C240.092 218.314 239.925 219.102 239.592 219.776C239.262 220.45 238.8 220.975 238.205 221.35C237.614 221.725 236.925 221.912 236.137 221.912ZM236.137 220.708C236.735 220.708 237.228 220.554 237.614 220.248C238.001 219.941 238.287 219.537 238.472 219.037C238.658 218.537 238.751 217.996 238.751 217.412C238.751 216.829 238.658 216.285 238.472 215.782C238.287 215.278 238.001 214.871 237.614 214.56C237.228 214.249 236.735 214.094 236.137 214.094C235.539 214.094 235.046 214.249 234.66 214.56C234.273 214.871 233.987 215.278 233.802 215.782C233.616 216.285 233.523 216.829 233.523 217.412C233.523 217.996 233.616 218.537 233.802 219.037C233.987 219.537 234.273 219.941 234.66 220.248C235.046 220.554 235.539 220.708 236.137 220.708ZM243.479 216.48V221.73H242.138V213.003H243.434V214.367H243.547C243.752 213.924 244.063 213.568 244.479 213.299C244.896 213.026 245.434 212.89 246.093 212.89C246.684 212.89 247.201 213.011 247.644 213.253C248.087 213.492 248.432 213.855 248.678 214.344C248.924 214.829 249.047 215.443 249.047 216.185V221.73H247.707V216.276C247.707 215.59 247.529 215.056 247.172 214.674C246.816 214.287 246.328 214.094 245.707 214.094C245.279 214.094 244.896 214.187 244.559 214.373C244.226 214.558 243.962 214.829 243.769 215.185C243.576 215.541 243.479 215.973 243.479 216.48ZM256.657 221.73H255.18L259.452 210.094H260.907L265.18 221.73H263.702L260.225 211.935H260.134L256.657 221.73ZM257.202 217.185H263.157V218.435H257.202V217.185ZM266.81 221.73V213.003H268.106V214.321H268.197C268.356 213.89 268.644 213.539 269.06 213.27C269.477 213.001 269.947 212.867 270.469 212.867C270.568 212.867 270.691 212.869 270.839 212.873C270.986 212.876 271.098 212.882 271.174 212.89V214.253C271.128 214.242 271.024 214.225 270.861 214.202C270.702 214.176 270.534 214.162 270.356 214.162C269.931 214.162 269.553 214.251 269.219 214.429C268.89 214.604 268.628 214.846 268.435 215.157C268.246 215.463 268.151 215.814 268.151 216.208V221.73H266.81ZM274.881 221.73L272.222 213.003H273.631L275.518 219.685H275.609L277.472 213.003H278.904L280.745 219.662H280.836L282.722 213.003H284.131L281.472 221.73H280.154L278.245 215.026H278.109L276.199 221.73H274.881ZM289.266 221.912C288.425 221.912 287.7 221.727 287.09 221.355C286.484 220.98 286.016 220.458 285.687 219.787C285.361 219.113 285.198 218.329 285.198 217.435C285.198 216.541 285.361 215.753 285.687 215.071C286.016 214.386 286.475 213.852 287.062 213.469C287.653 213.083 288.342 212.89 289.13 212.89C289.584 212.89 290.033 212.965 290.476 213.117C290.92 213.268 291.323 213.515 291.687 213.855C292.05 214.193 292.34 214.64 292.556 215.196C292.772 215.753 292.88 216.439 292.88 217.253V217.821H286.153V216.662H291.516C291.516 216.17 291.418 215.73 291.221 215.344C291.028 214.958 290.751 214.653 290.391 214.429C290.035 214.206 289.615 214.094 289.13 214.094C288.596 214.094 288.134 214.227 287.744 214.492C287.357 214.753 287.06 215.094 286.851 215.515C286.643 215.935 286.539 216.386 286.539 216.867V217.64C286.539 218.299 286.653 218.857 286.88 219.316C287.111 219.77 287.431 220.117 287.84 220.355C288.249 220.59 288.725 220.708 289.266 220.708C289.619 220.708 289.937 220.658 290.221 220.56C290.509 220.458 290.757 220.306 290.965 220.105C291.173 219.901 291.334 219.647 291.448 219.344L292.744 219.708C292.607 220.147 292.378 220.533 292.056 220.867C291.734 221.196 291.336 221.454 290.863 221.64C290.389 221.821 289.857 221.912 289.266 221.912ZM297.488 221.935C296.935 221.935 296.433 221.831 295.982 221.623C295.531 221.41 295.173 221.105 294.908 220.708C294.643 220.306 294.511 219.821 294.511 219.253C294.511 218.753 294.609 218.348 294.806 218.037C295.003 217.723 295.266 217.477 295.596 217.299C295.925 217.121 296.289 216.988 296.687 216.901C297.088 216.81 297.492 216.738 297.897 216.685C298.427 216.617 298.857 216.566 299.187 216.532C299.52 216.494 299.762 216.431 299.914 216.344C300.069 216.257 300.147 216.105 300.147 215.89V215.844C300.147 215.283 299.994 214.848 299.687 214.537C299.384 214.227 298.923 214.071 298.306 214.071C297.666 214.071 297.164 214.212 296.8 214.492C296.437 214.772 296.181 215.071 296.033 215.39L294.761 214.935C294.988 214.405 295.291 213.992 295.67 213.696C296.052 213.397 296.469 213.189 296.92 213.071C297.374 212.95 297.821 212.89 298.261 212.89C298.541 212.89 298.863 212.924 299.226 212.992C299.594 213.056 299.948 213.191 300.289 213.395C300.634 213.6 300.92 213.908 301.147 214.321C301.374 214.734 301.488 215.287 301.488 215.98V221.73H300.147V220.549H300.079C299.988 220.738 299.836 220.941 299.624 221.157C299.412 221.373 299.13 221.556 298.778 221.708C298.425 221.859 297.995 221.935 297.488 221.935ZM297.692 220.73C298.223 220.73 298.67 220.626 299.033 220.418C299.401 220.21 299.677 219.941 299.863 219.611C300.052 219.282 300.147 218.935 300.147 218.571V217.344C300.09 217.412 299.965 217.475 299.772 217.532C299.583 217.585 299.363 217.632 299.113 217.674C298.867 217.712 298.626 217.746 298.391 217.776C298.16 217.802 297.973 217.825 297.829 217.844C297.48 217.89 297.155 217.963 296.851 218.066C296.552 218.164 296.31 218.314 296.124 218.515C295.942 218.712 295.851 218.98 295.851 219.321C295.851 219.787 296.024 220.14 296.369 220.378C296.717 220.613 297.158 220.73 297.692 220.73ZM310.759 213.003L307.532 221.73H306.168L302.941 213.003H304.396L306.805 219.958H306.896L309.305 213.003H310.759ZM315.876 221.912C315.035 221.912 314.309 221.727 313.699 221.355C313.093 220.98 312.626 220.458 312.296 219.787C311.97 219.113 311.807 218.329 311.807 217.435C311.807 216.541 311.97 215.753 312.296 215.071C312.626 214.386 313.084 213.852 313.671 213.469C314.262 213.083 314.951 212.89 315.739 212.89C316.194 212.89 316.643 212.965 317.086 213.117C317.529 213.268 317.932 213.515 318.296 213.855C318.66 214.193 318.949 214.64 319.165 215.196C319.381 215.753 319.489 216.439 319.489 217.253V217.821H312.762V216.662H318.126C318.126 216.17 318.027 215.73 317.83 215.344C317.637 214.958 317.36 214.653 317.001 214.429C316.645 214.206 316.224 214.094 315.739 214.094C315.205 214.094 314.743 214.227 314.353 214.492C313.967 214.753 313.669 215.094 313.461 215.515C313.253 215.935 313.148 216.386 313.148 216.867V217.64C313.148 218.299 313.262 218.857 313.489 219.316C313.72 219.77 314.04 220.117 314.449 220.355C314.859 220.59 315.334 220.708 315.876 220.708C316.228 220.708 316.546 220.658 316.83 220.56C317.118 220.458 317.366 220.306 317.574 220.105C317.783 219.901 317.944 219.647 318.057 219.344L319.353 219.708C319.217 220.147 318.987 220.533 318.665 220.867C318.343 221.196 317.946 221.454 317.472 221.64C316.999 221.821 316.467 221.912 315.876 221.912ZM322.506 221.821C322.226 221.821 321.985 221.721 321.785 221.52C321.584 221.319 321.484 221.079 321.484 220.799C321.484 220.518 321.584 220.278 321.785 220.077C321.985 219.876 322.226 219.776 322.506 219.776C322.787 219.776 323.027 219.876 323.228 220.077C323.429 220.278 323.529 220.518 323.529 220.799C323.529 220.984 323.482 221.155 323.387 221.31C323.296 221.465 323.173 221.59 323.018 221.685C322.866 221.776 322.696 221.821 322.506 221.821Z" fill="#979799"/>
</g>
<defs>
<filter id="filter0_f_247_62" x="0.661133" y="0.900391" width="588.911" height="346.033" filterUnits="userSpaceOnUse" color-interpolation-filters="sRGB">
<feFlood flood-opacity="0" result="BackgroundImageFix"/>
<feBlend mode="normal" in="SourceGraphic" in2="BackgroundImageFix" result="shape"/>
<feGaussianBlur stdDeviation="50" result="effect1_foregroundBlur_247_62"/>
</filter>
<linearGradient id="paint0_linear_247_62" x1="110.164" y1="143.422" x2="490.146" y2="162.488" gradientUnits="userSpaceOnUse">
<stop stop-color="#0FF0FC"/>
<stop offset="1" stop-color="#0A0A0A"/>
</linearGradient>
<linearGradient id="paint1_linear_247_62" x1="100.661" y1="138.995" x2="481.384" y2="207.657" gradientUnits="userSpaceOnUse">
<stop stop-color="#F5F5F7"/>
<stop offset="0.62992" stop-color="#0A0A0A"/>
</linearGradient>
</defs>
</svg>
