<svg width="749" height="534" viewBox="0 0 749 534" fill="none" xmlns="http://www.w3.org/2000/svg">
<g filter="url(#filter0_f_166_2159)">
<mask id="path-1-inside-1_166_2159" fill="white">
<path d="M96 111.785C96 105.276 101.276 100 107.785 100H473.126C479.634 100 484.911 105.276 484.911 111.785V210.248C484.911 216.757 479.634 222.033 473.126 222.033H107.785C101.276 222.033 96 216.757 96 210.248V111.785Z"/>
</mask>
<path d="M96 111.785C96 105.276 101.276 100 107.785 100H473.126C479.634 100 484.911 105.276 484.911 111.785V210.248C484.911 216.757 479.634 222.033 473.126 222.033H107.785C101.276 222.033 96 216.757 96 210.248V111.785Z" fill="url(#paint0_linear_166_2159)" fill-opacity="0.06"/>
<path d="M96 111.785C96 104.347 102.03 98.3164 109.469 98.3164H473.126C480.564 98.3164 486.594 104.347 486.594 111.785H483.227C483.227 106.206 478.705 101.684 473.126 101.684H107.785C101.276 101.684 96 106.206 96 111.785ZM486.594 210.248C486.594 217.687 480.564 223.717 473.126 223.717H109.469C102.03 223.717 96 217.687 96 210.248C96 215.827 101.276 220.35 107.785 220.35H473.126C478.705 220.35 483.227 215.827 483.227 210.248H486.594ZM96 222.033V100V222.033ZM473.126 98.3164C480.564 98.3164 486.594 104.347 486.594 111.785V210.248C486.594 217.687 480.564 223.717 473.126 223.717V220.35C478.705 220.35 483.227 215.827 483.227 210.248V111.785C483.227 106.206 478.705 101.684 473.126 101.684V98.3164Z" fill="url(#paint1_linear_166_2159)" mask="url(#path-1-inside-1_166_2159)"/>
<path d="M251.633 140.203V124.203H257.337C258.581 124.203 259.613 124.43 260.43 124.883C261.248 125.336 261.86 125.956 262.266 126.742C262.673 127.523 262.876 128.404 262.876 129.383C262.876 130.367 262.67 131.253 262.258 132.039C261.852 132.82 261.238 133.44 260.415 133.898C259.597 134.352 258.568 134.578 257.329 134.578H253.407V132.531H257.11C257.896 132.531 258.534 132.396 259.024 132.125C259.514 131.849 259.873 131.474 260.102 131C260.331 130.526 260.446 129.987 260.446 129.383C260.446 128.779 260.331 128.242 260.102 127.773C259.873 127.305 259.511 126.937 259.016 126.672C258.527 126.406 257.881 126.273 257.079 126.273H254.048V140.203H251.633ZM265.518 140.203V128.203H267.776V130.109H267.901C268.12 129.464 268.505 128.956 269.057 128.586C269.615 128.211 270.245 128.023 270.948 128.023C271.094 128.023 271.266 128.029 271.464 128.039C271.667 128.049 271.826 128.062 271.94 128.078V130.312C271.846 130.286 271.68 130.258 271.44 130.227C271.201 130.19 270.961 130.172 270.721 130.172C270.169 130.172 269.677 130.289 269.245 130.523C268.818 130.753 268.479 131.073 268.229 131.484C267.979 131.891 267.854 132.354 267.854 132.875V140.203H265.518ZM278.587 140.445C277.462 140.445 276.48 140.188 275.641 139.672C274.803 139.156 274.152 138.435 273.688 137.508C273.225 136.581 272.993 135.497 272.993 134.258C272.993 133.013 273.225 131.924 273.688 130.992C274.152 130.06 274.803 129.336 275.641 128.82C276.48 128.305 277.462 128.047 278.587 128.047C279.712 128.047 280.693 128.305 281.532 128.82C282.37 129.336 283.021 130.06 283.485 130.992C283.949 131.924 284.18 133.013 284.18 134.258C284.18 135.497 283.949 136.581 283.485 137.508C283.021 138.435 282.37 139.156 281.532 139.672C280.693 140.188 279.712 140.445 278.587 140.445ZM278.594 138.484C279.324 138.484 279.928 138.292 280.407 137.906C280.886 137.521 281.24 137.008 281.469 136.367C281.704 135.727 281.821 135.021 281.821 134.25C281.821 133.484 281.704 132.781 281.469 132.141C281.24 131.495 280.886 130.977 280.407 130.586C279.928 130.195 279.324 130 278.594 130C277.86 130 277.251 130.195 276.766 130.586C276.287 130.977 275.93 131.495 275.696 132.141C275.467 132.781 275.352 133.484 275.352 134.25C275.352 135.021 275.467 135.727 275.696 136.367C275.93 137.008 276.287 137.521 276.766 137.906C277.251 138.292 277.86 138.484 278.594 138.484ZM292.389 128.203V130.078H285.835V128.203H292.389ZM287.592 125.328H289.928V136.68C289.928 137.133 289.996 137.474 290.132 137.703C290.267 137.927 290.441 138.081 290.655 138.164C290.874 138.242 291.111 138.281 291.366 138.281C291.553 138.281 291.717 138.268 291.858 138.242C291.999 138.216 292.108 138.195 292.186 138.18L292.608 140.109C292.473 140.161 292.28 140.214 292.03 140.266C291.78 140.323 291.467 140.354 291.092 140.359C290.478 140.37 289.905 140.26 289.374 140.031C288.842 139.802 288.413 139.448 288.085 138.969C287.757 138.49 287.592 137.888 287.592 137.164V125.328ZM300.016 140.445C298.834 140.445 297.816 140.193 296.962 139.688C296.113 139.177 295.456 138.461 294.993 137.539C294.534 136.612 294.305 135.526 294.305 134.281C294.305 133.052 294.534 131.969 294.993 131.031C295.456 130.094 296.102 129.362 296.93 128.836C297.764 128.31 298.738 128.047 299.852 128.047C300.529 128.047 301.186 128.159 301.821 128.383C302.456 128.607 303.027 128.958 303.532 129.437C304.037 129.917 304.436 130.539 304.727 131.305C305.019 132.065 305.165 132.99 305.165 134.078V134.906H295.626V133.156H302.876C302.876 132.542 302.751 131.997 302.501 131.523C302.251 131.044 301.899 130.667 301.446 130.391C300.998 130.115 300.472 129.977 299.868 129.977C299.212 129.977 298.639 130.138 298.149 130.461C297.665 130.779 297.29 131.195 297.024 131.711C296.764 132.221 296.633 132.776 296.633 133.375V134.742C296.633 135.544 296.774 136.227 297.055 136.789C297.342 137.352 297.74 137.781 298.251 138.078C298.761 138.37 299.357 138.516 300.04 138.516C300.482 138.516 300.886 138.453 301.251 138.328C301.615 138.198 301.93 138.005 302.196 137.75C302.462 137.495 302.665 137.18 302.805 136.805L305.016 137.203C304.839 137.854 304.521 138.424 304.063 138.914C303.61 139.398 303.04 139.776 302.352 140.047C301.67 140.313 300.891 140.445 300.016 140.445ZM312.811 140.445C311.65 140.445 310.65 140.182 309.811 139.656C308.978 139.125 308.337 138.393 307.889 137.461C307.441 136.529 307.217 135.461 307.217 134.258C307.217 133.039 307.447 131.964 307.905 131.031C308.363 130.094 309.009 129.362 309.842 128.836C310.676 128.31 311.658 128.047 312.788 128.047C313.699 128.047 314.512 128.216 315.225 128.555C315.939 128.888 316.514 129.357 316.952 129.961C317.395 130.565 317.658 131.271 317.741 132.078H315.467C315.342 131.516 315.056 131.031 314.608 130.625C314.165 130.219 313.572 130.016 312.827 130.016C312.176 130.016 311.605 130.187 311.116 130.531C310.632 130.87 310.254 131.354 309.983 131.984C309.712 132.609 309.577 133.349 309.577 134.203C309.577 135.078 309.71 135.833 309.975 136.469C310.241 137.104 310.616 137.596 311.1 137.945C311.59 138.294 312.165 138.469 312.827 138.469C313.27 138.469 313.671 138.388 314.03 138.227C314.395 138.06 314.699 137.823 314.944 137.516C315.194 137.208 315.368 136.839 315.467 136.406H317.741C317.658 137.182 317.405 137.875 316.983 138.484C316.561 139.094 315.996 139.573 315.288 139.922C314.585 140.271 313.759 140.445 312.811 140.445ZM325.84 128.203V130.078H319.286V128.203H325.84ZM321.044 125.328H323.38V136.68C323.38 137.133 323.447 137.474 323.583 137.703C323.718 137.927 323.893 138.081 324.106 138.164C324.325 138.242 324.562 138.281 324.817 138.281C325.005 138.281 325.169 138.268 325.309 138.242C325.45 138.216 325.559 138.195 325.637 138.18L326.059 140.109C325.924 140.161 325.731 140.214 325.481 140.266C325.231 140.323 324.919 140.354 324.544 140.359C323.929 140.37 323.356 140.26 322.825 140.031C322.294 139.802 321.864 139.448 321.536 138.969C321.208 138.49 321.044 137.888 321.044 137.164V125.328ZM333.2 124.203H335.942L340.122 131.477H340.294L344.473 124.203H347.215L341.411 133.922V140.203H339.005V133.922L333.2 124.203ZM352.385 140.445C351.26 140.445 350.279 140.188 349.44 139.672C348.602 139.156 347.951 138.435 347.487 137.508C347.023 136.581 346.792 135.497 346.792 134.258C346.792 133.013 347.023 131.924 347.487 130.992C347.951 130.06 348.602 129.336 349.44 128.82C350.279 128.305 351.26 128.047 352.385 128.047C353.51 128.047 354.492 128.305 355.331 128.82C356.169 129.336 356.82 130.06 357.284 130.992C357.747 131.924 357.979 133.013 357.979 134.258C357.979 135.497 357.747 136.581 357.284 137.508C356.82 138.435 356.169 139.156 355.331 139.672C354.492 140.188 353.51 140.445 352.385 140.445ZM352.393 138.484C353.122 138.484 353.727 138.292 354.206 137.906C354.685 137.521 355.039 137.008 355.268 136.367C355.503 135.727 355.62 135.021 355.62 134.25C355.62 133.484 355.503 132.781 355.268 132.141C355.039 131.495 354.685 130.977 354.206 130.586C353.727 130.195 353.122 130 352.393 130C351.659 130 351.049 130.195 350.565 130.586C350.086 130.977 349.729 131.495 349.495 132.141C349.266 132.781 349.151 133.484 349.151 134.25C349.151 135.021 349.266 135.727 349.495 136.367C349.729 137.008 350.086 137.521 350.565 137.906C351.049 138.292 351.659 138.484 352.393 138.484ZM368.188 135.227V128.203H370.532V140.203H368.235V138.125H368.11C367.834 138.766 367.391 139.299 366.782 139.727C366.178 140.148 365.425 140.359 364.524 140.359C363.753 140.359 363.071 140.19 362.477 139.852C361.889 139.508 361.425 139 361.087 138.328C360.753 137.656 360.587 136.826 360.587 135.836V128.203H362.923V135.555C362.923 136.372 363.149 137.023 363.602 137.508C364.055 137.992 364.644 138.234 365.368 138.234C365.805 138.234 366.24 138.125 366.673 137.906C367.11 137.687 367.472 137.357 367.758 136.914C368.05 136.471 368.193 135.909 368.188 135.227ZM373.671 140.203V128.203H375.928V130.109H376.053C376.272 129.464 376.658 128.956 377.21 128.586C377.767 128.211 378.397 128.023 379.1 128.023C379.246 128.023 379.418 128.029 379.616 128.039C379.819 128.049 379.978 128.062 380.092 128.078V130.312C379.999 130.286 379.832 130.258 379.592 130.227C379.353 130.19 379.113 130.172 378.874 130.172C378.322 130.172 377.829 130.289 377.397 130.523C376.97 130.753 376.632 131.073 376.382 131.484C376.132 131.891 376.007 132.354 376.007 132.875V140.203H373.671ZM389.475 140.203H386.913L392.671 124.203H395.46L401.217 140.203H398.655L394.132 127.109H394.007L389.475 140.203ZM389.905 133.937H398.217V135.969H389.905V133.937ZM412.247 131.133L410.13 131.508C410.041 131.237 409.9 130.979 409.708 130.734C409.52 130.49 409.265 130.289 408.942 130.133C408.619 129.977 408.215 129.898 407.731 129.898C407.07 129.898 406.518 130.047 406.075 130.344C405.632 130.635 405.411 131.013 405.411 131.477C405.411 131.878 405.559 132.201 405.856 132.445C406.153 132.69 406.632 132.891 407.294 133.047L409.2 133.484C410.304 133.74 411.127 134.133 411.669 134.664C412.21 135.195 412.481 135.885 412.481 136.734C412.481 137.453 412.273 138.094 411.856 138.656C411.445 139.214 410.869 139.651 410.13 139.969C409.395 140.286 408.544 140.445 407.575 140.445C406.231 140.445 405.135 140.159 404.286 139.586C403.437 139.008 402.916 138.187 402.723 137.125L404.981 136.781C405.122 137.37 405.411 137.815 405.848 138.117C406.286 138.414 406.856 138.562 407.559 138.562C408.325 138.562 408.937 138.404 409.395 138.086C409.854 137.763 410.083 137.37 410.083 136.906C410.083 136.531 409.942 136.216 409.661 135.961C409.385 135.706 408.96 135.513 408.387 135.383L406.356 134.937C405.236 134.682 404.408 134.276 403.872 133.719C403.34 133.161 403.075 132.456 403.075 131.602C403.075 130.893 403.273 130.273 403.669 129.742C404.064 129.211 404.611 128.797 405.309 128.5C406.007 128.198 406.807 128.047 407.708 128.047C409.005 128.047 410.025 128.328 410.77 128.891C411.515 129.448 412.007 130.195 412.247 131.133ZM424.042 131.133L421.924 131.508C421.836 131.237 421.695 130.979 421.503 130.734C421.315 130.49 421.06 130.289 420.737 130.133C420.414 129.977 420.01 129.898 419.526 129.898C418.865 129.898 418.312 130.047 417.87 130.344C417.427 130.635 417.206 131.013 417.206 131.477C417.206 131.878 417.354 132.201 417.651 132.445C417.948 132.69 418.427 132.891 419.089 133.047L420.995 133.484C422.099 133.74 422.922 134.133 423.464 134.664C424.005 135.195 424.276 135.885 424.276 136.734C424.276 137.453 424.068 138.094 423.651 138.656C423.24 139.214 422.664 139.651 421.924 139.969C421.19 140.286 420.339 140.445 419.37 140.445C418.026 140.445 416.93 140.159 416.081 139.586C415.232 139.008 414.711 138.187 414.518 137.125L416.776 136.781C416.917 137.37 417.206 137.815 417.643 138.117C418.081 138.414 418.651 138.562 419.354 138.562C420.12 138.562 420.732 138.404 421.19 138.086C421.648 137.763 421.878 137.37 421.878 136.906C421.878 136.531 421.737 136.216 421.456 135.961C421.18 135.706 420.755 135.513 420.182 135.383L418.151 134.937C417.031 134.682 416.203 134.276 415.667 133.719C415.135 133.161 414.87 132.456 414.87 131.602C414.87 130.893 415.068 130.273 415.464 129.742C415.859 129.211 416.406 128.797 417.104 128.5C417.802 128.198 418.602 128.047 419.503 128.047C420.799 128.047 421.82 128.328 422.565 128.891C423.31 129.448 423.802 130.195 424.042 131.133ZM432.016 140.445C430.834 140.445 429.816 140.193 428.962 139.688C428.113 139.177 427.456 138.461 426.993 137.539C426.534 136.612 426.305 135.526 426.305 134.281C426.305 133.052 426.534 131.969 426.993 131.031C427.456 130.094 428.102 129.362 428.93 128.836C429.764 128.31 430.738 128.047 431.852 128.047C432.529 128.047 433.186 128.159 433.821 128.383C434.456 128.607 435.027 128.958 435.532 129.437C436.037 129.917 436.436 130.539 436.727 131.305C437.019 132.065 437.165 132.99 437.165 134.078V134.906H427.626V133.156H434.876C434.876 132.542 434.751 131.997 434.501 131.523C434.251 131.044 433.899 130.667 433.446 130.391C432.998 130.115 432.472 129.977 431.868 129.977C431.212 129.977 430.639 130.138 430.149 130.461C429.665 130.779 429.29 131.195 429.024 131.711C428.764 132.221 428.633 132.776 428.633 133.375V134.742C428.633 135.544 428.774 136.227 429.055 136.789C429.342 137.352 429.74 137.781 430.251 138.078C430.761 138.37 431.357 138.516 432.04 138.516C432.482 138.516 432.886 138.453 433.251 138.328C433.615 138.198 433.93 138.005 434.196 137.75C434.462 137.495 434.665 137.18 434.805 136.805L437.016 137.203C436.839 137.854 436.521 138.424 436.063 138.914C435.61 139.398 435.04 139.776 434.352 140.047C433.67 140.313 432.891 140.445 432.016 140.445ZM445.358 128.203V130.078H438.803V128.203H445.358ZM440.561 125.328H442.897V136.68C442.897 137.133 442.965 137.474 443.1 137.703C443.236 137.927 443.41 138.081 443.624 138.164C443.842 138.242 444.079 138.281 444.335 138.281C444.522 138.281 444.686 138.268 444.827 138.242C444.967 138.216 445.077 138.195 445.155 138.18L445.577 140.109C445.441 140.161 445.249 140.214 444.999 140.266C444.749 140.323 444.436 140.354 444.061 140.359C443.447 140.37 442.874 140.26 442.342 140.031C441.811 139.802 441.382 139.448 441.053 138.969C440.725 138.49 440.561 137.888 440.561 137.164V125.328ZM456.741 131.133L454.624 131.508C454.535 131.237 454.395 130.979 454.202 130.734C454.014 130.49 453.759 130.289 453.436 130.133C453.113 129.977 452.71 129.898 452.225 129.898C451.564 129.898 451.012 130.047 450.569 130.344C450.126 130.635 449.905 131.013 449.905 131.477C449.905 131.878 450.053 132.201 450.35 132.445C450.647 132.69 451.126 132.891 451.788 133.047L453.694 133.484C454.798 133.74 455.621 134.133 456.163 134.664C456.704 135.195 456.975 135.885 456.975 136.734C456.975 137.453 456.767 138.094 456.35 138.656C455.939 139.214 455.363 139.651 454.624 139.969C453.889 140.286 453.038 140.445 452.069 140.445C450.725 140.445 449.629 140.159 448.78 139.586C447.931 139.008 447.41 138.187 447.217 137.125L449.475 136.781C449.616 137.37 449.905 137.815 450.342 138.117C450.78 138.414 451.35 138.562 452.053 138.562C452.819 138.562 453.431 138.404 453.889 138.086C454.348 137.763 454.577 137.37 454.577 136.906C454.577 136.531 454.436 136.216 454.155 135.961C453.879 135.706 453.454 135.513 452.882 135.383L450.85 134.937C449.73 134.682 448.902 134.276 448.366 133.719C447.835 133.161 447.569 132.456 447.569 131.602C447.569 130.893 447.767 130.273 448.163 129.742C448.559 129.211 449.105 128.797 449.803 128.5C450.501 128.198 451.301 128.047 452.202 128.047C453.499 128.047 454.52 128.328 455.264 128.891C456.009 129.448 456.501 130.195 456.741 131.133Z" fill="white"/>
<path d="M168.461 163.194H170.074L173.301 168.626H173.438L176.665 163.194H178.279L174.074 170.035V174.83H172.665V170.035L168.461 163.194ZM182.23 175.012C181.443 175.012 180.751 174.824 180.157 174.449C179.566 174.074 179.104 173.55 178.77 172.876C178.441 172.201 178.276 171.413 178.276 170.512C178.276 169.603 178.441 168.809 178.77 168.131C179.104 167.453 179.566 166.927 180.157 166.552C180.751 166.177 181.443 165.989 182.23 165.989C183.018 165.989 183.708 166.177 184.299 166.552C184.893 166.927 185.355 167.453 185.685 168.131C186.018 168.809 186.185 169.603 186.185 170.512C186.185 171.413 186.018 172.201 185.685 172.876C185.355 173.55 184.893 174.074 184.299 174.449C183.708 174.824 183.018 175.012 182.23 175.012ZM182.23 173.807C182.829 173.807 183.321 173.654 183.708 173.347C184.094 173.04 184.38 172.637 184.566 172.137C184.751 171.637 184.844 171.095 184.844 170.512C184.844 169.929 184.751 169.385 184.566 168.881C184.38 168.377 184.094 167.97 183.708 167.66C183.321 167.349 182.829 167.194 182.23 167.194C181.632 167.194 181.139 167.349 180.753 167.66C180.367 167.97 180.081 168.377 179.895 168.881C179.71 169.385 179.617 169.929 179.617 170.512C179.617 171.095 179.71 171.637 179.895 172.137C180.081 172.637 180.367 173.04 180.753 173.347C181.139 173.654 181.632 173.807 182.23 173.807ZM193.732 171.262V166.103H195.073V174.83H193.732V173.353H193.641C193.436 173.796 193.118 174.173 192.686 174.483C192.255 174.79 191.709 174.944 191.05 174.944C190.505 174.944 190.02 174.824 189.595 174.586C189.171 174.343 188.838 173.98 188.595 173.495C188.353 173.006 188.232 172.391 188.232 171.648V166.103H189.573V171.557C189.573 172.194 189.751 172.701 190.107 173.08C190.467 173.459 190.925 173.648 191.482 173.648C191.815 173.648 192.154 173.563 192.499 173.393C192.847 173.222 193.139 172.961 193.374 172.608C193.613 172.256 193.732 171.807 193.732 171.262ZM205.574 175.012C204.756 175.012 204.051 174.819 203.461 174.432C202.87 174.046 202.415 173.514 202.097 172.836C201.779 172.158 201.62 171.383 201.62 170.512C201.62 169.626 201.782 168.843 202.108 168.165C202.438 167.483 202.896 166.951 203.483 166.569C204.074 166.182 204.764 165.989 205.551 165.989C206.165 165.989 206.718 166.103 207.211 166.33C207.703 166.557 208.106 166.876 208.421 167.285C208.735 167.694 208.93 168.171 209.006 168.716H207.665C207.563 168.319 207.336 167.966 206.983 167.66C206.635 167.349 206.165 167.194 205.574 167.194C205.051 167.194 204.593 167.33 204.199 167.603C203.809 167.872 203.504 168.252 203.284 168.745C203.068 169.233 202.961 169.807 202.961 170.466C202.961 171.141 203.067 171.728 203.279 172.228C203.495 172.728 203.798 173.116 204.188 173.393C204.582 173.669 205.044 173.807 205.574 173.807C205.923 173.807 206.239 173.747 206.523 173.626C206.807 173.504 207.048 173.33 207.245 173.103C207.442 172.876 207.582 172.603 207.665 172.285H209.006C208.93 172.8 208.743 173.264 208.443 173.677C208.148 174.086 207.756 174.412 207.267 174.654C206.782 174.893 206.218 175.012 205.574 175.012ZM214.512 175.012C213.724 175.012 213.032 174.824 212.438 174.449C211.847 174.074 211.385 173.55 211.051 172.876C210.722 172.201 210.557 171.413 210.557 170.512C210.557 169.603 210.722 168.809 211.051 168.131C211.385 167.453 211.847 166.927 212.438 166.552C213.032 166.177 213.724 165.989 214.512 165.989C215.3 165.989 215.989 166.177 216.58 166.552C217.175 166.927 217.637 167.453 217.966 168.131C218.3 168.809 218.466 169.603 218.466 170.512C218.466 171.413 218.3 172.201 217.966 172.876C217.637 173.55 217.175 174.074 216.58 174.449C215.989 174.824 215.3 175.012 214.512 175.012ZM214.512 173.807C215.11 173.807 215.603 173.654 215.989 173.347C216.375 173.04 216.661 172.637 216.847 172.137C217.032 171.637 217.125 171.095 217.125 170.512C217.125 169.929 217.032 169.385 216.847 168.881C216.661 168.377 216.375 167.97 215.989 167.66C215.603 167.349 215.11 167.194 214.512 167.194C213.913 167.194 213.421 167.349 213.034 167.66C212.648 167.97 212.362 168.377 212.176 168.881C211.991 169.385 211.898 169.929 211.898 170.512C211.898 171.095 211.991 171.637 212.176 172.137C212.362 172.637 212.648 173.04 213.034 173.347C213.421 173.654 213.913 173.807 214.512 173.807ZM221.854 169.58V174.83H220.513V166.103H221.809V167.466H221.922C222.127 167.023 222.437 166.667 222.854 166.398C223.271 166.126 223.809 165.989 224.468 165.989C225.059 165.989 225.576 166.11 226.019 166.353C226.462 166.591 226.807 166.955 227.053 167.444C227.299 167.929 227.422 168.542 227.422 169.285V174.83H226.081V169.376C226.081 168.69 225.903 168.156 225.547 167.773C225.191 167.387 224.702 167.194 224.081 167.194C223.653 167.194 223.271 167.287 222.934 167.472C222.6 167.658 222.337 167.929 222.144 168.285C221.951 168.641 221.854 169.073 221.854 169.58ZM233.759 166.103V167.239H229.054V166.103H233.759ZM230.463 174.83V164.898C230.463 164.398 230.581 163.982 230.816 163.648C231.05 163.315 231.355 163.065 231.73 162.898C232.105 162.732 232.501 162.648 232.918 162.648C233.247 162.648 233.516 162.675 233.725 162.728C233.933 162.781 234.088 162.83 234.191 162.876L233.804 164.035C233.736 164.012 233.641 163.983 233.52 163.949C233.403 163.915 233.247 163.898 233.054 163.898C232.611 163.898 232.291 164.01 232.094 164.233C231.901 164.457 231.804 164.785 231.804 165.216V174.83H230.463ZM235.638 174.83V166.103H236.979V174.83H235.638ZM236.32 164.648C236.059 164.648 235.833 164.559 235.644 164.381C235.458 164.203 235.365 163.989 235.365 163.739C235.365 163.489 235.458 163.275 235.644 163.097C235.833 162.919 236.059 162.83 236.32 162.83C236.581 162.83 236.805 162.919 236.99 163.097C237.18 163.275 237.274 163.489 237.274 163.739C237.274 163.989 237.18 164.203 236.99 164.381C236.805 164.559 236.581 164.648 236.32 164.648ZM239.435 174.83V166.103H240.73V167.421H240.821C240.98 166.989 241.268 166.639 241.685 166.37C242.102 166.101 242.571 165.966 243.094 165.966C243.193 165.966 243.316 165.968 243.463 165.972C243.611 165.976 243.723 165.982 243.799 165.989V167.353C243.753 167.341 243.649 167.324 243.486 167.302C243.327 167.275 243.158 167.262 242.98 167.262C242.556 167.262 242.177 167.351 241.844 167.529C241.514 167.703 241.253 167.946 241.06 168.256C240.871 168.563 240.776 168.913 240.776 169.307V174.83H239.435ZM245.388 174.83V166.103H246.684V167.466H246.797C246.979 167.001 247.273 166.639 247.678 166.381C248.083 166.12 248.57 165.989 249.138 165.989C249.714 165.989 250.193 166.12 250.576 166.381C250.962 166.639 251.263 167.001 251.479 167.466H251.57C251.793 167.016 252.129 166.658 252.576 166.393C253.023 166.124 253.559 165.989 254.184 165.989C254.964 165.989 255.602 166.233 256.098 166.722C256.595 167.207 256.843 167.963 256.843 168.989V174.83H255.502V168.989C255.502 168.345 255.326 167.885 254.973 167.608C254.621 167.332 254.206 167.194 253.729 167.194C253.115 167.194 252.64 167.379 252.303 167.751C251.966 168.118 251.797 168.584 251.797 169.148V174.83H250.434V168.853C250.434 168.357 250.273 167.957 249.951 167.654C249.629 167.347 249.214 167.194 248.706 167.194C248.358 167.194 248.032 167.287 247.729 167.472C247.43 167.658 247.187 167.915 247.002 168.245C246.82 168.571 246.729 168.948 246.729 169.376V174.83H245.388ZM267.34 175.012C266.552 175.012 265.861 174.824 265.266 174.449C264.675 174.074 264.213 173.55 263.88 172.876C263.55 172.201 263.385 171.413 263.385 170.512C263.385 169.603 263.55 168.809 263.88 168.131C264.213 167.453 264.675 166.927 265.266 166.552C265.861 166.177 266.552 165.989 267.34 165.989C268.128 165.989 268.817 166.177 269.408 166.552C270.003 166.927 270.465 167.453 270.794 168.131C271.128 168.809 271.294 169.603 271.294 170.512C271.294 171.413 271.128 172.201 270.794 172.876C270.465 173.55 270.003 174.074 269.408 174.449C268.817 174.824 268.128 175.012 267.34 175.012ZM267.34 173.807C267.938 173.807 268.431 173.654 268.817 173.347C269.203 173.04 269.489 172.637 269.675 172.137C269.861 171.637 269.953 171.095 269.953 170.512C269.953 169.929 269.861 169.385 269.675 168.881C269.489 168.377 269.203 167.97 268.817 167.66C268.431 167.349 267.938 167.194 267.34 167.194C266.741 167.194 266.249 167.349 265.863 167.66C265.476 167.97 265.19 168.377 265.005 168.881C264.819 169.385 264.726 169.929 264.726 170.512C264.726 171.095 264.819 171.637 265.005 172.137C265.19 172.637 265.476 173.04 265.863 173.347C266.249 173.654 266.741 173.807 267.34 173.807ZM273.341 174.83V166.103H274.637V167.421H274.728C274.887 166.989 275.175 166.639 275.591 166.37C276.008 166.101 276.478 165.966 277 165.966C277.099 165.966 277.222 165.968 277.37 165.972C277.517 165.976 277.629 165.982 277.705 165.989V167.353C277.659 167.341 277.555 167.324 277.392 167.302C277.233 167.275 277.065 167.262 276.887 167.262C276.462 167.262 276.084 167.351 275.75 167.529C275.421 167.703 275.159 167.946 274.966 168.256C274.777 168.563 274.682 168.913 274.682 169.307V174.83H273.341ZM283.794 174.83V166.103H285.09V167.421H285.181C285.34 166.989 285.628 166.639 286.044 166.37C286.461 166.101 286.931 165.966 287.453 165.966C287.552 165.966 287.675 165.968 287.823 165.972C287.97 165.976 288.082 165.982 288.158 165.989V167.353C288.113 167.341 288.008 167.324 287.845 167.302C287.686 167.275 287.518 167.262 287.34 167.262C286.916 167.262 286.537 167.351 286.203 167.529C285.874 167.703 285.613 167.946 285.419 168.256C285.23 168.563 285.135 168.913 285.135 169.307V174.83H283.794ZM293.141 175.012C292.3 175.012 291.575 174.826 290.965 174.455C290.359 174.08 289.891 173.557 289.561 172.887C289.236 172.213 289.073 171.429 289.073 170.535C289.073 169.641 289.236 168.853 289.561 168.171C289.891 167.485 290.349 166.951 290.936 166.569C291.527 166.182 292.217 165.989 293.005 165.989C293.459 165.989 293.908 166.065 294.351 166.216C294.794 166.368 295.198 166.614 295.561 166.955C295.925 167.292 296.215 167.739 296.431 168.296C296.647 168.853 296.755 169.538 296.755 170.353V170.921H290.027V169.762H295.391C295.391 169.269 295.292 168.83 295.095 168.444C294.902 168.057 294.626 167.752 294.266 167.529C293.91 167.305 293.489 167.194 293.005 167.194C292.47 167.194 292.008 167.326 291.618 167.591C291.232 167.853 290.934 168.194 290.726 168.614C290.518 169.035 290.414 169.485 290.414 169.966V170.739C290.414 171.398 290.527 171.957 290.755 172.415C290.986 172.87 291.306 173.216 291.715 173.455C292.124 173.69 292.599 173.807 293.141 173.807C293.493 173.807 293.811 173.758 294.095 173.66C294.383 173.557 294.631 173.406 294.84 173.205C295.048 173.001 295.209 172.747 295.323 172.444L296.618 172.807C296.482 173.247 296.253 173.633 295.931 173.966C295.609 174.296 295.211 174.554 294.738 174.739C294.264 174.921 293.732 175.012 293.141 175.012ZM298.794 166.103H300.135V175.466C300.135 176.004 300.042 176.47 299.857 176.864C299.675 177.258 299.398 177.563 299.027 177.779C298.66 177.995 298.196 178.103 297.635 178.103C297.59 178.103 297.544 178.103 297.499 178.103C297.453 178.103 297.408 178.103 297.363 178.103V176.853C297.408 176.853 297.45 176.853 297.488 176.853C297.525 176.853 297.567 176.853 297.613 176.853C298.022 176.853 298.321 176.732 298.51 176.489C298.7 176.251 298.794 175.91 298.794 175.466V166.103ZM299.453 164.648C299.192 164.648 298.967 164.559 298.777 164.381C298.592 164.203 298.499 163.989 298.499 163.739C298.499 163.489 298.592 163.275 298.777 163.097C298.967 162.919 299.192 162.83 299.453 162.83C299.715 162.83 299.938 162.919 300.124 163.097C300.313 163.275 300.408 163.489 300.408 163.739C300.408 163.989 300.313 164.203 300.124 164.381C299.938 164.559 299.715 164.648 299.453 164.648ZM306.25 175.012C305.409 175.012 304.684 174.826 304.074 174.455C303.468 174.08 303 173.557 302.671 172.887C302.345 172.213 302.182 171.429 302.182 170.535C302.182 169.641 302.345 168.853 302.671 168.171C303 167.485 303.459 166.951 304.046 166.569C304.637 166.182 305.326 165.989 306.114 165.989C306.568 165.989 307.017 166.065 307.461 166.216C307.904 166.368 308.307 166.614 308.671 166.955C309.034 167.292 309.324 167.739 309.54 168.296C309.756 168.853 309.864 169.538 309.864 170.353V170.921H303.137V169.762H308.5C308.5 169.269 308.402 168.83 308.205 168.444C308.012 168.057 307.735 167.752 307.375 167.529C307.019 167.305 306.599 167.194 306.114 167.194C305.58 167.194 305.118 167.326 304.728 167.591C304.341 167.853 304.044 168.194 303.836 168.614C303.627 169.035 303.523 169.485 303.523 169.966V170.739C303.523 171.398 303.637 171.957 303.864 172.415C304.095 172.87 304.415 173.216 304.824 173.455C305.233 173.69 305.709 173.807 306.25 173.807C306.603 173.807 306.921 173.758 307.205 173.66C307.493 173.557 307.741 173.406 307.949 173.205C308.157 173.001 308.318 172.747 308.432 172.444L309.728 172.807C309.591 173.247 309.362 173.633 309.04 173.966C308.718 174.296 308.32 174.554 307.847 174.739C307.373 174.921 306.841 175.012 306.25 175.012ZM315.449 175.012C314.631 175.012 313.926 174.819 313.336 174.432C312.745 174.046 312.29 173.514 311.972 172.836C311.654 172.158 311.495 171.383 311.495 170.512C311.495 169.626 311.657 168.843 311.983 168.165C312.313 167.483 312.771 166.951 313.358 166.569C313.949 166.182 314.639 165.989 315.426 165.989C316.04 165.989 316.593 166.103 317.086 166.33C317.578 166.557 317.981 166.876 318.296 167.285C318.61 167.694 318.805 168.171 318.881 168.716H317.54C317.438 168.319 317.211 167.966 316.858 167.66C316.51 167.349 316.04 167.194 315.449 167.194C314.926 167.194 314.468 167.33 314.074 167.603C313.684 167.872 313.379 168.252 313.159 168.745C312.943 169.233 312.836 169.807 312.836 170.466C312.836 171.141 312.942 171.728 313.154 172.228C313.37 172.728 313.673 173.116 314.063 173.393C314.457 173.669 314.919 173.807 315.449 173.807C315.798 173.807 316.114 173.747 316.398 173.626C316.682 173.504 316.923 173.33 317.12 173.103C317.317 172.876 317.457 172.603 317.54 172.285H318.881C318.805 172.8 318.618 173.264 318.318 173.677C318.023 174.086 317.631 174.412 317.142 174.654C316.657 174.893 316.093 175.012 315.449 175.012ZM324.637 166.103V167.239H320.114V166.103H324.637ZM321.432 164.012H322.773V172.33C322.773 172.709 322.828 172.993 322.938 173.182C323.051 173.368 323.195 173.493 323.37 173.557C323.548 173.618 323.735 173.648 323.932 173.648C324.08 173.648 324.201 173.641 324.296 173.626C324.39 173.607 324.466 173.591 324.523 173.58L324.796 174.785C324.705 174.819 324.578 174.853 324.415 174.887C324.252 174.925 324.046 174.944 323.796 174.944C323.417 174.944 323.046 174.862 322.682 174.699C322.322 174.537 322.023 174.288 321.784 173.955C321.55 173.622 321.432 173.201 321.432 172.694V164.012ZM328.654 173.239L328.563 173.853C328.498 174.285 328.4 174.747 328.267 175.239C328.139 175.732 328.004 176.196 327.864 176.631C327.724 177.067 327.608 177.413 327.517 177.671H326.495C326.544 177.429 326.608 177.108 326.688 176.711C326.767 176.313 326.847 175.868 326.926 175.376C327.01 174.887 327.078 174.387 327.131 173.876L327.199 173.239H328.654ZM327.836 168.444C327.555 168.444 327.315 168.343 327.114 168.143C326.913 167.942 326.813 167.701 326.813 167.421C326.813 167.141 326.913 166.9 327.114 166.699C327.315 166.499 327.555 166.398 327.836 166.398C328.116 166.398 328.356 166.499 328.557 166.699C328.758 166.9 328.858 167.141 328.858 167.421C328.858 167.607 328.811 167.777 328.716 167.932C328.625 168.088 328.502 168.213 328.347 168.307C328.195 168.398 328.025 168.444 327.836 168.444ZM335.638 174.83V166.103H336.934V167.421H337.024C337.184 166.989 337.471 166.639 337.888 166.37C338.305 166.101 338.774 165.966 339.297 165.966C339.396 165.966 339.519 165.968 339.666 165.972C339.814 165.976 339.926 165.982 340.002 165.989V167.353C339.956 167.341 339.852 167.324 339.689 167.302C339.53 167.275 339.362 167.262 339.184 167.262C338.759 167.262 338.38 167.351 338.047 167.529C337.718 167.703 337.456 167.946 337.263 168.256C337.074 168.563 336.979 168.913 336.979 169.307V174.83H335.638ZM341.591 174.83V166.103H342.932V174.83H341.591ZM342.273 164.648C342.012 164.648 341.786 164.559 341.597 164.381C341.411 164.203 341.318 163.989 341.318 163.739C341.318 163.489 341.411 163.275 341.597 163.097C341.786 162.919 342.012 162.83 342.273 162.83C342.534 162.83 342.758 162.919 342.943 163.097C343.133 163.275 343.228 163.489 343.228 163.739C343.228 163.989 343.133 164.203 342.943 164.381C342.758 164.559 342.534 164.648 342.273 164.648ZM351.57 168.057L350.365 168.398C350.29 168.198 350.178 168.002 350.03 167.813C349.886 167.62 349.689 167.461 349.439 167.336C349.189 167.211 348.869 167.148 348.479 167.148C347.945 167.148 347.5 167.271 347.144 167.518C346.791 167.76 346.615 168.069 346.615 168.444C346.615 168.777 346.737 169.04 346.979 169.233C347.221 169.427 347.6 169.588 348.115 169.716L349.411 170.035C350.191 170.224 350.773 170.514 351.155 170.904C351.538 171.29 351.729 171.788 351.729 172.398C351.729 172.898 351.585 173.345 351.297 173.739C351.013 174.133 350.615 174.444 350.104 174.671C349.593 174.898 348.998 175.012 348.32 175.012C347.43 175.012 346.693 174.819 346.11 174.432C345.526 174.046 345.157 173.482 345.002 172.739L346.274 172.421C346.396 172.891 346.625 173.243 346.962 173.478C347.303 173.713 347.748 173.83 348.297 173.83C348.922 173.83 349.418 173.698 349.786 173.432C350.157 173.163 350.343 172.841 350.343 172.466C350.343 172.163 350.237 171.91 350.024 171.705C349.812 171.497 349.487 171.341 349.047 171.239L347.593 170.898C346.793 170.709 346.206 170.415 345.831 170.018C345.46 169.616 345.274 169.114 345.274 168.512C345.274 168.019 345.413 167.584 345.689 167.205C345.97 166.826 346.35 166.529 346.831 166.313C347.316 166.097 347.865 165.989 348.479 165.989C349.343 165.989 350.021 166.179 350.513 166.557C351.009 166.936 351.362 167.436 351.57 168.057ZM354.997 171.648L354.975 169.989H355.247L359.066 166.103H360.725L356.657 170.216H356.543L354.997 171.648ZM353.747 174.83V163.194H355.088V174.83H353.747ZM359.293 174.83L355.884 170.512L356.838 169.58L360.997 174.83H359.293ZM363.314 178.103C363.087 178.103 362.884 178.084 362.706 178.046C362.528 178.012 362.405 177.978 362.337 177.944L362.678 176.762C363.004 176.845 363.291 176.876 363.541 176.853C363.791 176.83 364.013 176.718 364.206 176.518C364.403 176.321 364.583 176.001 364.746 175.557L364.996 174.876L361.769 166.103H363.223L365.632 173.057H365.723L368.132 166.103H369.587L365.882 176.103C365.716 176.554 365.509 176.927 365.263 177.222C365.017 177.521 364.731 177.743 364.405 177.887C364.083 178.031 363.72 178.103 363.314 178.103ZM378.425 175.035C377.872 175.035 377.37 174.93 376.919 174.722C376.469 174.51 376.111 174.205 375.845 173.807C375.58 173.406 375.448 172.921 375.448 172.353C375.448 171.853 375.546 171.448 375.743 171.137C375.94 170.823 376.203 170.576 376.533 170.398C376.863 170.22 377.226 170.088 377.624 170.001C378.025 169.91 378.429 169.838 378.834 169.785C379.364 169.716 379.794 169.665 380.124 169.631C380.457 169.593 380.7 169.531 380.851 169.444C381.006 169.357 381.084 169.205 381.084 168.989V168.944C381.084 168.383 380.931 167.948 380.624 167.637C380.321 167.326 379.861 167.171 379.243 167.171C378.603 167.171 378.101 167.311 377.738 167.591C377.374 167.872 377.118 168.171 376.97 168.489L375.698 168.035C375.925 167.504 376.228 167.091 376.607 166.796C376.989 166.497 377.406 166.288 377.857 166.171C378.311 166.05 378.758 165.989 379.198 165.989C379.478 165.989 379.8 166.023 380.164 166.091C380.531 166.156 380.885 166.29 381.226 166.495C381.571 166.699 381.857 167.008 382.084 167.421C382.311 167.834 382.425 168.387 382.425 169.08V174.83H381.084V173.648H381.016C380.925 173.838 380.773 174.04 380.561 174.256C380.349 174.472 380.067 174.656 379.715 174.807C379.363 174.959 378.933 175.035 378.425 175.035ZM378.63 173.83C379.16 173.83 379.607 173.726 379.97 173.518C380.338 173.309 380.614 173.04 380.8 172.711C380.989 172.381 381.084 172.035 381.084 171.671V170.444C381.027 170.512 380.902 170.574 380.709 170.631C380.52 170.684 380.3 170.732 380.05 170.773C379.804 170.811 379.563 170.845 379.328 170.876C379.097 170.902 378.91 170.925 378.766 170.944C378.417 170.989 378.092 171.063 377.789 171.165C377.489 171.264 377.247 171.413 377.061 171.614C376.88 171.811 376.789 172.08 376.789 172.421C376.789 172.887 376.961 173.239 377.306 173.478C377.654 173.713 378.095 173.83 378.63 173.83ZM388.418 175.012C387.6 175.012 386.895 174.819 386.304 174.432C385.713 174.046 385.259 173.514 384.941 172.836C384.622 172.158 384.463 171.383 384.463 170.512C384.463 169.626 384.626 168.843 384.952 168.165C385.282 167.483 385.74 166.951 386.327 166.569C386.918 166.182 387.607 165.989 388.395 165.989C389.009 165.989 389.562 166.103 390.054 166.33C390.547 166.557 390.95 166.876 391.264 167.285C391.579 167.694 391.774 168.171 391.85 168.716H390.509C390.407 168.319 390.179 167.966 389.827 167.66C389.479 167.349 389.009 167.194 388.418 167.194C387.895 167.194 387.437 167.33 387.043 167.603C386.653 167.872 386.348 168.252 386.128 168.745C385.912 169.233 385.804 169.807 385.804 170.466C385.804 171.141 385.91 171.728 386.122 172.228C386.338 172.728 386.641 173.116 387.032 173.393C387.425 173.669 387.888 173.807 388.418 173.807C388.766 173.807 389.083 173.747 389.367 173.626C389.651 173.504 389.891 173.33 390.088 173.103C390.285 172.876 390.425 172.603 390.509 172.285H391.85C391.774 172.8 391.586 173.264 391.287 173.677C390.992 174.086 390.6 174.412 390.111 174.654C389.626 174.893 389.062 175.012 388.418 175.012ZM397.605 166.103V167.239H393.083V166.103H397.605ZM394.401 164.012H395.742V172.33C395.742 172.709 395.797 172.993 395.907 173.182C396.02 173.368 396.164 173.493 396.338 173.557C396.516 173.618 396.704 173.648 396.901 173.648C397.049 173.648 397.17 173.641 397.264 173.626C397.359 173.607 397.435 173.591 397.492 173.58L397.764 174.785C397.674 174.819 397.547 174.853 397.384 174.887C397.221 174.925 397.014 174.944 396.764 174.944C396.386 174.944 396.014 174.862 395.651 174.699C395.291 174.537 394.992 174.288 394.753 173.955C394.518 173.622 394.401 173.201 394.401 172.694V164.012ZM399.622 174.83V166.103H400.963V174.83H399.622ZM400.304 164.648C400.043 164.648 399.818 164.559 399.628 164.381C399.443 164.203 399.35 163.989 399.35 163.739C399.35 163.489 399.443 163.275 399.628 163.097C399.818 162.919 400.043 162.83 400.304 162.83C400.566 162.83 400.789 162.919 400.975 163.097C401.164 163.275 401.259 163.489 401.259 163.739C401.259 163.989 401.164 164.203 400.975 164.381C400.789 164.559 400.566 164.648 400.304 164.648ZM406.965 175.012C406.177 175.012 405.486 174.824 404.891 174.449C404.3 174.074 403.838 173.55 403.505 172.876C403.175 172.201 403.01 171.413 403.01 170.512C403.01 169.603 403.175 168.809 403.505 168.131C403.838 167.453 404.3 166.927 404.891 166.552C405.486 166.177 406.177 165.989 406.965 165.989C407.753 165.989 408.442 166.177 409.033 166.552C409.628 166.927 410.09 167.453 410.419 168.131C410.753 168.809 410.919 169.603 410.919 170.512C410.919 171.413 410.753 172.201 410.419 172.876C410.09 173.55 409.628 174.074 409.033 174.449C408.442 174.824 407.753 175.012 406.965 175.012ZM406.965 173.807C407.563 173.807 408.056 173.654 408.442 173.347C408.828 173.04 409.114 172.637 409.3 172.137C409.486 171.637 409.578 171.095 409.578 170.512C409.578 169.929 409.486 169.385 409.3 168.881C409.114 168.377 408.828 167.97 408.442 167.66C408.056 167.349 407.563 167.194 406.965 167.194C406.366 167.194 405.874 167.349 405.488 167.66C405.101 167.97 404.815 168.377 404.63 168.881C404.444 169.385 404.351 169.929 404.351 170.512C404.351 171.095 404.444 171.637 404.63 172.137C404.815 172.637 405.101 173.04 405.488 173.347C405.874 173.654 406.366 173.807 406.965 173.807ZM414.307 169.58V174.83H412.966V166.103H414.262V167.466H414.375C414.58 167.023 414.89 166.667 415.307 166.398C415.724 166.126 416.262 165.989 416.921 165.989C417.512 165.989 418.029 166.11 418.472 166.353C418.915 166.591 419.26 166.955 419.506 167.444C419.752 167.929 419.875 168.542 419.875 169.285V174.83H418.534V169.376C418.534 168.69 418.356 168.156 418 167.773C417.644 167.387 417.156 167.194 416.534 167.194C416.106 167.194 415.724 167.287 415.387 167.472C415.053 167.658 414.79 167.929 414.597 168.285C414.404 168.641 414.307 169.073 414.307 169.58ZM428.507 168.057L427.303 168.398C427.227 168.198 427.115 168.002 426.968 167.813C426.824 167.62 426.627 167.461 426.377 167.336C426.127 167.211 425.807 167.148 425.416 167.148C424.882 167.148 424.437 167.271 424.081 167.518C423.729 167.76 423.553 168.069 423.553 168.444C423.553 168.777 423.674 169.04 423.916 169.233C424.159 169.427 424.538 169.588 425.053 169.716L426.348 170.035C427.129 170.224 427.71 170.514 428.093 170.904C428.475 171.29 428.666 171.788 428.666 172.398C428.666 172.898 428.523 173.345 428.235 173.739C427.951 174.133 427.553 174.444 427.041 174.671C426.53 174.898 425.935 175.012 425.257 175.012C424.367 175.012 423.63 174.819 423.047 174.432C422.464 174.046 422.095 173.482 421.939 172.739L423.212 172.421C423.333 172.891 423.562 173.243 423.899 173.478C424.24 173.713 424.685 173.83 425.235 173.83C425.86 173.83 426.356 173.698 426.723 173.432C427.095 173.163 427.28 172.841 427.28 172.466C427.28 172.163 427.174 171.91 426.962 171.705C426.75 171.497 426.424 171.341 425.985 171.239L424.53 170.898C423.731 170.709 423.144 170.415 422.769 170.018C422.398 169.616 422.212 169.114 422.212 168.512C422.212 168.019 422.35 167.584 422.627 167.205C422.907 166.826 423.288 166.529 423.769 166.313C424.254 166.097 424.803 165.989 425.416 165.989C426.28 165.989 426.958 166.179 427.451 166.557C427.947 166.936 428.299 167.436 428.507 168.057ZM437.753 175.035C437.2 175.035 436.698 174.93 436.247 174.722C435.797 174.51 435.439 174.205 435.174 173.807C434.908 173.406 434.776 172.921 434.776 172.353C434.776 171.853 434.874 171.448 435.071 171.137C435.268 170.823 435.532 170.576 435.861 170.398C436.191 170.22 436.554 170.088 436.952 170.001C437.354 169.91 437.757 169.838 438.162 169.785C438.693 169.716 439.122 169.665 439.452 169.631C439.785 169.593 440.028 169.531 440.179 169.444C440.335 169.357 440.412 169.205 440.412 168.989V168.944C440.412 168.383 440.259 167.948 439.952 167.637C439.649 167.326 439.189 167.171 438.571 167.171C437.931 167.171 437.429 167.311 437.066 167.591C436.702 167.872 436.446 168.171 436.299 168.489L435.026 168.035C435.253 167.504 435.556 167.091 435.935 166.796C436.318 166.497 436.734 166.288 437.185 166.171C437.639 166.05 438.086 165.989 438.526 165.989C438.806 165.989 439.128 166.023 439.492 166.091C439.859 166.156 440.213 166.29 440.554 166.495C440.899 166.699 441.185 167.008 441.412 167.421C441.639 167.834 441.753 168.387 441.753 169.08V174.83H440.412V173.648H440.344C440.253 173.838 440.102 174.04 439.889 174.256C439.677 174.472 439.395 174.656 439.043 174.807C438.691 174.959 438.261 175.035 437.753 175.035ZM437.958 173.83C438.488 173.83 438.935 173.726 439.299 173.518C439.666 173.309 439.943 173.04 440.128 172.711C440.318 172.381 440.412 172.035 440.412 171.671V170.444C440.355 170.512 440.23 170.574 440.037 170.631C439.848 170.684 439.628 170.732 439.378 170.773C439.132 170.811 438.891 170.845 438.657 170.876C438.425 170.902 438.238 170.925 438.094 170.944C437.746 170.989 437.42 171.063 437.117 171.165C436.818 171.264 436.575 171.413 436.389 171.614C436.208 171.811 436.117 172.08 436.117 172.421C436.117 172.887 436.289 173.239 436.634 173.478C436.982 173.713 437.424 173.83 437.958 173.83ZM444.201 174.83V166.103H445.496V167.421H445.587C445.746 166.989 446.034 166.639 446.451 166.37C446.867 166.101 447.337 165.966 447.86 165.966C447.958 165.966 448.081 165.968 448.229 165.972C448.377 165.976 448.488 165.982 448.564 165.989V167.353C448.519 167.341 448.415 167.324 448.252 167.302C448.093 167.275 447.924 167.262 447.746 167.262C447.322 167.262 446.943 167.351 446.61 167.529C446.28 167.703 446.019 167.946 445.826 168.256C445.636 168.563 445.541 168.913 445.541 169.307V174.83H444.201ZM453.547 175.012C452.706 175.012 451.981 174.826 451.371 174.455C450.765 174.08 450.297 173.557 449.968 172.887C449.642 172.213 449.479 171.429 449.479 170.535C449.479 169.641 449.642 168.853 449.968 168.171C450.297 167.485 450.755 166.951 451.343 166.569C451.934 166.182 452.623 165.989 453.411 165.989C453.865 165.989 454.314 166.065 454.757 166.216C455.201 166.368 455.604 166.614 455.968 166.955C456.331 167.292 456.621 167.739 456.837 168.296C457.053 168.853 457.161 169.538 457.161 170.353V170.921H450.434V169.762H455.797C455.797 169.269 455.699 168.83 455.502 168.444C455.309 168.057 455.032 167.752 454.672 167.529C454.316 167.305 453.896 167.194 453.411 167.194C452.877 167.194 452.415 167.326 452.024 167.591C451.638 167.853 451.341 168.194 451.132 168.614C450.924 169.035 450.82 169.485 450.82 169.966V170.739C450.82 171.398 450.934 171.957 451.161 172.415C451.392 172.87 451.712 173.216 452.121 173.455C452.53 173.69 453.005 173.807 453.547 173.807C453.899 173.807 454.218 173.758 454.502 173.66C454.79 173.557 455.038 173.406 455.246 173.205C455.454 173.001 455.615 172.747 455.729 172.444L457.024 172.807C456.888 173.247 456.659 173.633 456.337 173.966C456.015 174.296 455.617 174.554 455.144 174.739C454.67 174.921 454.138 175.012 453.547 175.012ZM280.659 197.035C280.106 197.035 279.604 196.93 279.154 196.722C278.703 196.51 278.345 196.205 278.08 195.807C277.815 195.406 277.682 194.921 277.682 194.353C277.682 193.853 277.781 193.448 277.978 193.137C278.175 192.823 278.438 192.576 278.767 192.398C279.097 192.22 279.461 192.088 279.858 192.001C280.26 191.91 280.663 191.838 281.068 191.785C281.599 191.716 282.029 191.665 282.358 191.631C282.692 191.593 282.934 191.531 283.086 191.444C283.241 191.357 283.318 191.205 283.318 190.989V190.944C283.318 190.383 283.165 189.948 282.858 189.637C282.555 189.326 282.095 189.171 281.478 189.171C280.837 189.171 280.336 189.311 279.972 189.591C279.608 189.872 279.353 190.171 279.205 190.489L277.932 190.035C278.159 189.504 278.462 189.091 278.841 188.796C279.224 188.497 279.64 188.288 280.091 188.171C280.546 188.05 280.993 187.989 281.432 187.989C281.712 187.989 282.034 188.023 282.398 188.091C282.765 188.156 283.12 188.29 283.461 188.495C283.805 188.699 284.091 189.008 284.318 189.421C284.546 189.834 284.659 190.387 284.659 191.08V196.83H283.318V195.648H283.25C283.159 195.838 283.008 196.04 282.796 196.256C282.584 196.472 282.301 196.656 281.949 196.807C281.597 196.959 281.167 197.035 280.659 197.035ZM280.864 195.83C281.394 195.83 281.841 195.726 282.205 195.518C282.572 195.309 282.849 195.04 283.034 194.711C283.224 194.381 283.318 194.035 283.318 193.671V192.444C283.262 192.512 283.137 192.574 282.943 192.631C282.754 192.684 282.534 192.732 282.284 192.773C282.038 192.811 281.798 192.845 281.563 192.876C281.332 192.902 281.144 192.925 281 192.944C280.652 192.989 280.326 193.063 280.023 193.165C279.724 193.264 279.481 193.413 279.296 193.614C279.114 193.811 279.023 194.08 279.023 194.421C279.023 194.887 279.195 195.239 279.54 195.478C279.889 195.713 280.33 195.83 280.864 195.83ZM292.607 193.262V188.103H293.948V196.83H292.607V195.353H292.516C292.311 195.796 291.993 196.173 291.561 196.483C291.13 196.79 290.584 196.944 289.925 196.944C289.38 196.944 288.895 196.824 288.47 196.586C288.046 196.343 287.713 195.98 287.47 195.495C287.228 195.006 287.107 194.391 287.107 193.648V188.103H288.448V193.557C288.448 194.194 288.626 194.701 288.982 195.08C289.342 195.459 289.8 195.648 290.357 195.648C290.69 195.648 291.029 195.563 291.374 195.393C291.722 195.222 292.014 194.961 292.249 194.608C292.488 194.256 292.607 193.807 292.607 193.262ZM300.199 188.103V189.239H295.676V188.103H300.199ZM296.995 186.012H298.336V194.33C298.336 194.709 298.39 194.993 298.5 195.182C298.614 195.368 298.758 195.493 298.932 195.557C299.11 195.618 299.298 195.648 299.495 195.648C299.642 195.648 299.764 195.641 299.858 195.626C299.953 195.607 300.029 195.591 300.086 195.58L300.358 196.785C300.267 196.819 300.14 196.853 299.978 196.887C299.815 196.925 299.608 196.944 299.358 196.944C298.979 196.944 298.608 196.862 298.245 196.699C297.885 196.537 297.586 196.288 297.347 195.955C297.112 195.622 296.995 195.201 296.995 194.694V186.012ZM305.668 197.012C304.88 197.012 304.189 196.824 303.594 196.449C303.003 196.074 302.541 195.55 302.208 194.876C301.878 194.201 301.713 193.413 301.713 192.512C301.713 191.603 301.878 190.809 302.208 190.131C302.541 189.453 303.003 188.927 303.594 188.552C304.189 188.177 304.88 187.989 305.668 187.989C306.456 187.989 307.145 188.177 307.736 188.552C308.331 188.927 308.793 189.453 309.122 190.131C309.456 190.809 309.622 191.603 309.622 192.512C309.622 193.413 309.456 194.201 309.122 194.876C308.793 195.55 308.331 196.074 307.736 196.449C307.145 196.824 306.456 197.012 305.668 197.012ZM305.668 195.807C306.266 195.807 306.759 195.654 307.145 195.347C307.532 195.04 307.818 194.637 308.003 194.137C308.189 193.637 308.282 193.095 308.282 192.512C308.282 191.929 308.189 191.385 308.003 190.881C307.818 190.377 307.532 189.97 307.145 189.66C306.759 189.349 306.266 189.194 305.668 189.194C305.069 189.194 304.577 189.349 304.191 189.66C303.804 189.97 303.518 190.377 303.333 190.881C303.147 191.385 303.054 191.929 303.054 192.512C303.054 193.095 303.147 193.637 303.333 194.137C303.518 194.637 303.804 195.04 304.191 195.347C304.577 195.654 305.069 195.807 305.668 195.807ZM316.669 191.216V192.466H311.578V191.216H316.669ZM319.211 196.83V185.194H320.551V189.489H320.665C320.764 189.338 320.9 189.144 321.074 188.91C321.252 188.671 321.506 188.459 321.836 188.273C322.169 188.084 322.62 187.989 323.188 187.989C323.923 187.989 324.57 188.173 325.131 188.54C325.692 188.908 326.129 189.429 326.443 190.103C326.758 190.777 326.915 191.573 326.915 192.489C326.915 193.413 326.758 194.215 326.443 194.893C326.129 195.567 325.693 196.09 325.137 196.461C324.58 196.828 323.938 197.012 323.211 197.012C322.65 197.012 322.201 196.919 321.864 196.733C321.527 196.544 321.267 196.33 321.086 196.091C320.904 195.849 320.764 195.648 320.665 195.489H320.506V196.83H319.211ZM320.529 192.466C320.529 193.126 320.625 193.707 320.818 194.211C321.012 194.711 321.294 195.103 321.665 195.387C322.036 195.667 322.491 195.807 323.029 195.807C323.589 195.807 324.057 195.66 324.432 195.364C324.811 195.065 325.095 194.663 325.284 194.16C325.478 193.652 325.574 193.088 325.574 192.466C325.574 191.853 325.479 191.3 325.29 190.807C325.104 190.311 324.822 189.919 324.443 189.631C324.068 189.34 323.597 189.194 323.029 189.194C322.483 189.194 322.025 189.332 321.654 189.608C321.282 189.881 321.002 190.264 320.813 190.756C320.623 191.245 320.529 191.815 320.529 192.466ZM330.307 185.194V196.83H328.966V185.194H330.307ZM336.309 197.012C335.521 197.012 334.829 196.824 334.235 196.449C333.644 196.074 333.182 195.55 332.848 194.876C332.519 194.201 332.354 193.413 332.354 192.512C332.354 191.603 332.519 190.809 332.848 190.131C333.182 189.453 333.644 188.927 334.235 188.552C334.829 188.177 335.521 187.989 336.309 187.989C337.096 187.989 337.786 188.177 338.377 188.552C338.971 188.927 339.434 189.453 339.763 190.131C340.096 190.809 340.263 191.603 340.263 192.512C340.263 193.413 340.096 194.201 339.763 194.876C339.434 195.55 338.971 196.074 338.377 196.449C337.786 196.824 337.096 197.012 336.309 197.012ZM336.309 195.807C336.907 195.807 337.399 195.654 337.786 195.347C338.172 195.04 338.458 194.637 338.644 194.137C338.829 193.637 338.922 193.095 338.922 192.512C338.922 191.929 338.829 191.385 338.644 190.881C338.458 190.377 338.172 189.97 337.786 189.66C337.399 189.349 336.907 189.194 336.309 189.194C335.71 189.194 335.218 189.349 334.831 189.66C334.445 189.97 334.159 190.377 333.973 190.881C333.788 191.385 333.695 191.929 333.695 192.512C333.695 193.095 333.788 193.637 333.973 194.137C334.159 194.637 334.445 195.04 334.831 195.347C335.218 195.654 335.71 195.807 336.309 195.807ZM345.855 197.012C345.037 197.012 344.333 196.819 343.742 196.432C343.151 196.046 342.696 195.514 342.378 194.836C342.06 194.158 341.901 193.383 341.901 192.512C341.901 191.626 342.064 190.843 342.389 190.165C342.719 189.483 343.177 188.951 343.764 188.569C344.355 188.182 345.045 187.989 345.833 187.989C346.446 187.989 346.999 188.103 347.492 188.33C347.984 188.557 348.388 188.876 348.702 189.285C349.016 189.694 349.211 190.171 349.287 190.716H347.946C347.844 190.319 347.617 189.966 347.264 189.66C346.916 189.349 346.446 189.194 345.855 189.194C345.333 189.194 344.874 189.33 344.48 189.603C344.09 189.872 343.785 190.252 343.566 190.745C343.35 191.233 343.242 191.807 343.242 192.466C343.242 193.141 343.348 193.728 343.56 194.228C343.776 194.728 344.079 195.116 344.469 195.393C344.863 195.669 345.325 195.807 345.855 195.807C346.204 195.807 346.52 195.747 346.804 195.626C347.088 195.504 347.329 195.33 347.526 195.103C347.723 194.876 347.863 194.603 347.946 194.285H349.287C349.211 194.8 349.024 195.264 348.725 195.677C348.429 196.086 348.037 196.412 347.549 196.654C347.064 196.893 346.499 197.012 345.855 197.012ZM352.497 193.648L352.475 191.989H352.747L356.566 188.103H358.225L354.157 192.216H354.043L352.497 193.648ZM351.247 196.83V185.194H352.588V196.83H351.247ZM356.793 196.83L353.384 192.512L354.338 191.58L358.497 196.83H356.793ZM363.25 197.012C362.409 197.012 361.684 196.826 361.074 196.455C360.468 196.08 360 195.557 359.671 194.887C359.345 194.213 359.182 193.429 359.182 192.535C359.182 191.641 359.345 190.853 359.671 190.171C360 189.485 360.459 188.951 361.046 188.569C361.637 188.182 362.326 187.989 363.114 187.989C363.568 187.989 364.017 188.065 364.461 188.216C364.904 188.368 365.307 188.614 365.671 188.955C366.034 189.292 366.324 189.739 366.54 190.296C366.756 190.853 366.864 191.538 366.864 192.353V192.921H360.137V191.762H365.5C365.5 191.269 365.402 190.83 365.205 190.444C365.012 190.057 364.735 189.752 364.375 189.529C364.019 189.305 363.599 189.194 363.114 189.194C362.58 189.194 362.118 189.326 361.728 189.591C361.341 189.853 361.044 190.194 360.836 190.614C360.627 191.035 360.523 191.485 360.523 191.966V192.739C360.523 193.398 360.637 193.957 360.864 194.415C361.095 194.87 361.415 195.216 361.824 195.455C362.233 195.69 362.709 195.807 363.25 195.807C363.603 195.807 363.921 195.758 364.205 195.66C364.493 195.557 364.741 195.406 364.949 195.205C365.157 195.001 365.318 194.747 365.432 194.444L366.728 194.807C366.591 195.247 366.362 195.633 366.04 195.966C365.718 196.296 365.32 196.554 364.847 196.739C364.373 196.921 363.841 197.012 363.25 197.012ZM372.199 197.012C371.472 197.012 370.83 196.828 370.273 196.461C369.716 196.09 369.281 195.567 368.966 194.893C368.652 194.215 368.495 193.413 368.495 192.489C368.495 191.573 368.652 190.777 368.966 190.103C369.281 189.429 369.718 188.908 370.279 188.54C370.839 188.173 371.487 187.989 372.222 187.989C372.79 187.989 373.239 188.084 373.568 188.273C373.902 188.459 374.156 188.671 374.33 188.91C374.508 189.144 374.646 189.338 374.745 189.489H374.858V185.194H376.199V196.83H374.904V195.489H374.745C374.646 195.648 374.506 195.849 374.324 196.091C374.142 196.33 373.883 196.544 373.546 196.733C373.209 196.919 372.76 197.012 372.199 197.012ZM372.381 195.807C372.919 195.807 373.373 195.667 373.745 195.387C374.116 195.103 374.398 194.711 374.591 194.211C374.784 193.707 374.881 193.126 374.881 192.466C374.881 191.815 374.786 191.245 374.597 190.756C374.407 190.264 374.127 189.881 373.756 189.608C373.385 189.332 372.926 189.194 372.381 189.194C371.813 189.194 371.339 189.34 370.961 189.631C370.586 189.919 370.303 190.311 370.114 190.807C369.928 191.3 369.836 191.853 369.836 192.466C369.836 193.088 369.93 193.652 370.12 194.16C370.313 194.663 370.597 195.065 370.972 195.364C371.351 195.66 371.82 195.807 372.381 195.807ZM383.341 196.83V188.103H384.682V196.83H383.341ZM384.023 186.648C383.762 186.648 383.536 186.559 383.347 186.381C383.161 186.203 383.068 185.989 383.068 185.739C383.068 185.489 383.161 185.275 383.347 185.097C383.536 184.919 383.762 184.83 384.023 184.83C384.284 184.83 384.508 184.919 384.693 185.097C384.883 185.275 384.978 185.489 384.978 185.739C384.978 185.989 384.883 186.203 384.693 186.381C384.508 186.559 384.284 186.648 384.023 186.648ZM391.024 188.103V189.239H386.32V188.103H391.024ZM387.729 196.83V186.898C387.729 186.398 387.846 185.982 388.081 185.648C388.316 185.315 388.621 185.065 388.996 184.898C389.371 184.732 389.767 184.648 390.184 184.648C390.513 184.648 390.782 184.675 390.99 184.728C391.199 184.781 391.354 184.83 391.456 184.876L391.07 186.035C391.002 186.012 390.907 185.983 390.786 185.949C390.668 185.915 390.513 185.898 390.32 185.898C389.877 185.898 389.557 186.01 389.36 186.233C389.166 186.457 389.07 186.785 389.07 187.216V196.83H387.729ZM397.404 196.83V188.103H398.745V196.83H397.404ZM398.086 186.648C397.824 186.648 397.599 186.559 397.409 186.381C397.224 186.203 397.131 185.989 397.131 185.739C397.131 185.489 397.224 185.275 397.409 185.097C397.599 184.919 397.824 184.83 398.086 184.83C398.347 184.83 398.57 184.919 398.756 185.097C398.945 185.275 399.04 185.489 399.04 185.739C399.04 185.989 398.945 186.203 398.756 186.381C398.57 186.559 398.347 186.648 398.086 186.648ZM404.723 200.285C404.076 200.285 403.519 200.201 403.053 200.035C402.587 199.872 402.199 199.656 401.888 199.387C401.581 199.122 401.337 198.838 401.155 198.535L402.223 197.785C402.345 197.944 402.498 198.126 402.684 198.33C402.869 198.538 403.123 198.718 403.445 198.87C403.771 199.025 404.197 199.103 404.723 199.103C405.428 199.103 406.009 198.932 406.468 198.591C406.926 198.251 407.155 197.716 407.155 196.989V195.216H407.041C406.943 195.376 406.803 195.573 406.621 195.807C406.443 196.038 406.185 196.245 405.848 196.427C405.515 196.605 405.064 196.694 404.496 196.694C403.791 196.694 403.159 196.527 402.598 196.194C402.041 195.86 401.6 195.376 401.274 194.739C400.952 194.103 400.791 193.33 400.791 192.421C400.791 191.527 400.949 190.749 401.263 190.086C401.577 189.419 402.015 188.904 402.576 188.54C403.136 188.173 403.784 187.989 404.519 187.989C405.087 187.989 405.538 188.084 405.871 188.273C406.208 188.459 406.466 188.671 406.644 188.91C406.826 189.144 406.966 189.338 407.064 189.489H407.201V188.103H408.496V197.08C408.496 197.83 408.326 198.44 407.985 198.91C407.648 199.383 407.193 199.73 406.621 199.949C406.053 200.173 405.42 200.285 404.723 200.285ZM404.678 195.489C405.216 195.489 405.67 195.366 406.041 195.12C406.413 194.874 406.695 194.519 406.888 194.057C407.081 193.595 407.178 193.042 407.178 192.398C407.178 191.769 407.083 191.215 406.894 190.733C406.704 190.252 406.424 189.876 406.053 189.603C405.682 189.33 405.223 189.194 404.678 189.194C404.11 189.194 403.636 189.338 403.257 189.626C402.882 189.913 402.6 190.3 402.411 190.785C402.225 191.269 402.132 191.807 402.132 192.398C402.132 193.004 402.227 193.54 402.416 194.006C402.61 194.468 402.894 194.832 403.269 195.097C403.648 195.358 404.117 195.489 404.678 195.489ZM412.291 191.58V196.83H410.951V188.103H412.246V189.466H412.36C412.564 189.023 412.875 188.667 413.291 188.398C413.708 188.126 414.246 187.989 414.905 187.989C415.496 187.989 416.013 188.11 416.456 188.353C416.899 188.591 417.244 188.955 417.49 189.444C417.737 189.929 417.86 190.542 417.86 191.285V196.83H416.519V191.376C416.519 190.69 416.341 190.156 415.985 189.773C415.629 189.387 415.14 189.194 414.519 189.194C414.091 189.194 413.708 189.287 413.371 189.472C413.038 189.658 412.774 189.929 412.581 190.285C412.388 190.641 412.291 191.073 412.291 191.58ZM423.855 197.012C423.068 197.012 422.376 196.824 421.782 196.449C421.191 196.074 420.729 195.55 420.395 194.876C420.066 194.201 419.901 193.413 419.901 192.512C419.901 191.603 420.066 190.809 420.395 190.131C420.729 189.453 421.191 188.927 421.782 188.552C422.376 188.177 423.068 187.989 423.855 187.989C424.643 187.989 425.333 188.177 425.924 188.552C426.518 188.927 426.98 189.453 427.31 190.131C427.643 190.809 427.81 191.603 427.81 192.512C427.81 193.413 427.643 194.201 427.31 194.876C426.98 195.55 426.518 196.074 425.924 196.449C425.333 196.824 424.643 197.012 423.855 197.012ZM423.855 195.807C424.454 195.807 424.946 195.654 425.333 195.347C425.719 195.04 426.005 194.637 426.191 194.137C426.376 193.637 426.469 193.095 426.469 192.512C426.469 191.929 426.376 191.385 426.191 190.881C426.005 190.377 425.719 189.97 425.333 189.66C424.946 189.349 424.454 189.194 423.855 189.194C423.257 189.194 422.764 189.349 422.378 189.66C421.992 189.97 421.706 190.377 421.52 190.881C421.335 191.385 421.242 191.929 421.242 192.512C421.242 193.095 421.335 193.637 421.52 194.137C421.706 194.637 421.992 195.04 422.378 195.347C422.764 195.654 423.257 195.807 423.855 195.807ZM429.857 196.83V188.103H431.152V189.421H431.243C431.402 188.989 431.69 188.639 432.107 188.37C432.523 188.101 432.993 187.966 433.516 187.966C433.614 187.966 433.738 187.968 433.885 187.972C434.033 187.976 434.145 187.982 434.22 187.989V189.353C434.175 189.341 434.071 189.324 433.908 189.302C433.749 189.275 433.58 189.262 433.402 189.262C432.978 189.262 432.599 189.351 432.266 189.529C431.936 189.703 431.675 189.946 431.482 190.256C431.292 190.563 431.198 190.913 431.198 191.307V196.83H429.857ZM439.203 197.012C438.363 197.012 437.637 196.826 437.027 196.455C436.421 196.08 435.953 195.557 435.624 194.887C435.298 194.213 435.135 193.429 435.135 192.535C435.135 191.641 435.298 190.853 435.624 190.171C435.953 189.485 436.412 188.951 436.999 188.569C437.59 188.182 438.279 187.989 439.067 187.989C439.522 187.989 439.97 188.065 440.414 188.216C440.857 188.368 441.26 188.614 441.624 188.955C441.988 189.292 442.277 189.739 442.493 190.296C442.709 190.853 442.817 191.538 442.817 192.353V192.921H436.09V191.762H441.453C441.453 191.269 441.355 190.83 441.158 190.444C440.965 190.057 440.688 189.752 440.328 189.529C439.972 189.305 439.552 189.194 439.067 189.194C438.533 189.194 438.071 189.326 437.681 189.591C437.294 189.853 436.997 190.194 436.789 190.614C436.58 191.035 436.476 191.485 436.476 191.966V192.739C436.476 193.398 436.59 193.957 436.817 194.415C437.048 194.87 437.368 195.216 437.777 195.455C438.186 195.69 438.662 195.807 439.203 195.807C439.556 195.807 439.874 195.758 440.158 195.66C440.446 195.557 440.694 195.406 440.902 195.205C441.111 195.001 441.272 194.747 441.385 194.444L442.681 194.807C442.544 195.247 442.315 195.633 441.993 195.966C441.671 196.296 441.273 196.554 440.8 196.739C440.327 196.921 439.794 197.012 439.203 197.012ZM448.152 197.012C447.425 197.012 446.783 196.828 446.226 196.461C445.669 196.09 445.234 195.567 444.919 194.893C444.605 194.215 444.448 193.413 444.448 192.489C444.448 191.573 444.605 190.777 444.919 190.103C445.234 189.429 445.671 188.908 446.232 188.54C446.792 188.173 447.44 187.989 448.175 187.989C448.743 187.989 449.192 188.084 449.522 188.273C449.855 188.459 450.109 188.671 450.283 188.91C450.461 189.144 450.599 189.338 450.698 189.489H450.811V185.194H452.152V196.83H450.857V195.489H450.698C450.599 195.648 450.459 195.849 450.277 196.091C450.095 196.33 449.836 196.544 449.499 196.733C449.162 196.919 448.713 197.012 448.152 197.012ZM448.334 195.807C448.872 195.807 449.327 195.667 449.698 195.387C450.069 195.103 450.351 194.711 450.544 194.211C450.738 193.707 450.834 193.126 450.834 192.466C450.834 191.815 450.739 191.245 450.55 190.756C450.361 190.264 450.08 189.881 449.709 189.608C449.338 189.332 448.88 189.194 448.334 189.194C447.766 189.194 447.292 189.34 446.914 189.631C446.539 189.919 446.256 190.311 446.067 190.807C445.881 191.3 445.789 191.853 445.789 192.466C445.789 193.088 445.883 193.652 446.073 194.16C446.266 194.663 446.55 195.065 446.925 195.364C447.304 195.66 447.773 195.807 448.334 195.807ZM455.772 196.921C455.491 196.921 455.251 196.821 455.05 196.62C454.849 196.419 454.749 196.179 454.749 195.898C454.749 195.618 454.849 195.377 455.05 195.177C455.251 194.976 455.491 194.876 455.772 194.876C456.052 194.876 456.292 194.976 456.493 195.177C456.694 195.377 456.794 195.618 456.794 195.898C456.794 196.084 456.747 196.254 456.652 196.41C456.561 196.565 456.438 196.69 456.283 196.785C456.131 196.876 455.961 196.921 455.772 196.921Z" fill="#979799"/>
</g>
<g filter="url(#filter1_ddf_166_2159)">
<path d="M485 187H593.277C599.717 187 606.115 188.038 612.224 190.075L613.761 190.587C617.571 191.857 621.204 193.608 624.572 195.797V195.797C627.845 197.924 630.841 200.449 633.493 203.313L634.267 204.148C639.371 209.66 643.322 216.137 645.89 223.197L646 223.5V223.5C647.321 226.801 647.982 230.329 647.947 233.885L646 432.5" stroke="#F5F5F7" stroke-opacity="0.07" stroke-width="2" stroke-miterlimit="16" stroke-linecap="round" stroke-linejoin="round" shape-rendering="crispEdges"/>
</g>
<defs>
<filter id="filter0_f_166_2159" x="-4" y="0" width="588.91" height="322.033" filterUnits="userSpaceOnUse" color-interpolation-filters="sRGB">
<feFlood flood-opacity="0" result="BackgroundImageFix"/>
<feBlend mode="normal" in="SourceGraphic" in2="BackgroundImageFix" result="shape"/>
<feGaussianBlur stdDeviation="50" result="effect1_foregroundBlur_166_2159"/>
</filter>
<filter id="filter1_ddf_166_2159" x="384" y="86" width="364.949" height="447.5" filterUnits="userSpaceOnUse" color-interpolation-filters="sRGB">
<feFlood flood-opacity="0" result="BackgroundImageFix"/>
<feColorMatrix in="SourceAlpha" type="matrix" values="0 0 0 0 0 0 0 0 0 0 0 0 0 0 0 0 0 0 127 0" result="hardAlpha"/>
<feOffset/>
<feColorMatrix type="matrix" values="0 0 0 0 0.960784 0 0 0 0 0.960784 0 0 0 0 0.968627 0 0 0 1 0"/>
<feBlend mode="normal" in2="BackgroundImageFix" result="effect1_dropShadow_166_2159"/>
<feColorMatrix in="SourceAlpha" type="matrix" values="0 0 0 0 0 0 0 0 0 0 0 0 0 0 0 0 0 0 127 0" result="hardAlpha"/>
<feOffset/>
<feComposite in2="hardAlpha" operator="out"/>
<feColorMatrix type="matrix" values="0 0 0 0 0.960784 0 0 0 0 0.960784 0 0 0 0 0.968627 0 0 0 1 0"/>
<feBlend mode="normal" in2="effect1_dropShadow_166_2159" result="effect2_dropShadow_166_2159"/>
<feBlend mode="normal" in="SourceGraphic" in2="effect2_dropShadow_166_2159" result="shape"/>
<feGaussianBlur stdDeviation="50" result="effect3_foregroundBlur_166_2159"/>
</filter>
<linearGradient id="paint0_linear_166_2159" x1="475.409" y1="135.533" x2="95.8384" y2="158.325" gradientUnits="userSpaceOnUse">
<stop stop-color="#0FF0FC"/>
<stop offset="1" stop-color="#0A0A0A"/>
</linearGradient>
<linearGradient id="paint1_linear_166_2159" x1="484.911" y1="131.834" x2="109.3" y2="212.897" gradientUnits="userSpaceOnUse">
<stop stop-color="#F5F5F7"/>
<stop offset="0.62992" stop-color="#0A0A0A"/>
</linearGradient>
</defs>
</svg>
