<svg width="673" height="723" viewBox="0 0 673 723" fill="none" xmlns="http://www.w3.org/2000/svg">
<g filter="url(#filter0_f_166_2164)">
<mask id="path-1-inside-1_166_2164" fill="white">
<path d="M572.572 112.686C572.572 106.177 567.296 100.9 560.787 100.9H195.447C188.938 100.9 183.661 106.177 183.661 112.686V235.148C183.661 241.657 188.938 246.934 195.447 246.934H560.787C567.296 246.934 572.572 241.657 572.572 235.149V112.686Z"/>
</mask>
<path d="M572.572 112.686C572.572 106.177 567.296 100.9 560.787 100.9H195.447C188.938 100.9 183.661 106.177 183.661 112.686V235.148C183.661 241.657 188.938 246.934 195.447 246.934H560.787C567.296 246.934 572.572 241.657 572.572 235.149V112.686Z" fill="url(#paint0_linear_166_2164)" fill-opacity="0.06"/>
<path d="M572.572 112.686C572.572 105.247 566.542 99.2168 559.103 99.2168H195.447C188.008 99.2168 181.978 105.247 181.978 112.686H185.345C185.345 107.107 189.868 102.584 195.447 102.584H560.787C567.296 102.584 572.572 107.107 572.572 112.686ZM181.978 235.149C181.978 242.587 188.008 248.617 195.447 248.617H559.103C566.542 248.617 572.572 242.587 572.572 235.149V235.149C572.572 240.727 567.296 245.25 560.787 245.25H195.447C189.868 245.25 185.345 240.727 185.345 235.149L181.978 235.149ZM572.572 246.934V100.9V246.934ZM195.447 99.2168C188.008 99.2168 181.978 105.247 181.978 112.686V235.149C181.978 242.587 188.008 248.617 195.447 248.617V245.25C189.868 245.25 185.345 240.727 185.345 235.149V112.686C185.345 107.107 189.868 102.584 195.447 102.584V99.2168Z" fill="url(#paint1_linear_166_2164)" mask="url(#path-1-inside-1_166_2164)"/>
<path d="M225.646 130.307H223.209C223.115 129.786 222.941 129.327 222.686 128.932C222.43 128.536 222.118 128.2 221.748 127.924C221.378 127.648 220.964 127.439 220.506 127.299C220.053 127.158 219.571 127.088 219.061 127.088C218.139 127.088 217.313 127.32 216.584 127.783C215.86 128.247 215.287 128.926 214.865 129.822C214.449 130.718 214.24 131.812 214.24 133.104C214.24 134.406 214.449 135.505 214.865 136.4C215.287 137.296 215.863 137.973 216.592 138.432C217.321 138.89 218.141 139.119 219.053 139.119C219.558 139.119 220.037 139.051 220.49 138.916C220.949 138.775 221.363 138.57 221.732 138.299C222.102 138.028 222.415 137.697 222.67 137.307C222.93 136.911 223.11 136.458 223.209 135.947L225.646 135.955C225.516 136.742 225.264 137.465 224.889 138.127C224.519 138.783 224.042 139.351 223.459 139.83C222.881 140.304 222.219 140.671 221.475 140.932C220.73 141.192 219.917 141.322 219.037 141.322C217.652 141.322 216.417 140.994 215.334 140.338C214.251 139.676 213.396 138.731 212.771 137.502C212.152 136.273 211.842 134.807 211.842 133.104C211.842 131.395 212.154 129.929 212.779 128.705C213.404 127.476 214.258 126.533 215.342 125.877C216.425 125.215 217.657 124.885 219.037 124.885C219.886 124.885 220.678 125.007 221.412 125.252C222.152 125.492 222.816 125.846 223.404 126.314C223.993 126.778 224.48 127.346 224.865 128.018C225.251 128.684 225.511 129.447 225.646 130.307ZM233.402 141.346C232.277 141.346 231.296 141.088 230.457 140.572C229.618 140.057 228.967 139.335 228.504 138.408C228.04 137.481 227.809 136.398 227.809 135.158C227.809 133.913 228.04 132.825 228.504 131.893C228.967 130.96 229.618 130.236 230.457 129.721C231.296 129.205 232.277 128.947 233.402 128.947C234.527 128.947 235.509 129.205 236.348 129.721C237.186 130.236 237.837 130.96 238.301 131.893C238.764 132.825 238.996 133.913 238.996 135.158C238.996 136.398 238.764 137.481 238.301 138.408C237.837 139.335 237.186 140.057 236.348 140.572C235.509 141.088 234.527 141.346 233.402 141.346ZM233.41 139.385C234.139 139.385 234.743 139.192 235.223 138.807C235.702 138.421 236.056 137.908 236.285 137.268C236.52 136.627 236.637 135.921 236.637 135.15C236.637 134.385 236.52 133.682 236.285 133.041C236.056 132.395 235.702 131.877 235.223 131.486C234.743 131.096 234.139 130.9 233.41 130.9C232.676 130.9 232.066 131.096 231.582 131.486C231.103 131.877 230.746 132.395 230.512 133.041C230.283 133.682 230.168 134.385 230.168 135.15C230.168 135.921 230.283 136.627 230.512 137.268C230.746 137.908 231.103 138.421 231.582 138.807C232.066 139.192 232.676 139.385 233.41 139.385ZM241.604 141.104V129.104H243.846V131.057H243.994C244.244 130.395 244.653 129.88 245.221 129.51C245.788 129.135 246.468 128.947 247.26 128.947C248.062 128.947 248.734 129.135 249.275 129.51C249.822 129.885 250.226 130.4 250.486 131.057H250.611C250.898 130.416 251.354 129.906 251.979 129.525C252.604 129.14 253.348 128.947 254.213 128.947C255.301 128.947 256.189 129.288 256.877 129.971C257.57 130.653 257.916 131.682 257.916 133.057V141.104H255.58V133.275C255.58 132.463 255.359 131.874 254.916 131.51C254.473 131.145 253.945 130.963 253.33 130.963C252.57 130.963 251.979 131.197 251.557 131.666C251.135 132.13 250.924 132.726 250.924 133.455V141.104H248.596V133.127C248.596 132.476 248.393 131.952 247.986 131.557C247.58 131.161 247.051 130.963 246.4 130.963C245.958 130.963 245.549 131.08 245.174 131.314C244.804 131.544 244.505 131.864 244.275 132.275C244.051 132.687 243.939 133.163 243.939 133.705V141.104H241.604ZM261.047 145.604V129.104H263.328V131.049H263.523C263.659 130.799 263.854 130.51 264.109 130.182C264.365 129.854 264.719 129.567 265.172 129.322C265.625 129.072 266.224 128.947 266.969 128.947C267.938 128.947 268.802 129.192 269.563 129.682C270.323 130.171 270.919 130.877 271.352 131.799C271.789 132.721 272.008 133.83 272.008 135.127C272.008 136.424 271.792 137.536 271.359 138.463C270.927 139.385 270.333 140.096 269.578 140.596C268.823 141.09 267.961 141.338 266.992 141.338C266.263 141.338 265.667 141.215 265.203 140.971C264.745 140.726 264.385 140.439 264.125 140.111C263.865 139.783 263.664 139.492 263.523 139.236H263.383V145.604H261.047ZM263.336 135.104C263.336 135.947 263.458 136.687 263.703 137.322C263.948 137.958 264.302 138.455 264.766 138.814C265.229 139.169 265.797 139.346 266.469 139.346C267.167 139.346 267.75 139.161 268.219 138.791C268.688 138.416 269.042 137.908 269.281 137.268C269.526 136.627 269.648 135.906 269.648 135.104C269.648 134.312 269.529 133.601 269.289 132.971C269.055 132.34 268.701 131.843 268.227 131.479C267.758 131.114 267.172 130.932 266.469 130.932C265.792 130.932 265.219 131.106 264.75 131.455C264.286 131.804 263.935 132.291 263.695 132.916C263.456 133.541 263.336 134.27 263.336 135.104ZM278.117 141.369C277.357 141.369 276.669 141.229 276.055 140.947C275.44 140.661 274.953 140.247 274.594 139.705C274.24 139.163 274.063 138.499 274.063 137.713C274.063 137.036 274.193 136.479 274.453 136.041C274.714 135.604 275.065 135.257 275.508 135.002C275.951 134.747 276.445 134.554 276.992 134.424C277.539 134.294 278.096 134.195 278.664 134.127C279.383 134.044 279.966 133.976 280.414 133.924C280.862 133.867 281.188 133.775 281.391 133.65C281.594 133.525 281.695 133.322 281.695 133.041V132.986C281.695 132.304 281.503 131.775 281.117 131.4C280.737 131.025 280.169 130.838 279.414 130.838C278.628 130.838 278.008 131.012 277.555 131.361C277.107 131.705 276.797 132.088 276.625 132.51L274.43 132.01C274.69 131.281 275.07 130.692 275.57 130.244C276.076 129.791 276.656 129.463 277.313 129.26C277.969 129.051 278.659 128.947 279.383 128.947C279.862 128.947 280.37 129.005 280.906 129.119C281.448 129.229 281.953 129.432 282.422 129.729C282.896 130.025 283.284 130.45 283.586 131.002C283.888 131.549 284.039 132.26 284.039 133.135V141.104H281.758V139.463H281.664C281.513 139.765 281.286 140.062 280.984 140.354C280.682 140.645 280.294 140.887 279.82 141.08C279.346 141.273 278.779 141.369 278.117 141.369ZM278.625 139.494C279.271 139.494 279.823 139.367 280.281 139.111C280.745 138.856 281.096 138.523 281.336 138.111C281.581 137.695 281.703 137.249 281.703 136.775V135.229C281.62 135.312 281.458 135.39 281.219 135.463C280.984 135.531 280.716 135.59 280.414 135.643C280.112 135.689 279.818 135.734 279.531 135.775C279.245 135.812 279.005 135.843 278.812 135.869C278.359 135.926 277.945 136.023 277.57 136.158C277.201 136.294 276.904 136.489 276.68 136.744C276.461 136.994 276.352 137.327 276.352 137.744C276.352 138.322 276.565 138.76 276.992 139.057C277.419 139.348 277.964 139.494 278.625 139.494ZM287.15 141.104V129.104H289.408V131.01H289.533C289.752 130.364 290.137 129.856 290.689 129.486C291.247 129.111 291.877 128.924 292.58 128.924C292.726 128.924 292.898 128.929 293.096 128.939C293.299 128.95 293.458 128.963 293.572 128.979V131.213C293.479 131.187 293.312 131.158 293.072 131.127C292.833 131.09 292.593 131.072 292.354 131.072C291.801 131.072 291.309 131.189 290.877 131.424C290.45 131.653 290.111 131.973 289.861 132.385C289.611 132.791 289.486 133.255 289.486 133.775V141.104H287.15ZM300.336 141.346C299.154 141.346 298.135 141.093 297.281 140.588C296.432 140.077 295.776 139.361 295.312 138.439C294.854 137.512 294.625 136.426 294.625 135.182C294.625 133.952 294.854 132.869 295.312 131.932C295.776 130.994 296.422 130.262 297.25 129.736C298.083 129.21 299.057 128.947 300.172 128.947C300.849 128.947 301.505 129.059 302.141 129.283C302.776 129.507 303.346 129.859 303.852 130.338C304.357 130.817 304.755 131.439 305.047 132.205C305.339 132.965 305.484 133.89 305.484 134.979V135.807H295.945V134.057H303.195C303.195 133.442 303.07 132.898 302.82 132.424C302.57 131.945 302.219 131.567 301.766 131.291C301.318 131.015 300.792 130.877 300.187 130.877C299.531 130.877 298.958 131.038 298.469 131.361C297.984 131.679 297.609 132.096 297.344 132.611C297.083 133.122 296.953 133.676 296.953 134.275V135.643C296.953 136.445 297.094 137.127 297.375 137.689C297.661 138.252 298.06 138.682 298.57 138.979C299.081 139.27 299.677 139.416 300.359 139.416C300.802 139.416 301.206 139.354 301.57 139.229C301.935 139.098 302.25 138.906 302.516 138.65C302.781 138.395 302.984 138.08 303.125 137.705L305.336 138.104C305.159 138.755 304.841 139.325 304.383 139.814C303.93 140.299 303.359 140.676 302.672 140.947C301.99 141.213 301.211 141.346 300.336 141.346ZM316.5 141.104L312.969 129.104H315.383L317.734 137.916H317.852L320.211 129.104H322.625L324.969 137.877H325.086L327.422 129.104H329.836L326.313 141.104H323.93L321.492 132.439H321.313L318.875 141.104H316.5ZM332.053 141.104V129.104H334.389V141.104H332.053ZM333.232 127.252C332.826 127.252 332.477 127.117 332.186 126.846C331.899 126.57 331.756 126.242 331.756 125.861C331.756 125.476 331.899 125.148 332.186 124.877C332.477 124.601 332.826 124.463 333.232 124.463C333.639 124.463 333.985 124.601 334.271 124.877C334.563 125.148 334.709 125.476 334.709 125.861C334.709 126.242 334.563 126.57 334.271 126.846C333.985 127.117 333.639 127.252 333.232 127.252ZM343.133 129.104V130.979H336.578V129.104H343.133ZM338.336 126.229H340.672V137.58C340.672 138.033 340.74 138.374 340.875 138.604C341.01 138.827 341.185 138.981 341.398 139.064C341.617 139.143 341.854 139.182 342.109 139.182C342.297 139.182 342.461 139.169 342.602 139.143C342.742 139.117 342.852 139.096 342.93 139.08L343.352 141.01C343.216 141.062 343.023 141.114 342.773 141.166C342.523 141.223 342.211 141.255 341.836 141.26C341.221 141.27 340.648 141.161 340.117 140.932C339.586 140.702 339.156 140.348 338.828 139.869C338.5 139.39 338.336 138.788 338.336 138.064V126.229ZM348.311 133.979V141.104H345.975V125.104H348.279V131.057H348.428C348.709 130.411 349.139 129.898 349.717 129.518C350.295 129.137 351.05 128.947 351.982 128.947C352.805 128.947 353.524 129.117 354.139 129.455C354.758 129.794 355.238 130.299 355.576 130.971C355.92 131.637 356.092 132.471 356.092 133.471V141.104H353.756V133.752C353.756 132.872 353.529 132.189 353.076 131.705C352.623 131.215 351.993 130.971 351.186 130.971C350.633 130.971 350.139 131.088 349.701 131.322C349.269 131.557 348.928 131.9 348.678 132.354C348.433 132.801 348.311 133.343 348.311 133.979ZM365.219 141.104V125.104H370.922C372.167 125.104 373.198 125.33 374.016 125.783C374.833 126.236 375.445 126.856 375.852 127.643C376.258 128.424 376.461 129.304 376.461 130.283C376.461 131.268 376.255 132.153 375.844 132.939C375.438 133.721 374.823 134.34 374 134.799C373.182 135.252 372.154 135.479 370.914 135.479H366.992V133.432H370.695C371.482 133.432 372.12 133.296 372.609 133.025C373.099 132.749 373.458 132.374 373.688 131.9C373.917 131.426 374.031 130.887 374.031 130.283C374.031 129.679 373.917 129.143 373.688 128.674C373.458 128.205 373.096 127.838 372.602 127.572C372.112 127.307 371.466 127.174 370.664 127.174H367.633V141.104H365.219ZM384.125 141.346C382.943 141.346 381.924 141.093 381.07 140.588C380.221 140.077 379.565 139.361 379.102 138.439C378.643 137.512 378.414 136.426 378.414 135.182C378.414 133.952 378.643 132.869 379.102 131.932C379.565 130.994 380.211 130.262 381.039 129.736C381.872 129.21 382.846 128.947 383.961 128.947C384.638 128.947 385.294 129.059 385.93 129.283C386.565 129.507 387.135 129.859 387.641 130.338C388.146 130.817 388.544 131.439 388.836 132.205C389.128 132.965 389.273 133.89 389.273 134.979V135.807H379.734V134.057H386.984C386.984 133.442 386.859 132.898 386.609 132.424C386.359 131.945 386.008 131.567 385.555 131.291C385.107 131.015 384.581 130.877 383.977 130.877C383.32 130.877 382.747 131.038 382.258 131.361C381.773 131.679 381.398 132.096 381.133 132.611C380.872 133.122 380.742 133.676 380.742 134.275V135.643C380.742 136.445 380.883 137.127 381.164 137.689C381.451 138.252 381.849 138.682 382.359 138.979C382.87 139.27 383.466 139.416 384.148 139.416C384.591 139.416 384.995 139.354 385.359 139.229C385.724 139.098 386.039 138.906 386.305 138.65C386.57 138.395 386.773 138.08 386.914 137.705L389.125 138.104C388.948 138.755 388.63 139.325 388.172 139.814C387.719 140.299 387.148 140.676 386.461 140.947C385.779 141.213 385 141.346 384.125 141.346ZM391.865 141.104V129.104H394.123V131.01H394.248C394.467 130.364 394.852 129.856 395.404 129.486C395.962 129.111 396.592 128.924 397.295 128.924C397.441 128.924 397.613 128.929 397.811 128.939C398.014 128.95 398.173 128.963 398.287 128.979V131.213C398.193 131.187 398.027 131.158 397.787 131.127C397.548 131.09 397.308 131.072 397.068 131.072C396.516 131.072 396.024 131.189 395.592 131.424C395.165 131.653 394.826 131.973 394.576 132.385C394.326 132.791 394.201 133.255 394.201 133.775V141.104H391.865ZM400.309 141.104V129.104H402.551V131.057H402.699C402.949 130.395 403.358 129.88 403.926 129.51C404.493 129.135 405.173 128.947 405.965 128.947C406.767 128.947 407.439 129.135 407.98 129.51C408.527 129.885 408.931 130.4 409.191 131.057H409.316C409.603 130.416 410.059 129.906 410.684 129.525C411.309 129.14 412.053 128.947 412.918 128.947C414.007 128.947 414.895 129.288 415.582 129.971C416.275 130.653 416.621 131.682 416.621 133.057V141.104H414.285V133.275C414.285 132.463 414.064 131.874 413.621 131.51C413.178 131.145 412.65 130.963 412.035 130.963C411.275 130.963 410.684 131.197 410.262 131.666C409.84 132.13 409.629 132.726 409.629 133.455V141.104H407.301V133.127C407.301 132.476 407.098 131.952 406.691 131.557C406.285 131.161 405.757 130.963 405.105 130.963C404.663 130.963 404.254 131.08 403.879 131.314C403.509 131.544 403.21 131.864 402.98 132.275C402.757 132.687 402.645 133.163 402.645 133.705V141.104H400.309ZM423.244 141.369C422.484 141.369 421.796 141.229 421.182 140.947C420.567 140.661 420.08 140.247 419.721 139.705C419.367 139.163 419.189 138.499 419.189 137.713C419.189 137.036 419.32 136.479 419.58 136.041C419.84 135.604 420.192 135.257 420.635 135.002C421.077 134.747 421.572 134.554 422.119 134.424C422.666 134.294 423.223 134.195 423.791 134.127C424.51 134.044 425.093 133.976 425.541 133.924C425.989 133.867 426.314 133.775 426.518 133.65C426.721 133.525 426.822 133.322 426.822 133.041V132.986C426.822 132.304 426.63 131.775 426.244 131.4C425.864 131.025 425.296 130.838 424.541 130.838C423.755 130.838 423.135 131.012 422.682 131.361C422.234 131.705 421.924 132.088 421.752 132.51L419.557 132.01C419.817 131.281 420.197 130.692 420.697 130.244C421.202 129.791 421.783 129.463 422.439 129.26C423.096 129.051 423.786 128.947 424.51 128.947C424.989 128.947 425.497 129.005 426.033 129.119C426.575 129.229 427.08 129.432 427.549 129.729C428.023 130.025 428.411 130.45 428.713 131.002C429.015 131.549 429.166 132.26 429.166 133.135V141.104H426.885V139.463H426.791C426.64 139.765 426.413 140.062 426.111 140.354C425.809 140.645 425.421 140.887 424.947 141.08C424.473 141.273 423.906 141.369 423.244 141.369ZM423.752 139.494C424.398 139.494 424.95 139.367 425.408 139.111C425.872 138.856 426.223 138.523 426.463 138.111C426.708 137.695 426.83 137.249 426.83 136.775V135.229C426.747 135.312 426.585 135.39 426.346 135.463C426.111 135.531 425.843 135.59 425.541 135.643C425.239 135.689 424.945 135.734 424.658 135.775C424.372 135.812 424.132 135.843 423.939 135.869C423.486 135.926 423.072 136.023 422.697 136.158C422.327 136.294 422.031 136.489 421.807 136.744C421.588 136.994 421.479 137.327 421.479 137.744C421.479 138.322 421.692 138.76 422.119 139.057C422.546 139.348 423.09 139.494 423.752 139.494ZM434.613 133.979V141.104H432.277V129.104H434.52V131.057H434.668C434.944 130.421 435.376 129.911 435.965 129.525C436.559 129.14 437.306 128.947 438.207 128.947C439.025 128.947 439.741 129.119 440.355 129.463C440.97 129.801 441.447 130.307 441.785 130.979C442.124 131.65 442.293 132.481 442.293 133.471V141.104H439.957V133.752C439.957 132.882 439.73 132.202 439.277 131.713C438.824 131.218 438.202 130.971 437.41 130.971C436.868 130.971 436.387 131.088 435.965 131.322C435.548 131.557 435.217 131.9 434.973 132.354C434.733 132.801 434.613 133.343 434.613 133.979ZM450.598 141.346C449.415 141.346 448.397 141.093 447.543 140.588C446.694 140.077 446.038 139.361 445.574 138.439C445.116 137.512 444.887 136.426 444.887 135.182C444.887 133.952 445.116 132.869 445.574 131.932C446.038 130.994 446.684 130.262 447.512 129.736C448.345 129.21 449.319 128.947 450.434 128.947C451.111 128.947 451.767 129.059 452.402 129.283C453.038 129.507 453.608 129.859 454.113 130.338C454.618 130.817 455.017 131.439 455.309 132.205C455.6 132.965 455.746 133.89 455.746 134.979V135.807H446.207V134.057H453.457C453.457 133.442 453.332 132.898 453.082 132.424C452.832 131.945 452.48 131.567 452.027 131.291C451.579 131.015 451.053 130.877 450.449 130.877C449.793 130.877 449.22 131.038 448.73 131.361C448.246 131.679 447.871 132.096 447.605 132.611C447.345 133.122 447.215 133.676 447.215 134.275V135.643C447.215 136.445 447.355 137.127 447.637 137.689C447.923 138.252 448.322 138.682 448.832 138.979C449.342 139.27 449.939 139.416 450.621 139.416C451.064 139.416 451.467 139.354 451.832 139.229C452.197 139.098 452.512 138.906 452.777 138.65C453.043 138.395 453.246 138.08 453.387 137.705L455.598 138.104C455.421 138.755 455.103 139.325 454.645 139.814C454.191 140.299 453.621 140.676 452.934 140.947C452.251 141.213 451.473 141.346 450.598 141.346ZM460.674 133.979V141.104H458.338V129.104H460.58V131.057H460.729C461.005 130.421 461.437 129.911 462.025 129.525C462.619 129.14 463.367 128.947 464.268 128.947C465.085 128.947 465.801 129.119 466.416 129.463C467.031 129.801 467.507 130.307 467.846 130.979C468.184 131.65 468.354 132.481 468.354 133.471V141.104H466.018V133.752C466.018 132.882 465.791 132.202 465.338 131.713C464.885 131.218 464.262 130.971 463.471 130.971C462.929 130.971 462.447 131.088 462.025 131.322C461.609 131.557 461.278 131.9 461.033 132.354C460.794 132.801 460.674 133.343 460.674 133.979ZM477.088 129.104V130.979H470.533V129.104H477.088ZM472.291 126.229H474.627V137.58C474.627 138.033 474.695 138.374 474.83 138.604C474.965 138.827 475.14 138.981 475.354 139.064C475.572 139.143 475.809 139.182 476.064 139.182C476.252 139.182 476.416 139.169 476.557 139.143C476.697 139.117 476.807 139.096 476.885 139.08L477.307 141.01C477.171 141.062 476.979 141.114 476.729 141.166C476.479 141.223 476.166 141.255 475.791 141.26C475.176 141.27 474.604 141.161 474.072 140.932C473.541 140.702 473.111 140.348 472.783 139.869C472.455 139.39 472.291 138.788 472.291 138.064V126.229ZM212.357 166.104V150.104H218.061C219.3 150.104 220.329 150.317 221.146 150.744C221.969 151.171 222.584 151.762 222.99 152.518C223.396 153.268 223.6 154.135 223.6 155.119C223.6 156.098 223.394 156.96 222.982 157.705C222.576 158.445 221.962 159.02 221.139 159.432C220.321 159.843 219.292 160.049 218.053 160.049H213.732V157.971H217.834C218.615 157.971 219.251 157.859 219.74 157.635C220.235 157.411 220.597 157.085 220.826 156.658C221.055 156.231 221.17 155.718 221.17 155.119C221.17 154.515 221.053 153.992 220.818 153.549C220.589 153.106 220.227 152.768 219.732 152.533C219.243 152.294 218.6 152.174 217.803 152.174H214.771V166.104H212.357ZM220.256 158.885L224.209 166.104H221.459L217.584 158.885H220.256ZM231.371 166.346C230.189 166.346 229.171 166.093 228.316 165.588C227.467 165.077 226.811 164.361 226.348 163.439C225.889 162.512 225.66 161.426 225.66 160.182C225.66 158.952 225.889 157.869 226.348 156.932C226.811 155.994 227.457 155.262 228.285 154.736C229.118 154.21 230.092 153.947 231.207 153.947C231.884 153.947 232.54 154.059 233.176 154.283C233.811 154.507 234.382 154.859 234.887 155.338C235.392 155.817 235.79 156.439 236.082 157.205C236.374 157.965 236.52 158.89 236.52 159.979V160.807H226.98V159.057H234.23C234.23 158.442 234.105 157.898 233.855 157.424C233.605 156.945 233.254 156.567 232.801 156.291C232.353 156.015 231.827 155.877 231.223 155.877C230.566 155.877 229.993 156.038 229.504 156.361C229.02 156.679 228.645 157.096 228.379 157.611C228.118 158.122 227.988 158.676 227.988 159.275V160.643C227.988 161.445 228.129 162.127 228.41 162.689C228.697 163.252 229.095 163.682 229.605 163.979C230.116 164.27 230.712 164.416 231.395 164.416C231.837 164.416 232.241 164.354 232.605 164.229C232.97 164.098 233.285 163.906 233.551 163.65C233.816 163.395 234.02 163.08 234.16 162.705L236.371 163.104C236.194 163.755 235.876 164.325 235.418 164.814C234.965 165.299 234.395 165.676 233.707 165.947C233.025 166.213 232.246 166.346 231.371 166.346ZM244.166 166.346C243.005 166.346 242.005 166.083 241.166 165.557C240.333 165.025 239.692 164.294 239.244 163.361C238.796 162.429 238.572 161.361 238.572 160.158C238.572 158.939 238.801 157.864 239.26 156.932C239.718 155.994 240.364 155.262 241.197 154.736C242.031 154.21 243.012 153.947 244.143 153.947C245.054 153.947 245.867 154.117 246.58 154.455C247.294 154.788 247.869 155.257 248.307 155.861C248.749 156.465 249.012 157.171 249.096 157.979H246.822C246.697 157.416 246.411 156.932 245.963 156.525C245.52 156.119 244.926 155.916 244.182 155.916C243.531 155.916 242.96 156.088 242.471 156.432C241.986 156.77 241.609 157.255 241.338 157.885C241.067 158.51 240.932 159.249 240.932 160.104C240.932 160.979 241.064 161.734 241.33 162.369C241.596 163.005 241.971 163.497 242.455 163.846C242.945 164.195 243.52 164.369 244.182 164.369C244.624 164.369 245.025 164.288 245.385 164.127C245.749 163.96 246.054 163.723 246.299 163.416C246.549 163.109 246.723 162.739 246.822 162.307H249.096C249.012 163.083 248.76 163.775 248.338 164.385C247.916 164.994 247.351 165.473 246.643 165.822C245.939 166.171 245.114 166.346 244.166 166.346ZM256.648 166.346C255.523 166.346 254.542 166.088 253.703 165.572C252.865 165.057 252.214 164.335 251.75 163.408C251.286 162.481 251.055 161.398 251.055 160.158C251.055 158.913 251.286 157.825 251.75 156.893C252.214 155.96 252.865 155.236 253.703 154.721C254.542 154.205 255.523 153.947 256.648 153.947C257.773 153.947 258.755 154.205 259.594 154.721C260.432 155.236 261.083 155.96 261.547 156.893C262.01 157.825 262.242 158.913 262.242 160.158C262.242 161.398 262.01 162.481 261.547 163.408C261.083 164.335 260.432 165.057 259.594 165.572C258.755 166.088 257.773 166.346 256.648 166.346ZM256.656 164.385C257.385 164.385 257.99 164.192 258.469 163.807C258.948 163.421 259.302 162.908 259.531 162.268C259.766 161.627 259.883 160.921 259.883 160.15C259.883 159.385 259.766 158.682 259.531 158.041C259.302 157.395 258.948 156.877 258.469 156.486C257.99 156.096 257.385 155.9 256.656 155.9C255.922 155.9 255.313 156.096 254.828 156.486C254.349 156.877 253.992 157.395 253.758 158.041C253.529 158.682 253.414 159.385 253.414 160.15C253.414 160.921 253.529 161.627 253.758 162.268C253.992 162.908 254.349 163.421 254.828 163.807C255.313 164.192 255.922 164.385 256.656 164.385ZM264.85 166.104V154.104H267.107V156.01H267.232C267.451 155.364 267.837 154.856 268.389 154.486C268.946 154.111 269.576 153.924 270.279 153.924C270.425 153.924 270.597 153.929 270.795 153.939C270.998 153.95 271.157 153.963 271.271 153.979V156.213C271.178 156.187 271.011 156.158 270.771 156.127C270.532 156.09 270.292 156.072 270.053 156.072C269.501 156.072 269.008 156.189 268.576 156.424C268.149 156.653 267.811 156.973 267.561 157.385C267.311 157.791 267.186 158.255 267.186 158.775V166.104H264.85ZM277.355 166.338C276.387 166.338 275.522 166.09 274.762 165.596C274.007 165.096 273.413 164.385 272.98 163.463C272.553 162.536 272.34 161.424 272.34 160.127C272.34 158.83 272.556 157.721 272.988 156.799C273.426 155.877 274.025 155.171 274.785 154.682C275.546 154.192 276.408 153.947 277.371 153.947C278.116 153.947 278.715 154.072 279.168 154.322C279.626 154.567 279.98 154.854 280.23 155.182C280.486 155.51 280.684 155.799 280.824 156.049H280.965V150.104H283.301V166.104H281.02V164.236H280.824C280.684 164.492 280.48 164.783 280.215 165.111C279.954 165.439 279.595 165.726 279.137 165.971C278.678 166.215 278.085 166.338 277.355 166.338ZM277.871 164.346C278.543 164.346 279.111 164.169 279.574 163.814C280.043 163.455 280.397 162.958 280.637 162.322C280.882 161.687 281.004 160.947 281.004 160.104C281.004 159.27 280.884 158.541 280.645 157.916C280.405 157.291 280.053 156.804 279.59 156.455C279.126 156.106 278.553 155.932 277.871 155.932C277.168 155.932 276.582 156.114 276.113 156.479C275.645 156.843 275.29 157.34 275.051 157.971C274.816 158.601 274.699 159.312 274.699 160.104C274.699 160.906 274.819 161.627 275.059 162.268C275.298 162.908 275.652 163.416 276.121 163.791C276.595 164.161 277.178 164.346 277.871 164.346ZM295.627 157.033L293.51 157.408C293.421 157.137 293.281 156.88 293.088 156.635C292.9 156.39 292.645 156.189 292.322 156.033C291.999 155.877 291.596 155.799 291.111 155.799C290.45 155.799 289.898 155.947 289.455 156.244C289.012 156.536 288.791 156.913 288.791 157.377C288.791 157.778 288.939 158.101 289.236 158.346C289.533 158.59 290.012 158.791 290.674 158.947L292.58 159.385C293.684 159.64 294.507 160.033 295.049 160.564C295.59 161.096 295.861 161.786 295.861 162.635C295.861 163.354 295.653 163.994 295.236 164.557C294.825 165.114 294.249 165.551 293.51 165.869C292.775 166.187 291.924 166.346 290.955 166.346C289.611 166.346 288.515 166.059 287.666 165.486C286.817 164.908 286.296 164.088 286.104 163.025L288.361 162.682C288.502 163.27 288.791 163.715 289.229 164.018C289.666 164.314 290.236 164.463 290.939 164.463C291.705 164.463 292.317 164.304 292.775 163.986C293.234 163.663 293.463 163.27 293.463 162.807C293.463 162.432 293.322 162.117 293.041 161.861C292.765 161.606 292.34 161.413 291.768 161.283L289.736 160.838C288.617 160.583 287.788 160.176 287.252 159.619C286.721 159.062 286.455 158.356 286.455 157.502C286.455 156.794 286.653 156.174 287.049 155.643C287.445 155.111 287.992 154.697 288.689 154.4C289.387 154.098 290.187 153.947 291.088 153.947C292.385 153.947 293.406 154.229 294.15 154.791C294.895 155.348 295.387 156.096 295.627 157.033Z" fill="white"/>
<path d="M213.418 188.094V199.73H212.009V188.094H213.418ZM219.857 191.003V192.14H215.334V191.003H219.857ZM216.652 188.912H217.993V197.23C217.993 197.609 218.048 197.893 218.158 198.083C218.271 198.268 218.415 198.393 218.59 198.458C218.768 198.518 218.955 198.549 219.152 198.549C219.3 198.549 219.421 198.541 219.516 198.526C219.61 198.507 219.686 198.492 219.743 198.48L220.016 199.685C219.925 199.719 219.798 199.753 219.635 199.787C219.472 199.825 219.266 199.844 219.016 199.844C218.637 199.844 218.266 199.763 217.902 199.6C217.542 199.437 217.243 199.189 217.004 198.855C216.77 198.522 216.652 198.102 216.652 197.594V188.912ZM229.919 199.912C229.101 199.912 228.396 199.719 227.806 199.333C227.215 198.946 226.76 198.414 226.442 197.736C226.124 197.058 225.965 196.283 225.965 195.412C225.965 194.526 226.128 193.744 226.453 193.066C226.783 192.384 227.241 191.852 227.828 191.469C228.419 191.083 229.109 190.89 229.896 190.89C230.51 190.89 231.063 191.003 231.556 191.23C232.048 191.458 232.451 191.776 232.766 192.185C233.08 192.594 233.275 193.071 233.351 193.617H232.01C231.908 193.219 231.681 192.867 231.328 192.56C230.98 192.249 230.51 192.094 229.919 192.094C229.396 192.094 228.938 192.23 228.544 192.503C228.154 192.772 227.849 193.153 227.629 193.645C227.414 194.134 227.306 194.708 227.306 195.367C227.306 196.041 227.412 196.628 227.624 197.128C227.84 197.628 228.143 198.016 228.533 198.293C228.927 198.569 229.389 198.708 229.919 198.708C230.268 198.708 230.584 198.647 230.868 198.526C231.152 198.405 231.393 198.23 231.59 198.003C231.787 197.776 231.927 197.503 232.01 197.185H233.351C233.275 197.7 233.088 198.164 232.789 198.577C232.493 198.986 232.101 199.312 231.612 199.554C231.128 199.793 230.563 199.912 229.919 199.912ZM235.311 199.73V191.003H236.607V192.321H236.698C236.857 191.89 237.145 191.539 237.561 191.27C237.978 191.001 238.448 190.867 238.97 190.867C239.069 190.867 239.192 190.869 239.34 190.873C239.487 190.876 239.599 190.882 239.675 190.89V192.253C239.629 192.242 239.525 192.225 239.362 192.202C239.203 192.176 239.035 192.162 238.857 192.162C238.432 192.162 238.054 192.251 237.72 192.429C237.391 192.604 237.129 192.846 236.936 193.157C236.747 193.463 236.652 193.814 236.652 194.208V199.73H235.311ZM244.544 199.912C243.756 199.912 243.065 199.725 242.47 199.35C241.879 198.975 241.417 198.45 241.084 197.776C240.754 197.102 240.59 196.314 240.59 195.412C240.59 194.503 240.754 193.71 241.084 193.032C241.417 192.354 241.879 191.827 242.47 191.452C243.065 191.077 243.756 190.89 244.544 190.89C245.332 190.89 246.021 191.077 246.612 191.452C247.207 191.827 247.669 192.354 247.999 193.032C248.332 193.71 248.499 194.503 248.499 195.412C248.499 196.314 248.332 197.102 247.999 197.776C247.669 198.45 247.207 198.975 246.612 199.35C246.021 199.725 245.332 199.912 244.544 199.912ZM244.544 198.708C245.143 198.708 245.635 198.554 246.021 198.248C246.408 197.941 246.694 197.537 246.879 197.037C247.065 196.537 247.158 195.996 247.158 195.412C247.158 194.829 247.065 194.285 246.879 193.782C246.694 193.278 246.408 192.871 246.021 192.56C245.635 192.249 245.143 192.094 244.544 192.094C243.946 192.094 243.453 192.249 243.067 192.56C242.681 192.871 242.395 193.278 242.209 193.782C242.023 194.285 241.931 194.829 241.931 195.412C241.931 195.996 242.023 196.537 242.209 197.037C242.395 197.537 242.681 197.941 243.067 198.248C243.453 198.554 243.946 198.708 244.544 198.708ZM256.727 192.958L255.523 193.299C255.447 193.098 255.335 192.903 255.188 192.713C255.044 192.52 254.847 192.361 254.597 192.236C254.347 192.111 254.027 192.049 253.637 192.049C253.102 192.049 252.657 192.172 252.301 192.418C251.949 192.66 251.773 192.969 251.773 193.344C251.773 193.677 251.894 193.941 252.137 194.134C252.379 194.327 252.758 194.488 253.273 194.617L254.568 194.935C255.349 195.124 255.93 195.414 256.313 195.804C256.695 196.191 256.887 196.689 256.887 197.299C256.887 197.799 256.743 198.246 256.455 198.64C256.171 199.033 255.773 199.344 255.262 199.571C254.75 199.799 254.155 199.912 253.477 199.912C252.587 199.912 251.851 199.719 251.267 199.333C250.684 198.946 250.315 198.382 250.159 197.64L251.432 197.321C251.553 197.791 251.782 198.143 252.119 198.378C252.46 198.613 252.905 198.73 253.455 198.73C254.08 198.73 254.576 198.598 254.943 198.333C255.315 198.064 255.5 197.742 255.5 197.367C255.5 197.064 255.394 196.81 255.182 196.605C254.97 196.397 254.644 196.242 254.205 196.14L252.75 195.799C251.951 195.609 251.364 195.316 250.989 194.918C250.618 194.516 250.432 194.015 250.432 193.412C250.432 192.92 250.57 192.484 250.847 192.105C251.127 191.727 251.508 191.429 251.989 191.213C252.474 190.998 253.023 190.89 253.637 190.89C254.5 190.89 255.178 191.079 255.671 191.458C256.167 191.837 256.519 192.337 256.727 192.958ZM265.087 192.958L263.882 193.299C263.807 193.098 263.695 192.903 263.547 192.713C263.403 192.52 263.206 192.361 262.956 192.236C262.706 192.111 262.386 192.049 261.996 192.049C261.462 192.049 261.017 192.172 260.661 192.418C260.308 192.66 260.132 192.969 260.132 193.344C260.132 193.677 260.253 193.941 260.496 194.134C260.738 194.327 261.117 194.488 261.632 194.617L262.928 194.935C263.708 195.124 264.289 195.414 264.672 195.804C265.055 196.191 265.246 196.689 265.246 197.299C265.246 197.799 265.102 198.246 264.814 198.64C264.53 199.033 264.132 199.344 263.621 199.571C263.11 199.799 262.515 199.912 261.837 199.912C260.947 199.912 260.21 199.719 259.627 199.333C259.043 198.946 258.674 198.382 258.519 197.64L259.791 197.321C259.913 197.791 260.142 198.143 260.479 198.378C260.82 198.613 261.265 198.73 261.814 198.73C262.439 198.73 262.935 198.598 263.303 198.333C263.674 198.064 263.86 197.742 263.86 197.367C263.86 197.064 263.753 196.81 263.541 196.605C263.329 196.397 263.003 196.242 262.564 196.14L261.11 195.799C260.31 195.609 259.723 195.316 259.348 194.918C258.977 194.516 258.791 194.015 258.791 193.412C258.791 192.92 258.93 192.484 259.206 192.105C259.486 191.727 259.867 191.429 260.348 191.213C260.833 190.998 261.382 190.89 261.996 190.89C262.86 190.89 263.538 191.079 264.03 191.458C264.526 191.837 264.878 192.337 265.087 192.958ZM272.264 194.117V195.367H267.173V194.117H272.264ZM274.624 199.73V191.003H275.919V192.321H276.01C276.169 191.89 276.457 191.539 276.874 191.27C277.29 191.001 277.76 190.867 278.283 190.867C278.381 190.867 278.504 190.869 278.652 190.873C278.8 190.876 278.912 190.882 278.987 190.89V192.253C278.942 192.242 278.838 192.225 278.675 192.202C278.516 192.176 278.347 192.162 278.169 192.162C277.745 192.162 277.366 192.251 277.033 192.429C276.703 192.604 276.442 192.846 276.249 193.157C276.059 193.463 275.965 193.814 275.965 194.208V199.73H274.624ZM283.97 199.912C283.129 199.912 282.404 199.727 281.794 199.355C281.188 198.98 280.72 198.458 280.391 197.787C280.065 197.113 279.902 196.329 279.902 195.435C279.902 194.541 280.065 193.753 280.391 193.071C280.72 192.386 281.179 191.852 281.766 191.469C282.357 191.083 283.046 190.89 283.834 190.89C284.289 190.89 284.737 190.965 285.181 191.117C285.624 191.268 286.027 191.515 286.391 191.855C286.754 192.193 287.044 192.64 287.26 193.196C287.476 193.753 287.584 194.439 287.584 195.253V195.821H280.857V194.662H286.22C286.22 194.17 286.122 193.73 285.925 193.344C285.732 192.958 285.455 192.653 285.095 192.429C284.739 192.206 284.319 192.094 283.834 192.094C283.3 192.094 282.838 192.227 282.448 192.492C282.061 192.753 281.764 193.094 281.556 193.515C281.347 193.935 281.243 194.386 281.243 194.867V195.64C281.243 196.299 281.357 196.857 281.584 197.316C281.815 197.77 282.135 198.117 282.544 198.355C282.953 198.59 283.429 198.708 283.97 198.708C284.323 198.708 284.641 198.658 284.925 198.56C285.213 198.458 285.461 198.306 285.669 198.105C285.878 197.901 286.039 197.647 286.152 197.344L287.448 197.708C287.311 198.147 287.082 198.533 286.76 198.867C286.438 199.196 286.04 199.454 285.567 199.64C285.093 199.821 284.561 199.912 283.97 199.912ZM293.51 191.003V192.14H288.806V191.003H293.51ZM290.215 199.73V189.799C290.215 189.299 290.332 188.882 290.567 188.549C290.802 188.215 291.107 187.965 291.482 187.799C291.857 187.632 292.253 187.549 292.669 187.549C292.999 187.549 293.268 187.575 293.476 187.628C293.684 187.681 293.84 187.73 293.942 187.776L293.556 188.935C293.487 188.912 293.393 188.884 293.271 188.85C293.154 188.816 292.999 188.799 292.806 188.799C292.362 188.799 292.042 188.91 291.845 189.134C291.652 189.357 291.556 189.685 291.556 190.117V199.73H290.215ZM298.689 199.912C297.848 199.912 297.123 199.727 296.513 199.355C295.907 198.98 295.439 198.458 295.11 197.787C294.784 197.113 294.621 196.329 294.621 195.435C294.621 194.541 294.784 193.753 295.11 193.071C295.439 192.386 295.897 191.852 296.485 191.469C297.075 191.083 297.765 190.89 298.553 190.89C299.007 190.89 299.456 190.965 299.899 191.117C300.343 191.268 300.746 191.515 301.11 191.855C301.473 192.193 301.763 192.64 301.979 193.196C302.195 193.753 302.303 194.439 302.303 195.253V195.821H295.575V194.662H300.939C300.939 194.17 300.841 193.73 300.644 193.344C300.45 192.958 300.174 192.653 299.814 192.429C299.458 192.206 299.038 192.094 298.553 192.094C298.019 192.094 297.557 192.227 297.166 192.492C296.78 192.753 296.483 193.094 296.274 193.515C296.066 193.935 295.962 194.386 295.962 194.867V195.64C295.962 196.299 296.075 196.857 296.303 197.316C296.534 197.77 296.854 198.117 297.263 198.355C297.672 198.59 298.147 198.708 298.689 198.708C299.041 198.708 299.36 198.658 299.644 198.56C299.932 198.458 300.18 198.306 300.388 198.105C300.596 197.901 300.757 197.647 300.871 197.344L302.166 197.708C302.03 198.147 301.801 198.533 301.479 198.867C301.157 199.196 300.759 199.454 300.286 199.64C299.812 199.821 299.28 199.912 298.689 199.912ZM304.343 199.73V191.003H305.638V192.321H305.729C305.888 191.89 306.176 191.539 306.593 191.27C307.009 191.001 307.479 190.867 308.002 190.867C308.1 190.867 308.223 190.869 308.371 190.873C308.519 190.876 308.63 190.882 308.706 190.89V192.253C308.661 192.242 308.557 192.225 308.394 192.202C308.235 192.176 308.066 192.162 307.888 192.162C307.464 192.162 307.085 192.251 306.752 192.429C306.422 192.604 306.161 192.846 305.968 193.157C305.778 193.463 305.683 193.814 305.683 194.208V199.73H304.343ZM313.689 199.912C312.848 199.912 312.123 199.727 311.513 199.355C310.907 198.98 310.439 198.458 310.11 197.787C309.784 197.113 309.621 196.329 309.621 195.435C309.621 194.541 309.784 193.753 310.11 193.071C310.439 192.386 310.897 191.852 311.485 191.469C312.075 191.083 312.765 190.89 313.553 190.89C314.007 190.89 314.456 190.965 314.899 191.117C315.343 191.268 315.746 191.515 316.11 191.855C316.473 192.193 316.763 192.64 316.979 193.196C317.195 193.753 317.303 194.439 317.303 195.253V195.821H310.575V194.662H315.939C315.939 194.17 315.841 193.73 315.644 193.344C315.45 192.958 315.174 192.653 314.814 192.429C314.458 192.206 314.038 192.094 313.553 192.094C313.019 192.094 312.557 192.227 312.166 192.492C311.78 192.753 311.483 193.094 311.274 193.515C311.066 193.935 310.962 194.386 310.962 194.867V195.64C310.962 196.299 311.075 196.857 311.303 197.316C311.534 197.77 311.854 198.117 312.263 198.355C312.672 198.59 313.147 198.708 313.689 198.708C314.041 198.708 314.36 198.658 314.644 198.56C314.932 198.458 315.18 198.306 315.388 198.105C315.596 197.901 315.757 197.647 315.871 197.344L317.166 197.708C317.03 198.147 316.801 198.533 316.479 198.867C316.157 199.196 315.759 199.454 315.286 199.64C314.812 199.821 314.28 199.912 313.689 199.912ZM320.683 194.48V199.73H319.343V191.003H320.638V192.367H320.752C320.956 191.924 321.267 191.568 321.683 191.299C322.1 191.026 322.638 190.89 323.297 190.89C323.888 190.89 324.405 191.011 324.848 191.253C325.291 191.492 325.636 191.855 325.882 192.344C326.128 192.829 326.252 193.443 326.252 194.185V199.73H324.911V194.276C324.911 193.59 324.733 193.056 324.377 192.674C324.021 192.287 323.532 192.094 322.911 192.094C322.483 192.094 322.1 192.187 321.763 192.373C321.43 192.558 321.166 192.829 320.973 193.185C320.78 193.541 320.683 193.973 320.683 194.48ZM332.247 199.912C331.429 199.912 330.725 199.719 330.134 199.333C329.543 198.946 329.088 198.414 328.77 197.736C328.452 197.058 328.293 196.283 328.293 195.412C328.293 194.526 328.456 193.744 328.781 193.066C329.111 192.384 329.569 191.852 330.156 191.469C330.747 191.083 331.437 190.89 332.225 190.89C332.838 190.89 333.391 191.003 333.884 191.23C334.376 191.458 334.78 191.776 335.094 192.185C335.408 192.594 335.603 193.071 335.679 193.617H334.338C334.236 193.219 334.009 192.867 333.656 192.56C333.308 192.249 332.838 192.094 332.247 192.094C331.725 192.094 331.266 192.23 330.872 192.503C330.482 192.772 330.177 193.153 329.958 193.645C329.742 194.134 329.634 194.708 329.634 195.367C329.634 196.041 329.74 196.628 329.952 197.128C330.168 197.628 330.471 198.016 330.861 198.293C331.255 198.569 331.717 198.708 332.247 198.708C332.596 198.708 332.912 198.647 333.196 198.526C333.48 198.405 333.721 198.23 333.918 198.003C334.115 197.776 334.255 197.503 334.338 197.185H335.679C335.603 197.7 335.416 198.164 335.117 198.577C334.821 198.986 334.429 199.312 333.941 199.554C333.456 199.793 332.891 199.912 332.247 199.912ZM341.298 199.912C340.458 199.912 339.732 199.727 339.122 199.355C338.516 198.98 338.048 198.458 337.719 197.787C337.393 197.113 337.23 196.329 337.23 195.435C337.23 194.541 337.393 193.753 337.719 193.071C338.048 192.386 338.507 191.852 339.094 191.469C339.685 191.083 340.374 190.89 341.162 190.89C341.617 190.89 342.066 190.965 342.509 191.117C342.952 191.268 343.355 191.515 343.719 191.855C344.083 192.193 344.372 192.64 344.588 193.196C344.804 193.753 344.912 194.439 344.912 195.253V195.821H338.185V194.662H343.548C343.548 194.17 343.45 193.73 343.253 193.344C343.06 192.958 342.783 192.653 342.423 192.429C342.067 192.206 341.647 192.094 341.162 192.094C340.628 192.094 340.166 192.227 339.776 192.492C339.389 192.753 339.092 193.094 338.884 193.515C338.675 193.935 338.571 194.386 338.571 194.867V195.64C338.571 196.299 338.685 196.857 338.912 197.316C339.143 197.77 339.463 198.117 339.872 198.355C340.281 198.59 340.757 198.708 341.298 198.708C341.651 198.708 341.969 198.658 342.253 198.56C342.541 198.458 342.789 198.306 342.997 198.105C343.206 197.901 343.367 197.647 343.48 197.344L344.776 197.708C344.639 198.147 344.41 198.533 344.088 198.867C343.766 199.196 343.369 199.454 342.895 199.64C342.422 199.821 341.889 199.912 341.298 199.912ZM353.134 192.958L351.929 193.299C351.853 193.098 351.742 192.903 351.594 192.713C351.45 192.52 351.253 192.361 351.003 192.236C350.753 192.111 350.433 192.049 350.043 192.049C349.509 192.049 349.064 192.172 348.708 192.418C348.355 192.66 348.179 192.969 348.179 193.344C348.179 193.677 348.3 193.941 348.543 194.134C348.785 194.327 349.164 194.488 349.679 194.617L350.975 194.935C351.755 195.124 352.336 195.414 352.719 195.804C353.102 196.191 353.293 196.689 353.293 197.299C353.293 197.799 353.149 198.246 352.861 198.64C352.577 199.033 352.179 199.344 351.668 199.571C351.156 199.799 350.562 199.912 349.884 199.912C348.994 199.912 348.257 199.719 347.673 199.333C347.09 198.946 346.721 198.382 346.566 197.64L347.838 197.321C347.959 197.791 348.189 198.143 348.526 198.378C348.867 198.613 349.312 198.73 349.861 198.73C350.486 198.73 350.982 198.598 351.35 198.333C351.721 198.064 351.906 197.742 351.906 197.367C351.906 197.064 351.8 196.81 351.588 196.605C351.376 196.397 351.05 196.242 350.611 196.14L349.156 195.799C348.357 195.609 347.77 195.316 347.395 194.918C347.024 194.516 346.838 194.015 346.838 193.412C346.838 192.92 346.977 192.484 347.253 192.105C347.533 191.727 347.914 191.429 348.395 191.213C348.88 190.998 349.429 190.89 350.043 190.89C350.906 190.89 351.584 191.079 352.077 191.458C352.573 191.837 352.925 192.337 353.134 192.958ZM362.379 199.935C361.826 199.935 361.325 199.831 360.874 199.623C360.423 199.41 360.065 199.105 359.8 198.708C359.535 198.306 359.402 197.821 359.402 197.253C359.402 196.753 359.501 196.348 359.698 196.037C359.895 195.723 360.158 195.477 360.487 195.299C360.817 195.121 361.181 194.988 361.578 194.901C361.98 194.81 362.383 194.738 362.789 194.685C363.319 194.617 363.749 194.566 364.078 194.532C364.412 194.494 364.654 194.431 364.806 194.344C364.961 194.257 365.039 194.105 365.039 193.89V193.844C365.039 193.283 364.885 192.848 364.578 192.537C364.275 192.227 363.815 192.071 363.198 192.071C362.557 192.071 362.056 192.212 361.692 192.492C361.328 192.772 361.073 193.071 360.925 193.39L359.652 192.935C359.879 192.405 360.182 191.992 360.561 191.696C360.944 191.397 361.36 191.189 361.811 191.071C362.266 190.95 362.713 190.89 363.152 190.89C363.432 190.89 363.754 190.924 364.118 190.992C364.485 191.056 364.84 191.191 365.181 191.395C365.525 191.6 365.811 191.908 366.039 192.321C366.266 192.734 366.379 193.287 366.379 193.98V199.73H365.039V198.549H364.97C364.879 198.738 364.728 198.941 364.516 199.157C364.304 199.373 364.021 199.556 363.669 199.708C363.317 199.859 362.887 199.935 362.379 199.935ZM362.584 198.73C363.114 198.73 363.561 198.626 363.925 198.418C364.292 198.21 364.569 197.941 364.754 197.611C364.944 197.282 365.039 196.935 365.039 196.571V195.344C364.982 195.412 364.857 195.475 364.664 195.532C364.474 195.585 364.254 195.632 364.004 195.674C363.758 195.712 363.518 195.746 363.283 195.776C363.052 195.802 362.864 195.825 362.72 195.844C362.372 195.89 362.046 195.963 361.743 196.066C361.444 196.164 361.201 196.314 361.016 196.515C360.834 196.712 360.743 196.98 360.743 197.321C360.743 197.787 360.915 198.14 361.26 198.378C361.609 198.613 362.05 198.73 362.584 198.73ZM372.35 203.185C371.702 203.185 371.145 203.102 370.679 202.935C370.213 202.772 369.825 202.556 369.514 202.287C369.208 202.022 368.963 201.738 368.781 201.435L369.85 200.685C369.971 200.844 370.124 201.026 370.31 201.23C370.495 201.439 370.749 201.619 371.071 201.77C371.397 201.926 371.823 202.003 372.35 202.003C373.054 202.003 373.636 201.833 374.094 201.492C374.552 201.151 374.781 200.617 374.781 199.89V198.117H374.668C374.569 198.276 374.429 198.473 374.247 198.708C374.069 198.939 373.812 199.145 373.475 199.327C373.141 199.505 372.691 199.594 372.122 199.594C371.418 199.594 370.785 199.427 370.225 199.094C369.668 198.761 369.227 198.276 368.901 197.64C368.579 197.003 368.418 196.23 368.418 195.321C368.418 194.427 368.575 193.649 368.889 192.986C369.204 192.319 369.641 191.804 370.202 191.441C370.762 191.073 371.41 190.89 372.145 190.89C372.713 190.89 373.164 190.984 373.497 191.174C373.834 191.359 374.092 191.571 374.27 191.81C374.452 192.045 374.592 192.238 374.691 192.39H374.827V191.003H376.122V199.98C376.122 200.73 375.952 201.34 375.611 201.81C375.274 202.283 374.819 202.63 374.247 202.85C373.679 203.073 373.047 203.185 372.35 203.185ZM372.304 198.39C372.842 198.39 373.297 198.266 373.668 198.02C374.039 197.774 374.321 197.42 374.514 196.958C374.708 196.496 374.804 195.943 374.804 195.299C374.804 194.67 374.709 194.115 374.52 193.634C374.331 193.153 374.05 192.776 373.679 192.503C373.308 192.23 372.85 192.094 372.304 192.094C371.736 192.094 371.262 192.238 370.884 192.526C370.509 192.814 370.227 193.2 370.037 193.685C369.852 194.17 369.759 194.708 369.759 195.299C369.759 195.905 369.853 196.441 370.043 196.907C370.236 197.369 370.52 197.732 370.895 197.998C371.274 198.259 371.744 198.39 372.304 198.39ZM381.145 199.935C380.592 199.935 380.09 199.831 379.639 199.623C379.189 199.41 378.831 199.105 378.566 198.708C378.3 198.306 378.168 197.821 378.168 197.253C378.168 196.753 378.266 196.348 378.463 196.037C378.66 195.723 378.923 195.477 379.253 195.299C379.583 195.121 379.946 194.988 380.344 194.901C380.745 194.81 381.149 194.738 381.554 194.685C382.084 194.617 382.514 194.566 382.844 194.532C383.177 194.494 383.42 194.431 383.571 194.344C383.727 194.257 383.804 194.105 383.804 193.89V193.844C383.804 193.283 383.651 192.848 383.344 192.537C383.041 192.227 382.581 192.071 381.963 192.071C381.323 192.071 380.821 192.212 380.458 192.492C380.094 192.772 379.838 193.071 379.691 193.39L378.418 192.935C378.645 192.405 378.948 191.992 379.327 191.696C379.709 191.397 380.126 191.189 380.577 191.071C381.031 190.95 381.478 190.89 381.918 190.89C382.198 190.89 382.52 190.924 382.884 190.992C383.251 191.056 383.605 191.191 383.946 191.395C384.291 191.6 384.577 191.908 384.804 192.321C385.031 192.734 385.145 193.287 385.145 193.98V199.73H383.804V198.549H383.736C383.645 198.738 383.494 198.941 383.281 199.157C383.069 199.373 382.787 199.556 382.435 199.708C382.083 199.859 381.653 199.935 381.145 199.935ZM381.35 198.73C381.88 198.73 382.327 198.626 382.691 198.418C383.058 198.21 383.334 197.941 383.52 197.611C383.709 197.282 383.804 196.935 383.804 196.571V195.344C383.747 195.412 383.622 195.475 383.429 195.532C383.24 195.585 383.02 195.632 382.77 195.674C382.524 195.712 382.283 195.746 382.048 195.776C381.817 195.802 381.63 195.825 381.486 195.844C381.137 195.89 380.812 195.963 380.509 196.066C380.209 196.164 379.967 196.314 379.781 196.515C379.6 196.712 379.509 196.98 379.509 197.321C379.509 197.787 379.681 198.14 380.026 198.378C380.374 198.613 380.816 198.73 381.35 198.73ZM387.593 199.73V191.003H388.933V199.73H387.593ZM388.274 189.549C388.013 189.549 387.788 189.46 387.598 189.282C387.413 189.104 387.32 188.89 387.32 188.64C387.32 188.39 387.413 188.176 387.598 187.998C387.788 187.819 388.013 187.73 388.274 187.73C388.536 187.73 388.759 187.819 388.945 187.998C389.134 188.176 389.229 188.39 389.229 188.64C389.229 188.89 389.134 189.104 388.945 189.282C388.759 189.46 388.536 189.549 388.274 189.549ZM392.73 194.48V199.73H391.389V191.003H392.685V192.367H392.798C393.003 191.924 393.314 191.568 393.73 191.299C394.147 191.026 394.685 190.89 395.344 190.89C395.935 190.89 396.452 191.011 396.895 191.253C397.338 191.492 397.683 191.855 397.929 192.344C398.175 192.829 398.298 193.443 398.298 194.185V199.73H396.958V194.276C396.958 193.59 396.78 193.056 396.423 192.674C396.067 192.287 395.579 192.094 394.958 192.094C394.53 192.094 394.147 192.187 393.81 192.373C393.477 192.558 393.213 192.829 393.02 193.185C392.827 193.541 392.73 193.973 392.73 194.48ZM406.931 192.958L405.726 193.299C405.65 193.098 405.539 192.903 405.391 192.713C405.247 192.52 405.05 192.361 404.8 192.236C404.55 192.111 404.23 192.049 403.84 192.049C403.306 192.049 402.86 192.172 402.504 192.418C402.152 192.66 401.976 192.969 401.976 193.344C401.976 193.677 402.097 193.941 402.34 194.134C402.582 194.327 402.961 194.488 403.476 194.617L404.771 194.935C405.552 195.124 406.133 195.414 406.516 195.804C406.898 196.191 407.09 196.689 407.09 197.299C407.09 197.799 406.946 198.246 406.658 198.64C406.374 199.033 405.976 199.344 405.465 199.571C404.953 199.799 404.359 199.912 403.681 199.912C402.79 199.912 402.054 199.719 401.47 199.333C400.887 198.946 400.518 198.382 400.362 197.64L401.635 197.321C401.756 197.791 401.985 198.143 402.323 198.378C402.664 198.613 403.109 198.73 403.658 198.73C404.283 198.73 404.779 198.598 405.146 198.333C405.518 198.064 405.703 197.742 405.703 197.367C405.703 197.064 405.597 196.81 405.385 196.605C405.173 196.397 404.847 196.242 404.408 196.14L402.953 195.799C402.154 195.609 401.567 195.316 401.192 194.918C400.821 194.516 400.635 194.015 400.635 193.412C400.635 192.92 400.773 192.484 401.05 192.105C401.33 191.727 401.711 191.429 402.192 191.213C402.677 190.998 403.226 190.89 403.84 190.89C404.703 190.89 405.381 191.079 405.874 191.458C406.37 191.837 406.722 192.337 406.931 192.958ZM412.904 191.003V192.14H408.381V191.003H412.904ZM409.699 188.912H411.04V197.23C411.04 197.609 411.095 197.893 411.205 198.083C411.318 198.268 411.462 198.393 411.637 198.458C411.815 198.518 412.002 198.549 412.199 198.549C412.347 198.549 412.468 198.541 412.563 198.526C412.657 198.507 412.733 198.492 412.79 198.48L413.063 199.685C412.972 199.719 412.845 199.753 412.682 199.787C412.519 199.825 412.313 199.844 412.063 199.844C411.684 199.844 411.313 199.763 410.949 199.6C410.589 199.437 410.29 199.189 410.051 198.855C409.816 198.522 409.699 198.102 409.699 197.594V188.912ZM421.989 199.935C421.436 199.935 420.934 199.831 420.483 199.623C420.032 199.41 419.674 199.105 419.409 198.708C419.144 198.306 419.012 197.821 419.012 197.253C419.012 196.753 419.11 196.348 419.307 196.037C419.504 195.723 419.767 195.477 420.097 195.299C420.426 195.121 420.79 194.988 421.188 194.901C421.589 194.81 421.993 194.738 422.398 194.685C422.928 194.617 423.358 194.566 423.688 194.532C424.021 194.494 424.263 194.431 424.415 194.344C424.57 194.257 424.648 194.105 424.648 193.89V193.844C424.648 193.283 424.494 192.848 424.188 192.537C423.885 192.227 423.424 192.071 422.807 192.071C422.167 192.071 421.665 192.212 421.301 192.492C420.938 192.772 420.682 193.071 420.534 193.39L419.262 192.935C419.489 192.405 419.792 191.992 420.171 191.696C420.553 191.397 420.97 191.189 421.421 191.071C421.875 190.95 422.322 190.89 422.762 190.89C423.042 190.89 423.364 190.924 423.727 190.992C424.095 191.056 424.449 191.191 424.79 191.395C425.135 191.6 425.421 191.908 425.648 192.321C425.875 192.734 425.989 193.287 425.989 193.98V199.73H424.648V198.549H424.58C424.489 198.738 424.337 198.941 424.125 199.157C423.913 199.373 423.631 199.556 423.279 199.708C422.926 199.859 422.496 199.935 421.989 199.935ZM422.193 198.73C422.724 198.73 423.171 198.626 423.534 198.418C423.902 198.21 424.178 197.941 424.364 197.611C424.553 197.282 424.648 196.935 424.648 196.571V195.344C424.591 195.412 424.466 195.475 424.273 195.532C424.084 195.585 423.864 195.632 423.614 195.674C423.368 195.712 423.127 195.746 422.892 195.776C422.661 195.802 422.474 195.825 422.33 195.844C421.981 195.89 421.655 195.963 421.352 196.066C421.053 196.164 420.811 196.314 420.625 196.515C420.443 196.712 420.352 196.98 420.352 197.321C420.352 197.787 420.525 198.14 420.869 198.378C421.218 198.613 421.659 198.73 422.193 198.73ZM432.936 203.003V191.003H434.232V192.39H434.391C434.489 192.238 434.626 192.045 434.8 191.81C434.978 191.571 435.232 191.359 435.561 191.174C435.895 190.984 436.345 190.89 436.914 190.89C437.648 190.89 438.296 191.073 438.857 191.441C439.417 191.808 439.855 192.329 440.169 193.003C440.484 193.677 440.641 194.473 440.641 195.39C440.641 196.314 440.484 197.115 440.169 197.793C439.855 198.467 439.419 198.99 438.862 199.361C438.306 199.729 437.664 199.912 436.936 199.912C436.376 199.912 435.927 199.819 435.59 199.634C435.253 199.444 434.993 199.23 434.811 198.992C434.629 198.749 434.489 198.549 434.391 198.39H434.277V203.003H432.936ZM434.254 195.367C434.254 196.026 434.351 196.607 434.544 197.111C434.737 197.611 435.02 198.003 435.391 198.287C435.762 198.568 436.217 198.708 436.754 198.708C437.315 198.708 437.783 198.56 438.158 198.265C438.537 197.965 438.821 197.564 439.01 197.06C439.203 196.552 439.3 195.988 439.3 195.367C439.3 194.753 439.205 194.2 439.016 193.708C438.83 193.212 438.548 192.819 438.169 192.532C437.794 192.24 437.323 192.094 436.754 192.094C436.209 192.094 435.751 192.232 435.379 192.509C435.008 192.782 434.728 193.164 434.539 193.657C434.349 194.145 434.254 194.715 434.254 195.367ZM446.345 199.912C445.504 199.912 444.779 199.727 444.169 199.355C443.563 198.98 443.095 198.458 442.766 197.787C442.44 197.113 442.277 196.329 442.277 195.435C442.277 194.541 442.44 193.753 442.766 193.071C443.095 192.386 443.554 191.852 444.141 191.469C444.732 191.083 445.421 190.89 446.209 190.89C446.664 190.89 447.112 190.965 447.556 191.117C447.999 191.268 448.402 191.515 448.766 191.855C449.129 192.193 449.419 192.64 449.635 193.196C449.851 193.753 449.959 194.439 449.959 195.253V195.821H443.232V194.662H448.595C448.595 194.17 448.497 193.73 448.3 193.344C448.107 192.958 447.83 192.653 447.47 192.429C447.114 192.206 446.694 192.094 446.209 192.094C445.675 192.094 445.213 192.227 444.823 192.492C444.436 192.753 444.139 193.094 443.931 193.515C443.722 193.935 443.618 194.386 443.618 194.867V195.64C443.618 196.299 443.732 196.857 443.959 197.316C444.19 197.77 444.51 198.117 444.919 198.355C445.328 198.59 445.804 198.708 446.345 198.708C446.698 198.708 447.016 198.658 447.3 198.56C447.588 198.458 447.836 198.306 448.044 198.105C448.253 197.901 448.414 197.647 448.527 197.344L449.823 197.708C449.686 198.147 449.457 198.533 449.135 198.867C448.813 199.196 448.415 199.454 447.942 199.64C447.468 199.821 446.936 199.912 446.345 199.912ZM451.999 199.73V191.003H453.294V192.321H453.385C453.544 191.89 453.832 191.539 454.249 191.27C454.665 191.001 455.135 190.867 455.658 190.867C455.756 190.867 455.879 190.869 456.027 190.873C456.175 190.876 456.287 190.882 456.362 190.89V192.253C456.317 192.242 456.213 192.225 456.05 192.202C455.891 192.176 455.722 192.162 455.544 192.162C455.12 192.162 454.741 192.251 454.408 192.429C454.078 192.604 453.817 192.846 453.624 193.157C453.434 193.463 453.34 193.814 453.34 194.208V199.73H451.999ZM457.952 199.73V191.003H459.247V192.367H459.361C459.543 191.901 459.836 191.539 460.242 191.282C460.647 191.02 461.134 190.89 461.702 190.89C462.278 190.89 462.757 191.02 463.139 191.282C463.526 191.539 463.827 191.901 464.043 192.367H464.134C464.357 191.916 464.692 191.558 465.139 191.293C465.586 191.024 466.122 190.89 466.747 190.89C467.528 190.89 468.166 191.134 468.662 191.623C469.158 192.107 469.406 192.863 469.406 193.89V199.73H468.066V193.89C468.066 193.246 467.889 192.785 467.537 192.509C467.185 192.232 466.77 192.094 466.293 192.094C465.679 192.094 465.204 192.28 464.867 192.651C464.53 193.018 464.361 193.484 464.361 194.049V199.73H462.997V193.753C462.997 193.257 462.836 192.857 462.514 192.554C462.192 192.248 461.778 192.094 461.27 192.094C460.922 192.094 460.596 192.187 460.293 192.373C459.994 192.558 459.751 192.816 459.566 193.145C459.384 193.471 459.293 193.848 459.293 194.276V199.73H457.952ZM474.426 199.935C473.873 199.935 473.371 199.831 472.921 199.623C472.47 199.41 472.112 199.105 471.847 198.708C471.582 198.306 471.449 197.821 471.449 197.253C471.449 196.753 471.548 196.348 471.744 196.037C471.941 195.723 472.205 195.477 472.534 195.299C472.864 195.121 473.227 194.988 473.625 194.901C474.027 194.81 474.43 194.738 474.835 194.685C475.366 194.617 475.796 194.566 476.125 194.532C476.459 194.494 476.701 194.431 476.852 194.344C477.008 194.257 477.085 194.105 477.085 193.89V193.844C477.085 193.283 476.932 192.848 476.625 192.537C476.322 192.227 475.862 192.071 475.244 192.071C474.604 192.071 474.102 192.212 473.739 192.492C473.375 192.772 473.119 193.071 472.972 193.39L471.699 192.935C471.926 192.405 472.229 191.992 472.608 191.696C472.991 191.397 473.407 191.189 473.858 191.071C474.313 190.95 474.76 190.89 475.199 190.89C475.479 190.89 475.801 190.924 476.165 190.992C476.532 191.056 476.887 191.191 477.227 191.395C477.572 191.6 477.858 191.908 478.085 192.321C478.313 192.734 478.426 193.287 478.426 193.98V199.73H477.085V198.549H477.017C476.926 198.738 476.775 198.941 476.563 199.157C476.351 199.373 476.068 199.556 475.716 199.708C475.364 199.859 474.934 199.935 474.426 199.935ZM474.631 198.73C475.161 198.73 475.608 198.626 475.972 198.418C476.339 198.21 476.616 197.941 476.801 197.611C476.991 197.282 477.085 196.935 477.085 196.571V195.344C477.029 195.412 476.904 195.475 476.71 195.532C476.521 195.585 476.301 195.632 476.051 195.674C475.805 195.712 475.565 195.746 475.33 195.776C475.099 195.802 474.911 195.825 474.767 195.844C474.419 195.89 474.093 195.963 473.79 196.066C473.491 196.164 473.248 196.314 473.063 196.515C472.881 196.712 472.79 196.98 472.79 197.321C472.79 197.787 472.962 198.14 473.307 198.378C473.655 198.613 474.097 198.73 474.631 198.73ZM482.215 194.48V199.73H480.874V191.003H482.169V192.367H482.283C482.487 191.924 482.798 191.568 483.215 191.299C483.631 191.026 484.169 190.89 484.828 190.89C485.419 190.89 485.936 191.011 486.379 191.253C486.823 191.492 487.167 191.855 487.414 192.344C487.66 192.829 487.783 193.443 487.783 194.185V199.73H486.442V194.276C486.442 193.59 486.264 193.056 485.908 192.674C485.552 192.287 485.063 192.094 484.442 192.094C484.014 192.094 483.631 192.187 483.294 192.373C482.961 192.558 482.698 192.829 482.504 193.185C482.311 193.541 482.215 193.973 482.215 194.48ZM493.892 199.912C493.051 199.912 492.326 199.727 491.716 199.355C491.11 198.98 490.642 198.458 490.313 197.787C489.987 197.113 489.824 196.329 489.824 195.435C489.824 194.541 489.987 193.753 490.313 193.071C490.642 192.386 491.101 191.852 491.688 191.469C492.279 191.083 492.968 190.89 493.756 190.89C494.21 190.89 494.659 190.965 495.102 191.117C495.546 191.268 495.949 191.515 496.313 191.855C496.676 192.193 496.966 192.64 497.182 193.196C497.398 193.753 497.506 194.439 497.506 195.253V195.821H490.779V194.662H496.142C496.142 194.17 496.044 193.73 495.847 193.344C495.654 192.958 495.377 192.653 495.017 192.429C494.661 192.206 494.241 192.094 493.756 192.094C493.222 192.094 492.76 192.227 492.369 192.492C491.983 192.753 491.686 193.094 491.477 193.515C491.269 193.935 491.165 194.386 491.165 194.867V195.64C491.165 196.299 491.279 196.857 491.506 197.316C491.737 197.77 492.057 198.117 492.466 198.355C492.875 198.59 493.351 198.708 493.892 198.708C494.244 198.708 494.563 198.658 494.847 198.56C495.135 198.458 495.383 198.306 495.591 198.105C495.799 197.901 495.96 197.647 496.074 197.344L497.369 197.708C497.233 198.147 497.004 198.533 496.682 198.867C496.36 199.196 495.962 199.454 495.489 199.64C495.015 199.821 494.483 199.912 493.892 199.912ZM500.887 194.48V199.73H499.546V191.003H500.841V192.367H500.955C501.159 191.924 501.47 191.568 501.887 191.299C502.303 191.026 502.841 190.89 503.5 190.89C504.091 190.89 504.608 191.011 505.051 191.253C505.494 191.492 505.839 191.855 506.085 192.344C506.332 192.829 506.455 193.443 506.455 194.185V199.73H505.114V194.276C505.114 193.59 504.936 193.056 504.58 192.674C504.224 192.287 503.735 192.094 503.114 192.094C502.686 192.094 502.303 192.187 501.966 192.373C501.633 192.558 501.369 192.829 501.176 193.185C500.983 193.541 500.887 193.973 500.887 194.48ZM512.7 191.003V192.14H508.178V191.003H512.7ZM509.496 188.912H510.837V197.23C510.837 197.609 510.892 197.893 511.002 198.083C511.115 198.268 511.259 198.393 511.433 198.458C511.611 198.518 511.799 198.549 511.996 198.549C512.144 198.549 512.265 198.541 512.36 198.526C512.454 198.507 512.53 198.492 512.587 198.48L512.86 199.685C512.769 199.719 512.642 199.753 512.479 199.787C512.316 199.825 512.11 199.844 511.86 199.844C511.481 199.844 511.11 199.763 510.746 199.6C510.386 199.437 510.087 199.189 509.848 198.855C509.613 198.522 509.496 198.102 509.496 197.594V188.912ZM215.713 213.003V214.14H211.009V213.003H215.713ZM212.418 221.73V211.799C212.418 211.299 212.535 210.882 212.77 210.549C213.005 210.215 213.31 209.965 213.685 209.799C214.06 209.632 214.456 209.549 214.872 209.549C215.202 209.549 215.471 209.575 215.679 209.628C215.887 209.681 216.043 209.73 216.145 209.776L215.759 210.935C215.691 210.912 215.596 210.884 215.475 210.85C215.357 210.816 215.202 210.799 215.009 210.799C214.566 210.799 214.245 210.91 214.048 211.134C213.855 211.357 213.759 211.685 213.759 212.117V221.73H212.418ZM217.593 221.73V213.003H218.888V214.321H218.979C219.138 213.89 219.426 213.539 219.843 213.27C220.259 213.001 220.729 212.867 221.252 212.867C221.35 212.867 221.473 212.869 221.621 212.873C221.769 212.876 221.88 212.882 221.956 212.89V214.253C221.911 214.242 221.807 214.225 221.644 214.202C221.485 214.176 221.316 214.162 221.138 214.162C220.714 214.162 220.335 214.251 220.002 214.429C219.672 214.604 219.411 214.846 219.218 215.157C219.028 215.463 218.933 215.814 218.933 216.208V221.73H217.593ZM226.114 221.935C225.561 221.935 225.059 221.831 224.608 221.623C224.157 221.41 223.799 221.105 223.534 220.708C223.269 220.306 223.137 219.821 223.137 219.253C223.137 218.753 223.235 218.348 223.432 218.037C223.629 217.723 223.892 217.477 224.222 217.299C224.551 217.121 224.915 216.988 225.313 216.901C225.714 216.81 226.118 216.738 226.523 216.685C227.053 216.617 227.483 216.566 227.813 216.532C228.146 216.494 228.388 216.431 228.54 216.344C228.695 216.257 228.773 216.105 228.773 215.89V215.844C228.773 215.283 228.619 214.848 228.313 214.537C228.01 214.227 227.549 214.071 226.932 214.071C226.292 214.071 225.79 214.212 225.426 214.492C225.063 214.772 224.807 215.071 224.659 215.39L223.387 214.935C223.614 214.405 223.917 213.992 224.296 213.696C224.678 213.397 225.095 213.189 225.546 213.071C226 212.95 226.447 212.89 226.887 212.89C227.167 212.89 227.489 212.924 227.852 212.992C228.22 213.056 228.574 213.191 228.915 213.395C229.26 213.6 229.546 213.908 229.773 214.321C230 214.734 230.114 215.287 230.114 215.98V221.73H228.773V220.549H228.705C228.614 220.738 228.462 220.941 228.25 221.157C228.038 221.373 227.756 221.556 227.404 221.708C227.051 221.859 226.621 221.935 226.114 221.935ZM226.318 220.73C226.849 220.73 227.296 220.626 227.659 220.418C228.027 220.21 228.303 219.941 228.489 219.611C228.678 219.282 228.773 218.935 228.773 218.571V217.344C228.716 217.412 228.591 217.475 228.398 217.532C228.209 217.585 227.989 217.632 227.739 217.674C227.493 217.712 227.252 217.746 227.017 217.776C226.786 217.802 226.599 217.825 226.455 217.844C226.106 217.89 225.78 217.963 225.477 218.066C225.178 218.164 224.936 218.314 224.75 218.515C224.568 218.712 224.477 218.98 224.477 219.321C224.477 219.787 224.65 220.14 224.994 220.378C225.343 220.613 225.784 220.73 226.318 220.73ZM238.061 218.162V213.003H239.402V221.73H238.061V220.253H237.97C237.766 220.696 237.448 221.073 237.016 221.384C236.584 221.691 236.039 221.844 235.379 221.844C234.834 221.844 234.349 221.725 233.925 221.486C233.501 221.244 233.167 220.88 232.925 220.395C232.682 219.907 232.561 219.291 232.561 218.549V213.003H233.902V218.458C233.902 219.094 234.08 219.602 234.436 219.98C234.796 220.359 235.254 220.549 235.811 220.549C236.145 220.549 236.484 220.463 236.828 220.293C237.177 220.123 237.468 219.861 237.703 219.509C237.942 219.157 238.061 218.708 238.061 218.162ZM245.154 221.912C244.426 221.912 243.784 221.729 243.227 221.361C242.671 220.99 242.235 220.467 241.921 219.793C241.606 219.115 241.449 218.314 241.449 217.39C241.449 216.473 241.606 215.677 241.921 215.003C242.235 214.329 242.673 213.808 243.233 213.441C243.794 213.073 244.441 212.89 245.176 212.89C245.744 212.89 246.193 212.984 246.523 213.174C246.856 213.359 247.11 213.571 247.284 213.81C247.462 214.045 247.601 214.238 247.699 214.39H247.813V210.094H249.154V221.73H247.858V220.39H247.699C247.601 220.549 247.46 220.749 247.279 220.992C247.097 221.23 246.837 221.444 246.5 221.634C246.163 221.819 245.714 221.912 245.154 221.912ZM245.335 220.708C245.873 220.708 246.328 220.568 246.699 220.287C247.07 220.003 247.352 219.611 247.546 219.111C247.739 218.607 247.835 218.026 247.835 217.367C247.835 216.715 247.741 216.145 247.551 215.657C247.362 215.164 247.082 214.782 246.71 214.509C246.339 214.232 245.881 214.094 245.335 214.094C244.767 214.094 244.294 214.24 243.915 214.532C243.54 214.819 243.258 215.212 243.068 215.708C242.883 216.2 242.79 216.753 242.79 217.367C242.79 217.988 242.885 218.552 243.074 219.06C243.267 219.564 243.551 219.965 243.926 220.265C244.305 220.56 244.775 220.708 245.335 220.708ZM258.864 221.935C258.311 221.935 257.809 221.831 257.358 221.623C256.907 221.41 256.549 221.105 256.284 220.708C256.019 220.306 255.887 219.821 255.887 219.253C255.887 218.753 255.985 218.348 256.182 218.037C256.379 217.723 256.642 217.477 256.972 217.299C257.301 217.121 257.665 216.988 258.063 216.901C258.464 216.81 258.868 216.738 259.273 216.685C259.803 216.617 260.233 216.566 260.563 216.532C260.896 216.494 261.138 216.431 261.29 216.344C261.445 216.257 261.523 216.105 261.523 215.89V215.844C261.523 215.283 261.369 214.848 261.063 214.537C260.76 214.227 260.299 214.071 259.682 214.071C259.042 214.071 258.54 214.212 258.176 214.492C257.813 214.772 257.557 215.071 257.409 215.39L256.137 214.935C256.364 214.405 256.667 213.992 257.046 213.696C257.428 213.397 257.845 213.189 258.296 213.071C258.75 212.95 259.197 212.89 259.637 212.89C259.917 212.89 260.239 212.924 260.602 212.992C260.97 213.056 261.324 213.191 261.665 213.395C262.01 213.6 262.296 213.908 262.523 214.321C262.75 214.734 262.864 215.287 262.864 215.98V221.73H261.523V220.549H261.455C261.364 220.738 261.212 220.941 261 221.157C260.788 221.373 260.506 221.556 260.154 221.708C259.801 221.859 259.371 221.935 258.864 221.935ZM259.068 220.73C259.599 220.73 260.046 220.626 260.409 220.418C260.777 220.21 261.053 219.941 261.239 219.611C261.428 219.282 261.523 218.935 261.523 218.571V217.344C261.466 217.412 261.341 217.475 261.148 217.532C260.959 217.585 260.739 217.632 260.489 217.674C260.243 217.712 260.002 217.746 259.767 217.776C259.536 217.802 259.349 217.825 259.205 217.844C258.856 217.89 258.53 217.963 258.227 218.066C257.928 218.164 257.686 218.314 257.5 218.515C257.318 218.712 257.227 218.98 257.227 219.321C257.227 219.787 257.4 220.14 257.744 220.378C258.093 220.613 258.534 220.73 259.068 220.73ZM265.311 221.73V213.003H266.607V214.321H266.698C266.857 213.89 267.145 213.539 267.561 213.27C267.978 213.001 268.448 212.867 268.97 212.867C269.069 212.867 269.192 212.869 269.34 212.873C269.487 212.876 269.599 212.882 269.675 212.89V214.253C269.629 214.242 269.525 214.225 269.362 214.202C269.203 214.176 269.035 214.162 268.857 214.162C268.432 214.162 268.054 214.251 267.72 214.429C267.391 214.604 267.129 214.846 266.936 215.157C266.747 215.463 266.652 215.814 266.652 216.208V221.73H265.311ZM274.544 221.912C273.726 221.912 273.021 221.719 272.431 221.333C271.84 220.946 271.385 220.414 271.067 219.736C270.749 219.058 270.59 218.283 270.59 217.412C270.59 216.526 270.753 215.744 271.078 215.066C271.408 214.384 271.866 213.852 272.453 213.469C273.044 213.083 273.734 212.89 274.521 212.89C275.135 212.89 275.688 213.003 276.181 213.23C276.673 213.458 277.076 213.776 277.391 214.185C277.705 214.594 277.9 215.071 277.976 215.617H276.635C276.533 215.219 276.306 214.867 275.953 214.56C275.605 214.249 275.135 214.094 274.544 214.094C274.021 214.094 273.563 214.23 273.169 214.503C272.779 214.772 272.474 215.153 272.254 215.645C272.039 216.134 271.931 216.708 271.931 217.367C271.931 218.041 272.037 218.628 272.249 219.128C272.465 219.628 272.768 220.016 273.158 220.293C273.552 220.569 274.014 220.708 274.544 220.708C274.893 220.708 275.209 220.647 275.493 220.526C275.777 220.405 276.018 220.23 276.215 220.003C276.412 219.776 276.552 219.503 276.635 219.185H277.976C277.9 219.7 277.713 220.164 277.414 220.577C277.118 220.986 276.726 221.312 276.237 221.554C275.753 221.793 275.188 221.912 274.544 221.912ZM281.277 216.48V221.73H279.936V210.094H281.277V214.367H281.391C281.595 213.916 281.902 213.558 282.311 213.293C282.724 213.024 283.273 212.89 283.959 212.89C284.554 212.89 285.075 213.009 285.521 213.248C285.968 213.482 286.315 213.844 286.561 214.333C286.811 214.818 286.936 215.435 286.936 216.185V221.73H285.595V216.276C285.595 215.583 285.415 215.047 285.056 214.668C284.7 214.285 284.205 214.094 283.573 214.094C283.133 214.094 282.739 214.187 282.391 214.373C282.046 214.558 281.773 214.829 281.573 215.185C281.376 215.541 281.277 215.973 281.277 216.48ZM289.389 221.73V213.003H290.73V221.73H289.389ZM290.071 211.549C289.81 211.549 289.584 211.46 289.395 211.282C289.209 211.104 289.117 210.89 289.117 210.64C289.117 210.39 289.209 210.176 289.395 209.998C289.584 209.819 289.81 209.73 290.071 209.73C290.333 209.73 290.556 209.819 290.742 209.998C290.931 210.176 291.026 210.39 291.026 210.64C291.026 210.89 290.931 211.104 290.742 211.282C290.556 211.46 290.333 211.549 290.071 211.549ZM300.323 213.003L297.095 221.73H295.732L292.504 213.003H293.959L296.368 219.958H296.459L298.868 213.003H300.323ZM305.439 221.912C304.598 221.912 303.873 221.727 303.263 221.355C302.657 220.98 302.189 220.458 301.86 219.787C301.534 219.113 301.371 218.329 301.371 217.435C301.371 216.541 301.534 215.753 301.86 215.071C302.189 214.386 302.647 213.852 303.235 213.469C303.825 213.083 304.515 212.89 305.303 212.89C305.757 212.89 306.206 212.965 306.649 213.117C307.093 213.268 307.496 213.515 307.86 213.855C308.223 214.193 308.513 214.64 308.729 215.196C308.945 215.753 309.053 216.439 309.053 217.253V217.821H302.325V216.662H307.689C307.689 216.17 307.591 215.73 307.394 215.344C307.2 214.958 306.924 214.653 306.564 214.429C306.208 214.206 305.788 214.094 305.303 214.094C304.769 214.094 304.307 214.227 303.916 214.492C303.53 214.753 303.233 215.094 303.024 215.515C302.816 215.935 302.712 216.386 302.712 216.867V217.64C302.712 218.299 302.825 218.857 303.053 219.316C303.284 219.77 303.604 220.117 304.013 220.355C304.422 220.59 304.897 220.708 305.439 220.708C305.791 220.708 306.11 220.658 306.394 220.56C306.682 220.458 306.93 220.306 307.138 220.105C307.346 219.901 307.507 219.647 307.621 219.344L308.916 219.708C308.78 220.147 308.551 220.533 308.229 220.867C307.907 221.196 307.509 221.454 307.036 221.64C306.562 221.821 306.03 221.912 305.439 221.912ZM319.138 221.912C318.35 221.912 317.659 221.725 317.064 221.35C316.473 220.975 316.011 220.45 315.678 219.776C315.348 219.102 315.183 218.314 315.183 217.412C315.183 216.503 315.348 215.71 315.678 215.032C316.011 214.354 316.473 213.827 317.064 213.452C317.659 213.077 318.35 212.89 319.138 212.89C319.926 212.89 320.615 213.077 321.206 213.452C321.801 213.827 322.263 214.354 322.593 215.032C322.926 215.71 323.093 216.503 323.093 217.412C323.093 218.314 322.926 219.102 322.593 219.776C322.263 220.45 321.801 220.975 321.206 221.35C320.615 221.725 319.926 221.912 319.138 221.912ZM319.138 220.708C319.736 220.708 320.229 220.554 320.615 220.248C321.002 219.941 321.288 219.537 321.473 219.037C321.659 218.537 321.752 217.996 321.752 217.412C321.752 216.829 321.659 216.285 321.473 215.782C321.288 215.278 321.002 214.871 320.615 214.56C320.229 214.249 319.736 214.094 319.138 214.094C318.539 214.094 318.047 214.249 317.661 214.56C317.274 214.871 316.988 215.278 316.803 215.782C316.617 216.285 316.524 216.829 316.524 217.412C316.524 217.996 316.617 218.537 316.803 219.037C316.988 219.537 317.274 219.941 317.661 220.248C318.047 220.554 318.539 220.708 319.138 220.708ZM326.48 216.48V221.73H325.139V213.003H326.435V214.367H326.548C326.753 213.924 327.064 213.568 327.48 213.299C327.897 213.026 328.435 212.89 329.094 212.89C329.685 212.89 330.202 213.011 330.645 213.253C331.088 213.492 331.433 213.855 331.679 214.344C331.925 214.829 332.048 215.443 332.048 216.185V221.73H330.708V216.276C330.708 215.59 330.53 215.056 330.173 214.674C329.817 214.287 329.329 214.094 328.708 214.094C328.28 214.094 327.897 214.187 327.56 214.373C327.227 214.558 326.963 214.829 326.77 215.185C326.577 215.541 326.48 215.973 326.48 216.48ZM339.658 221.73H338.181L342.453 210.094H343.908L348.181 221.73H346.703L343.226 211.935H343.135L339.658 221.73ZM340.203 217.185H346.158V218.435H340.203V217.185ZM349.811 221.73V213.003H351.107V214.321H351.198C351.357 213.89 351.645 213.539 352.061 213.27C352.478 213.001 352.948 212.867 353.47 212.867C353.569 212.867 353.692 212.869 353.84 212.873C353.987 212.876 354.099 212.882 354.175 212.89V214.253C354.129 214.242 354.025 214.225 353.862 214.202C353.703 214.176 353.535 214.162 353.357 214.162C352.932 214.162 352.554 214.251 352.22 214.429C351.891 214.604 351.629 214.846 351.436 215.157C351.247 215.463 351.152 215.814 351.152 216.208V221.73H349.811ZM357.882 221.73L355.223 213.003H356.632L358.519 219.685H358.61L360.473 213.003H361.905L363.746 219.662H363.837L365.723 213.003H367.132L364.473 221.73H363.155L361.246 215.026H361.11L359.2 221.73H357.882ZM372.267 221.912C371.426 221.912 370.701 221.727 370.091 221.355C369.485 220.98 369.017 220.458 368.688 219.787C368.362 219.113 368.199 218.329 368.199 217.435C368.199 216.541 368.362 215.753 368.688 215.071C369.017 214.386 369.476 213.852 370.063 213.469C370.654 213.083 371.343 212.89 372.131 212.89C372.585 212.89 373.034 212.965 373.477 213.117C373.921 213.268 374.324 213.515 374.688 213.855C375.051 214.193 375.341 214.64 375.557 215.196C375.773 215.753 375.881 216.439 375.881 217.253V217.821H369.154V216.662H374.517C374.517 216.17 374.419 215.73 374.222 215.344C374.029 214.958 373.752 214.653 373.392 214.429C373.036 214.206 372.616 214.094 372.131 214.094C371.597 214.094 371.135 214.227 370.744 214.492C370.358 214.753 370.061 215.094 369.852 215.515C369.644 215.935 369.54 216.386 369.54 216.867V217.64C369.54 218.299 369.654 218.857 369.881 219.316C370.112 219.77 370.432 220.117 370.841 220.355C371.25 220.59 371.726 220.708 372.267 220.708C372.619 220.708 372.938 220.658 373.222 220.56C373.51 220.458 373.758 220.306 373.966 220.105C374.174 219.901 374.335 219.647 374.449 219.344L375.744 219.708C375.608 220.147 375.379 220.533 375.057 220.867C374.735 221.196 374.337 221.454 373.864 221.64C373.39 221.821 372.858 221.912 372.267 221.912ZM380.489 221.935C379.936 221.935 379.434 221.831 378.983 221.623C378.532 221.41 378.174 221.105 377.909 220.708C377.644 220.306 377.512 219.821 377.512 219.253C377.512 218.753 377.61 218.348 377.807 218.037C378.004 217.723 378.267 217.477 378.597 217.299C378.926 217.121 379.29 216.988 379.688 216.901C380.089 216.81 380.493 216.738 380.898 216.685C381.428 216.617 381.858 216.566 382.188 216.532C382.521 216.494 382.763 216.431 382.915 216.344C383.07 216.257 383.148 216.105 383.148 215.89V215.844C383.148 215.283 382.994 214.848 382.688 214.537C382.385 214.227 381.924 214.071 381.307 214.071C380.667 214.071 380.165 214.212 379.801 214.492C379.438 214.772 379.182 215.071 379.034 215.39L377.762 214.935C377.989 214.405 378.292 213.992 378.671 213.696C379.053 213.397 379.47 213.189 379.921 213.071C380.375 212.95 380.822 212.89 381.262 212.89C381.542 212.89 381.864 212.924 382.227 212.992C382.595 213.056 382.949 213.191 383.29 213.395C383.635 213.6 383.921 213.908 384.148 214.321C384.375 214.734 384.489 215.287 384.489 215.98V221.73H383.148V220.549H383.08C382.989 220.738 382.837 220.941 382.625 221.157C382.413 221.373 382.131 221.556 381.779 221.708C381.426 221.859 380.996 221.935 380.489 221.935ZM380.693 220.73C381.224 220.73 381.671 220.626 382.034 220.418C382.402 220.21 382.678 219.941 382.864 219.611C383.053 219.282 383.148 218.935 383.148 218.571V217.344C383.091 217.412 382.966 217.475 382.773 217.532C382.584 217.585 382.364 217.632 382.114 217.674C381.868 217.712 381.627 217.746 381.392 217.776C381.161 217.802 380.974 217.825 380.83 217.844C380.481 217.89 380.155 217.963 379.852 218.066C379.553 218.164 379.311 218.314 379.125 218.515C378.943 218.712 378.852 218.98 378.852 219.321C378.852 219.787 379.025 220.14 379.369 220.378C379.718 220.613 380.159 220.73 380.693 220.73ZM393.76 213.003L390.533 221.73H389.169L385.942 213.003H387.396L389.806 219.958H389.896L392.306 213.003H393.76ZM398.877 221.912C398.036 221.912 397.31 221.727 396.7 221.355C396.094 220.98 395.627 220.458 395.297 219.787C394.971 219.113 394.808 218.329 394.808 217.435C394.808 216.541 394.971 215.753 395.297 215.071C395.627 214.386 396.085 213.852 396.672 213.469C397.263 213.083 397.952 212.89 398.74 212.89C399.195 212.89 399.644 212.965 400.087 213.117C400.53 213.268 400.933 213.515 401.297 213.855C401.661 214.193 401.95 214.64 402.166 215.196C402.382 215.753 402.49 216.439 402.49 217.253V217.821H395.763V216.662H401.127C401.127 216.17 401.028 215.73 400.831 215.344C400.638 214.958 400.361 214.653 400.002 214.429C399.646 214.206 399.225 214.094 398.74 214.094C398.206 214.094 397.744 214.227 397.354 214.492C396.968 214.753 396.67 215.094 396.462 215.515C396.253 215.935 396.149 216.386 396.149 216.867V217.64C396.149 218.299 396.263 218.857 396.49 219.316C396.721 219.77 397.041 220.117 397.45 220.355C397.86 220.59 398.335 220.708 398.877 220.708C399.229 220.708 399.547 220.658 399.831 220.56C400.119 220.458 400.367 220.306 400.575 220.105C400.784 219.901 400.945 219.647 401.058 219.344L402.354 219.708C402.218 220.147 401.988 220.533 401.666 220.867C401.344 221.196 400.947 221.454 400.473 221.64C400 221.821 399.468 221.912 398.877 221.912ZM405.507 221.821C405.227 221.821 404.986 221.721 404.786 221.52C404.585 221.319 404.485 221.079 404.485 220.799C404.485 220.518 404.585 220.278 404.786 220.077C404.986 219.876 405.227 219.776 405.507 219.776C405.788 219.776 406.028 219.876 406.229 220.077C406.43 220.278 406.53 220.518 406.53 220.799C406.53 220.984 406.483 221.155 406.388 221.31C406.297 221.465 406.174 221.59 406.019 221.685C405.867 221.776 405.697 221.821 405.507 221.821Z" fill="#979799"/>
</g>
<g filter="url(#filter1_ddf_166_2164)">
<path d="M183.5 189H150.41C146.162 189 141.94 189.656 137.892 190.943V190.943C134.643 191.977 131.535 193.409 128.638 195.207L126.351 196.627C121.15 199.855 116.496 203.89 112.562 208.58L110.271 211.311C107.119 215.07 104.703 219.39 103.152 224.044V224.044C102.056 227.333 101.403 230.754 101.21 234.216L101 238V622" stroke="#F5F5F7" stroke-opacity="0.07" stroke-width="2" stroke-miterlimit="1.30541" stroke-linecap="round" stroke-linejoin="round" shape-rendering="crispEdges"/>
</g>
<defs>
<filter id="filter0_f_166_2164" x="83.6621" y="0.900391" width="588.91" height="346.033" filterUnits="userSpaceOnUse" color-interpolation-filters="sRGB">
<feFlood flood-opacity="0" result="BackgroundImageFix"/>
<feBlend mode="normal" in="SourceGraphic" in2="BackgroundImageFix" result="shape"/>
<feGaussianBlur stdDeviation="50" result="effect1_foregroundBlur_166_2164"/>
</filter>
<filter id="filter1_ddf_166_2164" x="0" y="88" width="284.5" height="635" filterUnits="userSpaceOnUse" color-interpolation-filters="sRGB">
<feFlood flood-opacity="0" result="BackgroundImageFix"/>
<feColorMatrix in="SourceAlpha" type="matrix" values="0 0 0 0 0 0 0 0 0 0 0 0 0 0 0 0 0 0 127 0" result="hardAlpha"/>
<feOffset/>
<feColorMatrix type="matrix" values="0 0 0 0 0.960784 0 0 0 0 0.960784 0 0 0 0 0.968627 0 0 0 1 0"/>
<feBlend mode="normal" in2="BackgroundImageFix" result="effect1_dropShadow_166_2164"/>
<feColorMatrix in="SourceAlpha" type="matrix" values="0 0 0 0 0 0 0 0 0 0 0 0 0 0 0 0 0 0 127 0" result="hardAlpha"/>
<feOffset/>
<feComposite in2="hardAlpha" operator="out"/>
<feColorMatrix type="matrix" values="0 0 0 0 0.960784 0 0 0 0 0.960784 0 0 0 0 0.968627 0 0 0 1 0"/>
<feBlend mode="normal" in2="effect1_dropShadow_166_2164" result="effect2_dropShadow_166_2164"/>
<feBlend mode="normal" in="SourceGraphic" in2="effect2_dropShadow_166_2164" result="shape"/>
<feGaussianBlur stdDeviation="50" result="effect3_foregroundBlur_166_2164"/>
</filter>
<linearGradient id="paint0_linear_166_2164" x1="193.164" y1="143.422" x2="573.146" y2="162.488" gradientUnits="userSpaceOnUse">
<stop stop-color="#0FF0FC"/>
<stop offset="1" stop-color="#0A0A0A"/>
</linearGradient>
<linearGradient id="paint1_linear_166_2164" x1="183.661" y1="138.995" x2="564.384" y2="207.657" gradientUnits="userSpaceOnUse">
<stop stop-color="#F5F5F7"/>
<stop offset="0.62992" stop-color="#0A0A0A"/>
</linearGradient>
</defs>
</svg>
