<svg width="52" height="52" viewBox="0 0 52 52" fill="none" xmlns="http://www.w3.org/2000/svg">
<rect x="0.5" y="0.5" width="51" height="51" rx="25.5" stroke="#EF4444"/>
<path d="M19.2623 21.3182V31.5H17.7211V22.8594H17.6614L15.2253 24.4503V22.9787L17.7658 21.3182H19.2623ZM25.5613 31.669C24.7757 31.6657 24.1046 31.4586 23.5478 31.0476C22.9909 30.6366 22.565 30.0384 22.2701 29.2528C21.9751 28.4673 21.8276 27.5211 21.8276 26.4141C21.8276 25.3104 21.9751 24.3674 22.2701 23.5852C22.5684 22.803 22.9959 22.2064 23.5527 21.7955C24.1129 21.3845 24.7824 21.179 25.5613 21.179C26.3401 21.179 27.008 21.3861 27.5648 21.8004C28.1216 22.2114 28.5475 22.808 28.8425 23.5902C29.1408 24.3691 29.29 25.3104 29.29 26.4141C29.29 27.5244 29.1425 28.4723 28.8475 29.2578C28.5525 30.04 28.1266 30.6383 27.5698 31.0526C27.013 31.4635 26.3435 31.669 25.5613 31.669ZM25.5613 30.3416C26.2507 30.3416 26.7892 30.0052 27.177 29.3324C27.5681 28.6596 27.7637 27.6868 27.7637 26.4141C27.7637 25.5689 27.6742 24.8546 27.4952 24.2713C27.3195 23.6847 27.066 23.2405 26.7346 22.9389C26.4064 22.634 26.0153 22.4815 25.5613 22.4815C24.8752 22.4815 24.3366 22.8196 23.9455 23.4957C23.5544 24.1719 23.3572 25.1446 23.3539 26.4141C23.3539 27.2625 23.4417 27.9801 23.6174 28.5668C23.7963 29.1501 24.0499 29.5926 24.378 29.8942C24.7061 30.1925 25.1006 30.3416 25.5613 30.3416ZM36.7958 25.728L35.4485 25.9666C35.3922 25.7943 35.3027 25.6302 35.18 25.4744C35.0607 25.3187 34.8983 25.1911 34.6928 25.0916C34.4873 24.9922 34.2305 24.9425 33.9222 24.9425C33.5013 24.9425 33.15 25.0369 32.8683 25.2259C32.5865 25.4115 32.4457 25.6518 32.4457 25.9467C32.4457 26.2019 32.5401 26.4074 32.729 26.5632C32.918 26.719 33.2229 26.8466 33.6438 26.946L34.8569 27.2244C35.5595 27.3868 36.0832 27.6371 36.4279 27.9751C36.7726 28.3132 36.945 28.7524 36.945 29.2926C36.945 29.75 36.8124 30.1577 36.5472 30.5156C36.2854 30.8703 35.9192 31.1487 35.4485 31.3509C34.9812 31.553 34.4393 31.6541 33.8228 31.6541C32.9677 31.6541 32.27 31.4718 31.7298 31.1072C31.1895 30.7393 30.8581 30.2173 30.7354 29.5412L32.1722 29.3224C32.2617 29.697 32.4457 29.9804 32.7241 30.1726C33.0025 30.3615 33.3654 30.456 33.8129 30.456C34.3001 30.456 34.6895 30.3549 34.9812 30.1527C35.2728 29.9472 35.4187 29.697 35.4187 29.402C35.4187 29.1634 35.3292 28.9628 35.1502 28.8004C34.9746 28.638 34.7044 28.5154 34.3398 28.4325L33.0472 28.1491C32.3346 27.9867 31.8076 27.7282 31.4663 27.3736C31.1282 27.0189 30.9592 26.5698 30.9592 26.0263C30.9592 25.5755 31.0851 25.1811 31.337 24.843C31.5889 24.505 31.9369 24.2415 32.381 24.0526C32.8252 23.8603 33.3339 23.7642 33.9073 23.7642C34.7326 23.7642 35.3822 23.9432 35.8562 24.3011C36.3301 24.6558 36.6433 25.1314 36.7958 25.728Z" fill="#F5F5F7"/>
</svg>
