<svg width="34" height="34" viewBox="0 0 34 34" fill="none" xmlns="http://www.w3.org/2000/svg">
<g filter="url(#filter0_ddi_2018_3243)">
<rect x="1" y="1" width="32" height="32" rx="16" fill="#0A0A0A" fill-opacity="0.5" shape-rendering="crispEdges"/>
<rect x="1.25" y="1.25" width="31.5" height="31.5" rx="15.75" stroke="#0FF0FC" stroke-opacity="0.38" stroke-width="0.5" shape-rendering="crispEdges"/>
<rect x="1.25" y="1.25" width="31.5" height="31.5" rx="15.75" stroke="#F5F5F7" stroke-opacity="0.8" stroke-width="0.5" shape-rendering="crispEdges"/>
<path d="M20.2959 24C20.2064 23.8291 20.1331 23.6175 20.0762 23.3652C20.0273 23.1048 19.9907 22.8363 19.9663 22.5596C19.7384 22.7874 19.4821 23.0031 19.1973 23.2065C18.9206 23.41 18.6154 23.589 18.2817 23.7437C17.9399 23.8983 17.5778 24.0203 17.1953 24.1099C16.8128 24.1994 16.4059 24.2441 15.9746 24.2441C15.2747 24.2441 14.64 24.1424 14.0703 23.939C13.5088 23.7355 13.0327 23.4588 12.6421 23.1089C12.2433 22.7671 11.9341 22.3602 11.7144 21.8882C11.5028 21.408 11.397 20.8913 11.397 20.3379C11.397 19.6136 11.5394 18.9788 11.8242 18.4336C12.1172 17.8883 12.5282 17.4326 13.0571 17.0664C13.5861 16.7083 14.2209 16.4398 14.9614 16.2607C15.7101 16.0817 16.5443 15.9922 17.4639 15.9922H19.9297V14.9546C19.9297 14.5558 19.8564 14.1978 19.71 13.8804C19.5635 13.563 19.356 13.2904 19.0874 13.0625C18.8188 12.8428 18.4893 12.6719 18.0986 12.5498C17.7161 12.4277 17.2848 12.3667 16.8047 12.3667C16.3571 12.3667 15.9543 12.4237 15.5962 12.5376C15.2463 12.6515 14.9492 12.8021 14.7051 12.9893C14.4609 13.1764 14.2697 13.4002 14.1313 13.6606C14.0011 13.9129 13.936 14.1774 13.936 14.4541H11.6655C11.6737 13.974 11.7957 13.502 12.0317 13.0381C12.2759 12.5742 12.6258 12.1551 13.0815 11.7808C13.5291 11.4146 14.0744 11.1175 14.7173 10.8896C15.3683 10.6618 16.1048 10.5479 16.9268 10.5479C17.6755 10.5479 18.3713 10.6414 19.0142 10.8286C19.6571 11.0076 20.2145 11.2803 20.6865 11.6465C21.1504 12.0208 21.5166 12.4847 21.7852 13.0381C22.0537 13.5915 22.188 14.2384 22.188 14.979V21.1191C22.188 21.5586 22.2287 22.0265 22.3101 22.5229C22.3914 23.0112 22.5054 23.4385 22.6519 23.8047V24H20.2959ZM16.3042 22.2788C16.7437 22.2788 17.1546 22.2218 17.5371 22.1079C17.9196 21.994 18.2695 21.8434 18.5869 21.6562C18.8962 21.4691 19.1647 21.2575 19.3926 21.0215C19.6204 20.7773 19.7995 20.5251 19.9297 20.2646V17.5913H17.8301C17.0488 17.5913 16.3652 17.6605 15.7793 17.7988C15.2015 17.929 14.7417 18.1325 14.3999 18.4092C14.1558 18.6045 13.9686 18.8364 13.8384 19.105C13.7163 19.3735 13.6553 19.6787 13.6553 20.0205C13.6553 20.346 13.7082 20.6471 13.814 20.9238C13.9279 21.2005 14.0947 21.4365 14.3145 21.6318C14.5342 21.8353 14.8109 21.994 15.1445 22.1079C15.4782 22.2218 15.8647 22.2788 16.3042 22.2788Z" fill="white"/>
</g>
<defs>
<filter id="filter0_ddi_2018_3243" x="0.815104" y="0.907552" width="32.3698" height="32.4622" filterUnits="userSpaceOnUse" color-interpolation-filters="sRGB">
<feFlood flood-opacity="0" result="BackgroundImageFix"/>
<feColorMatrix in="SourceAlpha" type="matrix" values="0 0 0 0 0 0 0 0 0 0 0 0 0 0 0 0 0 0 127 0" result="hardAlpha"/>
<feOffset/>
<feGaussianBlur stdDeviation="0.046224"/>
<feComposite in2="hardAlpha" operator="out"/>
<feColorMatrix type="matrix" values="0 0 0 0 0.960784 0 0 0 0 0.960784 0 0 0 0 0.968627 0 0 0 1 0"/>
<feBlend mode="normal" in2="BackgroundImageFix" result="effect1_dropShadow_2018_3243"/>
<feColorMatrix in="SourceAlpha" type="matrix" values="0 0 0 0 0 0 0 0 0 0 0 0 0 0 0 0 0 0 127 0" result="hardAlpha"/>
<feOffset dy="0.184896"/>
<feGaussianBlur stdDeviation="0.092448"/>
<feComposite in2="hardAlpha" operator="out"/>
<feColorMatrix type="matrix" values="0 0 0 0 0 0 0 0 0 0 0 0 0 0 0 0 0 0 0.25 0"/>
<feBlend mode="normal" in2="effect1_dropShadow_2018_3243" result="effect2_dropShadow_2018_3243"/>
<feBlend mode="normal" in="SourceGraphic" in2="effect2_dropShadow_2018_3243" result="shape"/>
<feColorMatrix in="SourceAlpha" type="matrix" values="0 0 0 0 0 0 0 0 0 0 0 0 0 0 0 0 0 0 127 0" result="hardAlpha"/>
<feOffset/>
<feGaussianBlur stdDeviation="0.439128"/>
<feComposite in2="hardAlpha" operator="arithmetic" k2="-1" k3="1"/>
<feColorMatrix type="matrix" values="0 0 0 0 0.960784 0 0 0 0 0.960784 0 0 0 0 0.968627 0 0 0 1 0"/>
<feBlend mode="normal" in2="shape" result="effect3_innerShadow_2018_3243"/>
</filter>
</defs>
</svg>
