<svg width="151" height="142" viewBox="0 0 151 142" fill="none" xmlns="http://www.w3.org/2000/svg">
<g filter="url(#filter0_di_2019_3247)">
<rect x="46.9028" y="14.4028" width="57.1943" height="57.1943" rx="28.5972" fill="#0A0A0A" fill-opacity="0.1" shape-rendering="crispEdges"/>
<rect x="47.1071" y="14.6071" width="56.7858" height="56.7858" rx="28.3929" stroke="#0FF0FC" stroke-width="0.408531" shape-rendering="crispEdges"/>
<path d="M80.9823 52.7806C80.8389 52.5069 80.7216 52.168 80.6304 51.764C80.5522 51.347 80.4936 50.9169 80.4545 50.4738C80.0896 50.8387 79.679 51.1841 79.2229 51.5099C78.7798 51.8357 78.2911 52.1224 77.7567 52.37C77.2094 52.6177 76.6294 52.8132 76.0169 52.9565C75.4044 53.0999 74.7527 53.1715 74.062 53.1715C72.9412 53.1715 71.9247 53.0086 71.0124 52.6828C70.1131 52.357 69.3507 51.9139 68.7252 51.3535C68.0866 50.8061 67.5913 50.1545 67.2394 49.3986C66.9006 48.6297 66.7312 47.8021 66.7312 46.9159C66.7312 45.756 66.9592 44.7395 67.4154 43.8663C67.8846 42.9931 68.5427 42.2633 69.3898 41.6768C70.2369 41.1034 71.2535 40.6733 72.4394 40.3866C73.6384 40.0999 74.9743 39.9565 76.447 39.9565H80.3958V38.2949C80.3958 37.6563 80.2785 37.0828 80.0439 36.5746C79.8094 36.0663 79.477 35.6297 79.047 35.2648C78.6169 34.9129 78.0891 34.6392 77.4635 34.4438C76.851 34.2483 76.1602 34.1505 75.3913 34.1505C74.6745 34.1505 74.0294 34.2417 73.456 34.4242C72.8956 34.6067 72.4199 34.8478 72.0289 35.1475C71.6379 35.4473 71.3317 35.8057 71.1101 36.2227C70.9016 36.6267 70.7973 37.0503 70.7973 37.4934H67.1613C67.1743 36.7245 67.3698 35.9686 67.7477 35.2257C68.1387 34.4828 68.6991 33.8117 69.4289 33.2122C70.1457 32.6257 71.0189 32.15 72.0485 31.7851C73.0911 31.4202 74.2705 31.2377 75.5868 31.2377C76.7858 31.2377 77.9001 31.3876 78.9297 31.6874C79.9592 31.9741 80.852 32.4107 81.6079 32.9971C82.3507 33.5966 82.9372 34.3395 83.3672 35.2257C83.7973 36.1119 84.0124 37.148 84.0124 38.334V48.167C84.0124 48.8708 84.0775 49.6202 84.2079 50.4152C84.3382 51.1971 84.5206 51.8813 84.7552 52.4678V52.7806H80.9823ZM74.5898 50.0242C75.2936 50.0242 75.9517 49.933 76.5643 49.7505C77.1768 49.568 77.7372 49.3269 78.2455 49.0272C78.7407 48.7274 79.1708 48.3886 79.5357 48.0107C79.9006 47.6197 80.1873 47.2157 80.3958 46.7986V42.5174H77.0334C75.7823 42.5174 74.6876 42.6282 73.7492 42.8498C72.8239 43.0583 72.0876 43.3841 71.5402 43.8272C71.1492 44.14 70.8495 44.5114 70.6409 44.9415C70.4455 45.3716 70.3477 45.8603 70.3477 46.4076C70.3477 46.9289 70.4324 47.4112 70.6019 47.8543C70.7843 48.2974 71.0515 48.6753 71.4034 48.9881C71.7552 49.3139 72.1983 49.568 72.7327 49.7505C73.267 49.933 73.8861 50.0242 74.5898 50.0242Z" fill="white"/>
</g>
<path d="M29.5285 112.492C29.5285 111.751 29.357 111.126 29.0142 110.617C28.6824 110.108 28.251 109.677 27.7201 109.323C27.1893 108.98 26.6031 108.693 25.9616 108.461C25.3311 108.228 24.7228 108.018 24.1366 107.83C23.285 107.554 22.4168 107.222 21.532 106.835C20.6582 106.437 19.8619 105.961 19.143 105.408C18.413 104.844 17.8158 104.18 17.3512 103.417C16.8978 102.643 16.671 101.736 16.671 100.696C16.671 99.6566 16.8978 98.7276 17.3512 97.9091C17.8158 97.0907 18.4185 96.3994 19.1596 95.8353C19.9006 95.2713 20.7412 94.8455 21.6813 94.5579C22.6214 94.2593 23.567 94.11 24.5182 94.11C25.5689 94.11 26.5809 94.2869 27.5542 94.6408C28.5275 94.9837 29.3902 95.4704 30.1423 96.1008C30.8944 96.7312 31.4972 97.4944 31.9507 98.3902C32.4041 99.2861 32.6419 100.287 32.664 101.393H29.5119C29.4234 100.696 29.252 100.066 28.9976 99.5018C28.7432 98.9267 28.4059 98.4345 27.9856 98.0253C27.5653 97.616 27.0621 97.3008 26.4759 97.0796C25.9007 96.8473 25.2482 96.7312 24.5182 96.7312C23.932 96.7312 23.3569 96.8142 22.7928 96.9801C22.2398 97.146 21.7476 97.3948 21.3163 97.7266C20.8739 98.0584 20.52 98.4677 20.2545 98.9543C20.0001 99.441 19.8729 100.005 19.8729 100.647C19.884 101.343 20.061 101.935 20.4038 102.422C20.7467 102.897 21.1836 103.301 21.7145 103.633C22.2343 103.965 22.7984 104.241 23.4067 104.462C24.026 104.683 24.6067 104.877 25.1486 105.043C26.0445 105.319 26.9404 105.657 27.8363 106.055C28.7321 106.442 29.5506 106.94 30.2916 107.548C31.0216 108.112 31.6078 108.803 32.0502 109.622C32.5037 110.44 32.7304 111.386 32.7304 112.459C32.7304 113.543 32.4871 114.488 32.0004 115.296C31.5248 116.103 30.9055 116.772 30.1423 117.303C29.3792 117.845 28.5165 118.254 27.5542 118.531C26.592 118.796 25.6298 118.929 24.6675 118.929C23.5173 118.929 22.3836 118.735 21.2665 118.348C20.1605 117.961 19.1983 117.403 18.3798 116.673C17.6499 116.042 17.0692 115.307 16.6379 114.466C16.2176 113.615 15.9908 112.669 15.9576 111.629H19.0932C19.1927 112.381 19.3974 113.05 19.707 113.637C20.0167 114.212 20.4149 114.698 20.9015 115.097C21.3882 115.506 21.9467 115.816 22.5772 116.026C23.2187 116.225 23.9154 116.324 24.6675 116.324C25.2648 116.324 25.851 116.252 26.4261 116.109C27.0123 115.954 27.5321 115.716 27.9856 115.395C28.439 115.086 28.8096 114.693 29.0971 114.217C29.3847 113.731 29.5285 113.156 29.5285 112.492ZM40.3619 103.318C40.6052 102.953 40.8762 102.621 41.1748 102.322C41.4735 102.012 41.7887 101.741 42.1205 101.509C42.6514 101.122 43.232 100.829 43.8625 100.63C44.5039 100.431 45.1841 100.326 45.9031 100.315C46.8432 100.315 47.6948 100.453 48.458 100.729C49.2322 100.995 49.8902 101.415 50.4322 101.99C50.9741 102.565 51.3889 103.295 51.6765 104.18C51.9751 105.054 52.1244 106.094 52.1244 107.299V118.597H49.0552V107.266C49.0552 106.558 48.9723 105.939 48.8063 105.408C48.6404 104.866 48.3971 104.418 48.0764 104.064C47.7335 103.677 47.3022 103.389 46.7823 103.201C46.2625 103.002 45.6653 102.908 44.9906 102.919C44.4376 102.919 43.9122 102.997 43.4145 103.152C42.9168 103.306 42.4578 103.528 42.0375 103.815C41.7057 104.036 41.396 104.296 41.1085 104.595C40.832 104.883 40.5831 105.203 40.3619 105.557V118.597H37.2927V93.1145H40.3619V103.318ZM58.1798 100.647H67.3543V115.943H73.2106V118.597H58.1798V115.943H64.2851V103.318H58.1798V100.647ZM63.8869 95.9349C63.8869 95.6694 63.9256 95.4206 64.003 95.1883C64.0915 94.9561 64.2242 94.757 64.4012 94.5911C64.545 94.4473 64.7275 94.3367 64.9487 94.2593C65.1809 94.1708 65.4408 94.1265 65.7284 94.1265C66.016 94.1265 66.2704 94.1708 66.4916 94.2593C66.7128 94.3367 66.8953 94.4473 67.039 94.5911C67.216 94.7459 67.3487 94.9395 67.4372 95.1717C67.5257 95.404 67.5699 95.6584 67.5699 95.9349C67.5699 96.4326 67.4151 96.8473 67.1054 97.1792C66.7957 97.511 66.3367 97.6769 65.7284 97.6769C65.109 97.6769 64.6445 97.511 64.3348 97.1792C64.0362 96.8473 63.8869 96.4326 63.8869 95.9349ZM86.0349 118.929C84.774 118.929 83.6127 118.713 82.5509 118.282C81.5002 117.851 80.5988 117.248 79.8467 116.474C79.0946 115.699 78.5084 114.781 78.0881 113.72C77.6679 112.658 77.4577 111.502 77.4577 110.252V109.555C77.4577 108.107 77.69 106.813 78.1545 105.673C78.619 104.523 79.2384 103.55 80.0126 102.753C80.7758 101.968 81.644 101.365 82.6173 100.945C83.6016 100.525 84.6081 100.315 85.6367 100.315C86.9307 100.315 88.0589 100.541 89.0211 100.995C89.9944 101.437 90.8018 102.051 91.4433 102.836C92.0848 103.633 92.5604 104.567 92.8701 105.64C93.1908 106.713 93.3512 107.874 93.3512 109.124V110.501H80.5269V110.617C80.6043 111.491 80.7758 112.26 81.0412 112.923C81.3177 113.587 81.6938 114.173 82.1693 114.682C82.656 115.224 83.2422 115.65 83.9279 115.959C84.6136 116.269 85.3713 116.424 86.2008 116.424C87.2957 116.424 88.269 116.203 89.1207 115.76C89.9723 115.318 90.6801 114.732 91.2442 114.002L93.1189 115.462C92.5217 116.369 91.6258 117.176 90.4313 117.884C89.2479 118.581 87.7824 118.929 86.0349 118.929ZM85.6367 102.836C85.0173 102.836 84.4311 102.953 83.8781 103.185C83.3251 103.406 82.8274 103.732 82.385 104.164C81.9426 104.606 81.5666 105.148 81.2569 105.789C80.9583 106.42 80.7481 107.15 80.6265 107.979H90.282V107.83C90.282 107.277 90.1769 106.685 89.9668 106.055C89.7566 105.413 89.4635 104.86 89.0875 104.396C88.7114 103.931 88.2358 103.555 87.6607 103.268C87.0966 102.98 86.422 102.836 85.6367 102.836ZM98.9919 93.1145H108.166V115.943H114.023V118.597H98.9919V115.943H105.097V95.7856H98.9919V93.1145ZM118.336 109.473C118.336 108.134 118.502 106.907 118.834 105.789C119.177 104.661 119.663 103.694 120.294 102.886C120.913 102.079 121.665 101.448 122.55 100.995C123.435 100.541 124.425 100.315 125.52 100.315C126.593 100.315 127.527 100.497 128.323 100.862C129.131 101.216 129.828 101.736 130.414 102.422V93.1145H133.483V118.597H130.663L130.53 116.706C129.933 117.436 129.219 117.989 128.39 118.365C127.56 118.741 126.593 118.929 125.486 118.929C124.403 118.929 123.418 118.697 122.533 118.232C121.66 117.768 120.913 117.126 120.294 116.308C119.674 115.489 119.193 114.527 118.85 113.421C118.508 112.304 118.336 111.104 118.336 109.821V109.473ZM121.405 109.821C121.405 110.695 121.499 111.524 121.687 112.309C121.875 113.095 122.168 113.786 122.567 114.383C122.954 114.98 123.451 115.456 124.06 115.81C124.668 116.153 125.398 116.324 126.25 116.324C127.278 116.324 128.13 116.092 128.805 115.628C129.479 115.163 130.016 114.538 130.414 113.753V105.425C130.016 104.695 129.479 104.097 128.805 103.633C128.13 103.157 127.289 102.919 126.283 102.919C125.42 102.919 124.679 103.096 124.06 103.45C123.451 103.804 122.954 104.28 122.567 104.877C122.168 105.485 121.875 106.188 121.687 106.984C121.499 107.769 121.405 108.599 121.405 109.473V109.821Z" fill="#F5F5F7"/>
<defs>
<filter id="filter0_di_2019_3247" x="46.0858" y="13.5858" width="58.8285" height="58.8285" filterUnits="userSpaceOnUse" color-interpolation-filters="sRGB">
<feFlood flood-opacity="0" result="BackgroundImageFix"/>
<feColorMatrix in="SourceAlpha" type="matrix" values="0 0 0 0 0 0 0 0 0 0 0 0 0 0 0 0 0 0 127 0" result="hardAlpha"/>
<feOffset/>
<feGaussianBlur stdDeviation="0.408531"/>
<feComposite in2="hardAlpha" operator="out"/>
<feColorMatrix type="matrix" values="0 0 0 0 0.960784 0 0 0 0 0.960784 0 0 0 0 0.968627 0 0 0 1 0"/>
<feBlend mode="normal" in2="BackgroundImageFix" result="effect1_dropShadow_2019_3247"/>
<feBlend mode="normal" in="SourceGraphic" in2="effect1_dropShadow_2019_3247" result="shape"/>
<feColorMatrix in="SourceAlpha" type="matrix" values="0 0 0 0 0 0 0 0 0 0 0 0 0 0 0 0 0 0 127 0" result="hardAlpha"/>
<feOffset/>
<feGaussianBlur stdDeviation="3.88104"/>
<feComposite in2="hardAlpha" operator="arithmetic" k2="-1" k3="1"/>
<feColorMatrix type="matrix" values="0 0 0 0 0.960784 0 0 0 0 0.960784 0 0 0 0 0.968627 0 0 0 1 0"/>
<feBlend mode="normal" in2="shape" result="effect2_innerShadow_2019_3247"/>
</filter>
</defs>
</svg>
