<svg width="148" height="40" viewBox="0 0 148 40" fill="none" xmlns="http://www.w3.org/2000/svg">
<rect x="0.7" y="1.03398" width="146.6" height="38.6" rx="7.8" stroke="#0FF0FC" stroke-width="0.4"/>
<path d="M27.4837 17.834H26.0746C25.9912 17.4287 25.8454 17.0726 25.6371 16.7658C25.4325 16.459 25.1825 16.2014 24.8871 15.9931C24.5954 15.781 24.2715 15.6219 23.9155 15.5158C23.5594 15.4097 23.1882 15.3567 22.8018 15.3567C22.0973 15.3567 21.459 15.5347 20.8871 15.8908C20.3189 16.2469 19.8662 16.7715 19.5291 17.4647C19.1958 18.1578 19.0291 19.0082 19.0291 20.0158C19.0291 21.0234 19.1958 21.8738 19.5291 22.5669C19.8662 23.2601 20.3189 23.7847 20.8871 24.1408C21.459 24.4969 22.0973 24.6749 22.8018 24.6749C23.1882 24.6749 23.5594 24.6219 23.9155 24.5158C24.2715 24.4097 24.5954 24.2525 24.8871 24.0442C25.1825 23.8321 25.4325 23.5726 25.6371 23.2658C25.8454 22.9552 25.9912 22.5991 26.0746 22.1976H27.4837C27.3776 22.7923 27.1844 23.3245 26.9041 23.7942C26.6238 24.2639 26.2753 24.6635 25.8587 24.9931C25.442 25.3188 24.9742 25.5669 24.4553 25.7374C23.9401 25.9078 23.389 25.9931 22.8018 25.9931C21.8094 25.9931 20.9268 25.7507 20.1541 25.2658C19.3814 24.781 18.7734 24.0916 18.3303 23.1976C17.8871 22.3037 17.6655 21.2431 17.6655 20.0158C17.6655 18.7885 17.8871 17.7279 18.3303 16.834C18.7734 15.94 19.3814 15.2507 20.1541 14.7658C20.9268 14.281 21.8094 14.0385 22.8018 14.0385C23.389 14.0385 23.9401 14.1238 24.4553 14.2942C24.9742 14.4647 25.442 14.7147 25.8587 15.0442C26.2753 15.37 26.6238 15.7677 26.9041 16.2374C27.1844 16.7033 27.3776 17.2355 27.4837 17.834ZM33.1243 26.0158C32.3364 26.0158 31.6451 25.8283 31.0504 25.4533C30.4595 25.0783 29.9974 24.5537 29.6641 23.8794C29.3345 23.2052 29.1697 22.4173 29.1697 21.5158C29.1697 20.6067 29.3345 19.8132 29.6641 19.1351C29.9974 18.4571 30.4595 17.9306 31.0504 17.5556C31.6451 17.1806 32.3364 16.9931 33.1243 16.9931C33.9122 16.9931 34.6016 17.1806 35.1925 17.5556C35.7872 17.9306 36.2493 18.4571 36.5788 19.1351C36.9122 19.8132 37.0788 20.6067 37.0788 21.5158C37.0788 22.4173 36.9122 23.2052 36.5788 23.8794C36.2493 24.5537 35.7872 25.0783 35.1925 25.4533C34.6016 25.8283 33.9122 26.0158 33.1243 26.0158ZM33.1243 24.8113C33.7228 24.8113 34.2152 24.6578 34.6016 24.351C34.9879 24.0442 35.2739 23.6408 35.4595 23.1408C35.6451 22.6408 35.7379 22.0991 35.7379 21.5158C35.7379 20.9325 35.6451 20.3889 35.4595 19.8851C35.2739 19.3813 34.9879 18.9741 34.6016 18.6635C34.2152 18.3529 33.7228 18.1976 33.1243 18.1976C32.5258 18.1976 32.0334 18.3529 31.647 18.6635C31.2607 18.9741 30.9747 19.3813 30.7891 19.8851C30.6035 20.3889 30.5107 20.9325 30.5107 21.5158C30.5107 22.0991 30.6035 22.6408 30.7891 23.1408C30.9747 23.6408 31.2607 24.0442 31.647 24.351C32.0334 24.6578 32.5258 24.8113 33.1243 24.8113ZM40.4666 20.584V25.834H39.1257V17.1067H40.4212V18.4703H40.5348C40.7393 18.0272 41.05 17.6711 41.4666 17.4022C41.8833 17.1294 42.4212 16.9931 43.0803 16.9931C43.6712 16.9931 44.1882 17.1143 44.6314 17.3567C45.0746 17.5953 45.4193 17.959 45.6655 18.4476C45.9117 18.9325 46.0348 19.5461 46.0348 20.2885V25.834H44.6939V20.3794C44.6939 19.6938 44.5159 19.1597 44.1598 18.7772C43.8037 18.3908 43.3151 18.1976 42.6939 18.1976C42.2659 18.1976 41.8833 18.2904 41.5462 18.476C41.2128 18.6616 40.9496 18.9325 40.7564 19.2885C40.5632 19.6446 40.4666 20.0764 40.4666 20.584ZM49.826 20.584V25.834H48.4851V17.1067H49.7805V18.4703H49.8942C50.0987 18.0272 50.4093 17.6711 50.826 17.4022C51.2427 17.1294 51.7805 16.9931 52.4396 16.9931C53.0305 16.9931 53.5476 17.1143 53.9908 17.3567C54.4339 17.5953 54.7786 17.959 55.0249 18.4476C55.2711 18.9325 55.3942 19.5461 55.3942 20.2885V25.834H54.0533V20.3794C54.0533 19.6938 53.8752 19.1597 53.5192 18.7772C53.1631 18.3908 52.6745 18.1976 52.0533 18.1976C51.6252 18.1976 51.2427 18.2904 50.9055 18.476C50.5722 18.6616 50.3089 18.9325 50.1158 19.2885C49.9226 19.6446 49.826 20.0764 49.826 20.584ZM61.5036 26.0158C60.6626 26.0158 59.9373 25.8302 59.3274 25.459C58.7214 25.084 58.2536 24.5613 57.924 23.8908C57.5982 23.2166 57.4354 22.4325 57.4354 21.5385C57.4354 20.6446 57.5982 19.8567 57.924 19.1749C58.2536 18.4893 58.7119 17.9552 59.299 17.5726C59.8899 17.1863 60.5793 16.9931 61.3672 16.9931C61.8217 16.9931 62.2706 17.0688 62.7138 17.2203C63.157 17.3719 63.5604 17.6181 63.924 17.959C64.2876 18.2961 64.5774 18.7431 64.7933 19.2999C65.0092 19.8567 65.1172 20.5423 65.1172 21.3567V21.9249H58.3899V20.7658H63.7536C63.7536 20.2734 63.6551 19.834 63.4581 19.4476C63.2649 19.0613 62.9884 18.7563 62.6286 18.5328C62.2725 18.3094 61.852 18.1976 61.3672 18.1976C60.8331 18.1976 60.371 18.3302 59.9808 18.5953C59.5945 18.8567 59.2971 19.1976 59.0888 19.6181C58.8804 20.0385 58.7763 20.4893 58.7763 20.9703V21.7431C58.7763 22.4022 58.8899 22.9609 59.1172 23.4192C59.3482 23.8738 59.6683 24.2203 60.0774 24.459C60.4865 24.6938 60.9619 24.8113 61.5036 24.8113C61.8558 24.8113 62.174 24.762 62.4581 24.6635C62.746 24.5613 62.9941 24.4097 63.2024 24.209C63.4107 24.0044 63.5717 23.7507 63.6854 23.4476L64.9808 23.8113C64.8445 24.2507 64.6153 24.637 64.2933 24.9703C63.9714 25.2999 63.5736 25.5575 63.1001 25.7431C62.6267 25.9249 62.0945 26.0158 61.5036 26.0158ZM70.7024 26.0158C69.8842 26.0158 69.1797 25.8226 68.5888 25.4363C67.9979 25.0499 67.5433 24.5177 67.2251 23.8397C66.907 23.1616 66.7479 22.387 66.7479 21.5158C66.7479 20.6294 66.9107 19.8472 67.2365 19.1692C67.5661 18.4874 68.0244 17.9552 68.6115 17.5726C69.2024 17.1863 69.8918 16.9931 70.6797 16.9931C71.2933 16.9931 71.8464 17.1067 72.3388 17.334C72.8312 17.5613 73.2346 17.8794 73.549 18.2885C73.8634 18.6976 74.0585 19.1749 74.1342 19.7203H72.7933C72.6911 19.3226 72.4638 18.9703 72.1115 18.6635C71.763 18.3529 71.2933 18.1976 70.7024 18.1976C70.1797 18.1976 69.7214 18.334 69.3274 18.6067C68.9373 18.8757 68.6323 19.2563 68.4126 19.7488C68.1967 20.2374 68.0888 20.8113 68.0888 21.4703C68.0888 22.1446 68.1948 22.7317 68.407 23.2317C68.6229 23.7317 68.9259 24.12 69.3161 24.3965C69.71 24.673 70.1721 24.8113 70.7024 24.8113C71.0509 24.8113 71.3672 24.7507 71.6513 24.6294C71.9354 24.5082 72.1759 24.334 72.3729 24.1067C72.5698 23.8794 72.71 23.6067 72.7933 23.2885H74.1342C74.0585 23.8037 73.871 24.2677 73.5717 24.6806C73.2763 25.0897 72.8842 25.4154 72.3956 25.6578C71.9107 25.8965 71.3464 26.0158 70.7024 26.0158ZM79.8899 17.1067V18.2431H75.3672V17.1067H79.8899ZM76.6854 15.0158H78.0263V23.334C78.0263 23.7128 78.0812 23.9969 78.1911 24.1863C78.3047 24.3719 78.4486 24.4969 78.6229 24.5613C78.8009 24.6219 78.9884 24.6522 79.1854 24.6522C79.3331 24.6522 79.4543 24.6446 79.549 24.6294C79.6437 24.6105 79.7195 24.5953 79.7763 24.584L80.049 25.7885C79.9581 25.8226 79.8312 25.8567 79.6683 25.8908C79.5054 25.9287 79.299 25.9476 79.049 25.9476C78.6702 25.9476 78.299 25.8662 77.9354 25.7033C77.5755 25.5404 77.2763 25.2923 77.0376 24.959C76.8028 24.6257 76.6854 24.2052 76.6854 23.6976V15.0158ZM88.7024 25.834L85.5206 14.1976H86.9524L89.3842 23.6749H89.4979L91.9751 14.1976H93.5661L96.0433 23.6749H96.157L98.5888 14.1976H100.021L96.8388 25.834H95.3842L92.8161 16.5613H92.7251L90.157 25.834H88.7024ZM103.35 26.0385C102.797 26.0385 102.295 25.9344 101.844 25.726C101.394 25.5139 101.036 25.209 100.771 24.8113C100.505 24.4097 100.373 23.9249 100.373 23.3567C100.373 22.8567 100.471 22.4514 100.668 22.1408C100.865 21.8264 101.129 21.5802 101.458 21.4022C101.788 21.2241 102.151 21.0916 102.549 21.0044C102.951 20.9135 103.354 20.8416 103.759 20.7885C104.29 20.7203 104.719 20.6692 105.049 20.6351C105.382 20.5972 105.625 20.5347 105.776 20.4476C105.932 20.3605 106.009 20.209 106.009 19.9931V19.9476C106.009 19.387 105.856 18.9514 105.549 18.6408C105.246 18.3302 104.786 18.1749 104.168 18.1749C103.528 18.1749 103.026 18.315 102.663 18.5953C102.299 18.8757 102.043 19.1749 101.896 19.4931L100.623 19.0385C100.85 18.5082 101.153 18.0953 101.532 17.7999C101.915 17.5007 102.331 17.2923 102.782 17.1749C103.237 17.0537 103.683 16.9931 104.123 16.9931C104.403 16.9931 104.725 17.0272 105.089 17.0953C105.456 17.1597 105.81 17.2942 106.151 17.4988C106.496 17.7033 106.782 18.012 107.009 18.4249C107.237 18.8378 107.35 19.3908 107.35 20.084V25.834H106.009V24.6522H105.941C105.85 24.8416 105.699 25.0442 105.487 25.2601C105.274 25.476 104.992 25.6597 104.64 25.8113C104.288 25.9628 103.858 26.0385 103.35 26.0385ZM103.555 24.834C104.085 24.834 104.532 24.7298 104.896 24.5215C105.263 24.3132 105.54 24.0442 105.725 23.7147C105.915 23.3851 106.009 23.0385 106.009 22.6749V21.4476C105.952 21.5158 105.827 21.5783 105.634 21.6351C105.445 21.6882 105.225 21.7355 104.975 21.7772C104.729 21.815 104.488 21.8491 104.254 21.8794C104.022 21.906 103.835 21.9287 103.691 21.9476C103.343 21.9931 103.017 22.0669 102.714 22.1692C102.415 22.2677 102.172 22.4173 101.987 22.6181C101.805 22.815 101.714 23.084 101.714 23.4249C101.714 23.8908 101.886 24.2431 102.231 24.4817C102.579 24.7166 103.021 24.834 103.555 24.834ZM111.138 14.1976V25.834H109.798V14.1976H111.138ZM114.935 14.1976V25.834H113.594V14.1976H114.935ZM121.05 26.0158C120.21 26.0158 119.484 25.8302 118.874 25.459C118.268 25.084 117.8 24.5613 117.471 23.8908C117.145 23.2166 116.982 22.4325 116.982 21.5385C116.982 20.6446 117.145 19.8567 117.471 19.1749C117.8 18.4893 118.259 17.9552 118.846 17.5726C119.437 17.1863 120.126 16.9931 120.914 16.9931C121.369 16.9931 121.817 17.0688 122.261 17.2203C122.704 17.3719 123.107 17.6181 123.471 17.959C123.835 18.2961 124.124 18.7431 124.34 19.2999C124.556 19.8567 124.664 20.5423 124.664 21.3567V21.9249H117.937V20.7658H123.3C123.3 20.2734 123.202 19.834 123.005 19.4476C122.812 19.0613 122.535 18.7563 122.175 18.5328C121.819 18.3094 121.399 18.1976 120.914 18.1976C120.38 18.1976 119.918 18.3302 119.528 18.5953C119.141 18.8567 118.844 19.1976 118.636 19.6181C118.427 20.0385 118.323 20.4893 118.323 20.9703V21.7431C118.323 22.4022 118.437 22.9609 118.664 23.4192C118.895 23.8738 119.215 24.2203 119.624 24.459C120.033 24.6938 120.509 24.8113 121.05 24.8113C121.403 24.8113 121.721 24.762 122.005 24.6635C122.293 24.5613 122.541 24.4097 122.749 24.209C122.958 24.0044 123.119 23.7507 123.232 23.4476L124.528 23.8113C124.391 24.2507 124.162 24.637 123.84 24.9703C123.518 25.2999 123.121 25.5575 122.647 25.7431C122.174 25.9249 121.641 26.0158 121.05 26.0158ZM130.499 17.1067V18.2431H125.977V17.1067H130.499ZM127.295 15.0158H128.636V23.334C128.636 23.7128 128.691 23.9969 128.8 24.1863C128.914 24.3719 129.058 24.4969 129.232 24.5613C129.41 24.6219 129.598 24.6522 129.795 24.6522C129.942 24.6522 130.064 24.6446 130.158 24.6294C130.253 24.6105 130.329 24.5953 130.386 24.584L130.658 25.7885C130.567 25.8226 130.441 25.8567 130.278 25.8908C130.115 25.9287 129.908 25.9476 129.658 25.9476C129.28 25.9476 128.908 25.8662 128.545 25.7033C128.185 25.5404 127.886 25.2923 127.647 24.959C127.412 24.6257 127.295 24.2052 127.295 23.6976V15.0158Z" fill="#F5F5F7"/>
</svg>
