<svg width="159" height="51" viewBox="0 0 159 51" fill="none" xmlns="http://www.w3.org/2000/svg">
<g filter="url(#filter0_d_2023_3255)">
<rect x="5.25" y="5.25" width="148.5" height="40.5" rx="8.75" stroke="url(#paint0_linear_2023_3255)" stroke-width="1.5" shape-rendering="crispEdges"/>
<path d="M32.9837 23H31.5746C31.4912 22.5947 31.3454 22.2386 31.1371 21.9318C30.9325 21.625 30.6825 21.3674 30.3871 21.1591C30.0954 20.947 29.7715 20.7879 29.4155 20.6818C29.0594 20.5758 28.6882 20.5227 28.3018 20.5227C27.5973 20.5227 26.959 20.7008 26.3871 21.0568C25.8189 21.4129 25.3662 21.9375 25.0291 22.6307C24.6958 23.3239 24.5291 24.1742 24.5291 25.1818C24.5291 26.1894 24.6958 27.0398 25.0291 27.733C25.3662 28.4261 25.8189 28.9508 26.3871 29.3068C26.959 29.6629 27.5973 29.8409 28.3018 29.8409C28.6882 29.8409 29.0594 29.7879 29.4155 29.6818C29.7715 29.5758 30.0954 29.4186 30.3871 29.2102C30.6825 28.9981 30.9325 28.7386 31.1371 28.4318C31.3454 28.1212 31.4912 27.7652 31.5746 27.3636H32.9837C32.8776 27.9583 32.6844 28.4905 32.4041 28.9602C32.1238 29.4299 31.7753 29.8295 31.3587 30.1591C30.942 30.4848 30.4742 30.733 29.9553 30.9034C29.4401 31.0739 28.889 31.1591 28.3018 31.1591C27.3094 31.1591 26.4268 30.9167 25.6541 30.4318C24.8814 29.947 24.2734 29.2576 23.8303 28.3636C23.3871 27.4697 23.1655 26.4091 23.1655 25.1818C23.1655 23.9545 23.3871 22.8939 23.8303 22C24.2734 21.1061 24.8814 20.4167 25.6541 19.9318C26.4268 19.447 27.3094 19.2045 28.3018 19.2045C28.889 19.2045 29.4401 19.2898 29.9553 19.4602C30.4742 19.6307 30.942 19.8807 31.3587 20.2102C31.7753 20.536 32.1238 20.9337 32.4041 21.4034C32.6844 21.8693 32.8776 22.4015 32.9837 23ZM38.6243 31.1818C37.8364 31.1818 37.1451 30.9943 36.5504 30.6193C35.9595 30.2443 35.4974 29.7197 35.1641 29.0455C34.8345 28.3712 34.6697 27.5833 34.6697 26.6818C34.6697 25.7727 34.8345 24.9792 35.1641 24.3011C35.4974 23.6231 35.9595 23.0966 36.5504 22.7216C37.1451 22.3466 37.8364 22.1591 38.6243 22.1591C39.4122 22.1591 40.1016 22.3466 40.6925 22.7216C41.2872 23.0966 41.7493 23.6231 42.0788 24.3011C42.4122 24.9792 42.5788 25.7727 42.5788 26.6818C42.5788 27.5833 42.4122 28.3712 42.0788 29.0455C41.7493 29.7197 41.2872 30.2443 40.6925 30.6193C40.1016 30.9943 39.4122 31.1818 38.6243 31.1818ZM38.6243 29.9773C39.2228 29.9773 39.7152 29.8239 40.1016 29.517C40.4879 29.2102 40.7739 28.8068 40.9595 28.3068C41.1451 27.8068 41.2379 27.2652 41.2379 26.6818C41.2379 26.0985 41.1451 25.5549 40.9595 25.0511C40.7739 24.5473 40.4879 24.1402 40.1016 23.8295C39.7152 23.5189 39.2228 23.3636 38.6243 23.3636C38.0258 23.3636 37.5334 23.5189 37.147 23.8295C36.7607 24.1402 36.4747 24.5473 36.2891 25.0511C36.1035 25.5549 36.0107 26.0985 36.0107 26.6818C36.0107 27.2652 36.1035 27.8068 36.2891 28.3068C36.4747 28.8068 36.7607 29.2102 37.147 29.517C37.5334 29.8239 38.0258 29.9773 38.6243 29.9773ZM45.9666 25.75V31H44.6257V22.2727H45.9212V23.6364H46.0348C46.2393 23.1932 46.55 22.8371 46.9666 22.5682C47.3833 22.2955 47.9212 22.1591 48.5803 22.1591C49.1712 22.1591 49.6882 22.2803 50.1314 22.5227C50.5746 22.7614 50.9193 23.125 51.1655 23.6136C51.4117 24.0985 51.5348 24.7121 51.5348 25.4545V31H50.1939V25.5455C50.1939 24.8598 50.0159 24.3258 49.6598 23.9432C49.3037 23.5568 48.8151 23.3636 48.1939 23.3636C47.7659 23.3636 47.3833 23.4564 47.0462 23.642C46.7128 23.8277 46.4496 24.0985 46.2564 24.4545C46.0632 24.8106 45.9666 25.2424 45.9666 25.75ZM55.326 25.75V31H53.9851V22.2727H55.2805V23.6364H55.3942C55.5987 23.1932 55.9093 22.8371 56.326 22.5682C56.7427 22.2955 57.2805 22.1591 57.9396 22.1591C58.5305 22.1591 59.0476 22.2803 59.4908 22.5227C59.9339 22.7614 60.2786 23.125 60.5249 23.6136C60.7711 24.0985 60.8942 24.7121 60.8942 25.4545V31H59.5533V25.5455C59.5533 24.8598 59.3752 24.3258 59.0192 23.9432C58.6631 23.5568 58.1745 23.3636 57.5533 23.3636C57.1252 23.3636 56.7427 23.4564 56.4055 23.642C56.0722 23.8277 55.8089 24.0985 55.6158 24.4545C55.4226 24.8106 55.326 25.2424 55.326 25.75ZM67.0036 31.1818C66.1626 31.1818 65.4373 30.9962 64.8274 30.625C64.2214 30.25 63.7536 29.7273 63.424 29.0568C63.0982 28.3826 62.9354 27.5985 62.9354 26.7045C62.9354 25.8106 63.0982 25.0227 63.424 24.3409C63.7536 23.6553 64.2119 23.1212 64.799 22.7386C65.3899 22.3523 66.0793 22.1591 66.8672 22.1591C67.3217 22.1591 67.7706 22.2348 68.2138 22.3864C68.657 22.5379 69.0604 22.7841 69.424 23.125C69.7876 23.4621 70.0774 23.9091 70.2933 24.4659C70.5092 25.0227 70.6172 25.7083 70.6172 26.5227V27.0909H63.8899V25.9318H69.2536C69.2536 25.4394 69.1551 25 68.9581 24.6136C68.7649 24.2273 68.4884 23.9223 68.1286 23.6989C67.7725 23.4754 67.352 23.3636 66.8672 23.3636C66.3331 23.3636 65.871 23.4962 65.4808 23.7614C65.0945 24.0227 64.7971 24.3636 64.5888 24.7841C64.3804 25.2045 64.2763 25.6553 64.2763 26.1364V26.9091C64.2763 27.5682 64.3899 28.1269 64.6172 28.5852C64.8482 29.0398 65.1683 29.3864 65.5774 29.625C65.9865 29.8598 66.4619 29.9773 67.0036 29.9773C67.3558 29.9773 67.674 29.928 67.9581 29.8295C68.246 29.7273 68.4941 29.5758 68.7024 29.375C68.9107 29.1705 69.0717 28.9167 69.1854 28.6136L70.4808 28.9773C70.3445 29.4167 70.1153 29.803 69.7933 30.1364C69.4714 30.4659 69.0736 30.7235 68.6001 30.9091C68.1267 31.0909 67.5945 31.1818 67.0036 31.1818ZM76.2024 31.1818C75.3842 31.1818 74.6797 30.9886 74.0888 30.6023C73.4979 30.2159 73.0433 29.6837 72.7251 29.0057C72.407 28.3277 72.2479 27.553 72.2479 26.6818C72.2479 25.7955 72.4107 25.0133 72.7365 24.3352C73.0661 23.6534 73.5244 23.1212 74.1115 22.7386C74.7024 22.3523 75.3918 22.1591 76.1797 22.1591C76.7933 22.1591 77.3464 22.2727 77.8388 22.5C78.3312 22.7273 78.7346 23.0455 79.049 23.4545C79.3634 23.8636 79.5585 24.3409 79.6342 24.8864H78.2933C78.1911 24.4886 77.9638 24.1364 77.6115 23.8295C77.263 23.5189 76.7933 23.3636 76.2024 23.3636C75.6797 23.3636 75.2214 23.5 74.8274 23.7727C74.4373 24.0417 74.1323 24.4223 73.9126 24.9148C73.6967 25.4034 73.5888 25.9773 73.5888 26.6364C73.5888 27.3106 73.6948 27.8977 73.907 28.3977C74.1229 28.8977 74.4259 29.286 74.8161 29.5625C75.21 29.839 75.6721 29.9773 76.2024 29.9773C76.5509 29.9773 76.8672 29.9167 77.1513 29.7955C77.4354 29.6742 77.6759 29.5 77.8729 29.2727C78.0698 29.0455 78.21 28.7727 78.2933 28.4545H79.6342C79.5585 28.9697 79.371 29.4337 79.0717 29.8466C78.7763 30.2557 78.3842 30.5814 77.8956 30.8239C77.4107 31.0625 76.8464 31.1818 76.2024 31.1818ZM85.3899 22.2727V23.4091H80.8672V22.2727H85.3899ZM82.1854 20.1818H83.5263V28.5C83.5263 28.8788 83.5812 29.1629 83.6911 29.3523C83.8047 29.5379 83.9486 29.6629 84.1229 29.7273C84.3009 29.7879 84.4884 29.8182 84.6854 29.8182C84.8331 29.8182 84.9543 29.8106 85.049 29.7955C85.1437 29.7765 85.2195 29.7614 85.2763 29.75L85.549 30.9545C85.4581 30.9886 85.3312 31.0227 85.1683 31.0568C85.0054 31.0947 84.799 31.1136 84.549 31.1136C84.1702 31.1136 83.799 31.0322 83.4354 30.8693C83.0755 30.7064 82.7763 30.4583 82.5376 30.125C82.3028 29.7917 82.1854 29.3712 82.1854 28.8636V20.1818ZM94.2024 31L91.0206 19.3636H92.4524L94.8842 28.8409H94.9979L97.4751 19.3636H99.0661L101.543 28.8409H101.657L104.089 19.3636H105.521L102.339 31H100.884L98.3161 21.7273H98.2251L95.657 31H94.2024ZM108.85 31.2045C108.297 31.2045 107.795 31.1004 107.344 30.892C106.894 30.6799 106.536 30.375 106.271 29.9773C106.005 29.5758 105.873 29.0909 105.873 28.5227C105.873 28.0227 105.971 27.6174 106.168 27.3068C106.365 26.9924 106.629 26.7462 106.958 26.5682C107.288 26.3902 107.651 26.2576 108.049 26.1705C108.451 26.0795 108.854 26.0076 109.259 25.9545C109.79 25.8864 110.219 25.8352 110.549 25.8011C110.882 25.7633 111.125 25.7008 111.276 25.6136C111.432 25.5265 111.509 25.375 111.509 25.1591V25.1136C111.509 24.553 111.356 24.1174 111.049 23.8068C110.746 23.4962 110.286 23.3409 109.668 23.3409C109.028 23.3409 108.526 23.4811 108.163 23.7614C107.799 24.0417 107.543 24.3409 107.396 24.6591L106.123 24.2045C106.35 23.6742 106.653 23.2614 107.032 22.9659C107.415 22.6667 107.831 22.4583 108.282 22.3409C108.737 22.2197 109.183 22.1591 109.623 22.1591C109.903 22.1591 110.225 22.1932 110.589 22.2614C110.956 22.3258 111.31 22.4602 111.651 22.6648C111.996 22.8693 112.282 23.178 112.509 23.5909C112.737 24.0038 112.85 24.5568 112.85 25.25V31H111.509V29.8182H111.441C111.35 30.0076 111.199 30.2102 110.987 30.4261C110.774 30.642 110.492 30.8258 110.14 30.9773C109.788 31.1288 109.358 31.2045 108.85 31.2045ZM109.055 30C109.585 30 110.032 29.8958 110.396 29.6875C110.763 29.4792 111.04 29.2102 111.225 28.8807C111.415 28.5511 111.509 28.2045 111.509 27.8409V26.6136C111.452 26.6818 111.327 26.7443 111.134 26.8011C110.945 26.8542 110.725 26.9015 110.475 26.9432C110.229 26.9811 109.988 27.0152 109.754 27.0455C109.522 27.072 109.335 27.0947 109.191 27.1136C108.843 27.1591 108.517 27.233 108.214 27.3352C107.915 27.4337 107.672 27.5833 107.487 27.7841C107.305 27.9811 107.214 28.25 107.214 28.5909C107.214 29.0568 107.386 29.4091 107.731 29.6477C108.079 29.8826 108.521 30 109.055 30ZM116.638 19.3636V31H115.298V19.3636H116.638ZM120.435 19.3636V31H119.094V19.3636H120.435ZM126.55 31.1818C125.71 31.1818 124.984 30.9962 124.374 30.625C123.768 30.25 123.3 29.7273 122.971 29.0568C122.645 28.3826 122.482 27.5985 122.482 26.7045C122.482 25.8106 122.645 25.0227 122.971 24.3409C123.3 23.6553 123.759 23.1212 124.346 22.7386C124.937 22.3523 125.626 22.1591 126.414 22.1591C126.869 22.1591 127.317 22.2348 127.761 22.3864C128.204 22.5379 128.607 22.7841 128.971 23.125C129.335 23.4621 129.624 23.9091 129.84 24.4659C130.056 25.0227 130.164 25.7083 130.164 26.5227V27.0909H123.437V25.9318H128.8C128.8 25.4394 128.702 25 128.505 24.6136C128.312 24.2273 128.035 23.9223 127.675 23.6989C127.319 23.4754 126.899 23.3636 126.414 23.3636C125.88 23.3636 125.418 23.4962 125.028 23.7614C124.641 24.0227 124.344 24.3636 124.136 24.7841C123.927 25.2045 123.823 25.6553 123.823 26.1364V26.9091C123.823 27.5682 123.937 28.1269 124.164 28.5852C124.395 29.0398 124.715 29.3864 125.124 29.625C125.533 29.8598 126.009 29.9773 126.55 29.9773C126.903 29.9773 127.221 29.928 127.505 29.8295C127.793 29.7273 128.041 29.5758 128.249 29.375C128.458 29.1705 128.619 28.9167 128.732 28.6136L130.028 28.9773C129.891 29.4167 129.662 29.803 129.34 30.1364C129.018 30.4659 128.621 30.7235 128.147 30.9091C127.674 31.0909 127.141 31.1818 126.55 31.1818ZM135.999 22.2727V23.4091H131.477V22.2727H135.999ZM132.795 20.1818H134.136V28.5C134.136 28.8788 134.191 29.1629 134.3 29.3523C134.414 29.5379 134.558 29.6629 134.732 29.7273C134.91 29.7879 135.098 29.8182 135.295 29.8182C135.442 29.8182 135.564 29.8106 135.658 29.7955C135.753 29.7765 135.829 29.7614 135.886 29.75L136.158 30.9545C136.067 30.9886 135.941 31.0227 135.778 31.0568C135.615 31.0947 135.408 31.1136 135.158 31.1136C134.78 31.1136 134.408 31.0322 134.045 30.8693C133.685 30.7064 133.386 30.4583 133.147 30.125C132.912 29.7917 132.795 29.3712 132.795 28.8636V20.1818Z" fill="#F5F5F7"/>
</g>
<defs>
<filter id="filter0_d_2023_3255" x="0.5" y="0.5" width="158" height="50" filterUnits="userSpaceOnUse" color-interpolation-filters="sRGB">
<feFlood flood-opacity="0" result="BackgroundImageFix"/>
<feColorMatrix in="SourceAlpha" type="matrix" values="0 0 0 0 0 0 0 0 0 0 0 0 0 0 0 0 0 0 127 0" result="hardAlpha"/>
<feOffset/>
<feGaussianBlur stdDeviation="2"/>
<feComposite in2="hardAlpha" operator="out"/>
<feColorMatrix type="matrix" values="0 0 0 0 0.937255 0 0 0 0 0.266667 0 0 0 0 0.266667 0 0 0 1 0"/>
<feBlend mode="normal" in2="BackgroundImageFix" result="effect1_dropShadow_2023_3255"/>
<feBlend mode="normal" in="SourceGraphic" in2="effect1_dropShadow_2023_3255" result="shape"/>
</filter>
<linearGradient id="paint0_linear_2023_3255" x1="6" y1="25.5" x2="153" y2="25.5" gradientUnits="userSpaceOnUse">
<stop offset="0.5" stop-color="#0FF0FC"/>
<stop offset="1" stop-color="white"/>
</linearGradient>
</defs>
</svg>
