<svg width="70" height="69" viewBox="0 0 70 69" fill="none" xmlns="http://www.w3.org/2000/svg">
<path d="M32.8125 37.8765V26.939C32.8125 26.3588 33.043 25.8024 33.4532 25.3922C33.8634 24.9819 34.4198 24.7515 35 24.7515C35.5802 24.7515 36.1366 24.9819 36.5468 25.3922C36.957 25.8024 37.1875 26.3588 37.1875 26.939V37.8765C37.1875 38.4566 36.957 39.013 36.5468 39.4233C36.1366 39.8335 35.5802 40.064 35 40.064C34.4198 40.064 33.8634 39.8335 33.4532 39.4233C33.043 39.013 32.8125 38.4566 32.8125 37.8765ZM35 51.0015C35.649 51.0015 36.2834 50.809 36.823 50.4485C37.3626 50.0879 37.7831 49.5755 38.0315 48.9759C38.2798 48.3763 38.3448 47.7166 38.2182 47.0801C38.0916 46.4436 37.7791 45.8589 37.3202 45.4C36.8613 44.9411 36.2766 44.6286 35.6401 44.502C35.0036 44.3754 34.3439 44.4404 33.7443 44.6887C33.1448 44.9371 32.6323 45.3577 32.2717 45.8973C31.9112 46.4369 31.7188 47.0712 31.7188 47.7202C31.7188 48.5905 32.0645 49.4251 32.6798 50.0404C33.2952 50.6558 34.1298 51.0015 35 51.0015ZM61.25 16.0015V31.314C61.25 45.7296 54.2719 54.4659 48.4176 59.2565C42.1121 64.4136 35.8395 66.1663 35.566 66.2374C35.19 66.3397 34.7936 66.3397 34.4176 66.2374C34.1441 66.1663 27.8797 64.4136 21.566 59.2565C15.7281 54.4659 8.75 45.7296 8.75 31.314V16.0015C8.75 14.8411 9.21094 13.7283 10.0314 12.9079C10.8519 12.0874 11.9647 11.6265 13.125 11.6265H56.875C58.0353 11.6265 59.1481 12.0874 59.9686 12.9079C60.7891 13.7283 61.25 14.8411 61.25 16.0015ZM56.875 16.0015H13.125V31.314C13.125 41.5132 16.9039 49.7737 24.3551 55.8714C27.5276 58.466 31.1305 60.4845 35 61.8351C38.9208 60.4605 42.5687 58.4056 45.7762 55.7647C53.1398 49.678 56.875 41.4503 56.875 31.314V16.0015Z" fill="#F5F5F7"/>
</svg>
